<svg xmlns="http://www.w3.org/2000/svg" viewBox="0 0 280 280" fill="none" shape-rendering="auto" aria-hidden="true"><!-- Generated by DiceBear (https://dicebear.com) --><metadata xmlns:rdf="http://www.w3.org/1999/02/22-rdf-syntax-ns#" xmlns:xsi="http://www.w3.org/2001/XMLSchema-instance" xmlns:dc="http://purl.org/dc/elements/1.1/" xmlns:dcterms="http://purl.org/dc/terms/"><rdf:RDF><rdf:Description><dc:title>Avataaars</dc:title><dc:creator>Pablo Stanley</dc:creator><dc:source xsi:type="dcterms:URI">https://avataaars.com/</dc:source><dcterms:license xsi:type="dcterms:URI">https://avataaars.com/</dcterms:license><dc:rights>Remix of “Avataaars” (https://avataaars.com/) by “Pablo Stanley”, licensed under “Free for personal and commercial use” (https://avataaars.com/)</dc:rights></rdf:Description></rdf:RDF></metadata><defs><linearGradient id="skin-color-c90e3809" gradientTransform="rotate(-128, 0.5, 0.5)"><stop offset="0%" stop-color="#005dbc"/><stop offset="100%" stop-color="#5096bc"/></linearGradient><g id="clothes-collarAndSweater-c90e3809"><path d="M68.37 14.45A28 28 0 0 1 76 6.88v15.3C76 28 79.98 33.16 86.08 36.3l-.08.06.9 2.87c3.89 2 8.35 3.13 13.1 3.13s9.21-1.14 13.1-3.13l.9-2.87-.08-.06C120.02 33.16 124 28 124 22.18V7.58a27 27 0 0 1 6.6 6.82A72 72 0 0 1 200 86.36v8.95H0v-8.95a72 72 0 0 1 68.37-71.91" fill="#71994c"/><path d="M76 6.88c-6.77 4.6-11 11.17-11 18.45 0 7.4 4.36 14.06 11.3 18.67l6.12-4.82 4.58.33-1-3.15.08-.06C79.98 33.16 76 28 76 22.18zm48 15.3c0 5.83-3.98 10.98-10.08 14.12l.08.06-1 3.15 4.58-.33 5.65 4.45c6.63-4.6 10.77-11.1 10.77-18.3 0-6.92-3.82-13.19-10-17.74z" fill="white" fill-opacity=".75"/></g><g id="mouth-default-c90e3809"><path fill-rule="evenodd" clip-rule="evenodd" d="M32 9a14 14 0 1 0 28 0" fill="black" fill-opacity=".7"/></g><g id="nose-default-c90e3809"><path fill-rule="evenodd" clip-rule="evenodd" d="M0 0c0 4.42 5.37 8 12 8s12-3.58 12-8" fill="black" fill-opacity=".16"/></g><g id="eyes-happy-c90e3809"><path fill-rule="evenodd" clip-rule="evenodd" d="M2.16 14.45C4.01 10.65 8.16 8 13 8c4.81 0 8.96 2.63 10.82 6.4.55 1.13-.24 2.05-1.03 1.37a15 15 0 0 0-9.8-3.43c-3.73 0-7.12 1.24-9.55 3.23-.9.73-1.82-.01-1.28-1.12m58 0C62.01 10.65 66.16 8 71 8c4.81 0 8.96 2.63 10.82 6.4.55 1.13-.24 2.05-1.03 1.37a15 15 0 0 0-9.8-3.43c-3.76 0-7.15 1.24-9.58 3.23-.9.73-1.82-.01-1.28-1.12" fill="black" fill-opacity=".6"/></g><g id="eyebrows-sadConcernedNatural-c90e3809"><path fill-rule="evenodd" clip-rule="evenodd" d="m23.37 20.42-.91.4c-5.24 2.09-13.2 1.21-18.06-1.12-.56-.27-.18-1.15.4-1.1 14.92 1.14 24.97-8.15 28.38-14.45.1-.18.4-.2.48-.03 2.31 5.32-4.45 13.98-10.3 16.3m49.54 0 .9.4c5.26 2.09 13.2 1.2 18.06-1.12.57-.27.18-1.15-.4-1.1-14.92 1.14-24.96-8.15-28.38-14.45-.1-.18-.4-.2-.48-.03-2.3 5.32 4.45 13.98 10.3 16.3" fill="black" fill-opacity=".6"/></g><g id="top-winterHat1-c90e3809"><path d="M85.67 68H63v112.91a4.1 4.1 0 0 0 4.09 4.1 18.6 18.6 0 0 0 18.58-18.6zM201 68h-22.67v112.91a4.1 4.1 0 0 0 4.09 4.1 18.6 18.6 0 0 0 18.58-18.6z" fill="#F4F4F4"/><path d="M62 64a44 44 0 0 1 44-44h52a44 44 0 0 1 44 44v104.6a16.4 16.4 0 0 1-16.4 16.4 3.6 3.6 0 0 1-3.6-3.6V74H82v94.6A16.4 16.4 0 0 1 65.6 185a3.6 3.6 0 0 1-3.6-3.6z" fill="#ffffff"/><rect x="73" y="52" width="118" height="36" rx="8" fill="black" fill-opacity=".1"/><rect x="73" y="50" width="118" height="36" rx="8" fill="#F4F4F4"/></g><clipPath id="clip-c90e3809"><rect width="280" height="280" rx="103.6" ry="103.6"/></clipPath></defs><g clip-path="url(#clip-c90e3809)"><g transform="translate(50.4, 0)"><path d="M140 36a56 56 0 0 0-56 56v6.17A12 12 0 0 0 74 110v14a12 12 0 0 0 10.3 11.88A56 56 0 0 0 116 180.6V199h-4a72 72 0 0 0-72 72v9h200v-9a72 72 0 0 0-72-72h-4v-18.38a56 56 0 0 0 31.7-44.73A12 12 0 0 0 206 124v-14a12 12 0 0 0-10-11.83V92a56 56 0 0 0-56-56" fill="url(#skin-color-c90e3809)"/><path d="M116 180.61v8a56 56 0 0 0 24 5.39 56 56 0 0 0 24-5.39v-8a56 56 0 0 1-24 5.39 56 56 0 0 1-24-5.39" fill="black" fill-opacity=".1"/><use transform="translate(40 184.7)" href="#clothes-collarAndSweater-c90e3809"/><use transform="translate(94 140)" href="#mouth-default-c90e3809"/><use transform="translate(128 130)" href="#nose-default-c90e3809"/><use transform="translate(98 98)" href="#eyes-happy-c90e3809"/><use transform="translate(91.86 82)" href="#eyebrows-sadConcernedNatural-c90e3809"/><use transform="translate(8)" href="#top-winterHat1-c90e3809"/></g></g></svg>