<svg xmlns="http://www.w3.org/2000/svg" viewBox="0 0 280 280" fill="none" shape-rendering="auto" aria-hidden="true"><!-- Generated by DiceBear (https://dicebear.com) --><metadata xmlns:rdf="http://www.w3.org/1999/02/22-rdf-syntax-ns#" xmlns:xsi="http://www.w3.org/2001/XMLSchema-instance" xmlns:dc="http://purl.org/dc/elements/1.1/" xmlns:dcterms="http://purl.org/dc/terms/"><rdf:RDF><rdf:Description><dc:title>Avataaars</dc:title><dc:creator>Pablo Stanley</dc:creator><dc:source xsi:type="dcterms:URI">https://avataaars.com/</dc:source><dcterms:license xsi:type="dcterms:URI">https://avataaars.com/</dcterms:license><dc:rights>Remix of “Avataaars” (https://avataaars.com/) by “Pablo Stanley”, licensed under “Free for personal and commercial use” (https://avataaars.com/)</dc:rights></rdf:Description></rdf:RDF></metadata><defs><linearGradient id="skin-color-2d4d1c70" gradientTransform="rotate(-128, 0.5, 0.5)"><stop offset="0%" stop-color="#2e91bc"/><stop offset="100%" stop-color="#f49d1f"/></linearGradient><g id="clothesGraphic-pizza-2d4d1c70"><path fill-rule="evenodd" clip-rule="evenodd" d="M65.93 24.4c-4.08 1.37-8.55 3.31-10.9 7.06-1.85 2.95-1.97-.45-4.55.6-2.5 1.02-1.82 5.22-2.73 7.3-.7-1.2-1.05-2.52-1.94-3.6a7 7 0 0 0 1.81-1.73c.16-.32-4.79.35-5.07.43-1.4.4-2.74.77-4.09 1.43a79 79 0 0 0 1.96-3q.31-1.01 1.11 0c.75.04 1.18.36 1.96.18 2.92-.66 3.85-6.22.25-5.98a93 93 0 0 0 4.26-8.8c.5 4.28 6.08 2.8 7.72.52 2.14-3-.6-8.66-4.49-8.11.58-1.38 1.17-2.77 1.65-4.18 1.1 1.6 3 2.39 4.54 3.45a18 18 0 0 1 4.16 4c2.4 3.15 3.8 7 6.22 10.06q-.96.06-1.87.36m9-4.4c-.62-5.78-5.14-11.63-9.43-15.21-2.55-2.12-10.24-7.4-13.3-3.33 2.46 1.06 5.2 1.32 7.64 2.48 3.32 1.57 5.92 4.16 8.17 7.05 3.14 4.05 7.97 12.28.48 14.39.5-.34.8-.71 1.2-1.31-1-.23-.6-1.88-.97-2.95-.4-1.25-1.2-2.47-1.89-3.6a57 57 0 0 0-3.5-5.16A24 24 0 0 0 57.4 7c-.9-.58-1.77-1.1-2.81-1.4-1.35-.4-.91.08-1.28-1.15-.23-.78-.02-1.77-.25-2.6-1.97 1.66-2.6 4.06-3.5 6.39-1.01 2.68-2.12 5.33-3.2 8-2.63 6.53-6.02 12.39-9.88 18.24-.67 1.02-2.17 2.95-1.1 4.17.97 1.1 2.34.3 3.4-.13 1.43-.6 3.38-2.17 4.93-1.35 2 1.05 1.05 4.98 4.2 4.83 3.13-.16 2.54-5.28 3.54-7.32 2.3 1.68 4.18.64 5.58-1.61 1.63-2.61 3.77-3.66 6.5-4.94 1.13-.52 3.05-1.94 4.2-2.12.98-.1 1.9.9 3.2.88 3.1-.11 4.39-4.25 4.02-6.85" fill="white"/><path fill-rule="evenodd" clip-rule="evenodd" d="M53.54 22.83c-2.43-.44-5.8-.07-6.03 3.16-.14 1.97 1.4 3.85 3.08 4.66 5.12 2.5 9.1-6.69 2.95-7.82m9.8-3.67c-.65-.7-1.7-1.24-2.68-1 .31-.2.57-.6.87-.83-3.16-2.29-5.14 3.47-3.35 5.74 2.72 3.44 8.04-.76 5.16-3.91" fill="white"/></g><g id="clothes-graphicShirt-2d4d1c70"><path d="M100.5 39.3c18.5 0 33.5-9.62 33.5-21.5q0-1.64-.38-3.23A72 72 0 0 1 200 86.36v8.95H0v-8.95A72 72 0 0 1 67.4 14.5a14 14 0 0 0-.4 3.3c0 11.88 15 21.5 33.5 21.5" fill="#552246"/><use transform="translate(45 44.3)" href="#clothesGraphic-pizza-2d4d1c70"/></g><g id="mouth-serious-2d4d1c70"><rect x="34" y="12" width="24" height="6" rx="3" fill="black" fill-opacity=".7"/></g><g id="nose-default-2d4d1c70"><path fill-rule="evenodd" clip-rule="evenodd" d="M0 0c0 4.42 5.37 8 12 8s12-3.58 12-8" fill="black" fill-opacity=".16"/></g><g id="eyes-squint-2d4d1c70"><path d="M30 12.73c0 4.26-6.27 7.72-14 7.72S2 17 2 12.73 8.27 5 16 5s14 3.46 14 7.73m52 0c0 4.26-6.27 7.72-14 7.72S54 17 54 12.73 60.27 5 68 5s14 3.46 14 7.73" fill="white"/><path d="M18.82 20.3a25 25 0 0 1-5.64 0 6 6 0 1 1 5.64 0m52 0a25 25 0 0 1-5.64 0 6 6 0 1 1 5.64 0" fill="black" fill-opacity=".7"/></g><g id="eyebrows-upDownNatural-2d4d1c70"><path fill-rule="evenodd" clip-rule="evenodd" d="m14.9 1.58.91-.4C21.06-.9 29-.03 33.86 2.3c.57.27.18 1.15-.4 1.1C18.54 2.27 8.5 11.56 5.08 17.86c-.1.18-.4.2-.48.03C2.3 12.56 9.05 3.9 14.9 1.58m64.23 10.49c5.76.77 14.75 5.8 14 11.6-.03.2-.32.26-.44.1-2.49-3.2-21.7-7.87-28.72-6.9-.64.1-1.06-.57-.62-.98 3.74-3.54 10.62-4.52 15.78-3.82" fill="black" fill-opacity=".6"/></g><g id="top-theCaesarAndSidePart-2d4d1c70"><path d="M77 98c-.33 1.22-1.65 1.49-2 0-.72-10.3 0-62.27 57-63s57.72 52.7 57 63c-.35 1.49-1.67 1.22-2 0 .46-1.55-3.3-28.75-13-36-1.76-1.22-7.25-2.39-14.64-3.26L163 50l-6.98 8.38c-7.03-.7-15.36-1.13-23.7-1.13C113 57.23 93.62 59.48 90 62c-9.7 7.25-13.46 34.45-13 36" fill="#4a312c"/></g><clipPath id="clip-2d4d1c70"><rect width="280" height="280" rx="103.6" ry="103.6"/></clipPath></defs><g clip-path="url(#clip-2d4d1c70)"><g transform="translate(50.4, 0)"><path d="M140 36a56 56 0 0 0-56 56v6.17A12 12 0 0 0 74 110v14a12 12 0 0 0 10.3 11.88A56 56 0 0 0 116 180.6V199h-4a72 72 0 0 0-72 72v9h200v-9a72 72 0 0 0-72-72h-4v-18.38a56 56 0 0 0 31.7-44.73A12 12 0 0 0 206 124v-14a12 12 0 0 0-10-11.83V92a56 56 0 0 0-56-56" fill="url(#skin-color-2d4d1c70)"/><path d="M116 180.61v8a56 56 0 0 0 24 5.39 56 56 0 0 0 24-5.39v-8a56 56 0 0 1-24 5.39 56 56 0 0 1-24-5.39" fill="black" fill-opacity=".1"/><use transform="translate(40 184.7)" href="#clothes-graphicShirt-2d4d1c70"/><use transform="translate(94 140)" href="#mouth-serious-2d4d1c70"/><use transform="translate(128 130)" href="#nose-default-2d4d1c70"/><use transform="translate(98 98)" href="#eyes-squint-2d4d1c70"/><use transform="translate(91.86 82)" href="#eyebrows-upDownNatural-2d4d1c70"/><use transform="translate(8)" href="#top-theCaesarAndSidePart-2d4d1c70"/></g></g></svg>