<svg xmlns="http://www.w3.org/2000/svg" viewBox="0 0 280 280" fill="none" shape-rendering="auto" aria-hidden="true"><!-- Generated by DiceBear (https://dicebear.com) --><metadata xmlns:rdf="http://www.w3.org/1999/02/22-rdf-syntax-ns#" xmlns:xsi="http://www.w3.org/2001/XMLSchema-instance" xmlns:dc="http://purl.org/dc/elements/1.1/" xmlns:dcterms="http://purl.org/dc/terms/"><rdf:RDF><rdf:Description><dc:title>Avataaars</dc:title><dc:creator>Pablo Stanley</dc:creator><dc:source xsi:type="dcterms:URI">https://avataaars.com/</dc:source><dcterms:license xsi:type="dcterms:URI">https://avataaars.com/</dcterms:license><dc:rights>Remix of “Avataaars” (https://avataaars.com/) by “Pablo Stanley”, licensed under “Free for personal and commercial use” (https://avataaars.com/)</dc:rights></rdf:Description></rdf:RDF></metadata><defs><linearGradient id="skin-color-f7d40b65" gradientTransform="rotate(-128, 0.5, 0.5)"><stop offset="0%" stop-color="#3ef477"/><stop offset="100%" stop-color="#0f3a1c"/></linearGradient><g id="clothes-shirtCrewNeck-f7d40b65"><path d="M100.5 37.13c18.5 0 33.5-9.61 33.5-21.48q0-.52-.04-1.05A72 72 0 0 1 200 86.36v8.95H0v-8.95a72 72 0 0 1 67.05-71.83q-.05.55-.05 1.12c0 11.87 15 21.48 33.5 21.48" fill="#12101e"/><path d="M100.5 44.07c21.89 0 39.63-12.05 39.63-26.92q0-.9-.08-1.79-3-.52-6.1-.76.06.52.05 1.05c0 11.87-15 21.48-33.5 21.48S67 27.52 67 15.65q0-.57.05-1.13-3.08.21-6.08.68-.1.97-.1 1.95c0 14.87 17.74 26.92 39.63 26.92" fill="black" fill-opacity=".08"/></g><g id="mouth-eating-f7d40b65"><path d="M20 20.24q2.05.75 4.4.76c5.31 0 9.81-3.15 11.29-7.49 2.47 2.16 6.17 3.53 10.31 3.53s7.84-1.37 10.31-3.53C57.8 17.85 62.3 21 67.61 21q2.34-.01 4.4-.76h-.19c-6.33 0-11.8-4.9-11.8-10.56 0-4.18 2.32-7.72 5.7-9.68-5.5.8-9.74 5-9.9 10.1a17.6 17.6 0 0 1-9.8 2.8 17.5 17.5 0 0 1-9.8-2.8C36 5 31.8.8 26.3 0a11.2 11.2 0 0 1 5.68 9.68c0 5.66-5.47 10.57-11.8 10.57z" fill="black" fill-opacity=".6" opacity=".6"/><path d="M9 18A9 9 0 1 0 9 0a9 9 0 0 0 0 18m74 0a9 9 0 1 0 0-18 9 9 0 0 0 0 18" fill="#FF4646" fill-opacity=".2"/></g><g id="nose-default-f7d40b65"><path fill-rule="evenodd" clip-rule="evenodd" d="M0 0c0 4.42 5.37 8 12 8s12-3.58 12-8" fill="black" fill-opacity=".16"/></g><g id="eyes-happy-f7d40b65"><path fill-rule="evenodd" clip-rule="evenodd" d="M2.16 14.45C4.01 10.65 8.16 8 13 8c4.81 0 8.96 2.63 10.82 6.4.55 1.13-.24 2.05-1.03 1.37a15 15 0 0 0-9.8-3.43c-3.73 0-7.12 1.24-9.55 3.23-.9.73-1.82-.01-1.28-1.12m58 0C62.01 10.65 66.16 8 71 8c4.81 0 8.96 2.63 10.82 6.4.55 1.13-.24 2.05-1.03 1.37a15 15 0 0 0-9.8-3.43c-3.76 0-7.15 1.24-9.58 3.23-.9.73-1.82-.01-1.28-1.12" fill="black" fill-opacity=".6"/></g><g id="eyebrows-frownNatural-f7d40b65"><path fill-rule="evenodd" clip-rule="evenodd" d="M28.5 6.88c-1.96 2.9-5.54 4.64-8.73 5.68-3.94 1.29-18.55 3.38-15.11 11.35.05.12.22.12.27 0 1.15-2.65 17.46-5.12 18.97-5.7 4.45-1.71 8.4-5.5 9.16-10.55.36-2.31-.63-6.05-1.54-7.55-.1-.18-.38-.13-.43.07-.36 1.33-1.4 4.97-2.58 6.7m39.28 0c1.97 2.9 5.54 4.64 8.74 5.68 3.96 1.29 18.57 3.38 15.13 11.35a.15.15 0 0 1-.28 0c-1.15-2.65-17.46-5.12-18.97-5.7-4.44-1.71-8.4-5.5-9.16-10.55-.35-2.31.64-6.05 1.55-7.55.1-.18.37-.13.43.07.35 1.33 1.4 4.97 2.57 6.7" fill="black" fill-opacity=".6"/></g><g id="top-sides-f7d40b65"><path d="M69 97c0 4 .92 5.07 6 5 3.25-.05 3.44-6 3.65-12.59.14-4.37.29-9.03 1.35-12.41.62-4.43-1.82-3.17-3-1-3.96 4.78-8 15.34-8 21m126 0c0 4-.92 5.07-6 5-3.25-.05-3.44-6-3.65-12.59-.14-4.37-.29-9.03-1.35-12.41-.62-4.43 1.82-3.17 3-1 3.96 4.78 8 15.34 8 21" fill="#b4da5f"/></g><clipPath id="clip-f7d40b65"><rect width="280" height="280" rx="103.6" ry="103.6"/></clipPath></defs><g clip-path="url(#clip-f7d40b65)"><g transform="translate(50.4, 0)"><path d="M140 36a56 56 0 0 0-56 56v6.17A12 12 0 0 0 74 110v14a12 12 0 0 0 10.3 11.88A56 56 0 0 0 116 180.6V199h-4a72 72 0 0 0-72 72v9h200v-9a72 72 0 0 0-72-72h-4v-18.38a56 56 0 0 0 31.7-44.73A12 12 0 0 0 206 124v-14a12 12 0 0 0-10-11.83V92a56 56 0 0 0-56-56" fill="url(#skin-color-f7d40b65)"/><path d="M116 180.61v8a56 56 0 0 0 24 5.39 56 56 0 0 0 24-5.39v-8a56 56 0 0 1-24 5.39 56 56 0 0 1-24-5.39" fill="black" fill-opacity=".1"/><use transform="translate(40 184.7)" href="#clothes-shirtCrewNeck-f7d40b65"/><use transform="translate(94 140)" href="#mouth-eating-f7d40b65"/><use transform="translate(128 130)" href="#nose-default-f7d40b65"/><use transform="translate(98 98)" href="#eyes-happy-f7d40b65"/><use transform="translate(91.86 82)" href="#eyebrows-frownNatural-f7d40b65"/><use transform="translate(8)" href="#top-sides-f7d40b65"/></g></g></svg>