<svg xmlns="http://www.w3.org/2000/svg" viewBox="0 0 280 280" fill="none" shape-rendering="auto" aria-hidden="true"><!-- Generated by DiceBear (https://dicebear.com) --><metadata xmlns:rdf="http://www.w3.org/1999/02/22-rdf-syntax-ns#" xmlns:xsi="http://www.w3.org/2001/XMLSchema-instance" xmlns:dc="http://purl.org/dc/elements/1.1/" xmlns:dcterms="http://purl.org/dc/terms/"><rdf:RDF><rdf:Description><dc:title>Avataaars</dc:title><dc:creator>Pablo Stanley</dc:creator><dc:source xsi:type="dcterms:URI">https://avataaars.com/</dc:source><dcterms:license xsi:type="dcterms:URI">https://avataaars.com/</dcterms:license><dc:rights>Remix of “Avataaars” (https://avataaars.com/) by “Pablo Stanley”, licensed under “Free for personal and commercial use” (https://avataaars.com/)</dc:rights></rdf:Description></rdf:RDF></metadata><defs><linearGradient id="skin-color-a01bfe78" gradientTransform="rotate(-128, 0.5, 0.5)"><stop offset="0%" stop-color="#fd9841"/><stop offset="100%" stop-color="#005dbc"/></linearGradient><g id="clothesGraphic-resist-a01bfe78"><path fill-rule="evenodd" clip-rule="evenodd" d="M105.57 29.07c-3.09-.66-5.2 3.54-1.92 4.79 2.82 1.07 4.85-4.15 1.9-4.79M104.21 26c3.65 0 2.3-5.98 2.31-7.97.02-2.13 1.55-8.6-.89-9.73-4.21-1.97-3.06 6.33-3.03 7.97.03 1.82.16 3.72-.23 5.5-.35 1.59-1.13 4.23 1.83 4.23M99.06 9.97c-1.08-.62-2.8-.32-3.99-.37-1.35-.06-2.69-.2-4.03-.3-2.18-.15-4.96-.56-7.12-.06-1.23.28-2.34 1.22-1.76 2.6.62 1.5 2.3 1.1 3.58 1.04.58-.04 2.03-.3 2.6-.1 1 .36.58-.1.8 1.08.35 1.8.14 4 .13 5.83q-.03 4.78-.1 9.54c-.03 1.23-.45 2.63.75 3.45 1 .68 2.22.22 2.74-.8.5-1 .02-3.06-.03-4.2-.07-1.34-.14-2.67-.1-4.02.1-3.58.28-7.16.37-10.75.94.05 1.92.02 2.85.15.69.1 1.67.53 2.33.5 1.9-.1 2.69-2.59.98-3.59m-28.34 6.84c-.08-.64-.01-.05 0 0m-.03-.27q0 .01 0 0m1.43-3.1c3.4-3.99 4.58 4.33 7.24 4 4.26-.58-.94-6.97-2.67-7.79-3.51-1.68-6.6.08-8.27 3.26-2.1 4-.77 6.7 3.26 8.45 1.47.63 7.03 2.52 5.53 4.96-.76 1.22-3.53 1.32-4.7 1.08-2.3-.48-1.91-2.08-3.1-3.57-1-1.34-3-.95-3.3.78-.25 1.36 1.17 3.42 2.1 4.38 2.25 2.26 6.05 2.44 8.9 1.4 4.39-1.57 4.92-5.7 1.8-8.9-1.74-1.87-3.93-2.4-6.1-3.49-2.65-1.29-2.16-2.39-.6-4.64m-10.45 15.2c-.56-4.83-.7-9.72-.78-14.57-.03-1.52.7-5.2-1.45-5.83-2.92-.9-2.53 2.7-2.47 4.16.2 4.92.84 9.8 1.07 14.7.07 1.57-.43 4.58 1.83 4.96 2.75.43 2-2.12 1.8-3.4m-9.28-15.9a6.74 6.74 0 0 0-10.1-.75c-2.06 2.06-3.37 6.92-1.4 9.4 2.12 2.7 7.35.34 8.72 3.4 1.68 3.73-2.73 5.14-5.07 2.65-.85-.9-.66-2.45-1.9-3-1.77-.8-2.87.92-2.52 2.35.85 3.5 4.65 5.4 8.1 5.27 3.77-.12 5.4-2.97 5.16-6.4-.33-4.73-3.98-5.47-8-6-1.7-.2-1.9-.2-1.8-1.94.13-2.12 1.37-4.57 4-4.07 2.1.4 2.3 3.57 4.44 3.72 3.5.24 1.26-3.43.37-4.62M34.72 28.46c-1.34.32-2.96.1-4.33.07-1.05-.02-4.57.43-5.26-.3-.76-.8-.5-3.24-.54-4.28-.05-1.45-.4-1.67.87-2 .75-.2 1.9-.1 2.68-.13 1.52-.07 3.47.2 4.93-.09 1.37-.28 2.5-1.75 1.25-3-.88-.9-2.54-.42-3.63-.4-2.03.06-4.07.05-6.1.08 0-1.56-.1-3.13 0-4.69 2.84.11 5.8.83 8.66.71 1.44-.08 3.04-1 2.3-2.74-.62-1.5-2.52-1.3-3.84-1.35q-2.5-.1-4.97-.17c-1.23-.04-3-.44-4.17.1-2.37 1.14-1.56 5.02-1.49 7.12.08 2.67.08 5.27.17 7.96.1 2.43-.04 5.64 2.85 6.32s6.24.03 9.2.18c1.2.05 2.85.4 3.44-1 .57-1.35-.73-2.77-2.14-2.42M11.4 13.91c2.33.5 2.95 3.01 3.03 5.15.05 1.46.18 1.37-1 1.74-1.2.37-2.92.17-4.14.12-2.54-.11-2.24-.28-2.29-2.95 0-.62-.47-3.5-.1-3.91.47-.53 3.83-.2 4.5-.15m5.09 14.84a52 52 0 0 0-4.13-4.29c2.17-.06 4.5-.47 5.28-2.82.65-1.98.09-5-.67-6.87a7 7 0 0 0-5.62-4.48c-1.8-.25-6.28-.67-7.62.7-1.46 1.52-.45 5.66-.36 7.5.16 3.28.05 6.53-.15 9.8-.07 1.05-.6 2.78-.05 3.73a1.98 1.98 0 0 0 2.96.49c1-.84.53-1.87.47-2.95-.1-1.68.09-3.4.19-5.08 1.6 1.3 3.25 2.59 4.76 4.02 1.49 1.4 2.56 3.2 3.99 4.62 1 1 2.82 1.43 3.33-.45.44-1.6-1.57-2.95-2.45-3.97" fill="white"/></g><g id="clothes-graphicShirt-a01bfe78"><path d="M100.5 39.3c18.5 0 33.5-9.62 33.5-21.5q0-1.64-.38-3.23A72 72 0 0 1 200 86.36v8.95H0v-8.95A72 72 0 0 1 67.4 14.5a14 14 0 0 0-.4 3.3c0 11.88 15 21.5 33.5 21.5" fill="#5199e4"/><use transform="translate(45 44.3)" href="#clothesGraphic-resist-a01bfe78"/></g><g id="mouth-smile-a01bfe78"><path fill-rule="evenodd" clip-rule="evenodd" d="M27.12 9.13a19 19 0 0 0 37.77-.09c.08-.77-.77-2.04-1.85-2.04H29.1C28 7 27 8.18 27.12 9.13" fill="black" fill-opacity=".7"/><path d="M62 7H31a5 5 0 0 0 5 5h21a5 5 0 0 0 5-5" fill="white"/><path d="M58.7 21.14A11 11 0 0 0 46 19.2a10.95 10.95 0 0 0-12.7 1.94A19 19 0 0 0 46 26c4.88 0 9.33-1.84 12.7-4.86" fill="#FF4F6D"/></g><g id="nose-default-a01bfe78"><path fill-rule="evenodd" clip-rule="evenodd" d="M0 0c0 4.42 5.37 8 12 8s12-3.58 12-8" fill="black" fill-opacity=".16"/></g><g id="eyes-winkWacky-a01bfe78"><circle cx="68" cy="14" r="12" fill="white"/><circle cx="68" cy="14" r="6" fill="black" fill-opacity=".7"/><path fill-rule="evenodd" clip-rule="evenodd" d="M2.16 17.45C4.01 13.65 8.16 11 13 11c4.81 0 8.96 2.63 10.82 6.4.55 1.13-.24 2.05-1.03 1.37a15 15 0 0 0-9.8-3.43c-3.73 0-7.12 1.24-9.55 3.23-.9.73-1.82-.01-1.28-1.12" fill="black" fill-opacity=".6"/></g><g id="eyebrows-default-a01bfe78"><path d="M7.77 17.16c3.91-5.51 14.64-8.6 23.89-6.33a2 2 0 0 0 .95-3.88c-10.73-2.64-23.16.94-28.1 7.9a2 2 0 0 0 3.3 2.3m80.73.01c-3.9-5.5-14.64-8.6-23.9-6.33a2 2 0 0 1-.94-3.88c10.74-2.64 23.17.94 28.1 7.9a2 2 0 0 1-3.25 2.3" fill="black" fill-opacity=".6"/></g><g id="top-bob-a01bfe78"><path d="M39 145c-.62-30.84 28.32-95.2 39-108 7.92-9.5 29.7-17.45 54-17s46.86 5.81 55 16c12.32 15.43 37.87 74.08 38 109 .1 24.8-9.54 49.66-23 51-7.6.76-17.26-.23-28.86-1.4-5.3-.55-11.02-1.13-17.14-1.6v-12.4a56 56 0 0 0 32-50.6v-28.44a130 130 0 0 1-26.9-19.88c3.35 6.24 7.19 11.9 11.51 16.2-30.54-8.59-51.7-26.16-64.35-39.94C102.4 69.02 91.97 85.24 76 97.57V130a56 56 0 0 0 32 50.61v13.14c-6.94.95-13.4 2.16-19.35 3.27-10.85 2.02-19.98 3.73-27.26 2.98-14.22-1.47-21.88-30.2-22.38-55" fill="#bf3090"/></g><clipPath id="clip-a01bfe78"><rect width="280" height="280" rx="103.6" ry="103.6"/></clipPath></defs><g clip-path="url(#clip-a01bfe78)"><g transform="translate(50.4, 0)"><path d="M140 36a56 56 0 0 0-56 56v6.17A12 12 0 0 0 74 110v14a12 12 0 0 0 10.3 11.88A56 56 0 0 0 116 180.6V199h-4a72 72 0 0 0-72 72v9h200v-9a72 72 0 0 0-72-72h-4v-18.38a56 56 0 0 0 31.7-44.73A12 12 0 0 0 206 124v-14a12 12 0 0 0-10-11.83V92a56 56 0 0 0-56-56" fill="url(#skin-color-a01bfe78)"/><path d="M116 180.61v8a56 56 0 0 0 24 5.39 56 56 0 0 0 24-5.39v-8a56 56 0 0 1-24 5.39 56 56 0 0 1-24-5.39" fill="black" fill-opacity=".1"/><use transform="translate(40 184.7)" href="#clothes-graphicShirt-a01bfe78"/><use transform="translate(94 140)" href="#mouth-smile-a01bfe78"/><use transform="translate(128 130)" href="#nose-default-a01bfe78"/><use transform="translate(98 98)" href="#eyes-winkWacky-a01bfe78"/><use transform="translate(91.86 82)" href="#eyebrows-default-a01bfe78"/><use transform="translate(8)" href="#top-bob-a01bfe78"/></g></g></svg>