<svg xmlns="http://www.w3.org/2000/svg" viewBox="0 0 280 280" fill="none" shape-rendering="auto" aria-hidden="true"><!-- Generated by DiceBear (https://dicebear.com) --><metadata xmlns:rdf="http://www.w3.org/1999/02/22-rdf-syntax-ns#" xmlns:xsi="http://www.w3.org/2001/XMLSchema-instance" xmlns:dc="http://purl.org/dc/elements/1.1/" xmlns:dcterms="http://purl.org/dc/terms/"><rdf:RDF><rdf:Description><dc:title>Avataaars</dc:title><dc:creator>Pablo Stanley</dc:creator><dc:source xsi:type="dcterms:URI">https://avataaars.com/</dc:source><dcterms:license xsi:type="dcterms:URI">https://avataaars.com/</dcterms:license><dc:rights>Remix of “Avataaars” (https://avataaars.com/) by “Pablo Stanley”, licensed under “Free for personal and commercial use” (https://avataaars.com/)</dc:rights></rdf:Description></rdf:RDF></metadata><defs><linearGradient id="skin-color-5f26d33f" gradientTransform="rotate(-128, 0.5, 0.5)"><stop offset="0%" stop-color="#eaf4d2"/><stop offset="100%" stop-color="#005dbc"/></linearGradient><g id="clothes-collarAndSweater-5f26d33f"><path d="M68.37 14.45A28 28 0 0 1 76 6.88v15.3C76 28 79.98 33.16 86.08 36.3l-.08.06.9 2.87c3.89 2 8.35 3.13 13.1 3.13s9.21-1.14 13.1-3.13l.9-2.87-.08-.06C120.02 33.16 124 28 124 22.18V7.58a27 27 0 0 1 6.6 6.82A72 72 0 0 1 200 86.36v8.95H0v-8.95a72 72 0 0 1 68.37-71.91" fill="#e1fe88"/><path d="M76 6.88c-6.77 4.6-11 11.17-11 18.45 0 7.4 4.36 14.06 11.3 18.67l6.12-4.82 4.58.33-1-3.15.08-.06C79.98 33.16 76 28 76 22.18zm48 15.3c0 5.83-3.98 10.98-10.08 14.12l.08.06-1 3.15 4.58-.33 5.65 4.45c6.63-4.6 10.77-11.1 10.77-18.3 0-6.92-3.82-13.19-10-17.74z" fill="white" fill-opacity=".75"/></g><g id="mouth-vomit-5f26d33f"><path fill-rule="evenodd" clip-rule="evenodd" d="M26 24.4C27.14 13.9 30.24 5 46 5s18.92 8.96 20 19.5c.08.84-.83 1.5-1.96 1.5-6.69 0-9.37-1.5-18.05-1.5-8.7 0-13.25 1.5-17.9 1.5-1.16 0-2.2-.55-2.1-1.6" fill="black" fill-opacity=".7"/><path d="M59.86 9.1c-.8.57-1.8.9-2.86.9H36c-1.3 0-2.49-.5-3.38-1.31C35.56 6.39 39.8 5 46 5c6.54 0 10.9 1.54 13.86 4.1" fill="white"/><path d="M34 19a6 6 0 0 0-6 6v7a6 6 0 0 0 12 0v-2h.08a6 6 0 0 1 11.84 0H52a6 6 0 0 0 12 0v-5a6 6 0 0 0-6-6z" fill="#7BB24B"/><path d="M64 25a6 6 0 0 0-6-6H34a6 6 0 0 0-6 6v6a6 6 0 0 0 12 0v-2h.08a6 6 0 0 1 11.84 0H52a6 6 0 0 0 12 0z" fill="#88C553"/></g><g id="nose-default-5f26d33f"><path fill-rule="evenodd" clip-rule="evenodd" d="M0 0c0 4.42 5.37 8 12 8s12-3.58 12-8" fill="black" fill-opacity=".16"/></g><g id="eyes-squint-5f26d33f"><path d="M30 12.73c0 4.26-6.27 7.72-14 7.72S2 17 2 12.73 8.27 5 16 5s14 3.46 14 7.73m52 0c0 4.26-6.27 7.72-14 7.72S54 17 54 12.73 60.27 5 68 5s14 3.46 14 7.73" fill="white"/><path d="M18.82 20.3a25 25 0 0 1-5.64 0 6 6 0 1 1 5.64 0m52 0a25 25 0 0 1-5.64 0 6 6 0 1 1 5.64 0" fill="black" fill-opacity=".7"/></g><g id="eyebrows-upDownNatural-5f26d33f"><path fill-rule="evenodd" clip-rule="evenodd" d="m14.9 1.58.91-.4C21.06-.9 29-.03 33.86 2.3c.57.27.18 1.15-.4 1.1C18.54 2.27 8.5 11.56 5.08 17.86c-.1.18-.4.2-.48.03C2.3 12.56 9.05 3.9 14.9 1.58m64.23 10.49c5.76.77 14.75 5.8 14 11.6-.03.2-.32.26-.44.1-2.49-3.2-21.7-7.87-28.72-6.9-.64.1-1.06-.57-.62-.98 3.74-3.54 10.62-4.52 15.78-3.82" fill="black" fill-opacity=".6"/></g><g id="top-bun-5f26d33f"><path d="M150.12 28.28c3.06-2.97 4.88-6.71 4.88-10.78C155 7.84 144.7 0 132 0s-23 7.84-23 17.5c0 4.1 1.85 7.86 4.94 10.84q-1.48.33-2.9.69c-15.1 3.8-24.02 14.62-31.68 30.62a68 68 0 0 0-6.34 25.83 34 34 0 0 0 1.25 10.22c.33 1.2 2.15 5.39 2.65 2 .1-.66-.07-1.47-.24-2.27q-.2-.84-.26-1.6c-.08-1.56 0-3.15.1-4.72q.29-4.4 1.66-8.59c1.33-3.98 3.02-8.3 5.6-11.67.97-1.25 1.88-2.7 2.88-4.27 5.63-8.9 13.68-21.6 45.34-22.9 34.3-1.42 46.78 21.66 51.2 29.87q.58 1.06.98 1.75c2.67 4.53 2.78 9.75 2.9 14.91.05 2.71.1 5.41.54 8 .47 2.84 1.54 2.78 2.13.23 1-4.33 1.47-8.83 1.15-13.28-.72-10.05-4.4-36.45-24.6-48.15a66 66 0 0 0-16.18-6.73" fill="#d6b370"/></g><clipPath id="clip-5f26d33f"><rect width="280" height="280" rx="103.6" ry="103.6"/></clipPath></defs><g clip-path="url(#clip-5f26d33f)"><g transform="translate(50.4, 0)"><path d="M140 36a56 56 0 0 0-56 56v6.17A12 12 0 0 0 74 110v14a12 12 0 0 0 10.3 11.88A56 56 0 0 0 116 180.6V199h-4a72 72 0 0 0-72 72v9h200v-9a72 72 0 0 0-72-72h-4v-18.38a56 56 0 0 0 31.7-44.73A12 12 0 0 0 206 124v-14a12 12 0 0 0-10-11.83V92a56 56 0 0 0-56-56" fill="url(#skin-color-5f26d33f)"/><path d="M116 180.61v8a56 56 0 0 0 24 5.39 56 56 0 0 0 24-5.39v-8a56 56 0 0 1-24 5.39 56 56 0 0 1-24-5.39" fill="black" fill-opacity=".1"/><use transform="translate(40 184.7)" href="#clothes-collarAndSweater-5f26d33f"/><use transform="translate(94 140)" href="#mouth-vomit-5f26d33f"/><use transform="translate(128 130)" href="#nose-default-5f26d33f"/><use transform="translate(98 98)" href="#eyes-squint-5f26d33f"/><use transform="translate(91.86 82)" href="#eyebrows-upDownNatural-5f26d33f"/><use transform="translate(8)" href="#top-bun-5f26d33f"/></g></g></svg>