<svg xmlns="http://www.w3.org/2000/svg" viewBox="0 0 280 280" fill="none" shape-rendering="auto" aria-hidden="true"><!-- Generated by DiceBear (https://dicebear.com) --><metadata xmlns:rdf="http://www.w3.org/1999/02/22-rdf-syntax-ns#" xmlns:xsi="http://www.w3.org/2001/XMLSchema-instance" xmlns:dc="http://purl.org/dc/elements/1.1/" xmlns:dcterms="http://purl.org/dc/terms/"><rdf:RDF><rdf:Description><dc:title>Avataaars</dc:title><dc:creator>Pablo Stanley</dc:creator><dc:source xsi:type="dcterms:URI">https://avataaars.com/</dc:source><dcterms:license xsi:type="dcterms:URI">https://avataaars.com/</dcterms:license><dc:rights>Remix of “Avataaars” (https://avataaars.com/) by “Pablo Stanley”, licensed under “Free for personal and commercial use” (https://avataaars.com/)</dc:rights></rdf:Description></rdf:RDF></metadata><defs><linearGradient id="skin-color-5e0c66eb" gradientTransform="rotate(-128, 0.5, 0.5)"><stop offset="0%" stop-color="#ae5d29"/><stop offset="100%" stop-color="#b6e3f4"/></linearGradient><g id="clothes-blazerAndShirt-5e0c66eb"><path d="M100.5 37.13c18.5 0 33.5-9.61 33.5-21.48q0-.52-.04-1.05A72 72 0 0 1 200 86.36v8.95H0v-8.95a72 72 0 0 1 67.05-71.83q-.05.55-.05 1.12c0 11.87 15 21.48 33.5 21.48" fill="#E6E6E6"/><path d="M100.5 44.07c21.89 0 39.63-12.05 39.63-26.92q0-.9-.08-1.79-3-.51-6.1-.76.06.52.05 1.05c0 11.87-15 21.48-33.5 21.48S67 27.52 67 15.65q0-.57.05-1.12-3.08.2-6.08.67-.1.97-.1 1.95c0 14.87 17.74 26.92 39.63 26.92" fill="black" fill-opacity=".16"/><path d="M68.78 14.43 69 13.3c-2.96.06-6 1-6 1l-.42.67A72 72 0 0 0 0 86.36v8.95h74s-10.7-51.56-5.24-80.8zM126 95.3s11-53 5-82c2.96.06 6 1 6 1l.42.67A72 72 0 0 1 200 86.36v8.95z" fill="#3afe85"/><path fill-rule="evenodd" clip-rule="evenodd" d="M69 13.3c-6 29 5 82 5 82H58l-14-36 6-9-6-6 19-30s3.04-.94 6-1m62 0c6 29-5 82-5 82h16l14-36-6-9 6-6-19-30s-3.04-.94-6-1" fill="black" fill-opacity=".15"/><path d="m151.42 71.07.87-2.24 6.27-4.7a4 4 0 0 1 4.85.05l6.6 5.13z" fill="#E6E6E6"/></g><g id="mouth-serious-5e0c66eb"><rect x="34" y="12" width="24" height="6" rx="3" fill="black" fill-opacity=".7"/></g><g id="nose-default-5e0c66eb"><path fill-rule="evenodd" clip-rule="evenodd" d="M0 0c0 4.42 5.37 8 12 8s12-3.58 12-8" fill="black" fill-opacity=".16"/></g><g id="eyes-winkWacky-5e0c66eb"><circle cx="68" cy="14" r="12" fill="white"/><circle cx="68" cy="14" r="6" fill="black" fill-opacity=".7"/><path fill-rule="evenodd" clip-rule="evenodd" d="M2.16 17.45C4.01 13.65 8.16 11 13 11c4.81 0 8.96 2.63 10.82 6.4.55 1.13-.24 2.05-1.03 1.37a15 15 0 0 0-9.8-3.43c-3.73 0-7.12 1.24-9.55 3.23-.9.73-1.82-.01-1.28-1.12" fill="black" fill-opacity=".6"/></g><g id="eyebrows-unibrowNatural-5e0c66eb"><path fill-rule="evenodd" clip-rule="evenodd" d="M88.26 7.6c1.46.56 9.19 6.43 7.86 9.16a.8.8 0 0 1-1.29.22 11 11 0 0 0-1.7-1.2c-5.11-2.83-11.3-1.92-16.74-.9-6.12 1.14-12.1 3.48-18.38 2.67-2.04-.26-6.08-1.22-7.63-2.96-.47-.53-.06-1.38.64-1.43 1.44-.11 2.86-.86 4.33-1.28 3.65-1.03 7.4-1.56 11.11-2.3 6.62-1.3 15.17-4.52 21.8-2" fill="#DADADA"/><path fill-rule="evenodd" clip-rule="evenodd" d="M50.9 12.76c-1.17.04-2.8 3.56-.56 3.68 2.23.11 1.73-3.72.56-3.68m-3.76.04q0-.01 0 0M8.02 7.56c-1.47.56-9.2 6.43-7.87 9.16.24.5.9.6 1.3.22.54-.52 1.57-1.11 1.7-1.18 5.1-2.84 11.3-1.93 16.73-.91 6.12 1.15 12.1 3.49 18.4 2.68 2.03-.26 6.07-1.22 7.6-2.96.48-.53.08-1.38-.62-1.43-1.44-.11-2.86-.86-4.33-1.28-3.65-1.03-7.4-1.56-11.12-2.3-6.62-1.3-15.17-4.52-21.8-2" fill="#DADADA"/><path fill-rule="evenodd" clip-rule="evenodd" d="M47.1 11.79c1.18.04 2.77 4.5.54 4.67-2.24.18-1.7-4.71-.53-4.67" fill="#DADADA"/></g><g id="top-curly-5e0c66eb"><path d="M66 105.02c11.38-.72 24.68-14.4 31.98-33.94A179 179 0 0 0 131 74c12.55 0 24.31-1.16 34.45-3.2 7.38 19.96 21.01 33.87 32.55 34.24V88a66 66 0 0 0-38-59.78A184 184 0 0 0 131 26c-9.2 0-17.99.63-26.01 1.76A66 66 0 0 0 66 88z" fill="black" fill-opacity=".16"/><path d="M72 192a48 48 0 0 0 13.6-1.95 72 72 0 0 0 13.68 9.1A73 73 0 0 1 104 199h4v-18.39a56 56 0 0 1-31.8-45.74A12 12 0 0 1 66 123v-13a12 12 0 0 1 10-11.83v-.75c8.46-5.38 16.75-16.36 21.98-30.34A179 179 0 0 0 131 70c12.55 0 24.31-1.16 34.45-3.2 5.31 14.37 13.87 25.6 22.55 30.9v.46q.66.1 1.29.29a24 24 0 0 0 3.23 1.47A12 12 0 0 1 198 110v13a12 12 0 0 1-10.2 11.87A56 56 0 0 1 156 180.6V199h4q2.38 0 4.72.15a72 72 0 0 0 13.69-9.1 48 48 0 0 0 45.19-82.18 44 44 0 0 0-28.37-69.28A44.02 44.02 0 0 0 132 15.9a44.02 44.02 0 0 0-63.23 22.7 44 44 0 0 0-28.37 69.27A48 48 0 0 0 72 192" fill="#256249"/></g><g id="facialHair-moustacheFancy-5e0c66eb"><path d="M60 43.3c6.8-3.59 16.42-4.15 21.61-2.17a32 32 0 0 1 4.84 2.55c4.13 2.47 8.55 5.12 14.91 3.15.37-.12.73.2.62.58-1.37 4.5-9 7.6-11.6 7.7-6.2.24-11.75-2.26-17.13-4.7-4.44-2-8.77-3.95-13.25-4.25-4.48.3-8.8 2.26-13.25 4.26-5.38 2.43-10.92 4.93-17.13 4.69-2.6-.1-10.23-3.2-11.6-7.7-.1-.37.25-.7.62-.58 6.36 1.97 10.78-.68 14.9-3.15a32 32 0 0 1 4.85-2.55c5.2-1.98 14.82-1.42 21.6 2.17" fill="#724133"/></g><g id="accessories-eyepatch-5e0c66eb"><path fill-rule="evenodd" clip-rule="evenodd" d="M88.63.78c-3.08-3.09-6.28 3.86-7.77 5.65-3.61 4.32-7.09 8.75-10.76 13.02-7.25 8.43-14.43 16.92-21.63 25.4-1.1 1.28-.96 1.4-2.4 1.54-.95.08-2.27-.4-3.26-.46a29 29 0 0 0-8.14.9c-5.35 1.17-11.01 3.1-15.65 6.07-1.22.78-2 1.7-3.32 1.94-1.15.2-2.67-.21-3.84-.32-2.09-.2-5.09-1.05-7.13-.6-2.6.55-3.58 3.7-.94 5.08 2 1.06 6 .48 8.21.64 2.57.2 1.8.06 1.42 2.52-.52 3.54.35 7.49 1.84 10.72 3.46 7.5 13.04 15.46 21.77 14.72 7.28-.6 13.67-7.19 16.66-13.5a31 31 0 0 0 2.74-10.47c.2-2.27.1-4.67-.56-6.87a17 17 0 0 0-1.38-3.2c-.44-.8-2.4-2.64-2.52-3.44-.23-1.56 4.19-5.73 5.03-6.78q6-7.34 11.92-14.74 5.82-7.33 11.77-14.52C82.5 11.9 91.54 3.7 88.6.78" fill="#ffffff"/></g><clipPath id="clip-5e0c66eb"><rect width="280" height="280" rx="103.6" ry="103.6"/></clipPath></defs><g clip-path="url(#clip-5e0c66eb)"><g transform="translate(50.4, 0)"><path d="M140 36a56 56 0 0 0-56 56v6.17A12 12 0 0 0 74 110v14a12 12 0 0 0 10.3 11.88A56 56 0 0 0 116 180.6V199h-4a72 72 0 0 0-72 72v9h200v-9a72 72 0 0 0-72-72h-4v-18.38a56 56 0 0 0 31.7-44.73A12 12 0 0 0 206 124v-14a12 12 0 0 0-10-11.83V92a56 56 0 0 0-56-56" fill="url(#skin-color-5e0c66eb)"/><path d="M116 180.61v8a56 56 0 0 0 24 5.39 56 56 0 0 0 24-5.39v-8a56 56 0 0 1-24 5.39 56 56 0 0 1-24-5.39" fill="black" fill-opacity=".1"/><use transform="translate(40 184.7)" href="#clothes-blazerAndShirt-5e0c66eb"/><use transform="translate(94 140)" href="#mouth-serious-5e0c66eb"/><use transform="translate(128 130)" href="#nose-default-5e0c66eb"/><use transform="translate(98 98)" href="#eyes-winkWacky-5e0c66eb"/><use transform="translate(91.86 82)" href="#eyebrows-unibrowNatural-5e0c66eb"/><use transform="translate(8)" href="#top-curly-5e0c66eb"/><use transform="translate(81 98)" href="#facialHair-moustacheFancy-5e0c66eb"/><use transform="translate(75.77 46)" href="#accessories-eyepatch-5e0c66eb"/></g></g></svg>