<svg xmlns="http://www.w3.org/2000/svg" viewBox="0 0 280 280" fill="none" shape-rendering="auto" aria-hidden="true"><!-- Generated by DiceBear (https://dicebear.com) --><metadata xmlns:rdf="http://www.w3.org/1999/02/22-rdf-syntax-ns#" xmlns:xsi="http://www.w3.org/2001/XMLSchema-instance" xmlns:dc="http://purl.org/dc/elements/1.1/" xmlns:dcterms="http://purl.org/dc/terms/"><rdf:RDF><rdf:Description><dc:title>Avataaars</dc:title><dc:creator>Pablo Stanley</dc:creator><dc:source xsi:type="dcterms:URI">https://avataaars.com/</dc:source><dcterms:license xsi:type="dcterms:URI">https://avataaars.com/</dcterms:license><dc:rights>Remix of “Avataaars” (https://avataaars.com/) by “Pablo Stanley”, licensed under “Free for personal and commercial use” (https://avataaars.com/)</dc:rights></rdf:Description></rdf:RDF></metadata><defs><linearGradient id="skin-color-aeaa42b8" gradientTransform="rotate(-128, 0.5, 0.5)"><stop offset="0%" stop-color="#ffdbb4"/><stop offset="100%" stop-color="#f49d1f"/></linearGradient><g id="clothesGraphic-skull-aeaa42b8"><path fill-rule="evenodd" clip-rule="evenodd" d="M65.28 18.93c-.3 2.78-5.7 4.27-7.67 2.45-.91-.84-.93-2.58-1.13-3.7a49 49 0 0 1-.75-6.43c-.06-1.32-.4-2.38 1.04-2.58.89-.12 1.8.47 2.52.93 2.42 1.58 6.3 6.14 5.96 9.33m-12.4-5.85c.3 2.82 1.32 7.73-.93 10.1-2.02 2.12-6.16.02-6.79-2.47-.77-3.1 2.28-6.78 4.15-8.87.58-.64 1.85-2.4 2.84-1.82.4.23.7 2.61.74 3.06m1.44 11.03c.66-1.53 6.92 3.01 3.96 5.18-.48.35-4.16 1.46-4.86.94-1.48-1.1.43-4.97.91-6.12m19.01-7.58C72.89 1.05 53.08-3.3 42.49 5.5c-4.06 3.38-6.4 7.5-6.5 12.78-.1 4.47.63 8.7 4.04 11.77 1.48 1.33 2.46 2.15 3.25 3.97.82 1.9 1.2 4.33 2.74 5.83.85.83 2.09 1.5 3.26.96 2.17-.98 1.47-3.98 2.13-5.65 2.04 4.97 7.21 6.55 8.15.25 1.03 1.82 3.72 4.2 5.7 2.2.81-.8.93-2.14 1.07-3.22.25-1.9-.18-2.66 1.36-3.97 4.03-3.45 5.77-8.67 5.63-13.9" fill="white"/></g><g id="clothes-graphicShirt-aeaa42b8"><path d="M100.5 39.3c18.5 0 33.5-9.62 33.5-21.5q0-1.64-.38-3.23A72 72 0 0 1 200 86.36v8.95H0v-8.95A72 72 0 0 1 67.4 14.5a14 14 0 0 0-.4 3.3c0 11.88 15 21.5 33.5 21.5" fill="#76fe4a"/><use transform="translate(45 44.3)" href="#clothesGraphic-skull-aeaa42b8"/></g><g id="mouth-tongue-aeaa42b8"><path fill-rule="evenodd" clip-rule="evenodd" d="M21 9.6C22.41 19.24 33.06 27 46 27c12.97 0 23.65-7.82 25-18.26.1-.4-.22-1.74-2.17-1.74H23.17c-1.79 0-2.3 1.24-2.17 2.6" fill="black" fill-opacity=".7"/><path d="M62 7H31a5 5 0 0 0 5 5h21a5 5 0 0 0 5-5" fill="white"/><path d="M35 17.5v9a11.5 11.5 0 1 0 23 0v-9c0-1.93-2.91-3.5-6.5-3.5-2.01 0-3.8.5-5 1.26a9.5 9.5 0 0 0-5-1.26c-3.59 0-6.5 1.57-6.5 3.5" fill="#FF4F6D"/></g><g id="nose-default-aeaa42b8"><path fill-rule="evenodd" clip-rule="evenodd" d="M0 0c0 4.42 5.37 8 12 8s12-3.58 12-8" fill="black" fill-opacity=".16"/></g><g id="eyes-winkWacky-aeaa42b8"><circle cx="68" cy="14" r="12" fill="white"/><circle cx="68" cy="14" r="6" fill="black" fill-opacity=".7"/><path fill-rule="evenodd" clip-rule="evenodd" d="M2.16 17.45C4.01 13.65 8.16 11 13 11c4.81 0 8.96 2.63 10.82 6.4.55 1.13-.24 2.05-1.03 1.37a15 15 0 0 0-9.8-3.43c-3.73 0-7.12 1.24-9.55 3.23-.9.73-1.82-.01-1.28-1.12" fill="black" fill-opacity=".6"/></g><g id="eyebrows-sadConcerned-aeaa42b8"><path d="M30.17 5.6c-1.48 8.38-14.1 14.17-23.24 10.42a2.04 2.04 0 0 0-2.63 1c-.44.97.03 2.1 1.05 2.5 11.44 4.7 26.83-2.37 28.76-13.3a1.9 1.9 0 0 0-1.64-2.2 2 2 0 0 0-2.3 1.57m35.93 0c1.5 8.39 14.1 14.18 23.25 10.43 1.01-.41 2.2.03 2.62 1s-.03 2.1-1.04 2.5c-11.45 4.7-26.84-2.37-28.77-13.3a1.9 1.9 0 0 1 1.65-2.2 2 2 0 0 1 2.32 1.57" fill="black" fill-opacity=".6"/></g><g id="top-bob-aeaa42b8"><path d="M39 145c-.62-30.84 28.32-95.2 39-108 7.92-9.5 29.7-17.45 54-17s46.86 5.81 55 16c12.32 15.43 37.87 74.08 38 109 .1 24.8-9.54 49.66-23 51-7.6.76-17.26-.23-28.86-1.4-5.3-.55-11.02-1.13-17.14-1.6v-12.4a56 56 0 0 0 32-50.6v-28.44a130 130 0 0 1-26.9-19.88c3.35 6.24 7.19 11.9 11.51 16.2-30.54-8.59-51.7-26.16-64.35-39.94C102.4 69.02 91.97 85.24 76 97.57V130a56 56 0 0 0 32 50.61v13.14c-6.94.95-13.4 2.16-19.35 3.27-10.85 2.02-19.98 3.73-27.26 2.98-14.22-1.47-21.88-30.2-22.38-55" fill="#a55728"/></g><g id="accessories-prescription02-aeaa42b8"><path fill-rule="evenodd" clip-rule="evenodd" d="M32.73 48C11.44 48 3.88 53.1 3.2 53.77a2.9 2.9 0 0 0-2.96 2.89v2.88c0 1.6 1.33 2.9 2.96 2.9 0 0 5.9 0 5.9 2.87q0 .65.19.68a63 63 0 0 0-.05 2.5c0 12.82 8.32 20.5 22.25 20.5h2.73c14.72 0 25-8.45 25-20.5q0-2.28-.17-4.48l1.59-.77q.86-.43 1.89-.64c1.85-.38 3.95-.22 5.99.28.73.18 1.26.35 1.5.45l1.38.55q-.2 2.26-.18 4.6c0 12.84 8.32 20.5 22.25 20.5h2.75c14.72 0 25-8.43 25-20.5q0-2.32-.17-4.56c1.73-1.5 6.22-1.5 6.22-1.5a2.9 2.9 0 0 0 2.95-2.9v-2.88c0-1.6-1.32-2.89-2.95-2.89-.7-.67-8.26-5.77-29.55-5.77h-2.97q-2.68 0-4.97.2c-9.54.53-14.68 2.14-19.92 4.7a17 17 0 0 1-4.56.86 17 17 0 0 1-4.8-.9l-.43-.2v-.02c-4.94-2.42-8.43-4.13-20.78-4.55a61 61 0 0 0-3.6-.1zm-19.5 21.5c0-8.66 0-15.5 19.39-15.5h3.23c19.38 0 19.38 6.84 19.38 15.5 0 9.13-8.63 15.5-21 15.5H31.2c-14.85 0-17.97-8.43-17.97-15.5m62 0c0-8.66 0-15.5 19.39-15.5h3.23c19.38 0 19.38 6.84 19.38 15.5 0 9.13-8.63 15.5-21 15.5H93.2c-14.85 0-17.97-8.43-17.97-15.5" fill="black" fill-opacity=".1"/><path fill-rule="evenodd" clip-rule="evenodd" d="M32.73 46C11.44 46 3.88 51.1 3.2 51.77a2.9 2.9 0 0 0-2.96 2.89v2.88c0 1.6 1.33 2.9 2.96 2.9 0 0 5.9 0 5.9 2.87q0 .67.19.71a63 63 0 0 0-.05 2.51c0 12.83 8.32 20.5 22.25 20.5h2.73c14.72 0 25-8.44 25-20.5q0-2.27-.17-4.47l1.59-.77q.86-.43 1.89-.64c1.85-.38 3.95-.22 5.99.28.73.18 1.26.35 1.5.45l1.38.55q-.2 2.26-.18 4.6c0 12.85 8.32 20.51 22.25 20.51h2.75c14.72 0 25-8.43 25-20.5q0-2.32-.17-4.56c1.73-1.51 6.22-1.51 6.22-1.51a2.9 2.9 0 0 0 2.95-2.89v-2.88c0-1.6-1.32-2.89-2.95-2.89-.7-.67-8.26-5.77-29.55-5.77h-2.97q-2.68 0-4.97.2c-9.54.54-14.68 2.15-19.92 4.7a17 17 0 0 1-4.56.87 17 17 0 0 1-4.8-.9l-.43-.2c-4.94-2.44-8.43-4.15-20.78-4.57a61 61 0 0 0-3.6-.1zm-19.5 21.5c0-8.66 0-15.5 19.39-15.5h3.23c19.38 0 19.38 6.84 19.38 15.5 0 9.13-8.63 15.5-21 15.5H31.2c-14.85 0-17.97-8.43-17.97-15.5m62 0c0-8.66 0-15.5 19.39-15.5h3.23c19.38 0 19.38 6.84 19.38 15.5 0 9.13-8.63 15.5-21 15.5H93.2c-14.85 0-17.97-8.43-17.97-15.5" fill="#ffafb9"/></g><clipPath id="clip-aeaa42b8"><rect width="280" height="280" rx="103.6" ry="103.6"/></clipPath></defs><g clip-path="url(#clip-aeaa42b8)"><g transform="translate(50.4, 0)"><path d="M140 36a56 56 0 0 0-56 56v6.17A12 12 0 0 0 74 110v14a12 12 0 0 0 10.3 11.88A56 56 0 0 0 116 180.6V199h-4a72 72 0 0 0-72 72v9h200v-9a72 72 0 0 0-72-72h-4v-18.38a56 56 0 0 0 31.7-44.73A12 12 0 0 0 206 124v-14a12 12 0 0 0-10-11.83V92a56 56 0 0 0-56-56" fill="url(#skin-color-aeaa42b8)"/><path d="M116 180.61v8a56 56 0 0 0 24 5.39 56 56 0 0 0 24-5.39v-8a56 56 0 0 1-24 5.39 56 56 0 0 1-24-5.39" fill="black" fill-opacity=".1"/><use transform="translate(40 184.7)" href="#clothes-graphicShirt-aeaa42b8"/><use transform="translate(94 140)" href="#mouth-tongue-aeaa42b8"/><use transform="translate(128 130)" href="#nose-default-aeaa42b8"/><use transform="translate(98 98)" href="#eyes-winkWacky-aeaa42b8"/><use transform="translate(91.86 82)" href="#eyebrows-sadConcerned-aeaa42b8"/><use transform="translate(8)" href="#top-bob-aeaa42b8"/><use transform="translate(75.77 46)" href="#accessories-prescription02-aeaa42b8"/></g></g></svg>