<svg xmlns="http://www.w3.org/2000/svg" viewBox="0 0 280 280" fill="none" shape-rendering="auto" aria-hidden="true"><!-- Generated by DiceBear (https://dicebear.com) --><metadata xmlns:rdf="http://www.w3.org/1999/02/22-rdf-syntax-ns#" xmlns:xsi="http://www.w3.org/2001/XMLSchema-instance" xmlns:dc="http://purl.org/dc/elements/1.1/" xmlns:dcterms="http://purl.org/dc/terms/"><rdf:RDF><rdf:Description><dc:title>Avataaars</dc:title><dc:creator>Pablo Stanley</dc:creator><dc:source xsi:type="dcterms:URI">https://avataaars.com/</dc:source><dcterms:license xsi:type="dcterms:URI">https://avataaars.com/</dcterms:license><dc:rights>Remix of “Avataaars” (https://avataaars.com/) by “Pablo Stanley”, licensed under “Free for personal and commercial use” (https://avataaars.com/)</dc:rights></rdf:Description></rdf:RDF></metadata><defs><linearGradient id="skin-color-b1a672c5" gradientTransform="rotate(-128, 0.5, 0.5)"><stop offset="0%" stop-color="#0f3a1c"/><stop offset="100%" stop-color="#edb98a"/></linearGradient><g id="clothes-hoodie-b1a672c5"><path d="M76 0C60.48 3.7 48.9 10.83 45.23 19.45A72 72 0 0 0 0 86.3v9h200v-9a72 72 0 0 0-45.23-66.86C151.1 10.83 139.52 3.69 124 0v17.3a24 24 0 1 1-48 0z" fill="#fe61de"/><path d="M70 48.64a67 67 0 0 1-7-2.81V95.3h7zm60 0a67 67 0 0 0 7-2.81V83.8a3.5 3.5 0 1 1-7 0z" fill="#F4F4F4"/><path d="M155.62 19.8a72 72 0 0 1 10.83 5.62c-1.34 15.5-30.58 27.89-66.45 27.89 30.93 0 56-13.44 56-30q0-1.79-.38-3.52m-111.24.01a17 17 0 0 0-.38 3.5c0 16.57 25.07 30 56 30-35.87 0-65.1-12.38-66.45-27.88a72 72 0 0 1 10.83-5.63" fill="black" fill-opacity=".16"/></g><g id="mouth-smile-b1a672c5"><path fill-rule="evenodd" clip-rule="evenodd" d="M27.12 9.13a19 19 0 0 0 37.77-.09c.08-.77-.77-2.04-1.85-2.04H29.1C28 7 27 8.18 27.12 9.13" fill="black" fill-opacity=".7"/><path d="M62 7H31a5 5 0 0 0 5 5h21a5 5 0 0 0 5-5" fill="white"/><path d="M58.7 21.14A11 11 0 0 0 46 19.2a10.95 10.95 0 0 0-12.7 1.94A19 19 0 0 0 46 26c4.88 0 9.33-1.84 12.7-4.86" fill="#FF4F6D"/></g><g id="nose-default-b1a672c5"><path fill-rule="evenodd" clip-rule="evenodd" d="M0 0c0 4.42 5.37 8 12 8s12-3.58 12-8" fill="black" fill-opacity=".16"/></g><g id="eyes-closed-b1a672c5"><path fill-rule="evenodd" clip-rule="evenodd" d="M2.16 19.55C4.01 23.35 8.16 26 13 26c4.81 0 8.96-2.63 10.82-6.4.55-1.13-.24-2.05-1.03-1.37a15 15 0 0 1-9.8 3.43c-3.73 0-7.12-1.24-9.55-3.23-.9-.73-1.82.01-1.28 1.12m58 0c1.85 3.8 6 6.45 10.84 6.45 4.81 0 8.96-2.63 10.82-6.4.55-1.13-.24-2.05-1.03-1.37a15 15 0 0 1-9.8 3.43c-3.76 0-7.15-1.24-9.58-3.23-.9-.73-1.82.01-1.28 1.12" fill="black" fill-opacity=".6"/></g><g id="eyebrows-upDown-b1a672c5"><path d="M7.73 14.16c4.5-6.32 14.01-9.5 23.75-6.36a2 2 0 1 0 1.23-3.81c-11.4-3.7-22.74.1-28.24 7.85a2 2 0 1 0 3.26 2.32m80.78 7c-3.91-5.51-14.64-8.6-23.89-6.33a2 2 0 0 1-.95-3.88c10.73-2.64 23.16.94 28.1 7.9a2 2 0 0 1-3.26 2.3" fill="black" fill-opacity=".6"/></g><g id="top-straight02-b1a672c5"><path d="M156 180.61V199h4a71.7 71.7 0 0 1 46 16.6V92a74 74 0 0 0-148 0v183.72A28 28 0 0 0 82 248v-45.58a72 72 0 0 1 22-3.42h4v-18.39a56.2 56.2 0 0 1-26-25.36V93.27a150 150 0 0 0 28.34-12.77c15.4-8.9 28.1-19.56 36.73-30.1 1.76 5.2 4.1 10.4 7.04 15.48 8.8 15.2 21.15 26.35 33.9 32.04v.25q.6.1 1.2.26 1.17.48 2.34.9A12 12 0 0 1 198 110v13a12 12 0 0 1-10.22 11.87A56 56 0 0 1 156 180.6" fill="#e8e1e1"/><path d="M156 199v-18.39a56 56 0 0 0 31.8-45.74A12 12 0 0 0 198 123v-13a12 12 0 0 0-6.5-10.66 45 45 0 0 0 14.5 2.8v113.47A71.7 71.7 0 0 0 160 199zm-74 3.42v-47.17a56.2 56.2 0 0 0 26 25.36V199h-4c-7.67 0-15.07 1.2-22 3.42m106-104.5v.25q.6.1 1.18.26z" fill="black" fill-opacity=".27"/></g><clipPath id="clip-b1a672c5"><rect width="280" height="280" rx="103.6" ry="103.6"/></clipPath></defs><g clip-path="url(#clip-b1a672c5)"><g transform="translate(50.4, 0)"><path d="M140 36a56 56 0 0 0-56 56v6.17A12 12 0 0 0 74 110v14a12 12 0 0 0 10.3 11.88A56 56 0 0 0 116 180.6V199h-4a72 72 0 0 0-72 72v9h200v-9a72 72 0 0 0-72-72h-4v-18.38a56 56 0 0 0 31.7-44.73A12 12 0 0 0 206 124v-14a12 12 0 0 0-10-11.83V92a56 56 0 0 0-56-56" fill="url(#skin-color-b1a672c5)"/><path d="M116 180.61v8a56 56 0 0 0 24 5.39 56 56 0 0 0 24-5.39v-8a56 56 0 0 1-24 5.39 56 56 0 0 1-24-5.39" fill="black" fill-opacity=".1"/><use transform="translate(40 184.7)" href="#clothes-hoodie-b1a672c5"/><use transform="translate(94 140)" href="#mouth-smile-b1a672c5"/><use transform="translate(128 130)" href="#nose-default-b1a672c5"/><use transform="translate(98 98)" href="#eyes-closed-b1a672c5"/><use transform="translate(91.86 82)" href="#eyebrows-upDown-b1a672c5"/><use transform="translate(8)" href="#top-straight02-b1a672c5"/></g></g></svg>