<svg xmlns="http://www.w3.org/2000/svg" viewBox="0 0 280 280" fill="none" shape-rendering="auto" aria-hidden="true"><!-- Generated by DiceBear (https://dicebear.com) --><metadata xmlns:rdf="http://www.w3.org/1999/02/22-rdf-syntax-ns#" xmlns:xsi="http://www.w3.org/2001/XMLSchema-instance" xmlns:dc="http://purl.org/dc/elements/1.1/" xmlns:dcterms="http://purl.org/dc/terms/"><rdf:RDF><rdf:Description><dc:title>Avataaars</dc:title><dc:creator>Pablo Stanley</dc:creator><dc:source xsi:type="dcterms:URI">https://avataaars.com/</dc:source><dcterms:license xsi:type="dcterms:URI">https://avataaars.com/</dcterms:license><dc:rights>Remix of “Avataaars” (https://avataaars.com/) by “Pablo Stanley”, licensed under “Free for personal and commercial use” (https://avataaars.com/)</dc:rights></rdf:Description></rdf:RDF></metadata><defs><linearGradient id="skin-color-1782f213" gradientTransform="rotate(-128, 0.5, 0.5)"><stop offset="0%" stop-color="#040f07"/><stop offset="100%" stop-color="#9f6ff4"/></linearGradient><g id="clothes-shirtScoopNeck-1782f213"><path d="M100.5 51.13c27.34 0 49.5-13.2 49.5-29.48q0-2.04-.46-4A72 72 0 0 1 200 86.35v8.95H0v-8.95A72 72 0 0 1 51.53 17.3a18 18 0 0 0-.53 4.34c0 16.28 22.16 29.48 49.5 29.48" fill="#fe76c0"/></g><g id="mouth-twinkle-1782f213"><path d="M32 10c0 5.37 6.16 9 14 9s14-3.63 14-9c0-1.1-.95-2-2-2-1.3 0-1.87.9-2 2-1.24 2.94-4.32 4.72-10 5-5.68-.28-8.76-2.06-10-5-.13-1.1-.7-2-2-2-1.05 0-2 .9-2 2" fill="black" fill-opacity=".6"/></g><g id="nose-default-1782f213"><path fill-rule="evenodd" clip-rule="evenodd" d="M0 0c0 4.42 5.37 8 12 8s12-3.58 12-8" fill="black" fill-opacity=".16"/></g><g id="eyes-squint-1782f213"><path d="M30 12.73c0 4.26-6.27 7.72-14 7.72S2 17 2 12.73 8.27 5 16 5s14 3.46 14 7.73m52 0c0 4.26-6.27 7.72-14 7.72S54 17 54 12.73 60.27 5 68 5s14 3.46 14 7.73" fill="white"/><path d="M18.82 20.3a25 25 0 0 1-5.64 0 6 6 0 1 1 5.64 0m52 0a25 25 0 0 1-5.64 0 6 6 0 1 1 5.64 0" fill="black" fill-opacity=".7"/></g><g id="eyebrows-sadConcerned-1782f213"><path d="M30.17 5.6c-1.48 8.38-14.1 14.17-23.24 10.42a2.04 2.04 0 0 0-2.63 1c-.44.97.03 2.1 1.05 2.5 11.44 4.7 26.83-2.37 28.76-13.3a1.9 1.9 0 0 0-1.64-2.2 2 2 0 0 0-2.3 1.57m35.93 0c1.5 8.39 14.1 14.18 23.25 10.43 1.01-.41 2.2.03 2.62 1s-.03 2.1-1.04 2.5c-11.45 4.7-26.84-2.37-28.77-13.3a1.9 1.9 0 0 1 1.65-2.2 2 2 0 0 1 2.32 1.57" fill="black" fill-opacity=".6"/></g><g id="top-curly-1782f213"><path d="M66 105.02c11.38-.72 24.68-14.4 31.98-33.94A179 179 0 0 0 131 74c12.55 0 24.31-1.16 34.45-3.2 7.38 19.96 21.01 33.87 32.55 34.24V88a66 66 0 0 0-38-59.78A184 184 0 0 0 131 26c-9.2 0-17.99.63-26.01 1.76A66 66 0 0 0 66 88z" fill="black" fill-opacity=".16"/><path d="M72 192a48 48 0 0 0 13.6-1.95 72 72 0 0 0 13.68 9.1A73 73 0 0 1 104 199h4v-18.39a56 56 0 0 1-31.8-45.74A12 12 0 0 1 66 123v-13a12 12 0 0 1 10-11.83v-.75c8.46-5.38 16.75-16.36 21.98-30.34A179 179 0 0 0 131 70c12.55 0 24.31-1.16 34.45-3.2 5.31 14.37 13.87 25.6 22.55 30.9v.46q.66.1 1.29.29a24 24 0 0 0 3.23 1.47A12 12 0 0 1 198 110v13a12 12 0 0 1-10.2 11.87A56 56 0 0 1 156 180.6V199h4q2.38 0 4.72.15a72 72 0 0 0 13.69-9.1 48 48 0 0 0 45.19-82.18 44 44 0 0 0-28.37-69.28A44.02 44.02 0 0 0 132 15.9a44.02 44.02 0 0 0-63.23 22.7 44 44 0 0 0-28.37 69.27A48 48 0 0 0 72 192" fill="#b4da5f"/></g><clipPath id="clip-1782f213"><rect width="280" height="280" rx="103.6" ry="103.6"/></clipPath></defs><g clip-path="url(#clip-1782f213)"><g transform="translate(50.4, 0)"><path d="M140 36a56 56 0 0 0-56 56v6.17A12 12 0 0 0 74 110v14a12 12 0 0 0 10.3 11.88A56 56 0 0 0 116 180.6V199h-4a72 72 0 0 0-72 72v9h200v-9a72 72 0 0 0-72-72h-4v-18.38a56 56 0 0 0 31.7-44.73A12 12 0 0 0 206 124v-14a12 12 0 0 0-10-11.83V92a56 56 0 0 0-56-56" fill="url(#skin-color-1782f213)"/><path d="M116 180.61v8a56 56 0 0 0 24 5.39 56 56 0 0 0 24-5.39v-8a56 56 0 0 1-24 5.39 56 56 0 0 1-24-5.39" fill="black" fill-opacity=".1"/><use transform="translate(40 184.7)" href="#clothes-shirtScoopNeck-1782f213"/><use transform="translate(94 140)" href="#mouth-twinkle-1782f213"/><use transform="translate(128 130)" href="#nose-default-1782f213"/><use transform="translate(98 98)" href="#eyes-squint-1782f213"/><use transform="translate(91.86 82)" href="#eyebrows-sadConcerned-1782f213"/><use transform="translate(8)" href="#top-curly-1782f213"/></g></g></svg>