<svg xmlns="http://www.w3.org/2000/svg" viewBox="0 0 280 280" fill="none" shape-rendering="auto" aria-hidden="true"><!-- Generated by DiceBear (https://dicebear.com) --><metadata xmlns:rdf="http://www.w3.org/1999/02/22-rdf-syntax-ns#" xmlns:xsi="http://www.w3.org/2001/XMLSchema-instance" xmlns:dc="http://purl.org/dc/elements/1.1/" xmlns:dcterms="http://purl.org/dc/terms/"><rdf:RDF><rdf:Description><dc:title>Avataaars</dc:title><dc:creator>Pablo Stanley</dc:creator><dc:source xsi:type="dcterms:URI">https://avataaars.com/</dc:source><dcterms:license xsi:type="dcterms:URI">https://avataaars.com/</dcterms:license><dc:rights>Remix of “Avataaars” (https://avataaars.com/) by “Pablo Stanley”, licensed under “Free for personal and commercial use” (https://avataaars.com/)</dc:rights></rdf:Description></rdf:RDF></metadata><defs><linearGradient id="skin-color-b9f0af81" gradientTransform="rotate(-128, 0.5, 0.5)"><stop offset="0%" stop-color="#040f07"/><stop offset="100%" stop-color="#0f3a1c"/></linearGradient><g id="clothes-blazerAndShirt-b9f0af81"><path d="M100.5 37.13c18.5 0 33.5-9.61 33.5-21.48q0-.52-.04-1.05A72 72 0 0 1 200 86.36v8.95H0v-8.95a72 72 0 0 1 67.05-71.83q-.05.55-.05 1.12c0 11.87 15 21.48 33.5 21.48" fill="#E6E6E6"/><path d="M100.5 44.07c21.89 0 39.63-12.05 39.63-26.92q0-.9-.08-1.79-3-.51-6.1-.76.06.52.05 1.05c0 11.87-15 21.48-33.5 21.48S67 27.52 67 15.65q0-.57.05-1.12-3.08.2-6.08.67-.1.97-.1 1.95c0 14.87 17.74 26.92 39.63 26.92" fill="black" fill-opacity=".16"/><path d="M68.78 14.43 69 13.3c-2.96.06-6 1-6 1l-.42.67A72 72 0 0 0 0 86.36v8.95h74s-10.7-51.56-5.24-80.8zM126 95.3s11-53 5-82c2.96.06 6 1 6 1l.42.67A72 72 0 0 1 200 86.36v8.95z" fill="#76fe4a"/><path fill-rule="evenodd" clip-rule="evenodd" d="M69 13.3c-6 29 5 82 5 82H58l-14-36 6-9-6-6 19-30s3.04-.94 6-1m62 0c6 29-5 82-5 82h16l14-36-6-9 6-6-19-30s-3.04-.94-6-1" fill="black" fill-opacity=".15"/><path d="m151.42 71.07.87-2.24 6.27-4.7a4 4 0 0 1 4.85.05l6.6 5.13z" fill="#E6E6E6"/></g><g id="mouth-screamOpen-b9f0af81"><path fill-rule="evenodd" clip-rule="evenodd" d="M26 32.86C27.14 18.88 30.24 7 46 7s18.92 11.94 20 26c.08 1.12-.83 2-1.96 2-6.69 0-9.37-2-18.05-2-8.7 0-13.26 2-17.9 2-1.17 0-2.2-.74-2.1-2.14" fill="black" fill-opacity=".7"/><path d="M59.02 11.57Q58.1 12 57 12H36c-.98 0-1.9-.28-2.67-.77C36.23 8.57 40.28 7 46 7c5.95 0 10.1 1.7 13.02 4.57" fill="white"/><path d="M61.8 34.92a44 44 0 0 1-5.54-.82c-2.73-.53-5.65-1.1-10.27-1.1-5.01 0-8.65.66-11.73 1.23-1.45.26-2.77.5-4.06.65A11 11 0 0 1 46 27.2a11 11 0 0 1 15.8 7.72" fill="#FF4F6D"/></g><g id="nose-default-b9f0af81"><path fill-rule="evenodd" clip-rule="evenodd" d="M0 0c0 4.42 5.37 8 12 8s12-3.58 12-8" fill="black" fill-opacity=".16"/></g><g id="eyes-wink-b9f0af81"><path d="M22 14a6 6 0 1 1-12 0 6 6 0 0 1 12 0" fill="black" fill-opacity=".6"/><path fill-rule="evenodd" clip-rule="evenodd" d="M56.6 16.96c1.59-3.92 5.55-6.86 10.37-7.2 4.8-.33 9.12 2 11.24 5.64.63 1.1-.1 2.06-.93 1.43-2.6-1.93-6.15-3-10-2.73a15 15 0 0 0-9.33 3.9c-.84.79-1.81.11-1.35-1.03" fill="black" fill-opacity=".6"/></g><g id="eyebrows-angryNatural-b9f0af81"><path fill-rule="evenodd" clip-rule="evenodd" d="M11.43 5.01a7.2 7.2 0 0 0-6.44 2.43c-.6.73-1.55 2.48-1.5 3.42 0 .35.22.37 1.12.6 1.64.38 4.5-1.13 6.35-1 2.59.2 5.05 1.4 7.29 2.69 3.84 2.2 8.35 6.84 13.09 6.6.35-.02 5.42-1.74 4.4-2.72-.31-.49-3.02-1.13-3.5-1.36-2.16-1.09-4.36-2.45-6.43-3.72C21.28 9.18 16.86 5.6 11.42 5m73.62.01c2.37-.27 4.86.5 6.43 2.43.59.73 1.55 2.48 1.5 3.42 0 .35-.22.37-1.12.6-1.64.38-4.5-1.13-6.35-1-2.58.2-5.05 1.4-7.28 2.69-3.84 2.2-8.36 6.84-13.1 6.6-.35-.02-5.42-1.74-4.4-2.72.3-.49 3.03-1.13 3.5-1.36 2.17-1.09 4.36-2.45 6.44-3.72C75.19 9.18 79.6 5.6 85.04 5" fill="black" fill-opacity=".6"/></g><g id="top-theCaesar-b9f0af81"><path fill-rule="evenodd" clip-rule="evenodd" d="M75 98c.35 1.49 1.67 1.22 2 0-.46-1.55 3.3-28.75 13-36 3.62-2.52 23-4.77 42.31-4.75 19.1 0 38.11 2.26 41.69 4.75 9.7 7.25 13.46 34.45 13 36 .33 1.22 1.65 1.49 2 0 .72-10.3 0-63.73-57-63S74.28 87.7 75 98" fill="#5c6213"/></g><clipPath id="clip-b9f0af81"><rect width="280" height="280" rx="103.6" ry="103.6"/></clipPath></defs><g clip-path="url(#clip-b9f0af81)"><g transform="translate(50.4, 0)"><path d="M140 36a56 56 0 0 0-56 56v6.17A12 12 0 0 0 74 110v14a12 12 0 0 0 10.3 11.88A56 56 0 0 0 116 180.6V199h-4a72 72 0 0 0-72 72v9h200v-9a72 72 0 0 0-72-72h-4v-18.38a56 56 0 0 0 31.7-44.73A12 12 0 0 0 206 124v-14a12 12 0 0 0-10-11.83V92a56 56 0 0 0-56-56" fill="url(#skin-color-b9f0af81)"/><path d="M116 180.61v8a56 56 0 0 0 24 5.39 56 56 0 0 0 24-5.39v-8a56 56 0 0 1-24 5.39 56 56 0 0 1-24-5.39" fill="black" fill-opacity=".1"/><use transform="translate(40 184.7)" href="#clothes-blazerAndShirt-b9f0af81"/><use transform="translate(94 140)" href="#mouth-screamOpen-b9f0af81"/><use transform="translate(128 130)" href="#nose-default-b9f0af81"/><use transform="translate(98 98)" href="#eyes-wink-b9f0af81"/><use transform="translate(91.86 82)" href="#eyebrows-angryNatural-b9f0af81"/><use transform="translate(8)" href="#top-theCaesar-b9f0af81"/></g></g></svg>