<svg xmlns="http://www.w3.org/2000/svg" viewBox="0 0 280 280" fill="none" shape-rendering="auto" aria-hidden="true"><!-- Generated by DiceBear (https://dicebear.com) --><metadata xmlns:rdf="http://www.w3.org/1999/02/22-rdf-syntax-ns#" xmlns:xsi="http://www.w3.org/2001/XMLSchema-instance" xmlns:dc="http://purl.org/dc/elements/1.1/" xmlns:dcterms="http://purl.org/dc/terms/"><rdf:RDF><rdf:Description><dc:title>Avataaars</dc:title><dc:creator>Pablo Stanley</dc:creator><dc:source xsi:type="dcterms:URI">https://avataaars.com/</dc:source><dcterms:license xsi:type="dcterms:URI">https://avataaars.com/</dcterms:license><dc:rights>Remix of “Avataaars” (https://avataaars.com/) by “Pablo Stanley”, licensed under “Free for personal and commercial use” (https://avataaars.com/)</dc:rights></rdf:Description></rdf:RDF></metadata><defs><linearGradient id="skin-color-a1f365f9" gradientTransform="rotate(-128, 0.5, 0.5)"><stop offset="0%" stop-color="#f8d25c"/><stop offset="100%" stop-color="#040f07"/></linearGradient><g id="clothes-blazerAndSweater-a1f365f9"><path d="M100 42.36c14.91 0 27-11.2 27-25q0-1.53-.2-3h1.2a72 72 0 0 1 72 72v8.95H0v-8.95a72 72 0 0 1 72-72h1.2q-.2 1.47-.2 3c0 13.8 12.09 25 27 25" fill="#E6E6E6"/><path d="M68.78 14.43 69 13.3c-2.96.06-6 1-6 1l-.42.67A72 72 0 0 0 0 86.36v8.95h74s-10.7-51.56-5.24-80.8zM126 95.3s11-53 5-82c2.96.06 6 1 6 1l.42.67A72 72 0 0 1 200 86.36v8.95z" fill="#262e33"/><path fill-rule="evenodd" clip-rule="evenodd" d="M69 13.3c-6 29 5 82 5 82H58l-14-36 6-9-6-6 19-30s3.04-.94 6-1m62 0c6 29-5 82-5 82h16l14-36-6-9 6-6-19-30s-3.04-.94-6-1" fill="black" fill-opacity=".15"/><path d="M76 6.84c-6.77 4.6-11 11.12-11 18.35 0 7.4 4.43 14.06 11.48 18.67l5.94-4.68 4.58.33-1-3.15.08-.06C79.98 33.16 76 28 76 22.18zm48 15.34c0 5.83-3.98 10.98-10.08 14.12l.08.06-1 3.15 4.58-.33 5.94 4.68C130.57 39.26 135 32.6 135 25.2c0-7.23-4.23-13.75-11-18.35z" fill="#F2F2F2"/><path d="m151.42 71.07.87-2.24 6.27-4.7a4 4 0 0 1 4.85.05l6.6 5.13z" fill="#E6E6E6"/></g><g id="mouth-disbelief-a1f365f9"><path fill-rule="evenodd" clip-rule="evenodd" d="M32 23a14 14 0 1 1 28 0" fill="black" fill-opacity=".7"/></g><g id="nose-default-a1f365f9"><path fill-rule="evenodd" clip-rule="evenodd" d="M0 0c0 4.42 5.37 8 12 8s12-3.58 12-8" fill="black" fill-opacity=".16"/></g><g id="eyes-hearts-a1f365f9"><path d="M21.96 2c-2.55 0-5.08 1.98-6.46 3.82C14.1 3.98 11.6 2 9.04 2 3.55 2 0 5.33 0 9.64c0 5.73 4.41 9.13 9.04 12.74 1.66 1.23 4.78 4.4 5.17 5.1.4.68 2.13.7 2.62 0 .47-.73 3.5-3.87 5.16-5.1 4.63-3.6 9.04-7 9.04-12.74C31 5.34 27.46 2 21.97 2m53 0c-2.55 0-5.08 1.98-6.46 3.82C67.1 3.98 64.6 2 62.04 2 56.54 2 53 5.33 53 9.64c0 5.73 4.41 9.13 9.04 12.74 1.66 1.23 4.78 4.4 5.17 5.1.38.68 2.1.7 2.58 0 .48-.73 3.5-3.87 5.17-5.1 4.63-3.6 9.04-7 9.04-12.74C84 5.34 80.45 2 74.96 2" fill="#FF5353" fill-opacity=".8"/></g><g id="eyebrows-upDownNatural-a1f365f9"><path fill-rule="evenodd" clip-rule="evenodd" d="m14.9 1.58.91-.4C21.06-.9 29-.03 33.86 2.3c.57.27.18 1.15-.4 1.1C18.54 2.27 8.5 11.56 5.08 17.86c-.1.18-.4.2-.48.03C2.3 12.56 9.05 3.9 14.9 1.58m64.23 10.49c5.76.77 14.75 5.8 14 11.6-.03.2-.32.26-.44.1-2.49-3.2-21.7-7.87-28.72-6.9-.64.1-1.06-.57-.62-.98 3.74-3.54 10.62-4.52 15.78-3.82" fill="black" fill-opacity=".6"/></g><g id="top-shortFlat-a1f365f9"><path fill-rule="evenodd" clip-rule="evenodd" d="M179.15 39.92c-2.76-2.82-5.96-5.21-9.08-7.61q-1.04-.79-2.06-1.6c-.15-.12-1.72-1.24-1.9-1.66-.4-.99-.1-.22-.1-1.4.1-1.5 3.2-5.73.9-6.7-1-.43-2.8.7-3.73 1.08a60 60 0 0 1-5.73 1.9c.92-1.85 2.7-5.57-.64-4.58-2.6.78-5.04 2.77-7.65 3.7.86-1.4 4.32-5.8 1.2-6.05-.98-.07-3.8 1.75-4.86 2.14a56 56 0 0 1-9.63 2.51c-11.2 2.02-24.3 1.45-34.65 6.54-8 3.93-15.88 10.03-20.5 17.8-4.44 7.48-6.1 15.67-7.03 24.25-.7 6.3-.74 12.8-.42 19.12.1 2.07.34 11.61 3.34 8.72 1.5-1.44 1.5-7.25 1.87-9.22.75-3.91 1.47-7.85 2.72-11.64 2.2-6.68 4.8-13.8 10.3-18.4 3.53-2.94 6-6.93 9.4-9.9 1.5-1.35.35-1.2 2.8-1.03q2.44.16 4.9.2c3.8.1 7.6.08 11.4.1 7.63 0 15.24.1 22.89-.3 3.4-.2 6.8-.3 10.17-.6 1.9-.2 5.25-1.4 6.8-.5 1.43.84 2.9 3.61 3.94 4.75 2.4 2.67 5.3 4.72 8.12 6.92 5.9 4.57 8.86 10.33 10.65 17.48 1.8 7.13 1.3 13.75 3.5 20.76.38 1.24 1.4 3.36 2.67 1.46.25-.36.2-2.3.2-3.42 0-4.52 1.13-7.9 1.12-12.46-.06-13.83-.5-31.87-10.85-42.44" fill="#623c33"/></g><clipPath id="clip-a1f365f9"><rect width="280" height="280" rx="103.6" ry="103.6"/></clipPath></defs><g clip-path="url(#clip-a1f365f9)"><g transform="translate(50.4, 0)"><path d="M140 36a56 56 0 0 0-56 56v6.17A12 12 0 0 0 74 110v14a12 12 0 0 0 10.3 11.88A56 56 0 0 0 116 180.6V199h-4a72 72 0 0 0-72 72v9h200v-9a72 72 0 0 0-72-72h-4v-18.38a56 56 0 0 0 31.7-44.73A12 12 0 0 0 206 124v-14a12 12 0 0 0-10-11.83V92a56 56 0 0 0-56-56" fill="url(#skin-color-a1f365f9)"/><path d="M116 180.61v8a56 56 0 0 0 24 5.39 56 56 0 0 0 24-5.39v-8a56 56 0 0 1-24 5.39 56 56 0 0 1-24-5.39" fill="black" fill-opacity=".1"/><use transform="translate(40 184.7)" href="#clothes-blazerAndSweater-a1f365f9"/><use transform="translate(94 140)" href="#mouth-disbelief-a1f365f9"/><use transform="translate(128 130)" href="#nose-default-a1f365f9"/><use transform="translate(98 98)" href="#eyes-hearts-a1f365f9"/><use transform="translate(91.86 82)" href="#eyebrows-upDownNatural-a1f365f9"/><use transform="translate(8)" href="#top-shortFlat-a1f365f9"/></g></g></svg>