<svg xmlns="http://www.w3.org/2000/svg" viewBox="0 0 280 280" fill="none" shape-rendering="auto" aria-hidden="true"><!-- Generated by DiceBear (https://dicebear.com) --><metadata xmlns:rdf="http://www.w3.org/1999/02/22-rdf-syntax-ns#" xmlns:xsi="http://www.w3.org/2001/XMLSchema-instance" xmlns:dc="http://purl.org/dc/elements/1.1/" xmlns:dcterms="http://purl.org/dc/terms/"><rdf:RDF><rdf:Description><dc:title>Avataaars</dc:title><dc:creator>Pablo Stanley</dc:creator><dc:source xsi:type="dcterms:URI">https://avataaars.com/</dc:source><dcterms:license xsi:type="dcterms:URI">https://avataaars.com/</dcterms:license><dc:rights>Remix of “Avataaars” (https://avataaars.com/) by “Pablo Stanley”, licensed under “Free for personal and commercial use” (https://avataaars.com/)</dc:rights></rdf:Description></rdf:RDF></metadata><defs><linearGradient id="skin-color-76472216" gradientTransform="rotate(-128, 0.5, 0.5)"><stop offset="0%" stop-color="#d08b5b"/><stop offset="100%" stop-color="#ae5d29"/></linearGradient><g id="clothes-blazerAndShirt-76472216"><path d="M100.5 37.13c18.5 0 33.5-9.61 33.5-21.48q0-.52-.04-1.05A72 72 0 0 1 200 86.36v8.95H0v-8.95a72 72 0 0 1 67.05-71.83q-.05.55-.05 1.12c0 11.87 15 21.48 33.5 21.48" fill="#E6E6E6"/><path d="M100.5 44.07c21.89 0 39.63-12.05 39.63-26.92q0-.9-.08-1.79-3-.51-6.1-.76.06.52.05 1.05c0 11.87-15 21.48-33.5 21.48S67 27.52 67 15.65q0-.57.05-1.12-3.08.2-6.08.67-.1.97-.1 1.95c0 14.87 17.74 26.92 39.63 26.92" fill="black" fill-opacity=".16"/><path d="M68.78 14.43 69 13.3c-2.96.06-6 1-6 1l-.42.67A72 72 0 0 0 0 86.36v8.95h74s-10.7-51.56-5.24-80.8zM126 95.3s11-53 5-82c2.96.06 6 1 6 1l.42.67A72 72 0 0 1 200 86.36v8.95z" fill="#12101e"/><path fill-rule="evenodd" clip-rule="evenodd" d="M69 13.3c-6 29 5 82 5 82H58l-14-36 6-9-6-6 19-30s3.04-.94 6-1m62 0c6 29-5 82-5 82h16l14-36-6-9 6-6-19-30s-3.04-.94-6-1" fill="black" fill-opacity=".15"/><path d="m151.42 71.07.87-2.24 6.27-4.7a4 4 0 0 1 4.85.05l6.6 5.13z" fill="#E6E6E6"/></g><g id="mouth-vomit-76472216"><path fill-rule="evenodd" clip-rule="evenodd" d="M26 24.4C27.14 13.9 30.24 5 46 5s18.92 8.96 20 19.5c.08.84-.83 1.5-1.96 1.5-6.69 0-9.37-1.5-18.05-1.5-8.7 0-13.25 1.5-17.9 1.5-1.16 0-2.2-.55-2.1-1.6" fill="black" fill-opacity=".7"/><path d="M59.86 9.1c-.8.57-1.8.9-2.86.9H36c-1.3 0-2.49-.5-3.38-1.31C35.56 6.39 39.8 5 46 5c6.54 0 10.9 1.54 13.86 4.1" fill="white"/><path d="M34 19a6 6 0 0 0-6 6v7a6 6 0 0 0 12 0v-2h.08a6 6 0 0 1 11.84 0H52a6 6 0 0 0 12 0v-5a6 6 0 0 0-6-6z" fill="#7BB24B"/><path d="M64 25a6 6 0 0 0-6-6H34a6 6 0 0 0-6 6v6a6 6 0 0 0 12 0v-2h.08a6 6 0 0 1 11.84 0H52a6 6 0 0 0 12 0z" fill="#88C553"/></g><g id="nose-default-76472216"><path fill-rule="evenodd" clip-rule="evenodd" d="M0 0c0 4.42 5.37 8 12 8s12-3.58 12-8" fill="black" fill-opacity=".16"/></g><g id="eyes-hearts-76472216"><path d="M21.96 2c-2.55 0-5.08 1.98-6.46 3.82C14.1 3.98 11.6 2 9.04 2 3.55 2 0 5.33 0 9.64c0 5.73 4.41 9.13 9.04 12.74 1.66 1.23 4.78 4.4 5.17 5.1.4.68 2.13.7 2.62 0 .47-.73 3.5-3.87 5.16-5.1 4.63-3.6 9.04-7 9.04-12.74C31 5.34 27.46 2 21.97 2m53 0c-2.55 0-5.08 1.98-6.46 3.82C67.1 3.98 64.6 2 62.04 2 56.54 2 53 5.33 53 9.64c0 5.73 4.41 9.13 9.04 12.74 1.66 1.23 4.78 4.4 5.17 5.1.38.68 2.1.7 2.58 0 .48-.73 3.5-3.87 5.17-5.1 4.63-3.6 9.04-7 9.04-12.74C84 5.34 80.45 2 74.96 2" fill="#FF5353" fill-opacity=".8"/></g><g id="eyebrows-defaultNatural-76472216"><path fill-rule="evenodd" clip-rule="evenodd" d="M18.68 6.15c-5.8.27-15.2 4.49-14.95 10.34 0 .15.3.24.43.1 2.75-2.97 22.31-5.96 29.2-4.37.63.14 1.11-.48.71-.93-3.42-3.82-10.17-5.4-15.39-5.15m59.91 0c5.8.27 15.2 4.49 14.95 10.34 0 .15-.29.24-.42.1-2.76-2.97-22.32-5.96-29.2-4.37-.64.14-1.12-.48-.72-.93 3.42-3.84 10.2-5.42 15.4-5.17" fill="black" fill-opacity=".6"/></g><g id="top-hat-76472216"><path d="M187.32 138.76C226.9 129.26 254 109.87 254 87.5c0-23.5-29.92-43.72-72.8-52.63l-.31-1.43A40 40 0 0 0 141.82 2h-18.64A40 40 0 0 0 84.1 33.44l-.27 1.21C40.4 43.45 10 63.8 10 87.5c0 22.37 27.1 41.76 66.68 51.26q-.3-1.92-.47-3.9A12 12 0 0 1 66.01 123v-13a12 12 0 0 1 10.01-11.83V92c0-8 1.68-15.62 4.7-22.51 8.61-15.69 92.74-16.49 102.66.16A56 56 0 0 1 188 92v6.17A12 12 0 0 1 198 110v13a12 12 0 0 1-10.2 11.87 56 56 0 0 1-.48 3.9" fill="#ffdeb5"/><path d="M188 92.74c3.85-3.25 6-6.9 6-10.74 0-6.08-5.38-11.65-14.32-15.98a12 12 0 0 1 3.68 3.63A56 56 0 0 1 188 92zm-31.74-33.75a144 144 0 0 0-24.26-2c-8.98 0-17.52.78-25.22 2.17 15.16-2.2 34.11-2.3 49.48-.17m-72.57 7.34C75.12 70.63 70 76.07 70 82c0 3.85 2.15 7.49 6 10.74V92c0-8 1.68-15.62 4.7-22.51a10 10 0 0 1 2.99-3.16" fill="black" fill-opacity=".5"/></g><clipPath id="clip-76472216"><rect width="280" height="280" rx="103.6" ry="103.6"/></clipPath></defs><g clip-path="url(#clip-76472216)"><g transform="translate(50.4, 0)"><path d="M140 36a56 56 0 0 0-56 56v6.17A12 12 0 0 0 74 110v14a12 12 0 0 0 10.3 11.88A56 56 0 0 0 116 180.6V199h-4a72 72 0 0 0-72 72v9h200v-9a72 72 0 0 0-72-72h-4v-18.38a56 56 0 0 0 31.7-44.73A12 12 0 0 0 206 124v-14a12 12 0 0 0-10-11.83V92a56 56 0 0 0-56-56" fill="url(#skin-color-76472216)"/><path d="M116 180.61v8a56 56 0 0 0 24 5.39 56 56 0 0 0 24-5.39v-8a56 56 0 0 1-24 5.39 56 56 0 0 1-24-5.39" fill="black" fill-opacity=".1"/><use transform="translate(40 184.7)" href="#clothes-blazerAndShirt-76472216"/><use transform="translate(94 140)" href="#mouth-vomit-76472216"/><use transform="translate(128 130)" href="#nose-default-76472216"/><use transform="translate(98 98)" href="#eyes-hearts-76472216"/><use transform="translate(91.86 82)" href="#eyebrows-defaultNatural-76472216"/><use transform="translate(8)" href="#top-hat-76472216"/></g></g></svg>