<svg xmlns="http://www.w3.org/2000/svg" viewBox="0 0 280 280" fill="none" shape-rendering="auto" aria-hidden="true"><!-- Generated by DiceBear (https://dicebear.com) --><metadata xmlns:rdf="http://www.w3.org/1999/02/22-rdf-syntax-ns#" xmlns:xsi="http://www.w3.org/2001/XMLSchema-instance" xmlns:dc="http://purl.org/dc/elements/1.1/" xmlns:dcterms="http://purl.org/dc/terms/"><rdf:RDF><rdf:Description><dc:title>Avataaars</dc:title><dc:creator>Pablo Stanley</dc:creator><dc:source xsi:type="dcterms:URI">https://avataaars.com/</dc:source><dcterms:license xsi:type="dcterms:URI">https://avataaars.com/</dcterms:license><dc:rights>Remix of “Avataaars” (https://avataaars.com/) by “Pablo Stanley”, licensed under “Free for personal and commercial use” (https://avataaars.com/)</dc:rights></rdf:Description></rdf:RDF></metadata><defs><linearGradient id="skin-color-d6be58cc" gradientTransform="rotate(-128, 0.5, 0.5)"><stop offset="0%" stop-color="#fd9841"/><stop offset="100%" stop-color="#5096bc"/></linearGradient><g id="clothes-overall-d6be58cc"><path d="M164 23.94V95.3H36V23.94a72 72 0 0 1 26-8.95v44.28h76V15a72 72 0 0 1 26 8.94" fill="#e1fe88"/><path d="M54 68.3a5 5 0 1 1-10 0 5 5 0 0 1 10 0m102 0a5 5 0 1 1-10 0 5 5 0 0 1 10 0" fill="#F4F4F4"/></g><g id="mouth-vomit-d6be58cc"><path fill-rule="evenodd" clip-rule="evenodd" d="M26 24.4C27.14 13.9 30.24 5 46 5s18.92 8.96 20 19.5c.08.84-.83 1.5-1.96 1.5-6.69 0-9.37-1.5-18.05-1.5-8.7 0-13.25 1.5-17.9 1.5-1.16 0-2.2-.55-2.1-1.6" fill="black" fill-opacity=".7"/><path d="M59.86 9.1c-.8.57-1.8.9-2.86.9H36c-1.3 0-2.49-.5-3.38-1.31C35.56 6.39 39.8 5 46 5c6.54 0 10.9 1.54 13.86 4.1" fill="white"/><path d="M34 19a6 6 0 0 0-6 6v7a6 6 0 0 0 12 0v-2h.08a6 6 0 0 1 11.84 0H52a6 6 0 0 0 12 0v-5a6 6 0 0 0-6-6z" fill="#7BB24B"/><path d="M64 25a6 6 0 0 0-6-6H34a6 6 0 0 0-6 6v6a6 6 0 0 0 12 0v-2h.08a6 6 0 0 1 11.84 0H52a6 6 0 0 0 12 0z" fill="#88C553"/></g><g id="nose-default-d6be58cc"><path fill-rule="evenodd" clip-rule="evenodd" d="M0 0c0 4.42 5.37 8 12 8s12-3.58 12-8" fill="black" fill-opacity=".16"/></g><g id="eyes-xDizzy-d6be58cc"><path d="M20.5 22.7 15 17.2l-5.5 5.5c-.4.4-1.1.4-1.6 0l-1.6-1.6c-.4-.4-.4-1.1 0-1.6l5.5-5.5-5.5-5.5c-.4-.5-.4-1.2 0-1.6l1.6-1.6c.4-.4 1.1-.4 1.6 0l5.5 5.5 5.5-5.5c.4-.4 1.1-.4 1.6 0l1.6 1.6c.4.4.4 1.1 0 1.6L18.2 14l5.5 5.5c.4.4.4 1.1 0 1.6l-1.6 1.6c-.4.4-1.1.4-1.6 0m54 0L69 17.2l-5.5 5.5c-.4.4-1.1.4-1.6 0l-1.6-1.6c-.4-.4-.4-1.1 0-1.6l5.5-5.5-5.5-5.5c-.4-.5-.4-1.2 0-1.6l1.6-1.6c.4-.4 1.1-.4 1.6 0l5.5 5.5 5.5-5.5c.4-.4 1.1-.4 1.6 0l1.6 1.6c.4.4.4 1.1 0 1.6L72.2 14l5.5 5.5c.4.4.4 1.1 0 1.6l-1.6 1.6c-.4.4-1.1.4-1.6 0" fill="black" fill-opacity=".6"/></g><g id="eyebrows-angry-d6be58cc"><path d="M7.75 15.18c4.24-5.76 6.88-5.48 13.31-.62l.67.5c4.83 3.67 7.12 4.94 10.4 4.94a2 2 0 0 0 0-4c-2.06 0-3.9-1.02-7.98-4.12l-.68-.52C19.71 8.53 17.51 7.3 14.77 7c-3.68-.4-7.05 1.48-10.24 5.83a2 2 0 1 0 3.22 2.36m80.78 0c-4.24-5.77-6.88-5.49-13.32-.63l-.67.5c-4.82 3.67-7.1 4.94-10.4 4.94a2 2 0 0 1 0-4c2.06 0 3.9-1.02 7.99-4.12l.67-.52C76.56 8.53 78.76 7.3 81.5 7c3.68-.4 7.06 1.48 10.25 5.83a2 2 0 1 1-3.22 2.36" fill="black" fill-opacity=".6"/></g><g id="top-shortWaved-d6be58cc"><path fill-rule="evenodd" clip-rule="evenodd" d="M182.68 38.95c5.4-4.95 6.7-14.99 3.64-21.5-3.77-8-11.42-9-18.75-5.48-6.9 3.31-13.06 4.42-20.62 2.81-7.26-1.54-14.14-4.26-21.65-4.7-12.32-.74-24.3 3.83-32.7 13.05a36 36 0 0 0-4.11 5.8c-.98 1.63-2.08 3.38-2.5 5.26-.2.9.18 3.1-.27 3.83-.48.8-2.3 1.52-3.07 2.1a25 25 0 0 0-4.18 4.05c-2.66 3.22-4.13 6.59-5.37 10.57-4.1 13.25-4.45 29 .86 42 .7 1.74 2.9 5.36 4.18 1.64.26-.73-.33-3.19-.33-3.93 0-2.72 1.5-20.73 8.05-30.82 2.13-3.28 11.97-15.58 13.98-15.68 1.07 1.7 11.88 12.51 39.94 11.24 12.66-.59 22.4-6.28 24.74-8.74 1.03 5.53 13 13.81 14.82 17.22 5.26 9.85 6.43 30.3 8.44 30.27s3.45-5.24 3.87-6.23c3.07-7.38 3.6-16.64 3.26-24.56-.42-10.2-4.63-21.23-12.23-28.22" fill="#b58143"/></g><linearGradient id="accessoriesWayfarers-a" x1="74.52" y1="48.93" x2="74.52" y2="84.07" gradientUnits="userSpaceOnUse"><stop stop-color="white" stop-opacity=".5"/><stop offset=".71" stop-opacity=".5"/></linearGradient><linearGradient id="accessoriesWayfarers-b" x1="74.52" y1="48.93" x2="74.52" y2="84.07" gradientUnits="userSpaceOnUse"><stop stop-color="white" stop-opacity=".5"/><stop offset=".71" stop-opacity=".5"/></linearGradient><g id="accessories-wayfarers-d6be58cc"><path fill-rule="evenodd" clip-rule="evenodd" d="M33.48 48c-21.12 0-28.63 5.17-29.32 5.86a2.93 2.93 0 0 0-2.93 2.93v2.92a2.93 2.93 0 0 0 2.93 2.93s5.87 0 5.87 2.93q0 .3.03.45-.04 1.23-.04 2.48c0 12.84 8.3 20.5 22.18 20.5h2.75c14.68 0 24.93-8.43 24.93-20.5q0-2.17-.15-4.28l1.45-.73q.86-.42 1.88-.64a13.4 13.4 0 0 1 5.94.28q1.1.3 1.5.46l1.25.5a51 51 0 0 0-.16 4.4c0 12.81 8.29 20.5 22.18 20.5h2.75c14.68 0 24.93-8.46 24.93-20.5q0-1.28-.05-2.5.03-.18.04-.46c0-2.93 5.86-2.93 5.86-2.93 1.62 0 2.93-1.3 2.93-2.93v-2.9a2.93 2.93 0 0 0-2.93-2.93c-.69-.69-8.19-5.86-29.32-5.86h-2.93q-2.74 0-5.08.21c-9.38.56-14.46 2.2-19.63 4.76-.54.2-2.38.8-4.53.88a17 17 0 0 1-4.77-.92l-.42-.2c-4.9-2.46-8.35-4.19-20.55-4.62q-1.73-.1-3.66-.1zm-1.11 5.86h1.11q3.66 0 6.48.1C54 54.8 54 60.91 54 68.5c0 8.62-7.84 14.64-19.06 14.64H32.2c-13.49 0-16.32-7.96-16.32-14.64 0-8 0-14.37 16.5-14.64m26.1 4.36.1.03-.08.03zm14.51 0-.07.03.05.02zm16.7-4.12a125 125 0 0 1 9.41-.24c16.48.27 16.48 6.63 16.48 14.64 0 8.62-7.84 14.64-19.06 14.64h-2.75c-13.49 0-16.32-7.96-16.32-14.64 0-7.25 0-13.15 12.24-14.4" fill="black" fill-opacity=".1"/><path d="M34.95 84.07c13.75 0 22-7.87 22-17.57s-1.3-17.57-20.55-17.57h-2.93c-19.24 0-20.53 7.86-20.53 17.57 0 9.7 5.5 17.57 19.25 17.57z" fill="black" fill-opacity=".7"/><path d="M34.95 84.07c13.75 0 22-7.87 22-17.57s-1.3-17.57-20.55-17.57h-2.93c-19.24 0-20.53 7.86-20.53 17.57 0 9.7 5.5 17.57 19.25 17.57z" fill="url(#accessoriesWayfarers-a)" style="mix-blend-mode:screen"/><path d="M96.52 84.07c13.75 0 22-7.87 22-17.57s-1.3-17.57-20.54-17.57h-2.93c-19.25 0-20.53 7.86-20.53 17.57 0 9.7 5.5 17.57 19.25 17.57z" fill="black" fill-opacity=".7"/><path d="M96.52 84.07c13.75 0 22-7.87 22-17.57s-1.3-17.57-20.54-17.57h-2.93c-19.25 0-20.53 7.86-20.53 17.57 0 9.7 5.5 17.57 19.25 17.57z" fill="url(#accessoriesWayfarers-b)" style="mix-blend-mode:screen"/><path fill-rule="evenodd" clip-rule="evenodd" d="M33.48 46c-21.12 0-28.63 5.17-29.32 5.86a2.93 2.93 0 0 0-2.93 2.93v2.92a2.93 2.93 0 0 0 2.93 2.93s5.87 0 5.87 2.93q0 .3.03.45-.04 1.23-.04 2.48c0 12.84 8.3 20.5 22.18 20.5h2.75c14.68 0 24.93-8.43 24.93-20.5q0-2.17-.15-4.28l1.45-.73q.86-.42 1.88-.64a13.4 13.4 0 0 1 5.94.28q1.1.29 1.5.46l1.25.5a51 51 0 0 0-.16 4.4c0 12.81 8.29 20.5 22.18 20.5h2.75c14.68 0 24.93-8.46 24.93-20.5q0-1.28-.05-2.5.03-.17.04-.46c0-2.93 5.86-2.93 5.86-2.93 1.62 0 2.93-1.3 2.93-2.93v-2.9a2.93 2.93 0 0 0-2.93-2.93c-.69-.69-8.19-5.86-29.32-5.86h-2.93q-2.74 0-5.08.21c-9.38.56-14.46 2.2-19.63 4.76-.54.2-2.38.8-4.53.88a17 17 0 0 1-4.77-.92l-.42-.2c-4.9-2.46-8.35-4.19-20.55-4.62q-1.73-.1-3.66-.1zm-1.11 5.86h1.11q3.66 0 6.48.1C54 52.8 54 58.91 54 66.5c0 8.62-7.84 14.64-19.06 14.64H32.2c-13.49 0-16.32-7.96-16.32-14.64 0-8 0-14.37 16.5-14.64m26.1 4.36.1.03-.08.03zm14.51 0-.07.03.05.02zm16.7-4.12a125 125 0 0 1 9.41-.24c16.48.27 16.48 6.63 16.48 14.64 0 8.62-7.84 14.64-19.06 14.64h-2.75c-13.49 0-16.32-7.96-16.32-14.64 0-7.25 0-13.15 12.24-14.4" fill="#3c4f5c"/></g><clipPath id="clip-d6be58cc"><rect width="280" height="280" rx="103.6" ry="103.6"/></clipPath></defs><g clip-path="url(#clip-d6be58cc)"><g transform="translate(50.4, 0)"><path d="M140 36a56 56 0 0 0-56 56v6.17A12 12 0 0 0 74 110v14a12 12 0 0 0 10.3 11.88A56 56 0 0 0 116 180.6V199h-4a72 72 0 0 0-72 72v9h200v-9a72 72 0 0 0-72-72h-4v-18.38a56 56 0 0 0 31.7-44.73A12 12 0 0 0 206 124v-14a12 12 0 0 0-10-11.83V92a56 56 0 0 0-56-56" fill="url(#skin-color-d6be58cc)"/><path d="M116 180.61v8a56 56 0 0 0 24 5.39 56 56 0 0 0 24-5.39v-8a56 56 0 0 1-24 5.39 56 56 0 0 1-24-5.39" fill="black" fill-opacity=".1"/><use transform="translate(40 184.7)" href="#clothes-overall-d6be58cc"/><use transform="translate(94 140)" href="#mouth-vomit-d6be58cc"/><use transform="translate(128 130)" href="#nose-default-d6be58cc"/><use transform="translate(98 98)" href="#eyes-xDizzy-d6be58cc"/><use transform="translate(91.86 82)" href="#eyebrows-angry-d6be58cc"/><use transform="translate(8)" href="#top-shortWaved-d6be58cc"/><use transform="translate(75.77 46)" href="#accessories-wayfarers-d6be58cc"/></g></g></svg>