<svg xmlns="http://www.w3.org/2000/svg" viewBox="0 0 280 280" fill="none" shape-rendering="auto" aria-hidden="true"><!-- Generated by DiceBear (https://dicebear.com) --><metadata xmlns:rdf="http://www.w3.org/1999/02/22-rdf-syntax-ns#" xmlns:xsi="http://www.w3.org/2001/XMLSchema-instance" xmlns:dc="http://purl.org/dc/elements/1.1/" xmlns:dcterms="http://purl.org/dc/terms/"><rdf:RDF><rdf:Description><dc:title>Avataaars</dc:title><dc:creator>Pablo Stanley</dc:creator><dc:source xsi:type="dcterms:URI">https://avataaars.com/</dc:source><dcterms:license xsi:type="dcterms:URI">https://avataaars.com/</dcterms:license><dc:rights>Remix of “Avataaars” (https://avataaars.com/) by “Pablo Stanley”, licensed under “Free for personal and commercial use” (https://avataaars.com/)</dc:rights></rdf:Description></rdf:RDF></metadata><defs><linearGradient id="skin-color-12aafb79" gradientTransform="rotate(-128, 0.5, 0.5)"><stop offset="0%" stop-color="#0f3a1c"/><stop offset="100%" stop-color="#ae5d29"/></linearGradient><g id="clothes-overall-12aafb79"><path d="M164 23.94V95.3H36V23.94a72 72 0 0 1 26-8.95v44.28h76V15a72 72 0 0 1 26 8.94" fill="#b1e2ff"/><path d="M54 68.3a5 5 0 1 1-10 0 5 5 0 0 1 10 0m102 0a5 5 0 1 1-10 0 5 5 0 0 1 10 0" fill="#F4F4F4"/></g><g id="mouth-grimace-12aafb79"><rect x="14" y="1" width="64" height="26" rx="13" fill="black" fill-opacity=".6"/><rect x="16" y="3" width="60" height="22" rx="11" fill="white"/><path d="M16.18 12H24V3.41A11 11 0 0 1 27 3h1v9h9V3h4v9h9V3h4v9h9V3h2q1.02 0 2 .18V12h8.82l.05.28v3.44l-.05.28H67v8.82q-.98.18-2 .18h-2v-9h-9v9h-4v-9h-9v9h-4v-9h-9v9h-1a11 11 0 0 1-3-.41V16h-7.82a11 11 0 0 1 0-4" fill="#E6E6E6"/></g><g id="nose-default-12aafb79"><path fill-rule="evenodd" clip-rule="evenodd" d="M0 0c0 4.42 5.37 8 12 8s12-3.58 12-8" fill="black" fill-opacity=".16"/></g><g id="eyes-winkWacky-12aafb79"><circle cx="68" cy="14" r="12" fill="white"/><circle cx="68" cy="14" r="6" fill="black" fill-opacity=".7"/><path fill-rule="evenodd" clip-rule="evenodd" d="M2.16 17.45C4.01 13.65 8.16 11 13 11c4.81 0 8.96 2.63 10.82 6.4.55 1.13-.24 2.05-1.03 1.37a15 15 0 0 0-9.8-3.43c-3.73 0-7.12 1.24-9.55 3.23-.9.73-1.82-.01-1.28-1.12" fill="black" fill-opacity=".6"/></g><g id="eyebrows-default-12aafb79"><path d="M7.77 17.16c3.91-5.51 14.64-8.6 23.89-6.33a2 2 0 0 0 .95-3.88c-10.73-2.64-23.16.94-28.1 7.9a2 2 0 0 0 3.3 2.3m80.73.01c-3.9-5.5-14.64-8.6-23.9-6.33a2 2 0 0 1-.94-3.88c10.74-2.64 23.17.94 28.1 7.9a2 2 0 0 1-3.25 2.3" fill="black" fill-opacity=".6"/></g><g id="top-dreads-12aafb79"><path d="M241.14 168.86c4.83 6.8 11.1 14 12.24 22.06.45 3.2.7 16.23-7.54 11.43-.27 4.36-.97 4.98.34 9.2.88 2.86 2.08 8.62-3.87 8.1 2.26 6.17 5.88 14.76 2.48 21.16-5.58 10.51-11.89-2.74-13.57-7.49.1 3.28-3.42 9.2-7.84 4.63.35 5.42 2.52 13.78-.66 18.86-6.16 9.85-12.97-2.62-13.2-7.9-1.11 3.56-.28 12.14-7.6 10.15-6.32-1.71-4.03-10.09-2.8-13.87-2.02 3.56-4.5 8.85-4.88 12.87-.34 3.45 2.94 11.57-5.55 10.05-6.52-1.17-6.76-10.9-6.65-15.18.1-3.48 3.46-11.43 1.18-14.25-12.73 5.34.6 23.3-10.95 27.3-3.84 1.32-7.04-1.18-8.32-4.64q.6-2.55-2.28-2.6c-1.2-1.49-2-1.44-2.8-3.66-2.31-6.52 2.2-15.19 5.43-21-3.35 3.05-6.05 7.25-9.7 9.91-2.45 1.8-6.08 2.31-8.37-.17-2.52-2.73-.14-5.34 1.21-7.82 3-5.49 7.73-8.68 12.67-13.08 4.36-3.85 8.22-8.18 12.04-12.37 2.57-2.8 5.01-5.8 7.06-8.97A72 72 0 0 0 160 199h-4v-18.39a56.2 56.2 0 0 0 25.8-24.98c.1-3.28.28-7.1.47-11.2.54-12.09 1.19-26.4.48-35.34l-.2-2.58c-1.12-14.36-1.8-23.03-12-36.06-4.56-5.83-13.18-7.67-21.72-9.5-8.09-1.73-16.1-3.45-20.51-8.5-4.13 4.77-10.14 7.31-16.74 8.98q-2.18.54-4.34.96c-4.98 1.03-9.7 2-13.08 5.6-7.8 8.32-11.23 13.88-13.62 24.26A117 117 0 0 0 78 126.83q.18 2.82.32 5.69c.35 7.1.71 14.32 2.9 21.1a56.2 56.2 0 0 0 26.78 27V199h-4q-1.66 0-3.28.07c.67 3.44 1.09 6.93.81 10.34-.4 5-1.34 9.66-.85 14.7 1.04 10.55 5.41 20.5 9.02 30.55 1.73 4.82 9.36 10.49 6.23 14.46s-13.81-5.47-16.2-10.05c-2.44-4.66-4.65-9.4-7.18-14.03 1.48 6.46 2.77 13.1 4.8 19.4 1.36 4.29 3.43 10.74-2.28 11.96-8.95 1.9-9.3-12.58-10.18-16.9-1.47-7.2-3.1-9.98-5.5-16.97-.49 5.34.34 10.9-.8 16.2-.7 3.19-4.37 5.83-6.57 8.53-7.53 9.28-9.32-6.28-11.23-10.55-3.3 2.4-10.5 7.16-14.9 4.14-3.26-2.23-1.2-6.27-.44-9.03 1.22-4.44 1.94-8.84-1.3-12.86-3.1 3-9.93 4.75-13.89 1.88-5-3.63-.62-8.94 1.63-12.7 4.33-7.26 4.07-15.87 5.44-23.94.46-2.7 1.06-6.26.3-8.12-1.1-2.68-2.3-2.7-4.74-2.1-3.45.87-6.29 2.8-6.87 5.58-.84 4.03 3.57 5.62 3.93 9.12.77 7.55-8.7 4-11.53.62-6.95-8.36-1.26-18.23 4.21-25.56 1.87-2.5 2.4-3.22 2.02-6.48-.77-6.41-2.5-12.18-1.88-18.72.86-8.97 4.3-17.44 9.35-24.82 3.46-5.06 5.3-9.45 5.8-15.57 1.4-17.4 7.31-35.28 15.04-50.74 3.97-7.93 7.96-16.5 14.83-22.4 2.23-1.91 6.24-2.8 8.17-4.65 3.56-3.43.44-9.5 4.95-13.4 3.78-3.24 8.17-2.16 12.28-3.92 4.21-1.81 5.11-7.42 10.21-8.61 5.16-1.2 9.29 2.18 13.66 3.8 6.43 2.38 10.45 1.69 16.76-.3l.08-.03c4.2-1.33 6.95-2.2 10.89.1 2.52 1.5 4.5 5.95 7.62 6.37 3.8.52 9.14-3.04 13.35-2.9 6.45.2 9.6 4.24 12.25 8.55 1.55 2.5 4.4 3.67 6.1 6.15.62.9 1.24 1.8 2.13 2.6 6.31 5.78 14.58 10.26 21.37 15.69 12.66 10.15 15.66 23.88 16.48 37.83.67 11.18-.36 24.3 6.75 34.3 3.71 5.23 7.82 9.74 10.02 15.86.78 2.19 1.85 5.2.51 7.12-1.8 2.58-6.36 2.6-8.3.14-1.9 5.87 4.56 14.35 8.02 19.22" fill="#191762"/><path d="M181.5 156.2c-.07 3 0 5.98.38 8.86.33 2.5.84 4.91 1.34 7.31 1.13 5.33 2.23 10.56 1.3 16.27-.75 4.53-2.73 8.87-5.36 12.94A72 72 0 0 0 160 199h-4v-18.39a56.2 56.2 0 0 0 25.5-24.4m-80.78 42.86c-.36-1.85-.8-3.68-1.23-5.48-2.14-8.82-6.42-16.63-10.77-24.55a256 256 0 0 1-5.56-10.53 37 37 0 0 1-1.95-4.89 56.2 56.2 0 0 0 26.8 27V199h-4q-1.63 0-3.25.07" fill="black" fill-opacity=".24"/><path d="M101.48 33.5c-1.67 0-12.16 4.75-8.24 6.16 2.4.86 12.5-6.15 8.24-6.15m68.57 13.85q-1.27.56.04 1.07 1.27-.57-.04-1.07m24.46 18.24a27 27 0 0 0-1.37-2.76c-.89-1.27-6.24-8.4-2.47-7.5 2.08.48 4.9 6.17 6.15 8.74.78 1.57 4.28 7.12.72 6.75-.63-.07-1.95-2.92-3.03-5.23m8.51 45.15c-.15-1.17.25-4.76-2.46-3.42-1.8.9.67 11.72.82 13.13l.46 3.95v.03c.6 6.07 1.42 12.1 1.33 18.23 0 .76-1.2 6.66 1.55 5.4 1.46-.66.78-8.74.57-11.2-.74-8.72-1.1-17.46-2.27-26.12m-138.66 11.5c.08 1.58-.7 9.75 1.43 9.8 1.83.04 1.24-8.4 1-11.83-.08-1.08-.08-11.14-2.1-9.9-2.35 1.4-.49 9.51-.37 11.93M72.8 180c0-1.43.82-14.45-1.9-11.38-1.37 1.54-.48 7.02-.35 8.88.05.7-.52 2.86.41 3.19.76.26 1.83.32 1.84-.7m-25.68 13.17c1.93-.05.14-37.83-2.82-37.79-2.08.03 1.36 37.83 2.82 37.8m2.23 19.35c-2.4 0-1.95 8.46-.54 9.13 2.14 1.03 3.23-9.13.54-9.13m15.24 3.54c.02 1.05-1.18 1.07-1.98.74-.72-.3-.63-2.31-.58-3.49.05-1.1-.15-2.2-.3-3.29-.5-3.38-1.27-8.48.03-9.65 1.98-1.78 2.02.17 2.55 1.5 1.56 3.9.2 10.03.28 14.19m137.43-46.47c-2.53-.5-3.85 8.1-2.7 9.01 1.92 1.53 5.35-8.49 2.7-9.01m-.26 37.8c-1.14-.23-9.44 15.73-8.76 16.63 1.3 1.72 12.83-15.82 8.75-16.64m-20.42 7.38c-1.78-.8-9.33 10.75-7.4 11.62 1.75.78 9.56-10.65 7.4-11.62m42.1-43.31c-2.16 0-2.06 11.82-.4 12.56 1.7.78 2.94-12.56.4-12.56M82.51 54.2c1.26-.65 5.45-.87 3.1 1.29-2 1.84-9.53 12.51-12.12 12.62-4.22.18 2.6-7.24 4.76-9.6 1.33-1.45 2.5-3.41 4.26-4.32m-24.26 29.8c-2.18-.44-5.83 10.26-4.56 11.55 1.93 1.95 7.01-11.07 4.56-11.56M80.4 201.85c.48-2.6 2.38-.2 2.8 1.14.4 1.34 4.62 11.08 3.56 12.36-1.63 1.97-2.34-1.37-2.9-2.57-1.31-2.83-3.92-8.43-3.46-10.93M75 225.82c-2.31 0-2.04 9.8-.68 10.38 2.12.9 3.48-10.38.67-10.38m156.82-21.94a58 58 0 0 1 4.98 13.57c.14.6 2.06 5.56-.66 4.84-1.56-.41-1.8-4.78-2.2-6.1a33 33 0 0 0-2.58-5.56c-1.41-2.63-2.85-5.31-3.06-7.64-.33-3.9 1.84-2.42 3.52.89m-14.72 13.07c-2.13 0-2.24 10.77-.9 11.4 1.86.88 3.62-11.4.9-11.4m6.16-88.3c1.58-.4-3.4-13.32-5.18-13.18-2.7.22 2.78 13.8 5.18 13.18m-26.82 56.1q-1.27.57.05 1.07 1.27-.57-.05-1.07m-24.21 55.24c.79 0 1.12-1.23-.06-1.25-.77 0-1.18 1.25.06 1.25m-98.54-55.36c.03-1.9-2.46-.5-2.45 1.1.03 3.21 2.4 1.75 2.45-1.1m-6.16-47.75c-.8 0-1.13 1.24.05 1.27.78 0 1.2-1.27-.05-1.27m-20.74 62.56c-.1 0 1.53-1.99 1.6-.05.07 1.47-1.31.06-1.6.05M52.6 98.06c-2.37 0-2.02 5.76-.51 6.13 2.52.61 2.86-6.13.5-6.13m12.62 124.27c-2.28 0-2.44 7.8-.86 8.3 2.45.75 3.24-8.3.86-8.3m-18.75 5.6q-1.3.6.04 1.1 1.3-.58-.04-1.1m170 3.35c-2.32 0-2.23 9.56-.8 10.2 1.98.9 3.48-10.2.8-10.2m-23.51 8.88c-2.4-.48-3.68 7.4-2.55 8.3 1.85 1.45 5.02-7.8 2.55-8.3m-20.48 7.29c-2 0-1.5 3.58-.36 4.1 2.02.93 2.62-4.1.41-4.1" fill="white" fill-opacity=".3"/></g><clipPath id="clip-12aafb79"><rect width="280" height="280" rx="103.6" ry="103.6"/></clipPath></defs><g clip-path="url(#clip-12aafb79)"><g transform="translate(50.4, 0)"><path d="M140 36a56 56 0 0 0-56 56v6.17A12 12 0 0 0 74 110v14a12 12 0 0 0 10.3 11.88A56 56 0 0 0 116 180.6V199h-4a72 72 0 0 0-72 72v9h200v-9a72 72 0 0 0-72-72h-4v-18.38a56 56 0 0 0 31.7-44.73A12 12 0 0 0 206 124v-14a12 12 0 0 0-10-11.83V92a56 56 0 0 0-56-56" fill="url(#skin-color-12aafb79)"/><path d="M116 180.61v8a56 56 0 0 0 24 5.39 56 56 0 0 0 24-5.39v-8a56 56 0 0 1-24 5.39 56 56 0 0 1-24-5.39" fill="black" fill-opacity=".1"/><use transform="translate(40 184.7)" href="#clothes-overall-12aafb79"/><use transform="translate(94 140)" href="#mouth-grimace-12aafb79"/><use transform="translate(128 130)" href="#nose-default-12aafb79"/><use transform="translate(98 98)" href="#eyes-winkWacky-12aafb79"/><use transform="translate(91.86 82)" href="#eyebrows-default-12aafb79"/><use transform="translate(8)" href="#top-dreads-12aafb79"/></g></g></svg>