<svg xmlns="http://www.w3.org/2000/svg" viewBox="0 0 280 280" fill="none" shape-rendering="auto" aria-hidden="true"><!-- Generated by DiceBear (https://dicebear.com) --><metadata xmlns:rdf="http://www.w3.org/1999/02/22-rdf-syntax-ns#" xmlns:xsi="http://www.w3.org/2001/XMLSchema-instance" xmlns:dc="http://purl.org/dc/elements/1.1/" xmlns:dcterms="http://purl.org/dc/terms/"><rdf:RDF><rdf:Description><dc:title>Avataaars</dc:title><dc:creator>Pablo Stanley</dc:creator><dc:source xsi:type="dcterms:URI">https://avataaars.com/</dc:source><dcterms:license xsi:type="dcterms:URI">https://avataaars.com/</dcterms:license><dc:rights>Remix of “Avataaars” (https://avataaars.com/) by “Pablo Stanley”, licensed under “Free for personal and commercial use” (https://avataaars.com/)</dc:rights></rdf:Description></rdf:RDF></metadata><defs><linearGradient id="skin-color-45eba4f2" gradientTransform="rotate(-128, 0.5, 0.5)"><stop offset="0%" stop-color="#ffdbb4"/><stop offset="100%" stop-color="#fd9841"/></linearGradient><g id="clothes-collarAndSweater-45eba4f2"><path d="M68.37 14.45A28 28 0 0 1 76 6.88v15.3C76 28 79.98 33.16 86.08 36.3l-.08.06.9 2.87c3.89 2 8.35 3.13 13.1 3.13s9.21-1.14 13.1-3.13l.9-2.87-.08-.06C120.02 33.16 124 28 124 22.18V7.58a27 27 0 0 1 6.6 6.82A72 72 0 0 1 200 86.36v8.95H0v-8.95a72 72 0 0 1 68.37-71.91" fill="#4e6a35"/><path d="M76 6.88c-6.77 4.6-11 11.17-11 18.45 0 7.4 4.36 14.06 11.3 18.67l6.12-4.82 4.58.33-1-3.15.08-.06C79.98 33.16 76 28 76 22.18zm48 15.3c0 5.83-3.98 10.98-10.08 14.12l.08.06-1 3.15 4.58-.33 5.65 4.45c6.63-4.6 10.77-11.1 10.77-18.3 0-6.92-3.82-13.19-10-17.74z" fill="white" fill-opacity=".75"/></g><g id="mouth-disbelief-45eba4f2"><path fill-rule="evenodd" clip-rule="evenodd" d="M32 23a14 14 0 1 1 28 0" fill="black" fill-opacity=".7"/></g><g id="nose-default-45eba4f2"><path fill-rule="evenodd" clip-rule="evenodd" d="M0 0c0 4.42 5.37 8 12 8s12-3.58 12-8" fill="black" fill-opacity=".16"/></g><g id="eyes-side-45eba4f2"><path d="M13 8c-4.84 0-9 2.65-10.84 6.45-.54 1.1.39 1.85 1.28 1.12a15 15 0 0 1 9.8-3.22 6 6 0 1 0 10.7 2.8 2 2 0 0 0-.12-.74l-.15-.38a6 6 0 0 0-1.64-2.48C19.9 9.32 16.5 8 13 8m58 0c-4.84 0-9 2.65-10.84 6.45-.54 1.1.39 1.85 1.28 1.12a15 15 0 0 1 9.8-3.22 6 6 0 1 0 10.7 2.8 2 2 0 0 0-.12-.74l-.15-.38a6 6 0 0 0-1.64-2.48C77.9 9.32 74.5 8 71 8" fill="black" fill-opacity=".6"/></g><g id="eyebrows-upDown-45eba4f2"><path d="M7.73 14.16c4.5-6.32 14.01-9.5 23.75-6.36a2 2 0 1 0 1.23-3.81c-11.4-3.7-22.74.1-28.24 7.85a2 2 0 1 0 3.26 2.32m80.78 7c-3.91-5.51-14.64-8.6-23.89-6.33a2 2 0 0 1-.95-3.88c10.73-2.64 23.16.94 28.1 7.9a2 2 0 0 1-3.26 2.3" fill="black" fill-opacity=".6"/></g><g id="top-winterHat03-45eba4f2"><circle cx="132" cy="20" r="20" fill="#F4F4F4"/><path fill-rule="evenodd" clip-rule="evenodd" d="M66 78a66 66 0 1 1 132 0v5H66z" fill="#808615"/><path fill-rule="evenodd" clip-rule="evenodd" d="M63 69.77a7 7 0 0 1 3.05-5.96c7.8-5.17 30.42-17.8 66.02-17.8s58.14 12.63 65.9 17.82a7 7 0 0 1 3.03 5.95v30.2c0 3.3-3.9 5.38-6.78 3.75C183.84 97.82 162.1 88 132.8 88a133.6 133.6 0 0 0-63.17 15.98c-2.85 1.56-6.63-.5-6.63-3.75z" fill="black" fill-opacity=".1"/><path fill-rule="evenodd" clip-rule="evenodd" d="M63 67.77a7 7 0 0 1 3.05-5.96c7.8-5.17 30.42-17.8 66.02-17.8s58.14 12.63 65.9 17.82a7 7 0 0 1 3.03 5.95v30.2c0 3.3-3.9 5.38-6.78 3.75C183.84 95.82 162.1 86 132.8 86a133.6 133.6 0 0 0-63.17 15.98c-2.85 1.56-6.63-.5-6.63-3.75z" fill="#F4F4F4"/></g><clipPath id="clip-45eba4f2"><rect width="280" height="280" rx="103.6" ry="103.6"/></clipPath></defs><g clip-path="url(#clip-45eba4f2)"><g transform="translate(50.4, 0)"><path d="M140 36a56 56 0 0 0-56 56v6.17A12 12 0 0 0 74 110v14a12 12 0 0 0 10.3 11.88A56 56 0 0 0 116 180.6V199h-4a72 72 0 0 0-72 72v9h200v-9a72 72 0 0 0-72-72h-4v-18.38a56 56 0 0 0 31.7-44.73A12 12 0 0 0 206 124v-14a12 12 0 0 0-10-11.83V92a56 56 0 0 0-56-56" fill="url(#skin-color-45eba4f2)"/><path d="M116 180.61v8a56 56 0 0 0 24 5.39 56 56 0 0 0 24-5.39v-8a56 56 0 0 1-24 5.39 56 56 0 0 1-24-5.39" fill="black" fill-opacity=".1"/><use transform="translate(40 184.7)" href="#clothes-collarAndSweater-45eba4f2"/><use transform="translate(94 140)" href="#mouth-disbelief-45eba4f2"/><use transform="translate(128 130)" href="#nose-default-45eba4f2"/><use transform="translate(98 98)" href="#eyes-side-45eba4f2"/><use transform="translate(91.86 82)" href="#eyebrows-upDown-45eba4f2"/><use transform="translate(8)" href="#top-winterHat03-45eba4f2"/></g></g></svg>