<svg xmlns="http://www.w3.org/2000/svg" viewBox="0 0 280 280" fill="none" shape-rendering="auto" aria-hidden="true"><!-- Generated by DiceBear (https://dicebear.com) --><metadata xmlns:rdf="http://www.w3.org/1999/02/22-rdf-syntax-ns#" xmlns:xsi="http://www.w3.org/2001/XMLSchema-instance" xmlns:dc="http://purl.org/dc/elements/1.1/" xmlns:dcterms="http://purl.org/dc/terms/"><rdf:RDF><rdf:Description><dc:title>Avataaars</dc:title><dc:creator>Pablo Stanley</dc:creator><dc:source xsi:type="dcterms:URI">https://avataaars.com/</dc:source><dcterms:license xsi:type="dcterms:URI">https://avataaars.com/</dcterms:license><dc:rights>Remix of “Avataaars” (https://avataaars.com/) by “Pablo Stanley”, licensed under “Free for personal and commercial use” (https://avataaars.com/)</dc:rights></rdf:Description></rdf:RDF></metadata><defs><linearGradient id="skin-color-509f0155" gradientTransform="rotate(-128, 0.5, 0.5)"><stop offset="0%" stop-color="#040f07"/><stop offset="100%" stop-color="#9f6ff4"/></linearGradient><g id="clothes-shirtScoopNeck-509f0155"><path d="M100.5 51.13c27.34 0 49.5-13.2 49.5-29.48q0-2.04-.46-4A72 72 0 0 1 200 86.35v8.95H0v-8.95A72 72 0 0 1 51.53 17.3a18 18 0 0 0-.53 4.34c0 16.28 22.16 29.48 49.5 29.48" fill="#552246"/></g><g id="mouth-tongue-509f0155"><path fill-rule="evenodd" clip-rule="evenodd" d="M21 9.6C22.41 19.24 33.06 27 46 27c12.97 0 23.65-7.82 25-18.26.1-.4-.22-1.74-2.17-1.74H23.17c-1.79 0-2.3 1.24-2.17 2.6" fill="black" fill-opacity=".7"/><path d="M62 7H31a5 5 0 0 0 5 5h21a5 5 0 0 0 5-5" fill="white"/><path d="M35 17.5v9a11.5 11.5 0 1 0 23 0v-9c0-1.93-2.91-3.5-6.5-3.5-2.01 0-3.8.5-5 1.26a9.5 9.5 0 0 0-5-1.26c-3.59 0-6.5 1.57-6.5 3.5" fill="#FF4F6D"/></g><g id="nose-default-509f0155"><path fill-rule="evenodd" clip-rule="evenodd" d="M0 0c0 4.42 5.37 8 12 8s12-3.58 12-8" fill="black" fill-opacity=".16"/></g><g id="eyes-happy-509f0155"><path fill-rule="evenodd" clip-rule="evenodd" d="M2.16 14.45C4.01 10.65 8.16 8 13 8c4.81 0 8.96 2.63 10.82 6.4.55 1.13-.24 2.05-1.03 1.37a15 15 0 0 0-9.8-3.43c-3.73 0-7.12 1.24-9.55 3.23-.9.73-1.82-.01-1.28-1.12m58 0C62.01 10.65 66.16 8 71 8c4.81 0 8.96 2.63 10.82 6.4.55 1.13-.24 2.05-1.03 1.37a15 15 0 0 0-9.8-3.43c-3.76 0-7.15 1.24-9.58 3.23-.9.73-1.82-.01-1.28-1.12" fill="black" fill-opacity=".6"/></g><g id="eyebrows-sadConcernedNatural-509f0155"><path fill-rule="evenodd" clip-rule="evenodd" d="m23.37 20.42-.91.4c-5.24 2.09-13.2 1.21-18.06-1.12-.56-.27-.18-1.15.4-1.1 14.92 1.14 24.97-8.15 28.38-14.45.1-.18.4-.2.48-.03 2.31 5.32-4.45 13.98-10.3 16.3m49.54 0 .9.4c5.26 2.09 13.2 1.2 18.06-1.12.57-.27.18-1.15-.4-1.1-14.92 1.14-24.96-8.15-28.38-14.45-.1-.18-.4-.2-.48-.03-2.3 5.32 4.45 13.98 10.3 16.3" fill="black" fill-opacity=".6"/></g><g id="top-miaWallace-509f0155"><path fill-rule="evenodd" clip-rule="evenodd" d="M68.03 76.21q19.4-49.6 41.03-49.6c.54 0 29.25-.23 48.05-.35C177.77 35.59 192 55.3 192 78.1V93h-82.94l-2.8-23.18-3.9 23.18H68V78.11q0-.95.03-1.9" fill="black" fill-opacity=".16"/><path d="M39 145c-.09-18.98 30.32-97.2 41-110 7.92-9.5 27.7-15.45 52-15s44.86 3.81 53 14c12.32 15.43 40.09 92.02 40 111-.1 21.27-9.62 33.59-18.6 45.22A293 293 0 0 0 202 196c-10.28-2.66-27.85-5.18-46-6.68v-8.7A56 56 0 0 0 188 130V92q0-2.02-.14-4h-76.8l-2.8-21.44-3.9 21.44H76.14Q76 89.98 76 92v38a56 56 0 0 0 32 50.61v8.7c-18.15 1.5-35.72 4.03-46 6.69q-2.14-2.88-4.39-5.78c-9-11.62-18.5-23.95-18.61-45.22" fill="#8cb1bf"/></g><clipPath id="clip-509f0155"><rect width="280" height="280" rx="103.6" ry="103.6"/></clipPath></defs><g clip-path="url(#clip-509f0155)"><g transform="translate(50.4, 0)"><path d="M140 36a56 56 0 0 0-56 56v6.17A12 12 0 0 0 74 110v14a12 12 0 0 0 10.3 11.88A56 56 0 0 0 116 180.6V199h-4a72 72 0 0 0-72 72v9h200v-9a72 72 0 0 0-72-72h-4v-18.38a56 56 0 0 0 31.7-44.73A12 12 0 0 0 206 124v-14a12 12 0 0 0-10-11.83V92a56 56 0 0 0-56-56" fill="url(#skin-color-509f0155)"/><path d="M116 180.61v8a56 56 0 0 0 24 5.39 56 56 0 0 0 24-5.39v-8a56 56 0 0 1-24 5.39 56 56 0 0 1-24-5.39" fill="black" fill-opacity=".1"/><use transform="translate(40 184.7)" href="#clothes-shirtScoopNeck-509f0155"/><use transform="translate(94 140)" href="#mouth-tongue-509f0155"/><use transform="translate(128 130)" href="#nose-default-509f0155"/><use transform="translate(98 98)" href="#eyes-happy-509f0155"/><use transform="translate(91.86 82)" href="#eyebrows-sadConcernedNatural-509f0155"/><use transform="translate(8)" href="#top-miaWallace-509f0155"/></g></g></svg>