<svg xmlns="http://www.w3.org/2000/svg" viewBox="0 0 280 280" fill="none" shape-rendering="auto" aria-hidden="true"><!-- Generated by DiceBear (https://dicebear.com) --><metadata xmlns:rdf="http://www.w3.org/1999/02/22-rdf-syntax-ns#" xmlns:xsi="http://www.w3.org/2001/XMLSchema-instance" xmlns:dc="http://purl.org/dc/elements/1.1/" xmlns:dcterms="http://purl.org/dc/terms/"><rdf:RDF><rdf:Description><dc:title>Avataaars</dc:title><dc:creator>Pablo Stanley</dc:creator><dc:source xsi:type="dcterms:URI">https://avataaars.com/</dc:source><dcterms:license xsi:type="dcterms:URI">https://avataaars.com/</dcterms:license><dc:rights>Remix of “Avataaars” (https://avataaars.com/) by “Pablo Stanley”, licensed under “Free for personal and commercial use” (https://avataaars.com/)</dc:rights></rdf:Description></rdf:RDF></metadata><defs><linearGradient id="skin-color-e87ec407" gradientTransform="rotate(-128, 0.5, 0.5)"><stop offset="0%" stop-color="#040f07"/><stop offset="100%" stop-color="#ffdbb4"/></linearGradient><g id="clothes-shirtVNeck-e87ec407"><path d="M60.68 15.24A72 72 0 0 0 0 86.36v8.95h200v-8.95a72 72 0 0 0-60.68-71.12 24 24 0 0 1-7.56 13.6l-29.08 26.23a4 4 0 0 1-5.36 0L68.24 28.84a24 24 0 0 1-7.56-13.6" fill="#bafe19"/></g><g id="mouth-smile-e87ec407"><path fill-rule="evenodd" clip-rule="evenodd" d="M27.12 9.13a19 19 0 0 0 37.77-.09c.08-.77-.77-2.04-1.85-2.04H29.1C28 7 27 8.18 27.12 9.13" fill="black" fill-opacity=".7"/><path d="M62 7H31a5 5 0 0 0 5 5h21a5 5 0 0 0 5-5" fill="white"/><path d="M58.7 21.14A11 11 0 0 0 46 19.2a10.95 10.95 0 0 0-12.7 1.94A19 19 0 0 0 46 26c4.88 0 9.33-1.84 12.7-4.86" fill="#FF4F6D"/></g><g id="nose-default-e87ec407"><path fill-rule="evenodd" clip-rule="evenodd" d="M0 0c0 4.42 5.37 8 12 8s12-3.58 12-8" fill="black" fill-opacity=".16"/></g><g id="eyes-side-e87ec407"><path d="M13 8c-4.84 0-9 2.65-10.84 6.45-.54 1.1.39 1.85 1.28 1.12a15 15 0 0 1 9.8-3.22 6 6 0 1 0 10.7 2.8 2 2 0 0 0-.12-.74l-.15-.38a6 6 0 0 0-1.64-2.48C19.9 9.32 16.5 8 13 8m58 0c-4.84 0-9 2.65-10.84 6.45-.54 1.1.39 1.85 1.28 1.12a15 15 0 0 1 9.8-3.22 6 6 0 1 0 10.7 2.8 2 2 0 0 0-.12-.74l-.15-.38a6 6 0 0 0-1.64-2.48C77.9 9.32 74.5 8 71 8" fill="black" fill-opacity=".6"/></g><g id="eyebrows-upDownNatural-e87ec407"><path fill-rule="evenodd" clip-rule="evenodd" d="m14.9 1.58.91-.4C21.06-.9 29-.03 33.86 2.3c.57.27.18 1.15-.4 1.1C18.54 2.27 8.5 11.56 5.08 17.86c-.1.18-.4.2-.48.03C2.3 12.56 9.05 3.9 14.9 1.58m64.23 10.49c5.76.77 14.75 5.8 14 11.6-.03.2-.32.26-.44.1-2.49-3.2-21.7-7.87-28.72-6.9-.64.1-1.06-.57-.62-.98 3.74-3.54 10.62-4.52 15.78-3.82" fill="black" fill-opacity=".6"/></g><g id="top-shortWaved-e87ec407"><path fill-rule="evenodd" clip-rule="evenodd" d="M182.68 38.95c5.4-4.95 6.7-14.99 3.64-21.5-3.77-8-11.42-9-18.75-5.48-6.9 3.31-13.06 4.42-20.62 2.81-7.26-1.54-14.14-4.26-21.65-4.7-12.32-.74-24.3 3.83-32.7 13.05a36 36 0 0 0-4.11 5.8c-.98 1.63-2.08 3.38-2.5 5.26-.2.9.18 3.1-.27 3.83-.48.8-2.3 1.52-3.07 2.1a25 25 0 0 0-4.18 4.05c-2.66 3.22-4.13 6.59-5.37 10.57-4.1 13.25-4.45 29 .86 42 .7 1.74 2.9 5.36 4.18 1.64.26-.73-.33-3.19-.33-3.93 0-2.72 1.5-20.73 8.05-30.82 2.13-3.28 11.97-15.58 13.98-15.68 1.07 1.7 11.88 12.51 39.94 11.24 12.66-.59 22.4-6.28 24.74-8.74 1.03 5.53 13 13.81 14.82 17.22 5.26 9.85 6.43 30.3 8.44 30.27s3.45-5.24 3.87-6.23c3.07-7.38 3.6-16.64 3.26-24.56-.42-10.2-4.63-21.23-12.23-28.22" fill="#256249"/></g><clipPath id="clip-e87ec407"><rect width="280" height="280" rx="103.6" ry="103.6"/></clipPath></defs><g clip-path="url(#clip-e87ec407)"><g transform="translate(50.4, 0)"><path d="M140 36a56 56 0 0 0-56 56v6.17A12 12 0 0 0 74 110v14a12 12 0 0 0 10.3 11.88A56 56 0 0 0 116 180.6V199h-4a72 72 0 0 0-72 72v9h200v-9a72 72 0 0 0-72-72h-4v-18.38a56 56 0 0 0 31.7-44.73A12 12 0 0 0 206 124v-14a12 12 0 0 0-10-11.83V92a56 56 0 0 0-56-56" fill="url(#skin-color-e87ec407)"/><path d="M116 180.61v8a56 56 0 0 0 24 5.39 56 56 0 0 0 24-5.39v-8a56 56 0 0 1-24 5.39 56 56 0 0 1-24-5.39" fill="black" fill-opacity=".1"/><use transform="translate(40 184.7)" href="#clothes-shirtVNeck-e87ec407"/><use transform="translate(94 140)" href="#mouth-smile-e87ec407"/><use transform="translate(128 130)" href="#nose-default-e87ec407"/><use transform="translate(98 98)" href="#eyes-side-e87ec407"/><use transform="translate(91.86 82)" href="#eyebrows-upDownNatural-e87ec407"/><use transform="translate(8)" href="#top-shortWaved-e87ec407"/></g></g></svg>