<svg xmlns="http://www.w3.org/2000/svg" viewBox="0 0 280 280" fill="none" shape-rendering="auto" aria-hidden="true"><!-- Generated by DiceBear (https://dicebear.com) --><metadata xmlns:rdf="http://www.w3.org/1999/02/22-rdf-syntax-ns#" xmlns:xsi="http://www.w3.org/2001/XMLSchema-instance" xmlns:dc="http://purl.org/dc/elements/1.1/" xmlns:dcterms="http://purl.org/dc/terms/"><rdf:RDF><rdf:Description><dc:title>Avataaars</dc:title><dc:creator>Pablo Stanley</dc:creator><dc:source xsi:type="dcterms:URI">https://avataaars.com/</dc:source><dcterms:license xsi:type="dcterms:URI">https://avataaars.com/</dcterms:license><dc:rights>Remix of “Avataaars” (https://avataaars.com/) by “Pablo Stanley”, licensed under “Free for personal and commercial use” (https://avataaars.com/)</dc:rights></rdf:Description></rdf:RDF></metadata><defs><linearGradient id="skin-color-948d1a51" gradientTransform="rotate(-128, 0.5, 0.5)"><stop offset="0%" stop-color="#ffdbb4"/><stop offset="100%" stop-color="#5096bc"/></linearGradient><g id="clothes-shirtScoopNeck-948d1a51"><path d="M100.5 51.13c27.34 0 49.5-13.2 49.5-29.48q0-2.04-.46-4A72 72 0 0 1 200 86.35v8.95H0v-8.95A72 72 0 0 1 51.53 17.3a18 18 0 0 0-.53 4.34c0 16.28 22.16 29.48 49.5 29.48" fill="#befee2"/></g><g id="mouth-grimace-948d1a51"><rect x="14" y="1" width="64" height="26" rx="13" fill="black" fill-opacity=".6"/><rect x="16" y="3" width="60" height="22" rx="11" fill="white"/><path d="M16.18 12H24V3.41A11 11 0 0 1 27 3h1v9h9V3h4v9h9V3h4v9h9V3h2q1.02 0 2 .18V12h8.82l.05.28v3.44l-.05.28H67v8.82q-.98.18-2 .18h-2v-9h-9v9h-4v-9h-9v9h-4v-9h-9v9h-1a11 11 0 0 1-3-.41V16h-7.82a11 11 0 0 1 0-4" fill="#E6E6E6"/></g><g id="nose-default-948d1a51"><path fill-rule="evenodd" clip-rule="evenodd" d="M0 0c0 4.42 5.37 8 12 8s12-3.58 12-8" fill="black" fill-opacity=".16"/></g><g id="eyes-winkWacky-948d1a51"><circle cx="68" cy="14" r="12" fill="white"/><circle cx="68" cy="14" r="6" fill="black" fill-opacity=".7"/><path fill-rule="evenodd" clip-rule="evenodd" d="M2.16 17.45C4.01 13.65 8.16 11 13 11c4.81 0 8.96 2.63 10.82 6.4.55 1.13-.24 2.05-1.03 1.37a15 15 0 0 0-9.8-3.43c-3.73 0-7.12 1.24-9.55 3.23-.9.73-1.82-.01-1.28-1.12" fill="black" fill-opacity=".6"/></g><g id="eyebrows-flatNatural-948d1a51"><path fill-rule="evenodd" clip-rule="evenodd" d="M30.8 11.1c-5 .35-9.93.08-14.92-.13-3.83-.16-7.72-.68-11.37 1-.7.33-4.53 2.29-4.45 3.36.08.85 3.94 2.2 4.64 2.44 3.66 1.29 7.18.9 10.95.66 4.63-.27 9.23-.07 13.86-.2 3.18-.1 7.98-.63 9.5-4.4.48-1.14.1-3.42-.34-4.66-.2-.5-.72-.69-1.13-.4a15 15 0 0 1-6.68 2.32m34.67 0c4.99.36 9.9.09 14.9-.12 3.83-.16 7.72-.68 11.38 1 .7.33 4.53 2.29 4.44 3.36-.07.85-3.94 2.2-4.63 2.44-3.67 1.29-7.18.9-10.96.66-4.62-.27-9.23-.07-13.86-.2-3.11-.1-7.91-.63-9.45-4.4-.47-1.14-.1-3.42.36-4.66.18-.5.72-.69 1.12-.4a15 15 0 0 0 6.7 2.32" fill="black" fill-opacity=".6"/></g><g id="top-froBand-948d1a51"><path d="M249 70.5q0 1.2-.1 2.37A57.7 57.7 0 0 1 260 107c0 7.16-1.3 14.01-3.67 20.34q.67 2.98.67 6.16c0 9.79-4.93 18.42-12.45 23.56a53.5 53.5 0 0 1-53.86 29.63A36.4 36.4 0 0 1 167.5 195c-4.02 0-7.88-.65-11.5-1.85v-12.54a56 56 0 0 0 31.8-45.74A12 12 0 0 0 198 123v-13a12 12 0 0 0-10-11.83V92a56 56 0 0 0-2.22-15.68l1.37 12.87-11.34-24-45.13-19.52-30.12 10.56-21.5 20.2-.04-2.61A56 56 0 0 0 76 92v6.17A12 12 0 0 0 66 110v13a12 12 0 0 0 10.2 11.87A56 56 0 0 0 108 180.6v10.94A36 36 0 0 1 92.5 195a36.4 36.4 0 0 1-23.19-8.31q-2.86.3-5.81.31a53.5 53.5 0 0 1-48.05-29.94 28.5 28.5 0 0 1-11.78-29.72A58 58 0 0 1 0 107a57.7 57.7 0 0 1 11.1-34.13 28.5 28.5 0 0 1 16-28.04 55 55 0 0 1 47.55-31.78 28.4 28.4 0 0 1 26.6-7.24A84 84 0 0 1 132 0a84 84 0 0 1 29.4 5.3q2.01-.3 4.1-.3a28.4 28.4 0 0 1 19.85 8.05 55 55 0 0 1 47.55 31.78A28.5 28.5 0 0 1 249 70.5" fill="#0b6210"/><path d="M187.37 98.98q.62-3.84.63-7.83C188 62.35 162.7 39 131.5 39S75 62.35 75 91.15q0 4 .63 7.82c4.1-25.09 27.55-44.32 55.87-44.32s51.78 19.23 55.87 44.33" fill="#92D9FF"/></g><clipPath id="clip-948d1a51"><rect width="280" height="280" rx="103.6" ry="103.6"/></clipPath></defs><g clip-path="url(#clip-948d1a51)"><g transform="translate(50.4, 0)"><path d="M140 36a56 56 0 0 0-56 56v6.17A12 12 0 0 0 74 110v14a12 12 0 0 0 10.3 11.88A56 56 0 0 0 116 180.6V199h-4a72 72 0 0 0-72 72v9h200v-9a72 72 0 0 0-72-72h-4v-18.38a56 56 0 0 0 31.7-44.73A12 12 0 0 0 206 124v-14a12 12 0 0 0-10-11.83V92a56 56 0 0 0-56-56" fill="url(#skin-color-948d1a51)"/><path d="M116 180.61v8a56 56 0 0 0 24 5.39 56 56 0 0 0 24-5.39v-8a56 56 0 0 1-24 5.39 56 56 0 0 1-24-5.39" fill="black" fill-opacity=".1"/><use transform="translate(40 184.7)" href="#clothes-shirtScoopNeck-948d1a51"/><use transform="translate(94 140)" href="#mouth-grimace-948d1a51"/><use transform="translate(128 130)" href="#nose-default-948d1a51"/><use transform="translate(98 98)" href="#eyes-winkWacky-948d1a51"/><use transform="translate(91.86 82)" href="#eyebrows-flatNatural-948d1a51"/><use transform="translate(8)" href="#top-froBand-948d1a51"/></g></g></svg>