<svg xmlns="http://www.w3.org/2000/svg" viewBox="0 0 280 280" fill="none" shape-rendering="auto" aria-hidden="true"><!-- Generated by DiceBear (https://dicebear.com) --><metadata xmlns:rdf="http://www.w3.org/1999/02/22-rdf-syntax-ns#" xmlns:xsi="http://www.w3.org/2001/XMLSchema-instance" xmlns:dc="http://purl.org/dc/elements/1.1/" xmlns:dcterms="http://purl.org/dc/terms/"><rdf:RDF><rdf:Description><dc:title>Avataaars</dc:title><dc:creator>Pablo Stanley</dc:creator><dc:source xsi:type="dcterms:URI">https://avataaars.com/</dc:source><dcterms:license xsi:type="dcterms:URI">https://avataaars.com/</dcterms:license><dc:rights>Remix of “Avataaars” (https://avataaars.com/) by “Pablo Stanley”, licensed under “Free for personal and commercial use” (https://avataaars.com/)</dc:rights></rdf:Description></rdf:RDF></metadata><defs><linearGradient id="skin-color-b6c033ff" gradientTransform="rotate(-128, 0.5, 0.5)"><stop offset="0%" stop-color="#3cf487"/><stop offset="100%" stop-color="#3ef477"/></linearGradient><g id="clothesGraphic-hola-b6c033ff"><path d="M63.84 16q-.43.98-.82 1.95L63 18l2-.16A19 19 0 0 0 63.84 16m-10.62.3c.2-.06.42-.13.7-.3.15.42.26 3.29-1.35 2.98-.92-.18-.5-1.77-.25-2.1.34-.41.6-.49.9-.58" fill="white"/><path fill-rule="evenodd" clip-rule="evenodd" d="M74.64 15.95C73.46 10.68 70.6 6.97 66.18 4c-3.35-2.25-6.5-2.23-10.46-1.75a24 24 0 0 0-9.2 2.94c-5.04 2.89-7.92 6.74-8.6 12.54-.28 2.33-.33 5.1.5 7.32.48 1.3 1.34 2.34 2.25 3.36.15.17.5.47.86.79.6.52 1.26 1.1 1.28 1.29.12.86-2.2 3.4-2.89 4.15l-.12.14c-.23.25-.73.6-1.3.99-1.02.7-2.25 1.55-2.43 2.2-.83 2.93 5.83 1.89 7.45 1.63a37 37 0 0 0 4.62-.98q1.06-.3 2.07-.72c.56-.23 1.17-.7 1.78-1.16.7-.52 1.38-1.03 1.97-1.2a6 6 0 0 1 2.1.02c.6.07 1.2.14 1.7.1a26 26 0 0 0 4.5-.88 19 19 0 0 0 7.05-3.84c4.42-3.76 6.6-9.24 5.33-15m-5.13 7c-.62.15-1.36-1.25-1.08-1.73.77-1.34 2.16 1.42 1.08 1.72m-2.22-9.38c-.27 1.1.12 2.95.4 4.05.04.36.4.47.7.43.55-.08.45-.56.36-.97q-.05-.24-.06-.4c.04-.75.11-2.64-.17-3.32-.5-1.26-.97-1.02-1.27.21m-.65 8.33c-.58.34-.86-.29-1.05-.74q-.08-.2-.16-.32a1.4 1.4 0 0 1-.29-.72c0-.18-.02-.22-.58-.39-1.77-.52-1.8.7-1.84 1.94 0 .72-.03 1.45-.39 1.84-1.78 1.91-.58-3.68-.37-4.68l.03-.1.12-.67c.34-1.95 1.02-5.85 2.67-3.1.5.8 2.7 6.5 1.87 6.98m-10.37-.95c.6.6 3.7.22 4.02-.34.68-1.18-1.85-.85-2.78-.73l-.29.03q.08-1.12.21-2.27c.12-1.05.24-2.1.23-3.15v-.17c.02-.62.06-1.94-.96-1.2-.34.24-.33 1.18-.33 1.81v.46c-.02.23-.08.6-.15 1.02-.24 1.51-.6 3.87.04 4.54m-.77-2.78c-1.43 5.73-6.98 2.64-4.5-1.7.46-.8.83-.99 1.41-1.27q.32-.14.75-.4.07-.05.06-.27c0-.27.01-.65.42-.64 1.76.03 2.18 2.93 1.85 4.28m-7 .83c-.04.88-.14 3.31.97 3.01.76-.19.54-9.97-.33-9.97-.92 0-.75 1.78-.6 3.33.1 1 .2 1.91-.04 2.17-.1.12-.5.1-.84.06h-.4c-1.15.2-1.9.08-2.25-.6-.1-.2-.1-.7-.1-1.3 0-1.33-.02-2.96-1.15-1.5l.03 2.2q.5 1.08-.38 1.32c-.02.3.16.58.28.77q.11.16.12.24.02.24 0 .67c-.09 1.26-.2 3.54.91 3.4.71-.08.5-2.28.37-3.42l-.05-.6.91.03c.86.04 1.73.08 2.56-.03z" fill="white"/></g><g id="clothes-graphicShirt-b6c033ff"><path d="M100.5 39.3c18.5 0 33.5-9.62 33.5-21.5q0-1.64-.38-3.23A72 72 0 0 1 200 86.36v8.95H0v-8.95A72 72 0 0 1 67.4 14.5a14 14 0 0 0-.4 3.3c0 11.88 15 21.5 33.5 21.5" fill="#fe502d"/><use transform="translate(45 44.3)" href="#clothesGraphic-hola-b6c033ff"/></g><g id="mouth-default-b6c033ff"><path fill-rule="evenodd" clip-rule="evenodd" d="M32 9a14 14 0 1 0 28 0" fill="black" fill-opacity=".7"/></g><g id="nose-default-b6c033ff"><path fill-rule="evenodd" clip-rule="evenodd" d="M0 0c0 4.42 5.37 8 12 8s12-3.58 12-8" fill="black" fill-opacity=".16"/></g><g id="eyes-default-b6c033ff"><path d="M22 14a6 6 0 1 1-12 0 6 6 0 0 1 12 0m52 0a6 6 0 1 1-12 0 6 6 0 0 1 12 0" fill="black" fill-opacity=".6"/></g><g id="eyebrows-upDownNatural-b6c033ff"><path fill-rule="evenodd" clip-rule="evenodd" d="m14.9 1.58.91-.4C21.06-.9 29-.03 33.86 2.3c.57.27.18 1.15-.4 1.1C18.54 2.27 8.5 11.56 5.08 17.86c-.1.18-.4.2-.48.03C2.3 12.56 9.05 3.9 14.9 1.58m64.23 10.49c5.76.77 14.75 5.8 14 11.6-.03.2-.32.26-.44.1-2.49-3.2-21.7-7.87-28.72-6.9-.64.1-1.06-.57-.62-.98 3.74-3.54 10.62-4.52 15.78-3.82" fill="black" fill-opacity=".6"/></g><g id="top-miaWallace-b6c033ff"><path fill-rule="evenodd" clip-rule="evenodd" d="M68.03 76.21q19.4-49.6 41.03-49.6c.54 0 29.25-.23 48.05-.35C177.77 35.59 192 55.3 192 78.1V93h-82.94l-2.8-23.18-3.9 23.18H68V78.11q0-.95.03-1.9" fill="black" fill-opacity=".16"/><path d="M39 145c-.09-18.98 30.32-97.2 41-110 7.92-9.5 27.7-15.45 52-15s44.86 3.81 53 14c12.32 15.43 40.09 92.02 40 111-.1 21.27-9.62 33.59-18.6 45.22A293 293 0 0 0 202 196c-10.28-2.66-27.85-5.18-46-6.68v-8.7A56 56 0 0 0 188 130V92q0-2.02-.14-4h-76.8l-2.8-21.44-3.9 21.44H76.14Q76 89.98 76 92v38a56 56 0 0 0 32 50.61v8.7c-18.15 1.5-35.72 4.03-46 6.69q-2.14-2.88-4.39-5.78c-9-11.62-18.5-23.95-18.61-45.22" fill="#4a312c"/></g><clipPath id="clip-b6c033ff"><rect width="280" height="280" rx="103.6" ry="103.6"/></clipPath></defs><g clip-path="url(#clip-b6c033ff)"><g transform="translate(50.4, 0)"><path d="M140 36a56 56 0 0 0-56 56v6.17A12 12 0 0 0 74 110v14a12 12 0 0 0 10.3 11.88A56 56 0 0 0 116 180.6V199h-4a72 72 0 0 0-72 72v9h200v-9a72 72 0 0 0-72-72h-4v-18.38a56 56 0 0 0 31.7-44.73A12 12 0 0 0 206 124v-14a12 12 0 0 0-10-11.83V92a56 56 0 0 0-56-56" fill="url(#skin-color-b6c033ff)"/><path d="M116 180.61v8a56 56 0 0 0 24 5.39 56 56 0 0 0 24-5.39v-8a56 56 0 0 1-24 5.39 56 56 0 0 1-24-5.39" fill="black" fill-opacity=".1"/><use transform="translate(40 184.7)" href="#clothes-graphicShirt-b6c033ff"/><use transform="translate(94 140)" href="#mouth-default-b6c033ff"/><use transform="translate(128 130)" href="#nose-default-b6c033ff"/><use transform="translate(98 98)" href="#eyes-default-b6c033ff"/><use transform="translate(91.86 82)" href="#eyebrows-upDownNatural-b6c033ff"/><use transform="translate(8)" href="#top-miaWallace-b6c033ff"/></g></g></svg>