<svg xmlns="http://www.w3.org/2000/svg" viewBox="0 0 280 280" fill="none" shape-rendering="auto" aria-hidden="true"><!-- Generated by DiceBear (https://dicebear.com) --><metadata xmlns:rdf="http://www.w3.org/1999/02/22-rdf-syntax-ns#" xmlns:xsi="http://www.w3.org/2001/XMLSchema-instance" xmlns:dc="http://purl.org/dc/elements/1.1/" xmlns:dcterms="http://purl.org/dc/terms/"><rdf:RDF><rdf:Description><dc:title>Avataaars</dc:title><dc:creator>Pablo Stanley</dc:creator><dc:source xsi:type="dcterms:URI">https://avataaars.com/</dc:source><dcterms:license xsi:type="dcterms:URI">https://avataaars.com/</dcterms:license><dc:rights>Remix of “Avataaars” (https://avataaars.com/) by “Pablo Stanley”, licensed under “Free for personal and commercial use” (https://avataaars.com/)</dc:rights></rdf:Description></rdf:RDF></metadata><defs><linearGradient id="skin-color-c506b9df" gradientTransform="rotate(-128, 0.5, 0.5)"><stop offset="0%" stop-color="#eaf4d2"/><stop offset="100%" stop-color="#9f6ff4"/></linearGradient><g id="clothesGraphic-cumbia-c506b9df"><path fill-rule="evenodd" clip-rule="evenodd" d="M10.27 29.13c3.28-.56 5.73-3.55 5.18-6.79-.46-2.72-1.74-.34-2.97.86-1.34 1.3-2.45 2.57-4.54 2.05-3.6-.9-4.86-5.4-3.84-8.48a6 6 0 0 1 3.48-3.7c1.85-.74 3.2.1 4.75 1.1.28.19 1.73 1.37 2 1.25.45-.21.1-2.43.04-2.73a4.8 4.8 0 0 0-2.62-3.23C8.4 7.82 4.23 9.94 2.1 12.5c-4.88 5.9-.91 18.17 8.17 16.62m8.41-6.22c.51 3.48 2.99 6.5 6.96 6.36 4.28-.16 6.06-4.1 7-7.5.97-3.4 2.06-7.67.67-11.08-.42-1.03-.68-2.38-1.71-1.53-1.26 1.03-1.41 4.04-1.52 5.44-.2 2.65-.78 9.97-4.1 10.95-4.18 1.22-4.05-5.85-4-7.98.03-1.9.24-3.73-.35-5.58-.3-1-.59-2.44-1.53-1.64-1.29 1.1-1.45 3.83-1.54 5.33a36 36 0 0 0 .13 7.23m19.09 2.85c.2.4.63 1.4 1.02 1.67.95.67-.05.71.8-.05.82-.73 1.13-2.72 1.26-3.67.38-2.96-.12-6.1-.09-9.1 1.02 2.22 1.58 4.6 2.39 6.88.55 1.58 1.4 4.8 3.65 4.75 2.5-.05 2.6-3.14 2.9-4.82a71 71 0 0 1 1.7-7.04c.1 3.91-1.4 11 2.1 13.92a50 50 0 0 0 1.5-4.4c.26-1.7.1-3.45.1-5.15.09-3.6.76-8-.3-11.5-.29-1.14-.94-2.27-2.37-2.24-1.83.04-2.24 2-2.7 3.3a114 114 0 0 0-3.35 10.94c-.54-1.68-5.33-16.42-8.8-10.9-.54.9-.3 2.22-.32 3.2-.04 1.87-.15 3.75-.2 5.63-.06 2.84-.4 5.9.8 8.58M62.1 12.71c.72-.14 5.74-1.73 5.52-.14-.22 1.68-4.63 3.31-5.81 3.88 0-1.2-.24-2.44-.65-3.57zm5.72-.64c-.03-.04 0 0 0 0m.12 8.34c2.27 1.22 1.3 3.42-.43 4.6-.63.56-6.5 1.9-6.49 1.76.18-1.7-.26-5 1-6 1.3-1.05 4.5-.82 5.94-.27m.06-8.01s.01.03 0 0M58 29.33c.23.55.86 1.91 1.57 1.94.86.04.8-1.04.93-1.7 3.44 1.72 8.5-.05 10.9-3.03a6.15 6.15 0 0 0-2.57-9.74c2.1-1.7 4.02-5.4 1.25-7.5a7.7 7.7 0 0 0-8.12-.3c-2.74 1.72-3.85 5.83-4.1 9-.25 3.42-1.15 8.14.14 11.34m18.11-8.4c.07 2.07-.15 4.3.33 6.3.17.72.44 1.52.76 2.17.61 1.2.31 1.06 1.03.37 2.18-2.08 1.21-8.58 1.16-11.25-.04-2.08.06-4.28-.5-6.28-.17-.56-1.13-3.35-1.67-3.3-.8.1-1.37 3.94-1.42 4.7-.15 2.4.23 4.9.31 7.3m18.7.56c-1.58-.14-3.62.07-5.12.56.7-1.9 1.48-4.05 2.24-5.8q.7-1.6 1.5-3.22c1.27 2.68 1.98 5.82 2.82 8.66q-.7-.12-1.44-.2m5.44.72c-.73-2.77-1.58-5.53-2.43-8.27-.54-1.75-1.13-3.92-2.6-5.17-4.2-3.56-6.56 5.85-7.6 8.23-.97 2.3-2.2 4.65-2.84 7.07a10 10 0 0 0-.24 3.63c.2 1.52 0 1.74 1.3.9 1-.62 1.4-1.78 2.22-2.55.14-.14.22-.68.4-.76.18-.1 1.5.25 1.8.27 2.18.17 4.72-.2 6.72-1.03.2.86 1.63 5.98 2.98 5.79.6-.08.96-3.06 1-3.54.08-1.55-.36-3.05-.75-4.54m9.11-13.7c-.26-1.2-.8-3.3-1.84-2.12-1.4 1.6-1.1 5.18-1.1 7.19-.03 1.45-1.56 12.06.55 11.88-.1-.01.84-1.68.98-1.93a12 12 0 0 0 1.32-4.72c.37-3.24.8-7.12.1-10.3M108.2 29.4c-2.23-2.73-6.3.66-5.04 3.38 1.73 3.7 7.33-.57 5.04-3.38m-13.3 4.23c-2.9-.73-6.3-.24-9.25-.15-3.08.1-6.16.27-9.24.36-6.57.2-13.13.1-19.7.04-12.38-.1-24.86.7-37.32.17-2.67-.12-5.54-.72-8.2-.2-.72.13-3 .53-3.32 1.25-.34.76 1.4 1.56 2.33 1.96 2.41 1.04 5.32.86 7.9.96 2.92.12 5.9.06 8.81 0 12.07-.3 24.1-1.35 36.18-1.18 6.97.1 13.93.04 20.9 0 3.32 0 7 .53 10.27-.06.55-.1 3.76-.85 3.8-1.83.03-.46-2.8-1.23-3.12-1.32" fill="white"/></g><g id="clothes-graphicShirt-c506b9df"><path d="M100.5 39.3c18.5 0 33.5-9.62 33.5-21.5q0-1.64-.38-3.23A72 72 0 0 1 200 86.36v8.95H0v-8.95A72 72 0 0 1 67.4 14.5a14 14 0 0 0-.4 3.3c0 11.88 15 21.5 33.5 21.5" fill="#ffffff"/><use transform="translate(45 44.3)" href="#clothesGraphic-cumbia-c506b9df"/></g><g id="mouth-sad-c506b9df"><path fill-rule="evenodd" clip-rule="evenodd" d="M32.06 21.72C32.7 14.7 38.7 10 46 10c7.34 0 13.36 4.75 13.95 11.85.03.38-.87.67-1.32.45Q50.32 18.14 46 18.14q-4.27 0-12.45 4.07c-.5.25-1.53-.07-1.5-.49" fill="black" fill-opacity=".7"/></g><g id="nose-default-c506b9df"><path fill-rule="evenodd" clip-rule="evenodd" d="M0 0c0 4.42 5.37 8 12 8s12-3.58 12-8" fill="black" fill-opacity=".16"/></g><g id="eyes-side-c506b9df"><path d="M13 8c-4.84 0-9 2.65-10.84 6.45-.54 1.1.39 1.85 1.28 1.12a15 15 0 0 1 9.8-3.22 6 6 0 1 0 10.7 2.8 2 2 0 0 0-.12-.74l-.15-.38a6 6 0 0 0-1.64-2.48C19.9 9.32 16.5 8 13 8m58 0c-4.84 0-9 2.65-10.84 6.45-.54 1.1.39 1.85 1.28 1.12a15 15 0 0 1 9.8-3.22 6 6 0 1 0 10.7 2.8 2 2 0 0 0-.12-.74l-.15-.38a6 6 0 0 0-1.64-2.48C77.9 9.32 74.5 8 71 8" fill="black" fill-opacity=".6"/></g><g id="eyebrows-flatNatural-c506b9df"><path fill-rule="evenodd" clip-rule="evenodd" d="M30.8 11.1c-5 .35-9.93.08-14.92-.13-3.83-.16-7.72-.68-11.37 1-.7.33-4.53 2.29-4.45 3.36.08.85 3.94 2.2 4.64 2.44 3.66 1.29 7.18.9 10.95.66 4.63-.27 9.23-.07 13.86-.2 3.18-.1 7.98-.63 9.5-4.4.48-1.14.1-3.42-.34-4.66-.2-.5-.72-.69-1.13-.4a15 15 0 0 1-6.68 2.32m34.67 0c4.99.36 9.9.09 14.9-.12 3.83-.16 7.72-.68 11.38 1 .7.33 4.53 2.29 4.44 3.36-.07.85-3.94 2.2-4.63 2.44-3.67 1.29-7.18.9-10.96.66-4.62-.27-9.23-.07-13.86-.2-3.11-.1-7.91-.63-9.45-4.4-.47-1.14-.1-3.42.36-4.66.18-.5.72-.69 1.12-.4a15 15 0 0 0 6.7 2.32" fill="black" fill-opacity=".6"/></g><g id="top-bob-c506b9df"><path d="M39 145c-.62-30.84 28.32-95.2 39-108 7.92-9.5 29.7-17.45 54-17s46.86 5.81 55 16c12.32 15.43 37.87 74.08 38 109 .1 24.8-9.54 49.66-23 51-7.6.76-17.26-.23-28.86-1.4-5.3-.55-11.02-1.13-17.14-1.6v-12.4a56 56 0 0 0 32-50.6v-28.44a130 130 0 0 1-26.9-19.88c3.35 6.24 7.19 11.9 11.51 16.2-30.54-8.59-51.7-26.16-64.35-39.94C102.4 69.02 91.97 85.24 76 97.57V130a56 56 0 0 0 32 50.61v13.14c-6.94.95-13.4 2.16-19.35 3.27-10.85 2.02-19.98 3.73-27.26 2.98-14.22-1.47-21.88-30.2-22.38-55" fill="#724133"/></g><g id="facialHair-beardMedium-c506b9df"><path fill-rule="evenodd" clip-rule="evenodd" d="M60.5 67.84c-11.5.38-16.64 5.88-20.5.29-2.91-4.2-1.7-11.26 1.01-15.23 3.86-5.65 9.1-2.92 14.95-3.56 1.6-.18 3.2-.62 4.54-1.34a13 13 0 0 0 4.55 1.34c5.85.64 11.08-2.09 14.94 3.56 2.72 3.97 3.93 11.03 1.03 15.23-3.87 5.6-9-.67-20.52-.29M116.4 0c-3.43 14.07-5 28.43-7.5 42.67q-.76 4.46-1.68 8.88c-.12.62-.25 2.92-.86 3.21-1.85.9-5.62-3.8-6.63-4.87-2.53-2.67-5.05-5.36-8.13-7.45a43.7 43.7 0 0 0-21.13-7.32c-3.18-.25-7.47.18-10.47 2-3-1.82-7.3-2.25-10.47-2-7.6.6-14.9 3.1-21.13 7.32-3.09 2.1-5.6 4.78-8.13 7.45-1 1.06-4.78 5.76-6.63 4.87-.6-.29-.74-2.6-.86-3.2q-.9-4.44-1.7-8.89C8.62 28.43 7.04 14.07 3.62 0c-1 0-1.87 18.75-1.98 20.5-.46 7.09-.98 14.03-.3 21.13 1.16 12.24 2.37 27.6 11.7 36.96 8.44 8.45 20.68 10.22 31.24 15.55 1.36.69 3.16 1.54 5.1 2.23C51.44 97.93 55.5 99 60.18 99c4.91 0 9.15-1.17 11.08-2.86 1.7-.65 3.27-1.39 4.48-2 10.56-5.33 22.8-7.1 31.24-15.55 9.33-9.36 10.54-24.72 11.7-36.96.68-7.1.16-14.04-.3-21.14-.1-1.77-.98-20.5-1.98-20.5" fill="#121719"/></g><clipPath id="clip-c506b9df"><rect width="280" height="280" rx="103.6" ry="103.6"/></clipPath></defs><g clip-path="url(#clip-c506b9df)"><g transform="translate(50.4, 0)"><path d="M140 36a56 56 0 0 0-56 56v6.17A12 12 0 0 0 74 110v14a12 12 0 0 0 10.3 11.88A56 56 0 0 0 116 180.6V199h-4a72 72 0 0 0-72 72v9h200v-9a72 72 0 0 0-72-72h-4v-18.38a56 56 0 0 0 31.7-44.73A12 12 0 0 0 206 124v-14a12 12 0 0 0-10-11.83V92a56 56 0 0 0-56-56" fill="url(#skin-color-c506b9df)"/><path d="M116 180.61v8a56 56 0 0 0 24 5.39 56 56 0 0 0 24-5.39v-8a56 56 0 0 1-24 5.39 56 56 0 0 1-24-5.39" fill="black" fill-opacity=".1"/><use transform="translate(40 184.7)" href="#clothes-graphicShirt-c506b9df"/><use transform="translate(94 140)" href="#mouth-sad-c506b9df"/><use transform="translate(128 130)" href="#nose-default-c506b9df"/><use transform="translate(98 98)" href="#eyes-side-c506b9df"/><use transform="translate(91.86 82)" href="#eyebrows-flatNatural-c506b9df"/><use transform="translate(8)" href="#top-bob-c506b9df"/><use transform="translate(81 98)" href="#facialHair-beardMedium-c506b9df"/></g></g></svg>