<svg xmlns="http://www.w3.org/2000/svg" viewBox="0 0 280 280" fill="none" shape-rendering="auto" aria-hidden="true"><!-- Generated by DiceBear (https://dicebear.com) --><metadata xmlns:rdf="http://www.w3.org/1999/02/22-rdf-syntax-ns#" xmlns:xsi="http://www.w3.org/2001/XMLSchema-instance" xmlns:dc="http://purl.org/dc/elements/1.1/" xmlns:dcterms="http://purl.org/dc/terms/"><rdf:RDF><rdf:Description><dc:title>Avataaars</dc:title><dc:creator>Pablo Stanley</dc:creator><dc:source xsi:type="dcterms:URI">https://avataaars.com/</dc:source><dcterms:license xsi:type="dcterms:URI">https://avataaars.com/</dcterms:license><dc:rights>Remix of “Avataaars” (https://avataaars.com/) by “Pablo Stanley”, licensed under “Free for personal and commercial use” (https://avataaars.com/)</dc:rights></rdf:Description></rdf:RDF></metadata><defs><linearGradient id="skin-color-82f2341e" gradientTransform="rotate(-128, 0.5, 0.5)"><stop offset="0%" stop-color="#ffdbb4"/><stop offset="100%" stop-color="#2e91bc"/></linearGradient><g id="clothes-collarAndSweater-82f2341e"><path d="M68.37 14.45A28 28 0 0 1 76 6.88v15.3C76 28 79.98 33.16 86.08 36.3l-.08.06.9 2.87c3.89 2 8.35 3.13 13.1 3.13s9.21-1.14 13.1-3.13l.9-2.87-.08-.06C120.02 33.16 124 28 124 22.18V7.58a27 27 0 0 1 6.6 6.82A72 72 0 0 1 200 86.36v8.95H0v-8.95a72 72 0 0 1 68.37-71.91" fill="#6a5737"/><path d="M76 6.88c-6.77 4.6-11 11.17-11 18.45 0 7.4 4.36 14.06 11.3 18.67l6.12-4.82 4.58.33-1-3.15.08-.06C79.98 33.16 76 28 76 22.18zm48 15.3c0 5.83-3.98 10.98-10.08 14.12l.08.06-1 3.15 4.58-.33 5.65 4.45c6.63-4.6 10.77-11.1 10.77-18.3 0-6.92-3.82-13.19-10-17.74z" fill="white" fill-opacity=".75"/></g><g id="mouth-sad-82f2341e"><path fill-rule="evenodd" clip-rule="evenodd" d="M32.06 21.72C32.7 14.7 38.7 10 46 10c7.34 0 13.36 4.75 13.95 11.85.03.38-.87.67-1.32.45Q50.32 18.14 46 18.14q-4.27 0-12.45 4.07c-.5.25-1.53-.07-1.5-.49" fill="black" fill-opacity=".7"/></g><g id="nose-default-82f2341e"><path fill-rule="evenodd" clip-rule="evenodd" d="M0 0c0 4.42 5.37 8 12 8s12-3.58 12-8" fill="black" fill-opacity=".16"/></g><g id="eyes-closed-82f2341e"><path fill-rule="evenodd" clip-rule="evenodd" d="M2.16 19.55C4.01 23.35 8.16 26 13 26c4.81 0 8.96-2.63 10.82-6.4.55-1.13-.24-2.05-1.03-1.37a15 15 0 0 1-9.8 3.43c-3.73 0-7.12-1.24-9.55-3.23-.9-.73-1.82.01-1.28 1.12m58 0c1.85 3.8 6 6.45 10.84 6.45 4.81 0 8.96-2.63 10.82-6.4.55-1.13-.24-2.05-1.03-1.37a15 15 0 0 1-9.8 3.43c-3.76 0-7.15-1.24-9.58-3.23-.9-.73-1.82.01-1.28 1.12" fill="black" fill-opacity=".6"/></g><g id="eyebrows-upDown-82f2341e"><path d="M7.73 14.16c4.5-6.32 14.01-9.5 23.75-6.36a2 2 0 1 0 1.23-3.81c-11.4-3.7-22.74.1-28.24 7.85a2 2 0 1 0 3.26 2.32m80.78 7c-3.91-5.51-14.64-8.6-23.89-6.33a2 2 0 0 1-.95-3.88c10.73-2.64 23.16.94 28.1 7.9a2 2 0 0 1-3.26 2.3" fill="black" fill-opacity=".6"/></g><g id="top-longButNotTooLong-82f2341e"><path d="M49 90.5c0 4.55 1.7 8.64 4.85 10.77.9.61 2.47.93 4.15 1.07V182a8 8 0 0 0 8 8h42v-9.39a56 56 0 0 1-31.8-45.74A12 12 0 0 1 66 123v-13a12 12 0 0 1 3.87-8.83c11.54-2.61 24.1-7.53 36.47-14.67 12.13-7 22.5-15.24 30.48-23.75a87 87 0 0 1-12.45 20.78q19-8.28 25.9-26.63.56 1.38 1.17 2.76c10.26 23.03 27.88 39.36 45.77 44.74.5 2.11.79 4.08.79 5.6v13a12 12 0 0 1-10.2 11.87A56 56 0 0 1 156 180.6v9.4h18a32 32 0 0 0 32-32v-54.12q0-.1-.03-.28c-.07-5.64-.28-18.87-.6-21.37A74 74 0 0 0 131.99 18c-36.08 0-66.14 25.83-73 60-5.54 0-10 5.6-10 12.5" fill="#624f56"/><path d="M151.44 59.66c11.94 26.81 33.86 44.53 54.56 46.5V92A74 74 0 0 0 59.32 78H59c-5.52 0-10 5.6-10 12.5 0 6.48 3.95 11.81 9 12.44v.15l.95-.1H59a8 8 0 0 0 1.9-.24c13.8-1.77 29.78-7.23 45.44-16.27 12.13-7 22.5-15.25 30.48-23.76a87 87 0 0 1-12.45 20.78q19-8.28 25.9-26.63.56 1.38 1.17 2.76" fill="white" fill-opacity=".08"/></g><clipPath id="clip-82f2341e"><rect width="280" height="280" rx="103.6" ry="103.6"/></clipPath></defs><g clip-path="url(#clip-82f2341e)"><g transform="translate(50.4, 0)"><path d="M140 36a56 56 0 0 0-56 56v6.17A12 12 0 0 0 74 110v14a12 12 0 0 0 10.3 11.88A56 56 0 0 0 116 180.6V199h-4a72 72 0 0 0-72 72v9h200v-9a72 72 0 0 0-72-72h-4v-18.38a56 56 0 0 0 31.7-44.73A12 12 0 0 0 206 124v-14a12 12 0 0 0-10-11.83V92a56 56 0 0 0-56-56" fill="url(#skin-color-82f2341e)"/><path d="M116 180.61v8a56 56 0 0 0 24 5.39 56 56 0 0 0 24-5.39v-8a56 56 0 0 1-24 5.39 56 56 0 0 1-24-5.39" fill="black" fill-opacity=".1"/><use transform="translate(40 184.7)" href="#clothes-collarAndSweater-82f2341e"/><use transform="translate(94 140)" href="#mouth-sad-82f2341e"/><use transform="translate(128 130)" href="#nose-default-82f2341e"/><use transform="translate(98 98)" href="#eyes-closed-82f2341e"/><use transform="translate(91.86 82)" href="#eyebrows-upDown-82f2341e"/><use transform="translate(8)" href="#top-longButNotTooLong-82f2341e"/></g></g></svg>