<svg xmlns="http://www.w3.org/2000/svg" viewBox="0 0 280 280" fill="none" shape-rendering="auto" aria-hidden="true"><!-- Generated by DiceBear (https://dicebear.com) --><metadata xmlns:rdf="http://www.w3.org/1999/02/22-rdf-syntax-ns#" xmlns:xsi="http://www.w3.org/2001/XMLSchema-instance" xmlns:dc="http://purl.org/dc/elements/1.1/" xmlns:dcterms="http://purl.org/dc/terms/"><rdf:RDF><rdf:Description><dc:title>Avataaars</dc:title><dc:creator>Pablo Stanley</dc:creator><dc:source xsi:type="dcterms:URI">https://avataaars.com/</dc:source><dcterms:license xsi:type="dcterms:URI">https://avataaars.com/</dcterms:license><dc:rights>Remix of “Avataaars” (https://avataaars.com/) by “Pablo Stanley”, licensed under “Free for personal and commercial use” (https://avataaars.com/)</dc:rights></rdf:Description></rdf:RDF></metadata><defs><linearGradient id="skin-color-84553eaf" gradientTransform="rotate(-128, 0.5, 0.5)"><stop offset="0%" stop-color="#5096bc"/><stop offset="100%" stop-color="#eaf4d2"/></linearGradient><g id="clothes-shirtCrewNeck-84553eaf"><path d="M100.5 37.13c18.5 0 33.5-9.61 33.5-21.48q0-.52-.04-1.05A72 72 0 0 1 200 86.36v8.95H0v-8.95a72 72 0 0 1 67.05-71.83q-.05.55-.05 1.12c0 11.87 15 21.48 33.5 21.48" fill="#b21fe0"/><path d="M100.5 44.07c21.89 0 39.63-12.05 39.63-26.92q0-.9-.08-1.79-3-.52-6.1-.76.06.52.05 1.05c0 11.87-15 21.48-33.5 21.48S67 27.52 67 15.65q0-.57.05-1.13-3.08.21-6.08.68-.1.97-.1 1.95c0 14.87 17.74 26.92 39.63 26.92" fill="black" fill-opacity=".08"/></g><g id="mouth-concerned-84553eaf"><path fill-rule="evenodd" clip-rule="evenodd" d="M27.12 23.87a19 19 0 0 1 37.77.09c.08.77-.77 2.04-1.85 2.04H29.1c-1.1 0-2.1-1.18-1.98-2.13" fill="black" fill-opacity=".7"/><path d="M61.59 26H30.4A11 11 0 0 1 46 19.2 11 11 0 0 1 61.6 26" fill="#FF4F6D"/><path d="M58.57 11.75A5 5 0 0 1 57 12H36q-1.22-.02-2.24-.53A19 19 0 0 1 46 7c4.82 0 9.22 1.8 12.57 4.75" fill="white"/></g><g id="nose-default-84553eaf"><path fill-rule="evenodd" clip-rule="evenodd" d="M0 0c0 4.42 5.37 8 12 8s12-3.58 12-8" fill="black" fill-opacity=".16"/></g><g id="eyes-xDizzy-84553eaf"><path d="M20.5 22.7 15 17.2l-5.5 5.5c-.4.4-1.1.4-1.6 0l-1.6-1.6c-.4-.4-.4-1.1 0-1.6l5.5-5.5-5.5-5.5c-.4-.5-.4-1.2 0-1.6l1.6-1.6c.4-.4 1.1-.4 1.6 0l5.5 5.5 5.5-5.5c.4-.4 1.1-.4 1.6 0l1.6 1.6c.4.4.4 1.1 0 1.6L18.2 14l5.5 5.5c.4.4.4 1.1 0 1.6l-1.6 1.6c-.4.4-1.1.4-1.6 0m54 0L69 17.2l-5.5 5.5c-.4.4-1.1.4-1.6 0l-1.6-1.6c-.4-.4-.4-1.1 0-1.6l5.5-5.5-5.5-5.5c-.4-.5-.4-1.2 0-1.6l1.6-1.6c.4-.4 1.1-.4 1.6 0l5.5 5.5 5.5-5.5c.4-.4 1.1-.4 1.6 0l1.6 1.6c.4.4.4 1.1 0 1.6L72.2 14l5.5 5.5c.4.4.4 1.1 0 1.6l-1.6 1.6c-.4.4-1.1.4-1.6 0" fill="black" fill-opacity=".6"/></g><g id="eyebrows-upDown-84553eaf"><path d="M7.73 14.16c4.5-6.32 14.01-9.5 23.75-6.36a2 2 0 1 0 1.23-3.81c-11.4-3.7-22.74.1-28.24 7.85a2 2 0 1 0 3.26 2.32m80.78 7c-3.91-5.51-14.64-8.6-23.89-6.33a2 2 0 0 1-.95-3.88c10.73-2.64 23.16.94 28.1 7.9a2 2 0 0 1-3.26 2.3" fill="black" fill-opacity=".6"/></g><g id="top-curly-84553eaf"><path d="M66 105.02c11.38-.72 24.68-14.4 31.98-33.94A179 179 0 0 0 131 74c12.55 0 24.31-1.16 34.45-3.2 7.38 19.96 21.01 33.87 32.55 34.24V88a66 66 0 0 0-38-59.78A184 184 0 0 0 131 26c-9.2 0-17.99.63-26.01 1.76A66 66 0 0 0 66 88z" fill="black" fill-opacity=".16"/><path d="M72 192a48 48 0 0 0 13.6-1.95 72 72 0 0 0 13.68 9.1A73 73 0 0 1 104 199h4v-18.39a56 56 0 0 1-31.8-45.74A12 12 0 0 1 66 123v-13a12 12 0 0 1 10-11.83v-.75c8.46-5.38 16.75-16.36 21.98-30.34A179 179 0 0 0 131 70c12.55 0 24.31-1.16 34.45-3.2 5.31 14.37 13.87 25.6 22.55 30.9v.46q.66.1 1.29.29a24 24 0 0 0 3.23 1.47A12 12 0 0 1 198 110v13a12 12 0 0 1-10.2 11.87A56 56 0 0 1 156 180.6V199h4q2.38 0 4.72.15a72 72 0 0 0 13.69-9.1 48 48 0 0 0 45.19-82.18 44 44 0 0 0-28.37-69.28A44.02 44.02 0 0 0 132 15.9a44.02 44.02 0 0 0-63.23 22.7 44 44 0 0 0-28.37 69.27A48 48 0 0 0 72 192" fill="#f59797"/></g><clipPath id="clip-84553eaf"><rect width="280" height="280" rx="103.6" ry="103.6"/></clipPath></defs><g clip-path="url(#clip-84553eaf)"><g transform="translate(50.4, 0)"><path d="M140 36a56 56 0 0 0-56 56v6.17A12 12 0 0 0 74 110v14a12 12 0 0 0 10.3 11.88A56 56 0 0 0 116 180.6V199h-4a72 72 0 0 0-72 72v9h200v-9a72 72 0 0 0-72-72h-4v-18.38a56 56 0 0 0 31.7-44.73A12 12 0 0 0 206 124v-14a12 12 0 0 0-10-11.83V92a56 56 0 0 0-56-56" fill="url(#skin-color-84553eaf)"/><path d="M116 180.61v8a56 56 0 0 0 24 5.39 56 56 0 0 0 24-5.39v-8a56 56 0 0 1-24 5.39 56 56 0 0 1-24-5.39" fill="black" fill-opacity=".1"/><use transform="translate(40 184.7)" href="#clothes-shirtCrewNeck-84553eaf"/><use transform="translate(94 140)" href="#mouth-concerned-84553eaf"/><use transform="translate(128 130)" href="#nose-default-84553eaf"/><use transform="translate(98 98)" href="#eyes-xDizzy-84553eaf"/><use transform="translate(91.86 82)" href="#eyebrows-upDown-84553eaf"/><use transform="translate(8)" href="#top-curly-84553eaf"/></g></g></svg>