<svg xmlns="http://www.w3.org/2000/svg" viewBox="0 0 280 280" fill="none" shape-rendering="auto" aria-hidden="true"><!-- Generated by DiceBear (https://dicebear.com) --><metadata xmlns:rdf="http://www.w3.org/1999/02/22-rdf-syntax-ns#" xmlns:xsi="http://www.w3.org/2001/XMLSchema-instance" xmlns:dc="http://purl.org/dc/elements/1.1/" xmlns:dcterms="http://purl.org/dc/terms/"><rdf:RDF><rdf:Description><dc:title>Avataaars</dc:title><dc:creator>Pablo Stanley</dc:creator><dc:source xsi:type="dcterms:URI">https://avataaars.com/</dc:source><dcterms:license xsi:type="dcterms:URI">https://avataaars.com/</dcterms:license><dc:rights>Remix of “Avataaars” (https://avataaars.com/) by “Pablo Stanley”, licensed under “Free for personal and commercial use” (https://avataaars.com/)</dc:rights></rdf:Description></rdf:RDF></metadata><defs><linearGradient id="skin-color-55c67fd6" gradientTransform="rotate(-128, 0.5, 0.5)"><stop offset="0%" stop-color="#d08b5b"/><stop offset="100%" stop-color="#ffdbb4"/></linearGradient><g id="clothes-blazerAndShirt-55c67fd6"><path d="M100.5 37.13c18.5 0 33.5-9.61 33.5-21.48q0-.52-.04-1.05A72 72 0 0 1 200 86.36v8.95H0v-8.95a72 72 0 0 1 67.05-71.83q-.05.55-.05 1.12c0 11.87 15 21.48 33.5 21.48" fill="#E6E6E6"/><path d="M100.5 44.07c21.89 0 39.63-12.05 39.63-26.92q0-.9-.08-1.79-3-.51-6.1-.76.06.52.05 1.05c0 11.87-15 21.48-33.5 21.48S67 27.52 67 15.65q0-.57.05-1.12-3.08.2-6.08.67-.1.97-.1 1.95c0 14.87 17.74 26.92 39.63 26.92" fill="black" fill-opacity=".16"/><path d="M68.78 14.43 69 13.3c-2.96.06-6 1-6 1l-.42.67A72 72 0 0 0 0 86.36v8.95h74s-10.7-51.56-5.24-80.8zM126 95.3s11-53 5-82c2.96.06 6 1 6 1l.42.67A72 72 0 0 1 200 86.36v8.95z" fill="#27342f"/><path fill-rule="evenodd" clip-rule="evenodd" d="M69 13.3c-6 29 5 82 5 82H58l-14-36 6-9-6-6 19-30s3.04-.94 6-1m62 0c6 29-5 82-5 82h16l14-36-6-9 6-6-19-30s-3.04-.94-6-1" fill="black" fill-opacity=".15"/><path d="m151.42 71.07.87-2.24 6.27-4.7a4 4 0 0 1 4.85.05l6.6 5.13z" fill="#E6E6E6"/></g><g id="mouth-default-55c67fd6"><path fill-rule="evenodd" clip-rule="evenodd" d="M32 9a14 14 0 1 0 28 0" fill="black" fill-opacity=".7"/></g><g id="nose-default-55c67fd6"><path fill-rule="evenodd" clip-rule="evenodd" d="M0 0c0 4.42 5.37 8 12 8s12-3.58 12-8" fill="black" fill-opacity=".16"/></g><g id="eyes-xDizzy-55c67fd6"><path d="M20.5 22.7 15 17.2l-5.5 5.5c-.4.4-1.1.4-1.6 0l-1.6-1.6c-.4-.4-.4-1.1 0-1.6l5.5-5.5-5.5-5.5c-.4-.5-.4-1.2 0-1.6l1.6-1.6c.4-.4 1.1-.4 1.6 0l5.5 5.5 5.5-5.5c.4-.4 1.1-.4 1.6 0l1.6 1.6c.4.4.4 1.1 0 1.6L18.2 14l5.5 5.5c.4.4.4 1.1 0 1.6l-1.6 1.6c-.4.4-1.1.4-1.6 0m54 0L69 17.2l-5.5 5.5c-.4.4-1.1.4-1.6 0l-1.6-1.6c-.4-.4-.4-1.1 0-1.6l5.5-5.5-5.5-5.5c-.4-.5-.4-1.2 0-1.6l1.6-1.6c.4-.4 1.1-.4 1.6 0l5.5 5.5 5.5-5.5c.4-.4 1.1-.4 1.6 0l1.6 1.6c.4.4.4 1.1 0 1.6L72.2 14l5.5 5.5c.4.4.4 1.1 0 1.6l-1.6 1.6c-.4.4-1.1.4-1.6 0" fill="black" fill-opacity=".6"/></g><g id="eyebrows-sadConcerned-55c67fd6"><path d="M30.17 5.6c-1.48 8.38-14.1 14.17-23.24 10.42a2.04 2.04 0 0 0-2.63 1c-.44.97.03 2.1 1.05 2.5 11.44 4.7 26.83-2.37 28.76-13.3a1.9 1.9 0 0 0-1.64-2.2 2 2 0 0 0-2.3 1.57m35.93 0c1.5 8.39 14.1 14.18 23.25 10.43 1.01-.41 2.2.03 2.62 1s-.03 2.1-1.04 2.5c-11.45 4.7-26.84-2.37-28.77-13.3a1.9 1.9 0 0 1 1.65-2.2 2 2 0 0 1 2.32 1.57" fill="black" fill-opacity=".6"/></g><g id="top-bun-55c67fd6"><path d="M150.12 28.28c3.06-2.97 4.88-6.71 4.88-10.78C155 7.84 144.7 0 132 0s-23 7.84-23 17.5c0 4.1 1.85 7.86 4.94 10.84q-1.48.33-2.9.69c-15.1 3.8-24.02 14.62-31.68 30.62a68 68 0 0 0-6.34 25.83 34 34 0 0 0 1.25 10.22c.33 1.2 2.15 5.39 2.65 2 .1-.66-.07-1.47-.24-2.27q-.2-.84-.26-1.6c-.08-1.56 0-3.15.1-4.72q.29-4.4 1.66-8.59c1.33-3.98 3.02-8.3 5.6-11.67.97-1.25 1.88-2.7 2.88-4.27 5.63-8.9 13.68-21.6 45.34-22.9 34.3-1.42 46.78 21.66 51.2 29.87q.58 1.06.98 1.75c2.67 4.53 2.78 9.75 2.9 14.91.05 2.71.1 5.41.54 8 .47 2.84 1.54 2.78 2.13.23 1-4.33 1.47-8.83 1.15-13.28-.72-10.05-4.4-36.45-24.6-48.15a66 66 0 0 0-16.18-6.73" fill="#256249"/></g><g id="accessories-round-55c67fd6"><path fill-rule="evenodd" clip-rule="evenodd" d="M34.23 92a24 24 0 0 1-22.96-31H4.73a2.5 2.5 0 0 1 0-5h8q.34 0 .66.09a24 24 0 0 1 42.26 1.06A11.4 11.4 0 0 1 65.1 52c4 0 7.54 2.14 9.6 5.4a24 24 0 0 1 42.37-1.31q.31-.1.66-.1h8a2.5 2.5 0 1 1 0 5h-6.53a24 24 0 1 1-46.6 2.84c-.1-4.37-3.45-7.83-7.5-7.83-3.74 0-6.9 2.94-7.43 6.83q.56 2.51.56 5.17a24 24 0 0 1-24 24m0-4a20 20 0 1 0 0-40 20 20 0 0 0 0 40m82-20a20 20 0 1 1-40 0 20 20 0 0 1 40 0" fill="black" fill-opacity=".1"/><path fill-rule="evenodd" clip-rule="evenodd" d="M34.23 90a24 24 0 0 1-22.96-31H4.73a2.5 2.5 0 0 1 0-5h8q.34 0 .66.09a24 24 0 0 1 42.26 1.06A11.4 11.4 0 0 1 65.1 50c4 0 7.54 2.14 9.6 5.4a24 24 0 0 1 42.37-1.31q.31-.1.66-.1h8a2.5 2.5 0 1 1 0 5h-6.53a24 24 0 1 1-46.6 2.84c-.1-4.37-3.45-7.83-7.5-7.83-3.74 0-6.9 2.94-7.43 6.83q.56 2.51.56 5.17a24 24 0 0 1-24 24m0-4a20 20 0 1 0 0-40 20 20 0 0 0 0 40m82-20a20 20 0 1 1-40 0 20 20 0 0 1 40 0" fill="#e6e6e6"/></g><clipPath id="clip-55c67fd6"><rect width="280" height="280" rx="103.6" ry="103.6"/></clipPath></defs><g clip-path="url(#clip-55c67fd6)"><g transform="translate(50.4, 0)"><path d="M140 36a56 56 0 0 0-56 56v6.17A12 12 0 0 0 74 110v14a12 12 0 0 0 10.3 11.88A56 56 0 0 0 116 180.6V199h-4a72 72 0 0 0-72 72v9h200v-9a72 72 0 0 0-72-72h-4v-18.38a56 56 0 0 0 31.7-44.73A12 12 0 0 0 206 124v-14a12 12 0 0 0-10-11.83V92a56 56 0 0 0-56-56" fill="url(#skin-color-55c67fd6)"/><path d="M116 180.61v8a56 56 0 0 0 24 5.39 56 56 0 0 0 24-5.39v-8a56 56 0 0 1-24 5.39 56 56 0 0 1-24-5.39" fill="black" fill-opacity=".1"/><use transform="translate(40 184.7)" href="#clothes-blazerAndShirt-55c67fd6"/><use transform="translate(94 140)" href="#mouth-default-55c67fd6"/><use transform="translate(128 130)" href="#nose-default-55c67fd6"/><use transform="translate(98 98)" href="#eyes-xDizzy-55c67fd6"/><use transform="translate(91.86 82)" href="#eyebrows-sadConcerned-55c67fd6"/><use transform="translate(8)" href="#top-bun-55c67fd6"/><use transform="translate(75.77 46)" href="#accessories-round-55c67fd6"/></g></g></svg>