<svg xmlns="http://www.w3.org/2000/svg" viewBox="0 0 280 280" fill="none" shape-rendering="auto" aria-hidden="true"><!-- Generated by DiceBear (https://dicebear.com) --><metadata xmlns:rdf="http://www.w3.org/1999/02/22-rdf-syntax-ns#" xmlns:xsi="http://www.w3.org/2001/XMLSchema-instance" xmlns:dc="http://purl.org/dc/elements/1.1/" xmlns:dcterms="http://purl.org/dc/terms/"><rdf:RDF><rdf:Description><dc:title>Avataaars</dc:title><dc:creator>Pablo Stanley</dc:creator><dc:source xsi:type="dcterms:URI">https://avataaars.com/</dc:source><dcterms:license xsi:type="dcterms:URI">https://avataaars.com/</dcterms:license><dc:rights>Remix of “Avataaars” (https://avataaars.com/) by “Pablo Stanley”, licensed under “Free for personal and commercial use” (https://avataaars.com/)</dc:rights></rdf:Description></rdf:RDF></metadata><defs><linearGradient id="skin-color-586e6def" gradientTransform="rotate(-128, 0.5, 0.5)"><stop offset="0%" stop-color="#5096bc"/><stop offset="100%" stop-color="#614335"/></linearGradient><g id="clothes-blazerAndSweater-586e6def"><path d="M100 42.36c14.91 0 27-11.2 27-25q0-1.53-.2-3h1.2a72 72 0 0 1 72 72v8.95H0v-8.95a72 72 0 0 1 72-72h1.2q-.2 1.47-.2 3c0 13.8 12.09 25 27 25" fill="#E6E6E6"/><path d="M68.78 14.43 69 13.3c-2.96.06-6 1-6 1l-.42.67A72 72 0 0 0 0 86.36v8.95h74s-10.7-51.56-5.24-80.8zM126 95.3s11-53 5-82c2.96.06 6 1 6 1l.42.67A72 72 0 0 1 200 86.36v8.95z" fill="#25557c"/><path fill-rule="evenodd" clip-rule="evenodd" d="M69 13.3c-6 29 5 82 5 82H58l-14-36 6-9-6-6 19-30s3.04-.94 6-1m62 0c6 29-5 82-5 82h16l14-36-6-9 6-6-19-30s-3.04-.94-6-1" fill="black" fill-opacity=".15"/><path d="M76 6.84c-6.77 4.6-11 11.12-11 18.35 0 7.4 4.43 14.06 11.48 18.67l5.94-4.68 4.58.33-1-3.15.08-.06C79.98 33.16 76 28 76 22.18zm48 15.34c0 5.83-3.98 10.98-10.08 14.12l.08.06-1 3.15 4.58-.33 5.94 4.68C130.57 39.26 135 32.6 135 25.2c0-7.23-4.23-13.75-11-18.35z" fill="#F2F2F2"/><path d="m151.42 71.07.87-2.24 6.27-4.7a4 4 0 0 1 4.85.05l6.6 5.13z" fill="#E6E6E6"/></g><g id="mouth-serious-586e6def"><rect x="34" y="12" width="24" height="6" rx="3" fill="black" fill-opacity=".7"/></g><g id="nose-default-586e6def"><path fill-rule="evenodd" clip-rule="evenodd" d="M0 0c0 4.42 5.37 8 12 8s12-3.58 12-8" fill="black" fill-opacity=".16"/></g><g id="eyes-side-586e6def"><path d="M13 8c-4.84 0-9 2.65-10.84 6.45-.54 1.1.39 1.85 1.28 1.12a15 15 0 0 1 9.8-3.22 6 6 0 1 0 10.7 2.8 2 2 0 0 0-.12-.74l-.15-.38a6 6 0 0 0-1.64-2.48C19.9 9.32 16.5 8 13 8m58 0c-4.84 0-9 2.65-10.84 6.45-.54 1.1.39 1.85 1.28 1.12a15 15 0 0 1 9.8-3.22 6 6 0 1 0 10.7 2.8 2 2 0 0 0-.12-.74l-.15-.38a6 6 0 0 0-1.64-2.48C77.9 9.32 74.5 8 71 8" fill="black" fill-opacity=".6"/></g><g id="eyebrows-flatNatural-586e6def"><path fill-rule="evenodd" clip-rule="evenodd" d="M30.8 11.1c-5 .35-9.93.08-14.92-.13-3.83-.16-7.72-.68-11.37 1-.7.33-4.53 2.29-4.45 3.36.08.85 3.94 2.2 4.64 2.44 3.66 1.29 7.18.9 10.95.66 4.63-.27 9.23-.07 13.86-.2 3.18-.1 7.98-.63 9.5-4.4.48-1.14.1-3.42-.34-4.66-.2-.5-.72-.69-1.13-.4a15 15 0 0 1-6.68 2.32m34.67 0c4.99.36 9.9.09 14.9-.12 3.83-.16 7.72-.68 11.38 1 .7.33 4.53 2.29 4.44 3.36-.07.85-3.94 2.2-4.63 2.44-3.67 1.29-7.18.9-10.96.66-4.62-.27-9.23-.07-13.86-.2-3.11-.1-7.91-.63-9.45-4.4-.47-1.14-.1-3.42.36-4.66.18-.5.72-.69 1.12-.4a15 15 0 0 0 6.7 2.32" fill="black" fill-opacity=".6"/></g><g id="top-hat-586e6def"><path d="M187.32 138.76C226.9 129.26 254 109.87 254 87.5c0-23.5-29.92-43.72-72.8-52.63l-.31-1.43A40 40 0 0 0 141.82 2h-18.64A40 40 0 0 0 84.1 33.44l-.27 1.21C40.4 43.45 10 63.8 10 87.5c0 22.37 27.1 41.76 66.68 51.26q-.3-1.92-.47-3.9A12 12 0 0 1 66.01 123v-13a12 12 0 0 1 10.01-11.83V92c0-8 1.68-15.62 4.7-22.51 8.61-15.69 92.74-16.49 102.66.16A56 56 0 0 1 188 92v6.17A12 12 0 0 1 198 110v13a12 12 0 0 1-10.2 11.87 56 56 0 0 1-.48 3.9" fill="#a7ffc4"/><path d="M188 92.74c3.85-3.25 6-6.9 6-10.74 0-6.08-5.38-11.65-14.32-15.98a12 12 0 0 1 3.68 3.63A56 56 0 0 1 188 92zm-31.74-33.75a144 144 0 0 0-24.26-2c-8.98 0-17.52.78-25.22 2.17 15.16-2.2 34.11-2.3 49.48-.17m-72.57 7.34C75.12 70.63 70 76.07 70 82c0 3.85 2.15 7.49 6 10.74V92c0-8 1.68-15.62 4.7-22.51a10 10 0 0 1 2.99-3.16" fill="black" fill-opacity=".5"/></g><clipPath id="clip-586e6def"><rect width="280" height="280" rx="103.6" ry="103.6"/></clipPath></defs><g clip-path="url(#clip-586e6def)"><g transform="translate(50.4, 0)"><path d="M140 36a56 56 0 0 0-56 56v6.17A12 12 0 0 0 74 110v14a12 12 0 0 0 10.3 11.88A56 56 0 0 0 116 180.6V199h-4a72 72 0 0 0-72 72v9h200v-9a72 72 0 0 0-72-72h-4v-18.38a56 56 0 0 0 31.7-44.73A12 12 0 0 0 206 124v-14a12 12 0 0 0-10-11.83V92a56 56 0 0 0-56-56" fill="url(#skin-color-586e6def)"/><path d="M116 180.61v8a56 56 0 0 0 24 5.39 56 56 0 0 0 24-5.39v-8a56 56 0 0 1-24 5.39 56 56 0 0 1-24-5.39" fill="black" fill-opacity=".1"/><use transform="translate(40 184.7)" href="#clothes-blazerAndSweater-586e6def"/><use transform="translate(94 140)" href="#mouth-serious-586e6def"/><use transform="translate(128 130)" href="#nose-default-586e6def"/><use transform="translate(98 98)" href="#eyes-side-586e6def"/><use transform="translate(91.86 82)" href="#eyebrows-flatNatural-586e6def"/><use transform="translate(8)" href="#top-hat-586e6def"/></g></g></svg>