<svg xmlns="http://www.w3.org/2000/svg" viewBox="0 0 280 280" fill="none" shape-rendering="auto" aria-hidden="true"><!-- Generated by DiceBear (https://dicebear.com) --><metadata xmlns:rdf="http://www.w3.org/1999/02/22-rdf-syntax-ns#" xmlns:xsi="http://www.w3.org/2001/XMLSchema-instance" xmlns:dc="http://purl.org/dc/elements/1.1/" xmlns:dcterms="http://purl.org/dc/terms/"><rdf:RDF><rdf:Description><dc:title>Avataaars</dc:title><dc:creator>Pablo Stanley</dc:creator><dc:source xsi:type="dcterms:URI">https://avataaars.com/</dc:source><dcterms:license xsi:type="dcterms:URI">https://avataaars.com/</dcterms:license><dc:rights>Remix of “Avataaars” (https://avataaars.com/) by “Pablo Stanley”, licensed under “Free for personal and commercial use” (https://avataaars.com/)</dc:rights></rdf:Description></rdf:RDF></metadata><defs><linearGradient id="skin-color-885a54c2" gradientTransform="rotate(-128, 0.5, 0.5)"><stop offset="0%" stop-color="#2e91bc"/><stop offset="100%" stop-color="#d08b5b"/></linearGradient><g id="clothes-shirtScoopNeck-885a54c2"><path d="M100.5 51.13c27.34 0 49.5-13.2 49.5-29.48q0-2.04-.46-4A72 72 0 0 1 200 86.35v8.95H0v-8.95A72 72 0 0 1 51.53 17.3a18 18 0 0 0-.53 4.34c0 16.28 22.16 29.48 49.5 29.48" fill="#9583f5"/></g><g id="mouth-disbelief-885a54c2"><path fill-rule="evenodd" clip-rule="evenodd" d="M32 23a14 14 0 1 1 28 0" fill="black" fill-opacity=".7"/></g><g id="nose-default-885a54c2"><path fill-rule="evenodd" clip-rule="evenodd" d="M0 0c0 4.42 5.37 8 12 8s12-3.58 12-8" fill="black" fill-opacity=".16"/></g><g id="eyes-xDizzy-885a54c2"><path d="M20.5 22.7 15 17.2l-5.5 5.5c-.4.4-1.1.4-1.6 0l-1.6-1.6c-.4-.4-.4-1.1 0-1.6l5.5-5.5-5.5-5.5c-.4-.5-.4-1.2 0-1.6l1.6-1.6c.4-.4 1.1-.4 1.6 0l5.5 5.5 5.5-5.5c.4-.4 1.1-.4 1.6 0l1.6 1.6c.4.4.4 1.1 0 1.6L18.2 14l5.5 5.5c.4.4.4 1.1 0 1.6l-1.6 1.6c-.4.4-1.1.4-1.6 0m54 0L69 17.2l-5.5 5.5c-.4.4-1.1.4-1.6 0l-1.6-1.6c-.4-.4-.4-1.1 0-1.6l5.5-5.5-5.5-5.5c-.4-.5-.4-1.2 0-1.6l1.6-1.6c.4-.4 1.1-.4 1.6 0l5.5 5.5 5.5-5.5c.4-.4 1.1-.4 1.6 0l1.6 1.6c.4.4.4 1.1 0 1.6L72.2 14l5.5 5.5c.4.4.4 1.1 0 1.6l-1.6 1.6c-.4.4-1.1.4-1.6 0" fill="black" fill-opacity=".6"/></g><g id="eyebrows-frownNatural-885a54c2"><path fill-rule="evenodd" clip-rule="evenodd" d="M28.5 6.88c-1.96 2.9-5.54 4.64-8.73 5.68-3.94 1.29-18.55 3.38-15.11 11.35.05.12.22.12.27 0 1.15-2.65 17.46-5.12 18.97-5.7 4.45-1.71 8.4-5.5 9.16-10.55.36-2.31-.63-6.05-1.54-7.55-.1-.18-.38-.13-.43.07-.36 1.33-1.4 4.97-2.58 6.7m39.28 0c1.97 2.9 5.54 4.64 8.74 5.68 3.96 1.29 18.57 3.38 15.13 11.35a.15.15 0 0 1-.28 0c-1.15-2.65-17.46-5.12-18.97-5.7-4.44-1.71-8.4-5.5-9.16-10.55-.35-2.31.64-6.05 1.55-7.55.1-.18.37-.13.43.07.35 1.33 1.4 4.97 2.57 6.7" fill="black" fill-opacity=".6"/></g><g id="top-shortRound-885a54c2"><path fill-rule="evenodd" clip-rule="evenodd" d="M166.3 35c-20.18-11.7-40.17-9.78-55.26-5.97-15.1 3.8-24.02 14.62-31.68 30.62a68 68 0 0 0-6.34 25.83 34 34 0 0 0 1.25 10.22c.33 1.2 2.15 5.39 2.65 2 .17-1.12-.44-2.67-.5-3.86-.08-1.57 0-3.16.11-4.73q.28-4.4 1.65-8.59c1.33-3.98 3.02-8.3 5.6-11.67 6.4-8.33 17.5-8.8 26.3-13.39-.78 1.4-3.7 3.68-2.7 5.27.7 1.1 3.37.76 4.64.72 3.35-.1 6.72-.67 10.02-1.14a72 72 0 0 0 15-4.1c4.02-1.5 8.61-2.88 11.63-6.07a69 69 0 0 0 17.4 13c5.62 2.88 14.68 4.32 18.11 10.16 4.07 6.9 2.2 15.4 3.44 22.9.47 2.85 1.54 2.79 2.13.24 1-4.33 1.47-8.83 1.15-13.28-.72-10.05-4.4-36.45-24.6-48.15" fill="#8cb1bf"/></g><clipPath id="clip-885a54c2"><rect width="280" height="280" rx="103.6" ry="103.6"/></clipPath></defs><g clip-path="url(#clip-885a54c2)"><g transform="translate(50.4, 0)"><path d="M140 36a56 56 0 0 0-56 56v6.17A12 12 0 0 0 74 110v14a12 12 0 0 0 10.3 11.88A56 56 0 0 0 116 180.6V199h-4a72 72 0 0 0-72 72v9h200v-9a72 72 0 0 0-72-72h-4v-18.38a56 56 0 0 0 31.7-44.73A12 12 0 0 0 206 124v-14a12 12 0 0 0-10-11.83V92a56 56 0 0 0-56-56" fill="url(#skin-color-885a54c2)"/><path d="M116 180.61v8a56 56 0 0 0 24 5.39 56 56 0 0 0 24-5.39v-8a56 56 0 0 1-24 5.39 56 56 0 0 1-24-5.39" fill="black" fill-opacity=".1"/><use transform="translate(40 184.7)" href="#clothes-shirtScoopNeck-885a54c2"/><use transform="translate(94 140)" href="#mouth-disbelief-885a54c2"/><use transform="translate(128 130)" href="#nose-default-885a54c2"/><use transform="translate(98 98)" href="#eyes-xDizzy-885a54c2"/><use transform="translate(91.86 82)" href="#eyebrows-frownNatural-885a54c2"/><use transform="translate(8)" href="#top-shortRound-885a54c2"/></g></g></svg>