<svg xmlns="http://www.w3.org/2000/svg" viewBox="0 0 280 280" fill="none" shape-rendering="auto" aria-hidden="true"><!-- Generated by DiceBear (https://dicebear.com) --><metadata xmlns:rdf="http://www.w3.org/1999/02/22-rdf-syntax-ns#" xmlns:xsi="http://www.w3.org/2001/XMLSchema-instance" xmlns:dc="http://purl.org/dc/elements/1.1/" xmlns:dcterms="http://purl.org/dc/terms/"><rdf:RDF><rdf:Description><dc:title>Avataaars</dc:title><dc:creator>Pablo Stanley</dc:creator><dc:source xsi:type="dcterms:URI">https://avataaars.com/</dc:source><dcterms:license xsi:type="dcterms:URI">https://avataaars.com/</dcterms:license><dc:rights>Remix of “Avataaars” (https://avataaars.com/) by “Pablo Stanley”, licensed under “Free for personal and commercial use” (https://avataaars.com/)</dc:rights></rdf:Description></rdf:RDF></metadata><defs><linearGradient id="skin-color-968e04fe" gradientTransform="rotate(-128, 0.5, 0.5)"><stop offset="0%" stop-color="#f49581"/><stop offset="100%" stop-color="#f49d1f"/></linearGradient><g id="clothes-hoodie-968e04fe"><path d="M76 0C60.48 3.7 48.9 10.83 45.23 19.45A72 72 0 0 0 0 86.3v9h200v-9a72 72 0 0 0-45.23-66.86C151.1 10.83 139.52 3.69 124 0v17.3a24 24 0 1 1-48 0z" fill="#4ffee7"/><path d="M70 48.64a67 67 0 0 1-7-2.81V95.3h7zm60 0a67 67 0 0 0 7-2.81V83.8a3.5 3.5 0 1 1-7 0z" fill="#F4F4F4"/><path d="M155.62 19.8a72 72 0 0 1 10.83 5.62c-1.34 15.5-30.58 27.89-66.45 27.89 30.93 0 56-13.44 56-30q0-1.79-.38-3.52m-111.24.01a17 17 0 0 0-.38 3.5c0 16.57 25.07 30 56 30-35.87 0-65.1-12.38-66.45-27.88a72 72 0 0 1 10.83-5.63" fill="black" fill-opacity=".16"/></g><g id="mouth-sad-968e04fe"><path fill-rule="evenodd" clip-rule="evenodd" d="M32.06 21.72C32.7 14.7 38.7 10 46 10c7.34 0 13.36 4.75 13.95 11.85.03.38-.87.67-1.32.45Q50.32 18.14 46 18.14q-4.27 0-12.45 4.07c-.5.25-1.53-.07-1.5-.49" fill="black" fill-opacity=".7"/></g><g id="nose-default-968e04fe"><path fill-rule="evenodd" clip-rule="evenodd" d="M0 0c0 4.42 5.37 8 12 8s12-3.58 12-8" fill="black" fill-opacity=".16"/></g><g id="eyes-xDizzy-968e04fe"><path d="M20.5 22.7 15 17.2l-5.5 5.5c-.4.4-1.1.4-1.6 0l-1.6-1.6c-.4-.4-.4-1.1 0-1.6l5.5-5.5-5.5-5.5c-.4-.5-.4-1.2 0-1.6l1.6-1.6c.4-.4 1.1-.4 1.6 0l5.5 5.5 5.5-5.5c.4-.4 1.1-.4 1.6 0l1.6 1.6c.4.4.4 1.1 0 1.6L18.2 14l5.5 5.5c.4.4.4 1.1 0 1.6l-1.6 1.6c-.4.4-1.1.4-1.6 0m54 0L69 17.2l-5.5 5.5c-.4.4-1.1.4-1.6 0l-1.6-1.6c-.4-.4-.4-1.1 0-1.6l5.5-5.5-5.5-5.5c-.4-.5-.4-1.2 0-1.6l1.6-1.6c.4-.4 1.1-.4 1.6 0l5.5 5.5 5.5-5.5c.4-.4 1.1-.4 1.6 0l1.6 1.6c.4.4.4 1.1 0 1.6L72.2 14l5.5 5.5c.4.4.4 1.1 0 1.6l-1.6 1.6c-.4.4-1.1.4-1.6 0" fill="black" fill-opacity=".6"/></g><g id="eyebrows-upDown-968e04fe"><path d="M7.73 14.16c4.5-6.32 14.01-9.5 23.75-6.36a2 2 0 1 0 1.23-3.81c-11.4-3.7-22.74.1-28.24 7.85a2 2 0 1 0 3.26 2.32m80.78 7c-3.91-5.51-14.64-8.6-23.89-6.33a2 2 0 0 1-.95-3.88c10.73-2.64 23.16.94 28.1 7.9a2 2 0 0 1-3.26 2.3" fill="black" fill-opacity=".6"/></g><g id="top-shortCurly-968e04fe"><path fill-rule="evenodd" clip-rule="evenodd" d="M192.77 70.77a63 63 0 0 0-1.52-9.86 52 52 0 0 0-2.5-7.49c-.6-1.48-2.02-3.52-2.19-5.13-.16-1.57 1.07-3.32 1.33-5.16.21-1.8.2-3.66-.2-5.44-.83-4.06-3.6-7.81-7.85-8.85-.95-.23-2.97.06-3.64-.5-.77-.63-1.3-2.8-2-3.67-2-2.47-5.1-4.07-8.37-3.51-2.4.4-1.03.9-2.84-.51-1-.8-1.75-2-2.73-2.85a25 25 0 0 0-4.9-3.28 51 51 0 0 0-14.85-4.91c-9.28-1.52-19.2-.2-28.2 2.22a75 75 0 0 0-13.14 4.74c-1.78.87-2.8 1.58-4.67 1.8-2.93.37-5.4.35-8.18 1.59-8.54 3.82-12.39 12.69-9.06 21.17a15 15 0 0 0 2.82 4.59c1.52 1.68 2.07 1.35.76 3.28a53 53 0 0 0-4.96 9.17C72.36 66.58 71.77 76.04 72 85c.08 3.13.22 6.3.71 9.42.22 1.34.28 3.87 1.3 4.87.51.5 1.24.78 1.96.58 1.7-.47 1.12-1.73 1.16-2.9.2-5.88-.08-11.08 1.32-16.9a44 44 0 0 1 5-12.03 72 72 0 0 1 9.8-13.35c.92-1.01 1.12-1.41 2.35-1.5.93-.04 2.3.6 3.2.8 2 .5 4 .99 6.03 1.3 3.74.6 7.45.66 11.22.54 7.43-.23 14.88-.75 22.1-2.62 4.77-1.24 9.01-3.47 13.6-5.1.07-.04 1.22-.85 1.42-.82.28.04 1.97 1.82 2.26 2.05 2.23 1.74 4.67 2.48 7.07 3.83 2.97 1.66.1-.72 1.73 1.36.48.6.72 1.72 1.1 2.4 1.22 2.2 2.9 4.1 4.93 5.63 1.95 1.47 4.89 2.18 5.89 4.1.76 1.47 1.02 3.48 1.64 5.06 1.63 4.13 3.78 7.99 5.93 11.88 1.73 3.14 3.62 5.89 3.8 9.47.08 1.25-1.11 8.74 1.79 6.46.43-.34 1.35-4.15 1.54-4.8.77-2.63 1.05-5.38 1.4-8.1.69-5.37.92-10.5.46-15.9" fill="#d6b370"/></g><clipPath id="clip-968e04fe"><rect width="280" height="280" rx="103.6" ry="103.6"/></clipPath></defs><g clip-path="url(#clip-968e04fe)"><g transform="translate(50.4, 0)"><path d="M140 36a56 56 0 0 0-56 56v6.17A12 12 0 0 0 74 110v14a12 12 0 0 0 10.3 11.88A56 56 0 0 0 116 180.6V199h-4a72 72 0 0 0-72 72v9h200v-9a72 72 0 0 0-72-72h-4v-18.38a56 56 0 0 0 31.7-44.73A12 12 0 0 0 206 124v-14a12 12 0 0 0-10-11.83V92a56 56 0 0 0-56-56" fill="url(#skin-color-968e04fe)"/><path d="M116 180.61v8a56 56 0 0 0 24 5.39 56 56 0 0 0 24-5.39v-8a56 56 0 0 1-24 5.39 56 56 0 0 1-24-5.39" fill="black" fill-opacity=".1"/><use transform="translate(40 184.7)" href="#clothes-hoodie-968e04fe"/><use transform="translate(94 140)" href="#mouth-sad-968e04fe"/><use transform="translate(128 130)" href="#nose-default-968e04fe"/><use transform="translate(98 98)" href="#eyes-xDizzy-968e04fe"/><use transform="translate(91.86 82)" href="#eyebrows-upDown-968e04fe"/><use transform="translate(8)" href="#top-shortCurly-968e04fe"/></g></g></svg>