<svg xmlns="http://www.w3.org/2000/svg" viewBox="0 0 280 280" fill="none" shape-rendering="auto" aria-hidden="true"><!-- Generated by DiceBear (https://dicebear.com) --><metadata xmlns:rdf="http://www.w3.org/1999/02/22-rdf-syntax-ns#" xmlns:xsi="http://www.w3.org/2001/XMLSchema-instance" xmlns:dc="http://purl.org/dc/elements/1.1/" xmlns:dcterms="http://purl.org/dc/terms/"><rdf:RDF><rdf:Description><dc:title>Avataaars</dc:title><dc:creator>Pablo Stanley</dc:creator><dc:source xsi:type="dcterms:URI">https://avataaars.com/</dc:source><dcterms:license xsi:type="dcterms:URI">https://avataaars.com/</dcterms:license><dc:rights>Remix of “Avataaars” (https://avataaars.com/) by “Pablo Stanley”, licensed under “Free for personal and commercial use” (https://avataaars.com/)</dc:rights></rdf:Description></rdf:RDF></metadata><defs><linearGradient id="skin-color-5938d54f" gradientTransform="rotate(-128, 0.5, 0.5)"><stop offset="0%" stop-color="#fd9841"/><stop offset="100%" stop-color="#f49581"/></linearGradient><g id="clothes-blazerAndShirt-5938d54f"><path d="M100.5 37.13c18.5 0 33.5-9.61 33.5-21.48q0-.52-.04-1.05A72 72 0 0 1 200 86.36v8.95H0v-8.95a72 72 0 0 1 67.05-71.83q-.05.55-.05 1.12c0 11.87 15 21.48 33.5 21.48" fill="#E6E6E6"/><path d="M100.5 44.07c21.89 0 39.63-12.05 39.63-26.92q0-.9-.08-1.79-3-.51-6.1-.76.06.52.05 1.05c0 11.87-15 21.48-33.5 21.48S67 27.52 67 15.65q0-.57.05-1.12-3.08.2-6.08.67-.1.97-.1 1.95c0 14.87 17.74 26.92 39.63 26.92" fill="black" fill-opacity=".16"/><path d="M68.78 14.43 69 13.3c-2.96.06-6 1-6 1l-.42.67A72 72 0 0 0 0 86.36v8.95h74s-10.7-51.56-5.24-80.8zM126 95.3s11-53 5-82c2.96.06 6 1 6 1l.42.67A72 72 0 0 1 200 86.36v8.95z" fill="#e1fe88"/><path fill-rule="evenodd" clip-rule="evenodd" d="M69 13.3c-6 29 5 82 5 82H58l-14-36 6-9-6-6 19-30s3.04-.94 6-1m62 0c6 29-5 82-5 82h16l14-36-6-9 6-6-19-30s-3.04-.94-6-1" fill="black" fill-opacity=".15"/><path d="m151.42 71.07.87-2.24 6.27-4.7a4 4 0 0 1 4.85.05l6.6 5.13z" fill="#E6E6E6"/></g><g id="mouth-screamOpen-5938d54f"><path fill-rule="evenodd" clip-rule="evenodd" d="M26 32.86C27.14 18.88 30.24 7 46 7s18.92 11.94 20 26c.08 1.12-.83 2-1.96 2-6.69 0-9.37-2-18.05-2-8.7 0-13.26 2-17.9 2-1.17 0-2.2-.74-2.1-2.14" fill="black" fill-opacity=".7"/><path d="M59.02 11.57Q58.1 12 57 12H36c-.98 0-1.9-.28-2.67-.77C36.23 8.57 40.28 7 46 7c5.95 0 10.1 1.7 13.02 4.57" fill="white"/><path d="M61.8 34.92a44 44 0 0 1-5.54-.82c-2.73-.53-5.65-1.1-10.27-1.1-5.01 0-8.65.66-11.73 1.23-1.45.26-2.77.5-4.06.65A11 11 0 0 1 46 27.2a11 11 0 0 1 15.8 7.72" fill="#FF4F6D"/></g><g id="nose-default-5938d54f"><path fill-rule="evenodd" clip-rule="evenodd" d="M0 0c0 4.42 5.37 8 12 8s12-3.58 12-8" fill="black" fill-opacity=".16"/></g><g id="eyes-winkWacky-5938d54f"><circle cx="68" cy="14" r="12" fill="white"/><circle cx="68" cy="14" r="6" fill="black" fill-opacity=".7"/><path fill-rule="evenodd" clip-rule="evenodd" d="M2.16 17.45C4.01 13.65 8.16 11 13 11c4.81 0 8.96 2.63 10.82 6.4.55 1.13-.24 2.05-1.03 1.37a15 15 0 0 0-9.8-3.43c-3.73 0-7.12 1.24-9.55 3.23-.9.73-1.82-.01-1.28-1.12" fill="black" fill-opacity=".6"/></g><g id="eyebrows-upDown-5938d54f"><path d="M7.73 14.16c4.5-6.32 14.01-9.5 23.75-6.36a2 2 0 1 0 1.23-3.81c-11.4-3.7-22.74.1-28.24 7.85a2 2 0 1 0 3.26 2.32m80.78 7c-3.91-5.51-14.64-8.6-23.89-6.33a2 2 0 0 1-.95-3.88c10.73-2.64 23.16.94 28.1 7.9a2 2 0 0 1-3.26 2.3" fill="black" fill-opacity=".6"/></g><g id="top-shortRound-5938d54f"><path fill-rule="evenodd" clip-rule="evenodd" d="M166.3 35c-20.18-11.7-40.17-9.78-55.26-5.97-15.1 3.8-24.02 14.62-31.68 30.62a68 68 0 0 0-6.34 25.83 34 34 0 0 0 1.25 10.22c.33 1.2 2.15 5.39 2.65 2 .17-1.12-.44-2.67-.5-3.86-.08-1.57 0-3.16.11-4.73q.28-4.4 1.65-8.59c1.33-3.98 3.02-8.3 5.6-11.67 6.4-8.33 17.5-8.8 26.3-13.39-.78 1.4-3.7 3.68-2.7 5.27.7 1.1 3.37.76 4.64.72 3.35-.1 6.72-.67 10.02-1.14a72 72 0 0 0 15-4.1c4.02-1.5 8.61-2.88 11.63-6.07a69 69 0 0 0 17.4 13c5.62 2.88 14.68 4.32 18.11 10.16 4.07 6.9 2.2 15.4 3.44 22.9.47 2.85 1.54 2.79 2.13.24 1-4.33 1.47-8.83 1.15-13.28-.72-10.05-4.4-36.45-24.6-48.15" fill="#624f56"/></g><g id="facialHair-moustacheMagnum-5938d54f"><path d="M60 40.94c2.5-3.34 12.27-4.75 19.27-3.48 9.66 1.76 13.75 12.3 12.51 14.22-.77 1.19-2.48.8-4.26.38a15 15 0 0 0-2.4-.43c-1.5-.09-3.34.22-5.45.57-4.98.82-11.37 1.88-17.62-1.51A6 6 0 0 1 60 48.8a6 6 0 0 1-2.05 1.86c-6.25 3.4-12.65 2.33-17.63 1.5-2.1-.34-3.96-.65-5.44-.56-.76.05-1.6.24-2.4.43-1.78.4-3.5.8-4.26-.38-1.24-1.91 2.85-12.46 12.5-14.22 7.01-1.27 16.78.14 19.28 3.48" fill="#121719"/></g><g id="accessories-round-5938d54f"><path fill-rule="evenodd" clip-rule="evenodd" d="M34.23 92a24 24 0 0 1-22.96-31H4.73a2.5 2.5 0 0 1 0-5h8q.34 0 .66.09a24 24 0 0 1 42.26 1.06A11.4 11.4 0 0 1 65.1 52c4 0 7.54 2.14 9.6 5.4a24 24 0 0 1 42.37-1.31q.31-.1.66-.1h8a2.5 2.5 0 1 1 0 5h-6.53a24 24 0 1 1-46.6 2.84c-.1-4.37-3.45-7.83-7.5-7.83-3.74 0-6.9 2.94-7.43 6.83q.56 2.51.56 5.17a24 24 0 0 1-24 24m0-4a20 20 0 1 0 0-40 20 20 0 0 0 0 40m82-20a20 20 0 1 1-40 0 20 20 0 0 1 40 0" fill="black" fill-opacity=".1"/><path fill-rule="evenodd" clip-rule="evenodd" d="M34.23 90a24 24 0 0 1-22.96-31H4.73a2.5 2.5 0 0 1 0-5h8q.34 0 .66.09a24 24 0 0 1 42.26 1.06A11.4 11.4 0 0 1 65.1 50c4 0 7.54 2.14 9.6 5.4a24 24 0 0 1 42.37-1.31q.31-.1.66-.1h8a2.5 2.5 0 1 1 0 5h-6.53a24 24 0 1 1-46.6 2.84c-.1-4.37-3.45-7.83-7.5-7.83-3.74 0-6.9 2.94-7.43 6.83q.56 2.51.56 5.17a24 24 0 0 1-24 24m0-4a20 20 0 1 0 0-40 20 20 0 0 0 0 40m82-20a20 20 0 1 1-40 0 20 20 0 0 1 40 0" fill="#b1e2ff"/></g><clipPath id="clip-5938d54f"><rect width="280" height="280" rx="103.6" ry="103.6"/></clipPath></defs><g clip-path="url(#clip-5938d54f)"><g transform="translate(50.4, 0)"><path d="M140 36a56 56 0 0 0-56 56v6.17A12 12 0 0 0 74 110v14a12 12 0 0 0 10.3 11.88A56 56 0 0 0 116 180.6V199h-4a72 72 0 0 0-72 72v9h200v-9a72 72 0 0 0-72-72h-4v-18.38a56 56 0 0 0 31.7-44.73A12 12 0 0 0 206 124v-14a12 12 0 0 0-10-11.83V92a56 56 0 0 0-56-56" fill="url(#skin-color-5938d54f)"/><path d="M116 180.61v8a56 56 0 0 0 24 5.39 56 56 0 0 0 24-5.39v-8a56 56 0 0 1-24 5.39 56 56 0 0 1-24-5.39" fill="black" fill-opacity=".1"/><use transform="translate(40 184.7)" href="#clothes-blazerAndShirt-5938d54f"/><use transform="translate(94 140)" href="#mouth-screamOpen-5938d54f"/><use transform="translate(128 130)" href="#nose-default-5938d54f"/><use transform="translate(98 98)" href="#eyes-winkWacky-5938d54f"/><use transform="translate(91.86 82)" href="#eyebrows-upDown-5938d54f"/><use transform="translate(8)" href="#top-shortRound-5938d54f"/><use transform="translate(81 98)" href="#facialHair-moustacheMagnum-5938d54f"/><use transform="translate(75.77 46)" href="#accessories-round-5938d54f"/></g></g></svg>