<svg xmlns="http://www.w3.org/2000/svg" viewBox="0 0 280 280" fill="none" shape-rendering="auto" aria-hidden="true"><!-- Generated by DiceBear (https://dicebear.com) --><metadata xmlns:rdf="http://www.w3.org/1999/02/22-rdf-syntax-ns#" xmlns:xsi="http://www.w3.org/2001/XMLSchema-instance" xmlns:dc="http://purl.org/dc/elements/1.1/" xmlns:dcterms="http://purl.org/dc/terms/"><rdf:RDF><rdf:Description><dc:title>Avataaars</dc:title><dc:creator>Pablo Stanley</dc:creator><dc:source xsi:type="dcterms:URI">https://avataaars.com/</dc:source><dcterms:license xsi:type="dcterms:URI">https://avataaars.com/</dcterms:license><dc:rights>Remix of “Avataaars” (https://avataaars.com/) by “Pablo Stanley”, licensed under “Free for personal and commercial use” (https://avataaars.com/)</dc:rights></rdf:Description></rdf:RDF></metadata><defs><linearGradient id="skin-color-0e23e327" gradientTransform="rotate(-128, 0.5, 0.5)"><stop offset="0%" stop-color="#2e91bc"/><stop offset="100%" stop-color="#eaf4d2"/></linearGradient><g id="clothes-overall-0e23e327"><path d="M164 23.94V95.3H36V23.94a72 72 0 0 1 26-8.95v44.28h76V15a72 72 0 0 1 26 8.94" fill="#5199e4"/><path d="M54 68.3a5 5 0 1 1-10 0 5 5 0 0 1 10 0m102 0a5 5 0 1 1-10 0 5 5 0 0 1 10 0" fill="#F4F4F4"/></g><g id="mouth-tongue-0e23e327"><path fill-rule="evenodd" clip-rule="evenodd" d="M21 9.6C22.41 19.24 33.06 27 46 27c12.97 0 23.65-7.82 25-18.26.1-.4-.22-1.74-2.17-1.74H23.17c-1.79 0-2.3 1.24-2.17 2.6" fill="black" fill-opacity=".7"/><path d="M62 7H31a5 5 0 0 0 5 5h21a5 5 0 0 0 5-5" fill="white"/><path d="M35 17.5v9a11.5 11.5 0 1 0 23 0v-9c0-1.93-2.91-3.5-6.5-3.5-2.01 0-3.8.5-5 1.26a9.5 9.5 0 0 0-5-1.26c-3.59 0-6.5 1.57-6.5 3.5" fill="#FF4F6D"/></g><g id="nose-default-0e23e327"><path fill-rule="evenodd" clip-rule="evenodd" d="M0 0c0 4.42 5.37 8 12 8s12-3.58 12-8" fill="black" fill-opacity=".16"/></g><g id="eyes-happy-0e23e327"><path fill-rule="evenodd" clip-rule="evenodd" d="M2.16 14.45C4.01 10.65 8.16 8 13 8c4.81 0 8.96 2.63 10.82 6.4.55 1.13-.24 2.05-1.03 1.37a15 15 0 0 0-9.8-3.43c-3.73 0-7.12 1.24-9.55 3.23-.9.73-1.82-.01-1.28-1.12m58 0C62.01 10.65 66.16 8 71 8c4.81 0 8.96 2.63 10.82 6.4.55 1.13-.24 2.05-1.03 1.37a15 15 0 0 0-9.8-3.43c-3.76 0-7.15 1.24-9.58 3.23-.9.73-1.82-.01-1.28-1.12" fill="black" fill-opacity=".6"/></g><g id="eyebrows-default-0e23e327"><path d="M7.77 17.16c3.91-5.51 14.64-8.6 23.89-6.33a2 2 0 0 0 .95-3.88c-10.73-2.64-23.16.94-28.1 7.9a2 2 0 0 0 3.3 2.3m80.73.01c-3.9-5.5-14.64-8.6-23.9-6.33a2 2 0 0 1-.94-3.88c10.74-2.64 23.17.94 28.1 7.9a2 2 0 0 1-3.25 2.3" fill="black" fill-opacity=".6"/></g><g id="top-frizzle-0e23e327"><path fill-rule="evenodd" clip-rule="evenodd" d="M89.91 55.36h84.18c18.24-10.53 21.67-29.2 8.76-45.43-3.21-4.04-8.76 11.75-25.82 12.72s-15.42-6.3-33.57-3.58c-18.15 2.73-16.15 17.3-28 20.8-11.84 3.5-5.55 15.5-5.55 15.5" fill="#bf55b5"/></g><clipPath id="clip-0e23e327"><rect width="280" height="280" rx="103.6" ry="103.6"/></clipPath></defs><g clip-path="url(#clip-0e23e327)"><g transform="translate(50.4, 0)"><path d="M140 36a56 56 0 0 0-56 56v6.17A12 12 0 0 0 74 110v14a12 12 0 0 0 10.3 11.88A56 56 0 0 0 116 180.6V199h-4a72 72 0 0 0-72 72v9h200v-9a72 72 0 0 0-72-72h-4v-18.38a56 56 0 0 0 31.7-44.73A12 12 0 0 0 206 124v-14a12 12 0 0 0-10-11.83V92a56 56 0 0 0-56-56" fill="url(#skin-color-0e23e327)"/><path d="M116 180.61v8a56 56 0 0 0 24 5.39 56 56 0 0 0 24-5.39v-8a56 56 0 0 1-24 5.39 56 56 0 0 1-24-5.39" fill="black" fill-opacity=".1"/><use transform="translate(40 184.7)" href="#clothes-overall-0e23e327"/><use transform="translate(94 140)" href="#mouth-tongue-0e23e327"/><use transform="translate(128 130)" href="#nose-default-0e23e327"/><use transform="translate(98 98)" href="#eyes-happy-0e23e327"/><use transform="translate(91.86 82)" href="#eyebrows-default-0e23e327"/><use transform="translate(8)" href="#top-frizzle-0e23e327"/></g></g></svg>