<svg xmlns="http://www.w3.org/2000/svg" viewBox="0 0 280 280" fill="none" shape-rendering="auto" aria-hidden="true"><!-- Generated by DiceBear (https://dicebear.com) --><metadata xmlns:rdf="http://www.w3.org/1999/02/22-rdf-syntax-ns#" xmlns:xsi="http://www.w3.org/2001/XMLSchema-instance" xmlns:dc="http://purl.org/dc/elements/1.1/" xmlns:dcterms="http://purl.org/dc/terms/"><rdf:RDF><rdf:Description><dc:title>Avataaars</dc:title><dc:creator>Pablo Stanley</dc:creator><dc:source xsi:type="dcterms:URI">https://avataaars.com/</dc:source><dcterms:license xsi:type="dcterms:URI">https://avataaars.com/</dcterms:license><dc:rights>Remix of “Avataaars” (https://avataaars.com/) by “Pablo Stanley”, licensed under “Free for personal and commercial use” (https://avataaars.com/)</dc:rights></rdf:Description></rdf:RDF></metadata><defs><linearGradient id="skin-color-493a65fd" gradientTransform="rotate(-128, 0.5, 0.5)"><stop offset="0%" stop-color="#614335"/><stop offset="100%" stop-color="#fd9841"/></linearGradient><g id="clothes-shirtScoopNeck-493a65fd"><path d="M100.5 51.13c27.34 0 49.5-13.2 49.5-29.48q0-2.04-.46-4A72 72 0 0 1 200 86.35v8.95H0v-8.95A72 72 0 0 1 51.53 17.3a18 18 0 0 0-.53 4.34c0 16.28 22.16 29.48 49.5 29.48" fill="#4b6459"/></g><g id="mouth-eating-493a65fd"><path d="M20 20.24q2.05.75 4.4.76c5.31 0 9.81-3.15 11.29-7.49 2.47 2.16 6.17 3.53 10.31 3.53s7.84-1.37 10.31-3.53C57.8 17.85 62.3 21 67.61 21q2.34-.01 4.4-.76h-.19c-6.33 0-11.8-4.9-11.8-10.56 0-4.18 2.32-7.72 5.7-9.68-5.5.8-9.74 5-9.9 10.1a17.6 17.6 0 0 1-9.8 2.8 17.5 17.5 0 0 1-9.8-2.8C36 5 31.8.8 26.3 0a11.2 11.2 0 0 1 5.68 9.68c0 5.66-5.47 10.57-11.8 10.57z" fill="black" fill-opacity=".6" opacity=".6"/><path d="M9 18A9 9 0 1 0 9 0a9 9 0 0 0 0 18m74 0a9 9 0 1 0 0-18 9 9 0 0 0 0 18" fill="#FF4646" fill-opacity=".2"/></g><g id="nose-default-493a65fd"><path fill-rule="evenodd" clip-rule="evenodd" d="M0 0c0 4.42 5.37 8 12 8s12-3.58 12-8" fill="black" fill-opacity=".16"/></g><g id="eyes-cry-493a65fd"><path d="M11 19s-6 7.27-6 11.27a6 6 0 1 0 12 0c0-4-6-11.27-6-11.27" fill="#92D9FF"/><path d="M22 14a6 6 0 1 1-12 0 6 6 0 0 1 12 0m52 0a6 6 0 1 1-12 0 6 6 0 0 1 12 0" fill="black" fill-opacity=".6"/></g><g id="eyebrows-upDownNatural-493a65fd"><path fill-rule="evenodd" clip-rule="evenodd" d="m14.9 1.58.91-.4C21.06-.9 29-.03 33.86 2.3c.57.27.18 1.15-.4 1.1C18.54 2.27 8.5 11.56 5.08 17.86c-.1.18-.4.2-.48.03C2.3 12.56 9.05 3.9 14.9 1.58m64.23 10.49c5.76.77 14.75 5.8 14 11.6-.03.2-.32.26-.44.1-2.49-3.2-21.7-7.87-28.72-6.9-.64.1-1.06-.57-.62-.98 3.74-3.54 10.62-4.52 15.78-3.82" fill="black" fill-opacity=".6"/></g><g id="top-bob-493a65fd"><path d="M39 145c-.62-30.84 28.32-95.2 39-108 7.92-9.5 29.7-17.45 54-17s46.86 5.81 55 16c12.32 15.43 37.87 74.08 38 109 .1 24.8-9.54 49.66-23 51-7.6.76-17.26-.23-28.86-1.4-5.3-.55-11.02-1.13-17.14-1.6v-12.4a56 56 0 0 0 32-50.6v-28.44a130 130 0 0 1-26.9-19.88c3.35 6.24 7.19 11.9 11.51 16.2-30.54-8.59-51.7-26.16-64.35-39.94C102.4 69.02 91.97 85.24 76 97.57V130a56 56 0 0 0 32 50.61v13.14c-6.94.95-13.4 2.16-19.35 3.27-10.85 2.02-19.98 3.73-27.26 2.98-14.22-1.47-21.88-30.2-22.38-55" fill="#620961"/></g><clipPath id="clip-493a65fd"><rect width="280" height="280" rx="103.6" ry="103.6"/></clipPath></defs><g clip-path="url(#clip-493a65fd)"><g transform="translate(50.4, 0)"><path d="M140 36a56 56 0 0 0-56 56v6.17A12 12 0 0 0 74 110v14a12 12 0 0 0 10.3 11.88A56 56 0 0 0 116 180.6V199h-4a72 72 0 0 0-72 72v9h200v-9a72 72 0 0 0-72-72h-4v-18.38a56 56 0 0 0 31.7-44.73A12 12 0 0 0 206 124v-14a12 12 0 0 0-10-11.83V92a56 56 0 0 0-56-56" fill="url(#skin-color-493a65fd)"/><path d="M116 180.61v8a56 56 0 0 0 24 5.39 56 56 0 0 0 24-5.39v-8a56 56 0 0 1-24 5.39 56 56 0 0 1-24-5.39" fill="black" fill-opacity=".1"/><use transform="translate(40 184.7)" href="#clothes-shirtScoopNeck-493a65fd"/><use transform="translate(94 140)" href="#mouth-eating-493a65fd"/><use transform="translate(128 130)" href="#nose-default-493a65fd"/><use transform="translate(98 98)" href="#eyes-cry-493a65fd"/><use transform="translate(91.86 82)" href="#eyebrows-upDownNatural-493a65fd"/><use transform="translate(8)" href="#top-bob-493a65fd"/></g></g></svg>