<svg xmlns="http://www.w3.org/2000/svg" viewBox="0 0 280 280" fill="none" shape-rendering="auto" aria-hidden="true"><!-- Generated by DiceBear (https://dicebear.com) --><metadata xmlns:rdf="http://www.w3.org/1999/02/22-rdf-syntax-ns#" xmlns:xsi="http://www.w3.org/2001/XMLSchema-instance" xmlns:dc="http://purl.org/dc/elements/1.1/" xmlns:dcterms="http://purl.org/dc/terms/"><rdf:RDF><rdf:Description><dc:title>Avataaars</dc:title><dc:creator>Pablo Stanley</dc:creator><dc:source xsi:type="dcterms:URI">https://avataaars.com/</dc:source><dcterms:license xsi:type="dcterms:URI">https://avataaars.com/</dcterms:license><dc:rights>Remix of “Avataaars” (https://avataaars.com/) by “Pablo Stanley”, licensed under “Free for personal and commercial use” (https://avataaars.com/)</dc:rights></rdf:Description></rdf:RDF></metadata><defs><linearGradient id="skin-color-befcec01" gradientTransform="rotate(-128, 0.5, 0.5)"><stop offset="0%" stop-color="#f8d25c"/><stop offset="100%" stop-color="#040f07"/></linearGradient><g id="clothes-overall-befcec01"><path d="M164 23.94V95.3H36V23.94a72 72 0 0 1 26-8.95v44.28h76V15a72 72 0 0 1 26 8.94" fill="#5199e4"/><path d="M54 68.3a5 5 0 1 1-10 0 5 5 0 0 1 10 0m102 0a5 5 0 1 1-10 0 5 5 0 0 1 10 0" fill="#F4F4F4"/></g><g id="mouth-tongue-befcec01"><path fill-rule="evenodd" clip-rule="evenodd" d="M21 9.6C22.41 19.24 33.06 27 46 27c12.97 0 23.65-7.82 25-18.26.1-.4-.22-1.74-2.17-1.74H23.17c-1.79 0-2.3 1.24-2.17 2.6" fill="black" fill-opacity=".7"/><path d="M62 7H31a5 5 0 0 0 5 5h21a5 5 0 0 0 5-5" fill="white"/><path d="M35 17.5v9a11.5 11.5 0 1 0 23 0v-9c0-1.93-2.91-3.5-6.5-3.5-2.01 0-3.8.5-5 1.26a9.5 9.5 0 0 0-5-1.26c-3.59 0-6.5 1.57-6.5 3.5" fill="#FF4F6D"/></g><g id="nose-default-befcec01"><path fill-rule="evenodd" clip-rule="evenodd" d="M0 0c0 4.42 5.37 8 12 8s12-3.58 12-8" fill="black" fill-opacity=".16"/></g><g id="eyes-xDizzy-befcec01"><path d="M20.5 22.7 15 17.2l-5.5 5.5c-.4.4-1.1.4-1.6 0l-1.6-1.6c-.4-.4-.4-1.1 0-1.6l5.5-5.5-5.5-5.5c-.4-.5-.4-1.2 0-1.6l1.6-1.6c.4-.4 1.1-.4 1.6 0l5.5 5.5 5.5-5.5c.4-.4 1.1-.4 1.6 0l1.6 1.6c.4.4.4 1.1 0 1.6L18.2 14l5.5 5.5c.4.4.4 1.1 0 1.6l-1.6 1.6c-.4.4-1.1.4-1.6 0m54 0L69 17.2l-5.5 5.5c-.4.4-1.1.4-1.6 0l-1.6-1.6c-.4-.4-.4-1.1 0-1.6l5.5-5.5-5.5-5.5c-.4-.5-.4-1.2 0-1.6l1.6-1.6c.4-.4 1.1-.4 1.6 0l5.5 5.5 5.5-5.5c.4-.4 1.1-.4 1.6 0l1.6 1.6c.4.4.4 1.1 0 1.6L72.2 14l5.5 5.5c.4.4.4 1.1 0 1.6l-1.6 1.6c-.4.4-1.1.4-1.6 0" fill="black" fill-opacity=".6"/></g><g id="eyebrows-sadConcernedNatural-befcec01"><path fill-rule="evenodd" clip-rule="evenodd" d="m23.37 20.42-.91.4c-5.24 2.09-13.2 1.21-18.06-1.12-.56-.27-.18-1.15.4-1.1 14.92 1.14 24.97-8.15 28.38-14.45.1-.18.4-.2.48-.03 2.31 5.32-4.45 13.98-10.3 16.3m49.54 0 .9.4c5.26 2.09 13.2 1.2 18.06-1.12.57-.27.18-1.15-.4-1.1-14.92 1.14-24.96-8.15-28.38-14.45-.1-.18-.4-.2-.48-.03-2.3 5.32 4.45 13.98 10.3 16.3" fill="black" fill-opacity=".6"/></g><g id="top-bob-befcec01"><path d="M39 145c-.62-30.84 28.32-95.2 39-108 7.92-9.5 29.7-17.45 54-17s46.86 5.81 55 16c12.32 15.43 37.87 74.08 38 109 .1 24.8-9.54 49.66-23 51-7.6.76-17.26-.23-28.86-1.4-5.3-.55-11.02-1.13-17.14-1.6v-12.4a56 56 0 0 0 32-50.6v-28.44a130 130 0 0 1-26.9-19.88c3.35 6.24 7.19 11.9 11.51 16.2-30.54-8.59-51.7-26.16-64.35-39.94C102.4 69.02 91.97 85.24 76 97.57V130a56 56 0 0 0 32 50.61v13.14c-6.94.95-13.4 2.16-19.35 3.27-10.85 2.02-19.98 3.73-27.26 2.98-14.22-1.47-21.88-30.2-22.38-55" fill="#5c6213"/></g><g id="facialHair-beardLight-befcec01"><path fill-rule="evenodd" clip-rule="evenodd" d="M77.43 72.17c-2.52 2.3-5.2 3.32-8.58 2.6-.58-.12-2.95-4.54-8.85-4.54s-8.27 4.42-8.85 4.54c-3.39.72-6.07-.3-8.58-2.6-4.72-4.31-8.65-10.26-6.3-16.75 1.24-3.38 3.24-7.1 6.88-8.17 3.9-1.15 9.35 0 13.26-.8a8.6 8.6 0 0 0 3.6-1.45 9 9 0 0 0 3.57 1.46c3.92.78 9.38-.36 13.27.79 3.64 1.07 5.64 4.79 6.87 8.17 2.36 6.49-1.57 12.44-6.3 16.75M116.08 0c-3.4 8.4-2.1 18.86-2.72 27.68-.52 7.16-2.02 17.9-8.39 22.53-3.25 2.37-9.18 6.35-13.43 5.24-2.93-.76-3.24-9.16-7.08-12.3a22.4 22.4 0 0 0-15.31-4.9c-2.37.11-7.17.1-9.15 1.91-1.98-1.82-6.78-1.8-9.15-1.9a22.4 22.4 0 0 0-15.3 4.9c-3.85 3.13-4.16 11.53-7.1 12.3-4.24 1.1-10.17-2.88-13.42-5.25-6.37-4.62-7.87-15.37-8.4-22.53C6.02 18.86 7.34 8.4 3.93 0c-1.66 0-.57 16.13-.57 16.13v20.36c.04 15.28 9.59 38.17 30.76 46.9 5.18 2.14 16.89 5.6 25.89 5.6 8.98.02 20.71-3.12 25.9-5.26 21.15-8.73 30.7-31.96 30.74-47.23V16.13S117.74 0 116.08 0" fill="#724133"/></g><clipPath id="clip-befcec01"><rect width="280" height="280" rx="103.6" ry="103.6"/></clipPath></defs><g clip-path="url(#clip-befcec01)"><g transform="translate(50.4, 0)"><path d="M140 36a56 56 0 0 0-56 56v6.17A12 12 0 0 0 74 110v14a12 12 0 0 0 10.3 11.88A56 56 0 0 0 116 180.6V199h-4a72 72 0 0 0-72 72v9h200v-9a72 72 0 0 0-72-72h-4v-18.38a56 56 0 0 0 31.7-44.73A12 12 0 0 0 206 124v-14a12 12 0 0 0-10-11.83V92a56 56 0 0 0-56-56" fill="url(#skin-color-befcec01)"/><path d="M116 180.61v8a56 56 0 0 0 24 5.39 56 56 0 0 0 24-5.39v-8a56 56 0 0 1-24 5.39 56 56 0 0 1-24-5.39" fill="black" fill-opacity=".1"/><use transform="translate(40 184.7)" href="#clothes-overall-befcec01"/><use transform="translate(94 140)" href="#mouth-tongue-befcec01"/><use transform="translate(128 130)" href="#nose-default-befcec01"/><use transform="translate(98 98)" href="#eyes-xDizzy-befcec01"/><use transform="translate(91.86 82)" href="#eyebrows-sadConcernedNatural-befcec01"/><use transform="translate(8)" href="#top-bob-befcec01"/><use transform="translate(81 98)" href="#facialHair-beardLight-befcec01"/></g></g></svg>