    <svg xmlns="http://www.w3.org/2000/svg" viewBox="0 0 280 280" fill="none" shape-rendering="auto" aria-hidden="true"><!-- Generated by DiceBear (https://dicebear.com) --><metadata xmlns:rdf="http://www.w3.org/1999/02/22-rdf-syntax-ns#" xmlns:xsi="http://www.w3.org/2001/XMLSchema-instance" xmlns:dc="http://purl.org/dc/elements/1.1/" xmlns:dcterms="http://purl.org/dc/terms/"><rdf:RDF><rdf:Description><dc:title>Avataaars</dc:title><dc:creator>Pablo Stanley</dc:creator><dc:source xsi:type="dcterms:URI">https://avataaars.com/</dc:source><dcterms:license xsi:type="dcterms:URI">https://avataaars.com/</dcterms:license><dc:rights>Remix of “Avataaars” (https://avataaars.com/) by “Pablo Stanley”, licensed under “Free for personal and commercial use” (https://avataaars.com/)</dc:rights></rdf:Description></rdf:RDF></metadata><defs><linearGradient id="skin-color-072defd3" gradientTransform="rotate(-128, 0.5, 0.5)"><stop offset="0%" stop-color="#eaf4d2"/><stop offset="100%" stop-color="#040f07"/></linearGradient><g id="clothes-shirtVNeck-072defd3"><path d="M60.68 15.24A72 72 0 0 0 0 86.36v8.95h200v-8.95a72 72 0 0 0-60.68-71.12 24 24 0 0 1-7.56 13.6l-29.08 26.23a4 4 0 0 1-5.36 0L68.24 28.84a24 24 0 0 1-7.56-13.6" fill="#3c4f5c"/></g><g id="mouth-twinkle-072defd3"><path d="M32 10c0 5.37 6.16 9 14 9s14-3.63 14-9c0-1.1-.95-2-2-2-1.3 0-1.87.9-2 2-1.24 2.94-4.32 4.72-10 5-5.68-.28-8.76-2.06-10-5-.13-1.1-.7-2-2-2-1.05 0-2 .9-2 2" fill="black" fill-opacity=".6"/></g><g id="nose-default-072defd3"><path fill-rule="evenodd" clip-rule="evenodd" d="M0 0c0 4.42 5.37 8 12 8s12-3.58 12-8" fill="black" fill-opacity=".16"/></g><g id="eyes-default-072defd3"><path d="M22 14a6 6 0 1 1-12 0 6 6 0 0 1 12 0m52 0a6 6 0 1 1-12 0 6 6 0 0 1 12 0" fill="black" fill-opacity=".6"/></g><g id="eyebrows-upDown-072defd3"><path d="M7.73 14.16c4.5-6.32 14.01-9.5 23.75-6.36a2 2 0 1 0 1.23-3.81c-11.4-3.7-22.74.1-28.24 7.85a2 2 0 1 0 3.26 2.32m80.78 7c-3.91-5.51-14.64-8.6-23.89-6.33a2 2 0 0 1-.95-3.88c10.73-2.64 23.16.94 28.1 7.9a2 2 0 0 1-3.26 2.3" fill="black" fill-opacity=".6"/></g><g id="top-froBand-072defd3"><path d="M249 70.5q0 1.2-.1 2.37A57.7 57.7 0 0 1 260 107c0 7.16-1.3 14.01-3.67 20.34q.67 2.98.67 6.16c0 9.79-4.93 18.42-12.45 23.56a53.5 53.5 0 0 1-53.86 29.63A36.4 36.4 0 0 1 167.5 195c-4.02 0-7.88-.65-11.5-1.85v-12.54a56 56 0 0 0 31.8-45.74A12 12 0 0 0 198 123v-13a12 12 0 0 0-10-11.83V92a56 56 0 0 0-2.22-15.68l1.37 12.87-11.34-24-45.13-19.52-30.12 10.56-21.5 20.2-.04-2.61A56 56 0 0 0 76 92v6.17A12 12 0 0 0 66 110v13a12 12 0 0 0 10.2 11.87A56 56 0 0 0 108 180.6v10.94A36 36 0 0 1 92.5 195a36.4 36.4 0 0 1-23.19-8.31q-2.86.3-5.81.31a53.5 53.5 0 0 1-48.05-29.94 28.5 28.5 0 0 1-11.78-29.72A58 58 0 0 1 0 107a57.7 57.7 0 0 1 11.1-34.13 28.5 28.5 0 0 1 16-28.04 55 55 0 0 1 47.55-31.78 28.4 28.4 0 0 1 26.6-7.24A84 84 0 0 1 132 0a84 84 0 0 1 29.4 5.3q2.01-.3 4.1-.3a28.4 28.4 0 0 1 19.85 8.05 55 55 0 0 1 47.55 31.78A28.5 28.5 0 0 1 249 70.5" fill="#62c1da"/><path d="M187.37 98.98q.62-3.84.63-7.83C188 62.35 162.7 39 131.5 39S75 62.35 75 91.15q0 4 .63 7.82c4.1-25.09 27.55-44.32 55.87-44.32s51.78 19.23 55.87 44.33" fill="#92D9FF"/></g><g id="facialHair-moustacheMagnum-072defd3"><path d="M60 40.94c2.5-3.34 12.27-4.75 19.27-3.48 9.66 1.76 13.75 12.3 12.51 14.22-.77 1.19-2.48.8-4.26.38a15 15 0 0 0-2.4-.43c-1.5-.09-3.34.22-5.45.57-4.98.82-11.37 1.88-17.62-1.51A6 6 0 0 1 60 48.8a6 6 0 0 1-2.05 1.86c-6.25 3.4-12.65 2.33-17.63 1.5-2.1-.34-3.96-.65-5.44-.56-.76.05-1.6.24-2.4.43-1.78.4-3.5.8-4.26-.38-1.24-1.91 2.85-12.46 12.5-14.22 7.01-1.27 16.78.14 19.28 3.48" fill="#724133"/></g><clipPath id="clip-072defd3"><rect width="280" height="280" rx="103.6" ry="103.6"/></clipPath></defs><g clip-path="url(#clip-072defd3)"><g transform="translate(50.4, 0)"><path d="M140 36a56 56 0 0 0-56 56v6.17A12 12 0 0 0 74 110v14a12 12 0 0 0 10.3 11.88A56 56 0 0 0 116 180.6V199h-4a72 72 0 0 0-72 72v9h200v-9a72 72 0 0 0-72-72h-4v-18.38a56 56 0 0 0 31.7-44.73A12 12 0 0 0 206 124v-14a12 12 0 0 0-10-11.83V92a56 56 0 0 0-56-56" fill="url(#skin-color-072defd3)"/><path d="M116 180.61v8a56 56 0 0 0 24 5.39 56 56 0 0 0 24-5.39v-8a56 56 0 0 1-24 5.39 56 56 0 0 1-24-5.39" fill="black" fill-opacity=".1"/><use transform="translate(40 184.7)" href="#clothes-shirtVNeck-072defd3"/><use transform="translate(94 140)" href="#mouth-twinkle-072defd3"/><use transform="translate(128 130)" href="#nose-default-072defd3"/><use transform="translate(98 98)" href="#eyes-default-072defd3"/><use transform="translate(91.86 82)" href="#eyebrows-upDown-072defd3"/><use transform="translate(8)" href="#top-froBand-072defd3"/><use transform="translate(81 98)" href="#facialHair-moustacheMagnum-072defd3"/></g></g></svg>