<svg xmlns="http://www.w3.org/2000/svg" viewBox="0 0 280 280" fill="none" shape-rendering="auto" aria-hidden="true"><!-- Generated by DiceBear (https://dicebear.com) --><metadata xmlns:rdf="http://www.w3.org/1999/02/22-rdf-syntax-ns#" xmlns:xsi="http://www.w3.org/2001/XMLSchema-instance" xmlns:dc="http://purl.org/dc/elements/1.1/" xmlns:dcterms="http://purl.org/dc/terms/"><rdf:RDF><rdf:Description><dc:title>Avataaars</dc:title><dc:creator>Pablo Stanley</dc:creator><dc:source xsi:type="dcterms:URI">https://avataaars.com/</dc:source><dcterms:license xsi:type="dcterms:URI">https://avataaars.com/</dcterms:license><dc:rights>Remix of “Avataaars” (https://avataaars.com/) by “Pablo Stanley”, licensed under “Free for personal and commercial use” (https://avataaars.com/)</dc:rights></rdf:Description></rdf:RDF></metadata><defs><linearGradient id="skin-color-a56cdec5" gradientTransform="rotate(-128, 0.5, 0.5)"><stop offset="0%" stop-color="#5096bc"/><stop offset="100%" stop-color="#3ef477"/></linearGradient><g id="clothes-collarAndSweater-a56cdec5"><path d="M68.37 14.45A28 28 0 0 1 76 6.88v15.3C76 28 79.98 33.16 86.08 36.3l-.08.06.9 2.87c3.89 2 8.35 3.13 13.1 3.13s9.21-1.14 13.1-3.13l.9-2.87-.08-.06C120.02 33.16 124 28 124 22.18V7.58a27 27 0 0 1 6.6 6.82A72 72 0 0 1 200 86.36v8.95H0v-8.95a72 72 0 0 1 68.37-71.91" fill="#eefed6"/><path d="M76 6.88c-6.77 4.6-11 11.17-11 18.45 0 7.4 4.36 14.06 11.3 18.67l6.12-4.82 4.58.33-1-3.15.08-.06C79.98 33.16 76 28 76 22.18zm48 15.3c0 5.83-3.98 10.98-10.08 14.12l.08.06-1 3.15 4.58-.33 5.65 4.45c6.63-4.6 10.77-11.1 10.77-18.3 0-6.92-3.82-13.19-10-17.74z" fill="white" fill-opacity=".75"/></g><g id="mouth-default-a56cdec5"><path fill-rule="evenodd" clip-rule="evenodd" d="M32 9a14 14 0 1 0 28 0" fill="black" fill-opacity=".7"/></g><g id="nose-default-a56cdec5"><path fill-rule="evenodd" clip-rule="evenodd" d="M0 0c0 4.42 5.37 8 12 8s12-3.58 12-8" fill="black" fill-opacity=".16"/></g><g id="eyes-hearts-a56cdec5"><path d="M21.96 2c-2.55 0-5.08 1.98-6.46 3.82C14.1 3.98 11.6 2 9.04 2 3.55 2 0 5.33 0 9.64c0 5.73 4.41 9.13 9.04 12.74 1.66 1.23 4.78 4.4 5.17 5.1.4.68 2.13.7 2.62 0 .47-.73 3.5-3.87 5.16-5.1 4.63-3.6 9.04-7 9.04-12.74C31 5.34 27.46 2 21.97 2m53 0c-2.55 0-5.08 1.98-6.46 3.82C67.1 3.98 64.6 2 62.04 2 56.54 2 53 5.33 53 9.64c0 5.73 4.41 9.13 9.04 12.74 1.66 1.23 4.78 4.4 5.17 5.1.38.68 2.1.7 2.58 0 .48-.73 3.5-3.87 5.17-5.1 4.63-3.6 9.04-7 9.04-12.74C84 5.34 80.45 2 74.96 2" fill="#FF5353" fill-opacity=".8"/></g><g id="eyebrows-angry-a56cdec5"><path d="M7.75 15.18c4.24-5.76 6.88-5.48 13.31-.62l.67.5c4.83 3.67 7.12 4.94 10.4 4.94a2 2 0 0 0 0-4c-2.06 0-3.9-1.02-7.98-4.12l-.68-.52C19.71 8.53 17.51 7.3 14.77 7c-3.68-.4-7.05 1.48-10.24 5.83a2 2 0 1 0 3.22 2.36m80.78 0c-4.24-5.77-6.88-5.49-13.32-.63l-.67.5c-4.82 3.67-7.1 4.94-10.4 4.94a2 2 0 0 1 0-4c2.06 0 3.9-1.02 7.99-4.12l.67-.52C76.56 8.53 78.76 7.3 81.5 7c3.68-.4 7.06 1.48 10.25 5.83a2 2 0 1 1-3.22 2.36" fill="black" fill-opacity=".6"/></g><g id="top-bob-a56cdec5"><path d="M39 145c-.62-30.84 28.32-95.2 39-108 7.92-9.5 29.7-17.45 54-17s46.86 5.81 55 16c12.32 15.43 37.87 74.08 38 109 .1 24.8-9.54 49.66-23 51-7.6.76-17.26-.23-28.86-1.4-5.3-.55-11.02-1.13-17.14-1.6v-12.4a56 56 0 0 0 32-50.6v-28.44a130 130 0 0 1-26.9-19.88c3.35 6.24 7.19 11.9 11.51 16.2-30.54-8.59-51.7-26.16-64.35-39.94C102.4 69.02 91.97 85.24 76 97.57V130a56 56 0 0 0 32 50.61v13.14c-6.94.95-13.4 2.16-19.35 3.27-10.85 2.02-19.98 3.73-27.26 2.98-14.22-1.47-21.88-30.2-22.38-55" fill="#4a312c"/></g><clipPath id="clip-a56cdec5"><rect width="280" height="280" rx="103.6" ry="103.6"/></clipPath></defs><g clip-path="url(#clip-a56cdec5)"><g transform="translate(50.4, 0)"><path d="M140 36a56 56 0 0 0-56 56v6.17A12 12 0 0 0 74 110v14a12 12 0 0 0 10.3 11.88A56 56 0 0 0 116 180.6V199h-4a72 72 0 0 0-72 72v9h200v-9a72 72 0 0 0-72-72h-4v-18.38a56 56 0 0 0 31.7-44.73A12 12 0 0 0 206 124v-14a12 12 0 0 0-10-11.83V92a56 56 0 0 0-56-56" fill="url(#skin-color-a56cdec5)"/><path d="M116 180.61v8a56 56 0 0 0 24 5.39 56 56 0 0 0 24-5.39v-8a56 56 0 0 1-24 5.39 56 56 0 0 1-24-5.39" fill="black" fill-opacity=".1"/><use transform="translate(40 184.7)" href="#clothes-collarAndSweater-a56cdec5"/><use transform="translate(94 140)" href="#mouth-default-a56cdec5"/><use transform="translate(128 130)" href="#nose-default-a56cdec5"/><use transform="translate(98 98)" href="#eyes-hearts-a56cdec5"/><use transform="translate(91.86 82)" href="#eyebrows-angry-a56cdec5"/><use transform="translate(8)" href="#top-bob-a56cdec5"/></g></g></svg>