<svg xmlns="http://www.w3.org/2000/svg" viewBox="0 0 280 280" fill="none" shape-rendering="auto" aria-hidden="true"><!-- Generated by DiceBear (https://dicebear.com) --><metadata xmlns:rdf="http://www.w3.org/1999/02/22-rdf-syntax-ns#" xmlns:xsi="http://www.w3.org/2001/XMLSchema-instance" xmlns:dc="http://purl.org/dc/elements/1.1/" xmlns:dcterms="http://purl.org/dc/terms/"><rdf:RDF><rdf:Description><dc:title>Avataaars</dc:title><dc:creator>Pablo Stanley</dc:creator><dc:source xsi:type="dcterms:URI">https://avataaars.com/</dc:source><dcterms:license xsi:type="dcterms:URI">https://avataaars.com/</dcterms:license><dc:rights>Remix of “Avataaars” (https://avataaars.com/) by “Pablo Stanley”, licensed under “Free for personal and commercial use” (https://avataaars.com/)</dc:rights></rdf:Description></rdf:RDF></metadata><defs><linearGradient id="skin-color-df7c6806" gradientTransform="rotate(-128, 0.5, 0.5)"><stop offset="0%" stop-color="#3cf487"/><stop offset="100%" stop-color="#f49d1f"/></linearGradient><g id="clothes-hoodie-df7c6806"><path d="M76 0C60.48 3.7 48.9 10.83 45.23 19.45A72 72 0 0 0 0 86.3v9h200v-9a72 72 0 0 0-45.23-66.86C151.1 10.83 139.52 3.69 124 0v17.3a24 24 0 1 1-48 0z" fill="#b21fe0"/><path d="M70 48.64a67 67 0 0 1-7-2.81V95.3h7zm60 0a67 67 0 0 0 7-2.81V83.8a3.5 3.5 0 1 1-7 0z" fill="#F4F4F4"/><path d="M155.62 19.8a72 72 0 0 1 10.83 5.62c-1.34 15.5-30.58 27.89-66.45 27.89 30.93 0 56-13.44 56-30q0-1.79-.38-3.52m-111.24.01a17 17 0 0 0-.38 3.5c0 16.57 25.07 30 56 30-35.87 0-65.1-12.38-66.45-27.88a72 72 0 0 1 10.83-5.63" fill="black" fill-opacity=".16"/></g><g id="mouth-sad-df7c6806"><path fill-rule="evenodd" clip-rule="evenodd" d="M32.06 21.72C32.7 14.7 38.7 10 46 10c7.34 0 13.36 4.75 13.95 11.85.03.38-.87.67-1.32.45Q50.32 18.14 46 18.14q-4.27 0-12.45 4.07c-.5.25-1.53-.07-1.5-.49" fill="black" fill-opacity=".7"/></g><g id="nose-default-df7c6806"><path fill-rule="evenodd" clip-rule="evenodd" d="M0 0c0 4.42 5.37 8 12 8s12-3.58 12-8" fill="black" fill-opacity=".16"/></g><g id="eyes-surprised-df7c6806"><path d="M30 14a14 14 0 1 1-28 0 14 14 0 0 1 28 0m52 0a14 14 0 1 1-28 0 14 14 0 0 1 28 0" fill="white"/><path d="M22 14a6 6 0 1 1-12 0 6 6 0 0 1 12 0m52 0a6 6 0 1 1-12 0 6 6 0 0 1 12 0" fill="black" fill-opacity=".7"/></g><g id="eyebrows-default-df7c6806"><path d="M7.77 17.16c3.91-5.51 14.64-8.6 23.89-6.33a2 2 0 0 0 .95-3.88c-10.73-2.64-23.16.94-28.1 7.9a2 2 0 0 0 3.3 2.3m80.73.01c-3.9-5.5-14.64-8.6-23.9-6.33a2 2 0 0 1-.94-3.88c10.74-2.64 23.17.94 28.1 7.9a2 2 0 0 1-3.25 2.3" fill="black" fill-opacity=".6"/></g><g id="top-hat-df7c6806"><path d="M187.32 138.76C226.9 129.26 254 109.87 254 87.5c0-23.5-29.92-43.72-72.8-52.63l-.31-1.43A40 40 0 0 0 141.82 2h-18.64A40 40 0 0 0 84.1 33.44l-.27 1.21C40.4 43.45 10 63.8 10 87.5c0 22.37 27.1 41.76 66.68 51.26q-.3-1.92-.47-3.9A12 12 0 0 1 66.01 123v-13a12 12 0 0 1 10.01-11.83V92c0-8 1.68-15.62 4.7-22.51 8.61-15.69 92.74-16.49 102.66.16A56 56 0 0 1 188 92v6.17A12 12 0 0 1 198 110v13a12 12 0 0 1-10.2 11.87 56 56 0 0 1-.48 3.9" fill="#808615"/><path d="M188 92.74c3.85-3.25 6-6.9 6-10.74 0-6.08-5.38-11.65-14.32-15.98a12 12 0 0 1 3.68 3.63A56 56 0 0 1 188 92zm-31.74-33.75a144 144 0 0 0-24.26-2c-8.98 0-17.52.78-25.22 2.17 15.16-2.2 34.11-2.3 49.48-.17m-72.57 7.34C75.12 70.63 70 76.07 70 82c0 3.85 2.15 7.49 6 10.74V92c0-8 1.68-15.62 4.7-22.51a10 10 0 0 1 2.99-3.16" fill="black" fill-opacity=".5"/></g><clipPath id="clip-df7c6806"><rect width="280" height="280" rx="103.6" ry="103.6"/></clipPath></defs><g clip-path="url(#clip-df7c6806)"><g transform="translate(50.4, 0)"><path d="M140 36a56 56 0 0 0-56 56v6.17A12 12 0 0 0 74 110v14a12 12 0 0 0 10.3 11.88A56 56 0 0 0 116 180.6V199h-4a72 72 0 0 0-72 72v9h200v-9a72 72 0 0 0-72-72h-4v-18.38a56 56 0 0 0 31.7-44.73A12 12 0 0 0 206 124v-14a12 12 0 0 0-10-11.83V92a56 56 0 0 0-56-56" fill="url(#skin-color-df7c6806)"/><path d="M116 180.61v8a56 56 0 0 0 24 5.39 56 56 0 0 0 24-5.39v-8a56 56 0 0 1-24 5.39 56 56 0 0 1-24-5.39" fill="black" fill-opacity=".1"/><use transform="translate(40 184.7)" href="#clothes-hoodie-df7c6806"/><use transform="translate(94 140)" href="#mouth-sad-df7c6806"/><use transform="translate(128 130)" href="#nose-default-df7c6806"/><use transform="translate(98 98)" href="#eyes-surprised-df7c6806"/><use transform="translate(91.86 82)" href="#eyebrows-default-df7c6806"/><use transform="translate(8)" href="#top-hat-df7c6806"/></g></g></svg>