<svg xmlns="http://www.w3.org/2000/svg" viewBox="0 0 280 280" fill="none" shape-rendering="auto" aria-hidden="true"><!-- Generated by DiceBear (https://dicebear.com) --><metadata xmlns:rdf="http://www.w3.org/1999/02/22-rdf-syntax-ns#" xmlns:xsi="http://www.w3.org/2001/XMLSchema-instance" xmlns:dc="http://purl.org/dc/elements/1.1/" xmlns:dcterms="http://purl.org/dc/terms/"><rdf:RDF><rdf:Description><dc:title>Avataaars</dc:title><dc:creator>Pablo Stanley</dc:creator><dc:source xsi:type="dcterms:URI">https://avataaars.com/</dc:source><dcterms:license xsi:type="dcterms:URI">https://avataaars.com/</dcterms:license><dc:rights>Remix of “Avataaars” (https://avataaars.com/) by “Pablo Stanley”, licensed under “Free for personal and commercial use” (https://avataaars.com/)</dc:rights></rdf:Description></rdf:RDF></metadata><defs><linearGradient id="skin-color-8e20d886" gradientTransform="rotate(-128, 0.5, 0.5)"><stop offset="0%" stop-color="#0f3a1c"/><stop offset="100%" stop-color="#d08b5b"/></linearGradient><g id="clothes-collarAndSweater-8e20d886"><path d="M68.37 14.45A28 28 0 0 1 76 6.88v15.3C76 28 79.98 33.16 86.08 36.3l-.08.06.9 2.87c3.89 2 8.35 3.13 13.1 3.13s9.21-1.14 13.1-3.13l.9-2.87-.08-.06C120.02 33.16 124 28 124 22.18V7.58a27 27 0 0 1 6.6 6.82A72 72 0 0 1 200 86.36v8.95H0v-8.95a72 72 0 0 1 68.37-71.91" fill="#ffffff"/><path d="M76 6.88c-6.77 4.6-11 11.17-11 18.45 0 7.4 4.36 14.06 11.3 18.67l6.12-4.82 4.58.33-1-3.15.08-.06C79.98 33.16 76 28 76 22.18zm48 15.3c0 5.83-3.98 10.98-10.08 14.12l.08.06-1 3.15 4.58-.33 5.65 4.45c6.63-4.6 10.77-11.1 10.77-18.3 0-6.92-3.82-13.19-10-17.74z" fill="white" fill-opacity=".75"/></g><g id="mouth-twinkle-8e20d886"><path d="M32 10c0 5.37 6.16 9 14 9s14-3.63 14-9c0-1.1-.95-2-2-2-1.3 0-1.87.9-2 2-1.24 2.94-4.32 4.72-10 5-5.68-.28-8.76-2.06-10-5-.13-1.1-.7-2-2-2-1.05 0-2 .9-2 2" fill="black" fill-opacity=".6"/></g><g id="nose-default-8e20d886"><path fill-rule="evenodd" clip-rule="evenodd" d="M0 0c0 4.42 5.37 8 12 8s12-3.58 12-8" fill="black" fill-opacity=".16"/></g><g id="eyes-wink-8e20d886"><path d="M22 14a6 6 0 1 1-12 0 6 6 0 0 1 12 0" fill="black" fill-opacity=".6"/><path fill-rule="evenodd" clip-rule="evenodd" d="M56.6 16.96c1.59-3.92 5.55-6.86 10.37-7.2 4.8-.33 9.12 2 11.24 5.64.63 1.1-.1 2.06-.93 1.43-2.6-1.93-6.15-3-10-2.73a15 15 0 0 0-9.33 3.9c-.84.79-1.81.11-1.35-1.03" fill="black" fill-opacity=".6"/></g><g id="eyebrows-raisedExcitedNatural-8e20d886"><path fill-rule="evenodd" clip-rule="evenodd" d="m14.9 1.58.91-.4C21.06-.9 29-.03 33.86 2.3c.57.27.18 1.15-.4 1.1C18.54 2.27 8.5 11.56 5.08 17.86c-.1.18-.4.2-.48.03C2.3 12.56 9.05 3.9 14.9 1.58m66.47 0-.91-.4C75.22-.9 67.27-.03 62.4 2.3c-.56.27-.18 1.15.4 1.1 14.93-1.14 24.98 8.15 28.4 14.45.1.18.4.2.47.03 2.3-5.32-4.45-13.98-10.3-16.3" fill="black" fill-opacity=".6"/></g><g id="top-straight02-8e20d886"><path d="M156 180.61V199h4a71.7 71.7 0 0 1 46 16.6V92a74 74 0 0 0-148 0v183.72A28 28 0 0 0 82 248v-45.58a72 72 0 0 1 22-3.42h4v-18.39a56.2 56.2 0 0 1-26-25.36V93.27a150 150 0 0 0 28.34-12.77c15.4-8.9 28.1-19.56 36.73-30.1 1.76 5.2 4.1 10.4 7.04 15.48 8.8 15.2 21.15 26.35 33.9 32.04v.25q.6.1 1.2.26 1.17.48 2.34.9A12 12 0 0 1 198 110v13a12 12 0 0 1-10.22 11.87A56 56 0 0 1 156 180.6" fill="#5c6213"/><path d="M156 199v-18.39a56 56 0 0 0 31.8-45.74A12 12 0 0 0 198 123v-13a12 12 0 0 0-6.5-10.66 45 45 0 0 0 14.5 2.8v113.47A71.7 71.7 0 0 0 160 199zm-74 3.42v-47.17a56.2 56.2 0 0 0 26 25.36V199h-4c-7.67 0-15.07 1.2-22 3.42m106-104.5v.25q.6.1 1.18.26z" fill="black" fill-opacity=".27"/></g><clipPath id="clip-8e20d886"><rect width="280" height="280" rx="103.6" ry="103.6"/></clipPath></defs><g clip-path="url(#clip-8e20d886)"><g transform="translate(50.4, 0)"><path d="M140 36a56 56 0 0 0-56 56v6.17A12 12 0 0 0 74 110v14a12 12 0 0 0 10.3 11.88A56 56 0 0 0 116 180.6V199h-4a72 72 0 0 0-72 72v9h200v-9a72 72 0 0 0-72-72h-4v-18.38a56 56 0 0 0 31.7-44.73A12 12 0 0 0 206 124v-14a12 12 0 0 0-10-11.83V92a56 56 0 0 0-56-56" fill="url(#skin-color-8e20d886)"/><path d="M116 180.61v8a56 56 0 0 0 24 5.39 56 56 0 0 0 24-5.39v-8a56 56 0 0 1-24 5.39 56 56 0 0 1-24-5.39" fill="black" fill-opacity=".1"/><use transform="translate(40 184.7)" href="#clothes-collarAndSweater-8e20d886"/><use transform="translate(94 140)" href="#mouth-twinkle-8e20d886"/><use transform="translate(128 130)" href="#nose-default-8e20d886"/><use transform="translate(98 98)" href="#eyes-wink-8e20d886"/><use transform="translate(91.86 82)" href="#eyebrows-raisedExcitedNatural-8e20d886"/><use transform="translate(8)" href="#top-straight02-8e20d886"/></g></g></svg>