<svg xmlns="http://www.w3.org/2000/svg" viewBox="0 0 280 280" fill="none" shape-rendering="auto" aria-hidden="true"><!-- Generated by DiceBear (https://dicebear.com) --><metadata xmlns:rdf="http://www.w3.org/1999/02/22-rdf-syntax-ns#" xmlns:xsi="http://www.w3.org/2001/XMLSchema-instance" xmlns:dc="http://purl.org/dc/elements/1.1/" xmlns:dcterms="http://purl.org/dc/terms/"><rdf:RDF><rdf:Description><dc:title>Avataaars</dc:title><dc:creator>Pablo Stanley</dc:creator><dc:source xsi:type="dcterms:URI">https://avataaars.com/</dc:source><dcterms:license xsi:type="dcterms:URI">https://avataaars.com/</dcterms:license><dc:rights>Remix of “Avataaars” (https://avataaars.com/) by “Pablo Stanley”, licensed under “Free for personal and commercial use” (https://avataaars.com/)</dc:rights></rdf:Description></rdf:RDF></metadata><defs><linearGradient id="skin-color-f6c26aa2" gradientTransform="rotate(-128, 0.5, 0.5)"><stop offset="0%" stop-color="#2e91bc"/><stop offset="100%" stop-color="#b6e3f4"/></linearGradient><g id="clothes-shirtVNeck-f6c26aa2"><path d="M60.68 15.24A72 72 0 0 0 0 86.36v8.95h200v-8.95a72 72 0 0 0-60.68-71.12 24 24 0 0 1-7.56 13.6l-29.08 26.23a4 4 0 0 1-5.36 0L68.24 28.84a24 24 0 0 1-7.56-13.6" fill="#749a8a"/></g><g id="mouth-disbelief-f6c26aa2"><path fill-rule="evenodd" clip-rule="evenodd" d="M32 23a14 14 0 1 1 28 0" fill="black" fill-opacity=".7"/></g><g id="nose-default-f6c26aa2"><path fill-rule="evenodd" clip-rule="evenodd" d="M0 0c0 4.42 5.37 8 12 8s12-3.58 12-8" fill="black" fill-opacity=".16"/></g><g id="eyes-winkWacky-f6c26aa2"><circle cx="68" cy="14" r="12" fill="white"/><circle cx="68" cy="14" r="6" fill="black" fill-opacity=".7"/><path fill-rule="evenodd" clip-rule="evenodd" d="M2.16 17.45C4.01 13.65 8.16 11 13 11c4.81 0 8.96 2.63 10.82 6.4.55 1.13-.24 2.05-1.03 1.37a15 15 0 0 0-9.8-3.43c-3.73 0-7.12 1.24-9.55 3.23-.9.73-1.82-.01-1.28-1.12" fill="black" fill-opacity=".6"/></g><g id="eyebrows-upDown-f6c26aa2"><path d="M7.73 14.16c4.5-6.32 14.01-9.5 23.75-6.36a2 2 0 1 0 1.23-3.81c-11.4-3.7-22.74.1-28.24 7.85a2 2 0 1 0 3.26 2.32m80.78 7c-3.91-5.51-14.64-8.6-23.89-6.33a2 2 0 0 1-.95-3.88c10.73-2.64 23.16.94 28.1 7.9a2 2 0 0 1-3.26 2.3" fill="black" fill-opacity=".6"/></g><g id="top-shortRound-f6c26aa2"><path fill-rule="evenodd" clip-rule="evenodd" d="M166.3 35c-20.18-11.7-40.17-9.78-55.26-5.97-15.1 3.8-24.02 14.62-31.68 30.62a68 68 0 0 0-6.34 25.83 34 34 0 0 0 1.25 10.22c.33 1.2 2.15 5.39 2.65 2 .17-1.12-.44-2.67-.5-3.86-.08-1.57 0-3.16.11-4.73q.28-4.4 1.65-8.59c1.33-3.98 3.02-8.3 5.6-11.67 6.4-8.33 17.5-8.8 26.3-13.39-.78 1.4-3.7 3.68-2.7 5.27.7 1.1 3.37.76 4.64.72 3.35-.1 6.72-.67 10.02-1.14a72 72 0 0 0 15-4.1c4.02-1.5 8.61-2.88 11.63-6.07a69 69 0 0 0 17.4 13c5.62 2.88 14.68 4.32 18.11 10.16 4.07 6.9 2.2 15.4 3.44 22.9.47 2.85 1.54 2.79 2.13.24 1-4.33 1.47-8.83 1.15-13.28-.72-10.05-4.4-36.45-24.6-48.15" fill="#0b6210"/></g><clipPath id="clip-f6c26aa2"><rect width="280" height="280" rx="103.6" ry="103.6"/></clipPath></defs><g clip-path="url(#clip-f6c26aa2)"><g transform="translate(50.4, 0)"><path d="M140 36a56 56 0 0 0-56 56v6.17A12 12 0 0 0 74 110v14a12 12 0 0 0 10.3 11.88A56 56 0 0 0 116 180.6V199h-4a72 72 0 0 0-72 72v9h200v-9a72 72 0 0 0-72-72h-4v-18.38a56 56 0 0 0 31.7-44.73A12 12 0 0 0 206 124v-14a12 12 0 0 0-10-11.83V92a56 56 0 0 0-56-56" fill="url(#skin-color-f6c26aa2)"/><path d="M116 180.61v8a56 56 0 0 0 24 5.39 56 56 0 0 0 24-5.39v-8a56 56 0 0 1-24 5.39 56 56 0 0 1-24-5.39" fill="black" fill-opacity=".1"/><use transform="translate(40 184.7)" href="#clothes-shirtVNeck-f6c26aa2"/><use transform="translate(94 140)" href="#mouth-disbelief-f6c26aa2"/><use transform="translate(128 130)" href="#nose-default-f6c26aa2"/><use transform="translate(98 98)" href="#eyes-winkWacky-f6c26aa2"/><use transform="translate(91.86 82)" href="#eyebrows-upDown-f6c26aa2"/><use transform="translate(8)" href="#top-shortRound-f6c26aa2"/></g></g></svg>