<svg xmlns="http://www.w3.org/2000/svg" viewBox="0 0 280 280" fill="none" shape-rendering="auto" aria-hidden="true"><!-- Generated by DiceBear (https://dicebear.com) --><metadata xmlns:rdf="http://www.w3.org/1999/02/22-rdf-syntax-ns#" xmlns:xsi="http://www.w3.org/2001/XMLSchema-instance" xmlns:dc="http://purl.org/dc/elements/1.1/" xmlns:dcterms="http://purl.org/dc/terms/"><rdf:RDF><rdf:Description><dc:title>Avataaars</dc:title><dc:creator>Pablo Stanley</dc:creator><dc:source xsi:type="dcterms:URI">https://avataaars.com/</dc:source><dcterms:license xsi:type="dcterms:URI">https://avataaars.com/</dcterms:license><dc:rights>Remix of “Avataaars” (https://avataaars.com/) by “Pablo Stanley”, licensed under “Free for personal and commercial use” (https://avataaars.com/)</dc:rights></rdf:Description></rdf:RDF></metadata><defs><linearGradient id="skin-color-a1179c87" gradientTransform="rotate(-128, 0.5, 0.5)"><stop offset="0%" stop-color="#614335"/><stop offset="100%" stop-color="#3cf487"/></linearGradient><g id="clothes-shirtScoopNeck-a1179c87"><path d="M100.5 51.13c27.34 0 49.5-13.2 49.5-29.48q0-2.04-.46-4A72 72 0 0 1 200 86.35v8.95H0v-8.95A72 72 0 0 1 51.53 17.3a18 18 0 0 0-.53 4.34c0 16.28 22.16 29.48 49.5 29.48" fill="#12101e"/></g><g id="mouth-tongue-a1179c87"><path fill-rule="evenodd" clip-rule="evenodd" d="M21 9.6C22.41 19.24 33.06 27 46 27c12.97 0 23.65-7.82 25-18.26.1-.4-.22-1.74-2.17-1.74H23.17c-1.79 0-2.3 1.24-2.17 2.6" fill="black" fill-opacity=".7"/><path d="M62 7H31a5 5 0 0 0 5 5h21a5 5 0 0 0 5-5" fill="white"/><path d="M35 17.5v9a11.5 11.5 0 1 0 23 0v-9c0-1.93-2.91-3.5-6.5-3.5-2.01 0-3.8.5-5 1.26a9.5 9.5 0 0 0-5-1.26c-3.59 0-6.5 1.57-6.5 3.5" fill="#FF4F6D"/></g><g id="nose-default-a1179c87"><path fill-rule="evenodd" clip-rule="evenodd" d="M0 0c0 4.42 5.37 8 12 8s12-3.58 12-8" fill="black" fill-opacity=".16"/></g><g id="eyes-side-a1179c87"><path d="M13 8c-4.84 0-9 2.65-10.84 6.45-.54 1.1.39 1.85 1.28 1.12a15 15 0 0 1 9.8-3.22 6 6 0 1 0 10.7 2.8 2 2 0 0 0-.12-.74l-.15-.38a6 6 0 0 0-1.64-2.48C19.9 9.32 16.5 8 13 8m58 0c-4.84 0-9 2.65-10.84 6.45-.54 1.1.39 1.85 1.28 1.12a15 15 0 0 1 9.8-3.22 6 6 0 1 0 10.7 2.8 2 2 0 0 0-.12-.74l-.15-.38a6 6 0 0 0-1.64-2.48C77.9 9.32 74.5 8 71 8" fill="black" fill-opacity=".6"/></g><g id="eyebrows-unibrowNatural-a1179c87"><path fill-rule="evenodd" clip-rule="evenodd" d="M88.26 7.6c1.46.56 9.19 6.43 7.86 9.16a.8.8 0 0 1-1.29.22 11 11 0 0 0-1.7-1.2c-5.11-2.83-11.3-1.92-16.74-.9-6.12 1.14-12.1 3.48-18.38 2.67-2.04-.26-6.08-1.22-7.63-2.96-.47-.53-.06-1.38.64-1.43 1.44-.11 2.86-.86 4.33-1.28 3.65-1.03 7.4-1.56 11.11-2.3 6.62-1.3 15.17-4.52 21.8-2" fill="#DADADA"/><path fill-rule="evenodd" clip-rule="evenodd" d="M50.9 12.76c-1.17.04-2.8 3.56-.56 3.68 2.23.11 1.73-3.72.56-3.68m-3.76.04q0-.01 0 0M8.02 7.56c-1.47.56-9.2 6.43-7.87 9.16.24.5.9.6 1.3.22.54-.52 1.57-1.11 1.7-1.18 5.1-2.84 11.3-1.93 16.73-.91 6.12 1.15 12.1 3.49 18.4 2.68 2.03-.26 6.07-1.22 7.6-2.96.48-.53.08-1.38-.62-1.43-1.44-.11-2.86-.86-4.33-1.28-3.65-1.03-7.4-1.56-11.12-2.3-6.62-1.3-15.17-4.52-21.8-2" fill="#DADADA"/><path fill-rule="evenodd" clip-rule="evenodd" d="M47.1 11.79c1.18.04 2.77 4.5.54 4.67-2.24.18-1.7-4.71-.53-4.67" fill="#DADADA"/></g><g id="top-straight02-a1179c87"><path d="M156 180.61V199h4a71.7 71.7 0 0 1 46 16.6V92a74 74 0 0 0-148 0v183.72A28 28 0 0 0 82 248v-45.58a72 72 0 0 1 22-3.42h4v-18.39a56.2 56.2 0 0 1-26-25.36V93.27a150 150 0 0 0 28.34-12.77c15.4-8.9 28.1-19.56 36.73-30.1 1.76 5.2 4.1 10.4 7.04 15.48 8.8 15.2 21.15 26.35 33.9 32.04v.25q.6.1 1.2.26 1.17.48 2.34.9A12 12 0 0 1 198 110v13a12 12 0 0 1-10.22 11.87A56 56 0 0 1 156 180.6" fill="#ecdcbf"/><path d="M156 199v-18.39a56 56 0 0 0 31.8-45.74A12 12 0 0 0 198 123v-13a12 12 0 0 0-6.5-10.66 45 45 0 0 0 14.5 2.8v113.47A71.7 71.7 0 0 0 160 199zm-74 3.42v-47.17a56.2 56.2 0 0 0 26 25.36V199h-4c-7.67 0-15.07 1.2-22 3.42m106-104.5v.25q.6.1 1.18.26z" fill="black" fill-opacity=".27"/></g><g id="accessories-prescription01-a1179c87"><path fill-rule="evenodd" clip-rule="evenodd" d="M105.95 49.49c4.66.16 8 .88 10.54 4.52 3 .15 6.23.37 8.95 1.63 3.4 1.56 3.91 5.1-.36 5.6a20 20 0 0 1-5.55-.46l-.18-.03-.34-.06c1.1 9.46-6.2 20.87-14.23 24.35C93.83 89.8 81.57 84.53 75.77 75c-2.63-4.3-4.15-10.51-4.47-15.86q-.63-.31-1.23-.67-.57-.34-1.12-.61c-2-.98-5.34-1.1-7.5 0q-.51.26-1.04.58-.64.38-1.32.72C58.77 64.5 57.25 70.7 54.63 75c-5.8 9.53-18.07 14.8-29.04 10.04-8.06-3.48-15.37-14.9-14.26-24.35q-.18-.01-.34.03l-.19.03c-1.83.33-3.69.66-5.55.45-4.26-.5-3.74-4.03-.36-5.6 2.74-1.25 5.98-1.47 9-1.62 2.54-3.63 5.88-4.36 10.54-4.52l23.3-.46c5.18-.14 9.71 0 11.02 4.6a19 19 0 0 1 6.35-1.25c1.86 0 4.35.45 6.5 1.28 1.3-4.64 5.84-4.77 11.03-4.63zM81.9 56.27c-2.37.03-3.49.42-3.9 2.9-.4 2.5 0 5.31.48 7.78.72 3.77 1.92 7.46 4.7 10.22a16 16 0 0 0 8.32 4.34l.96.16c.63.1 1.23.18.72.13l-.1-.01h-.06.16c3.72.4 7.7.32 10.8-2.04 3.54-2.7 5.96-6.95 7.03-11.2.62-2.48 1.93-8.42-.46-10.4-2.74-2.28-28.64-1.88-28.64-1.88m-33.43 0c2.37.03 3.5.42 3.9 2.9.4 2.5 0 5.32-.46 7.78-.72 3.77-1.92 7.46-4.7 10.22a16 16 0 0 1-8.33 4.35l-.96.15c-.64.1-1.25.19-.68.13-3.73.4-7.74.32-10.84-2.05-3.54-2.7-5.96-6.95-7.02-11.2-.62-2.48-1.93-8.42.46-10.4 2.74-2.28 28.63-1.87 28.63-1.87m-10.93 25.5" fill="black" fill-opacity=".1"/><path fill-rule="evenodd" clip-rule="evenodd" d="M105.95 47.49c4.66.16 8 .88 10.54 4.52 3 .15 6.23.37 8.95 1.63 3.4 1.56 3.91 5.1-.36 5.6a20 20 0 0 1-5.55-.46l-.18-.03-.34-.06c1.1 9.46-6.2 20.87-14.23 24.35C93.83 87.8 81.57 82.53 75.77 73c-2.63-4.3-4.15-10.51-4.47-15.86q-.63-.31-1.23-.67-.57-.34-1.12-.61c-2-.98-5.34-1.1-7.5 0q-.51.26-1.04.58-.64.38-1.32.72C58.77 62.5 57.25 68.7 54.63 73c-5.8 9.53-18.07 14.8-29.04 10.04-8.06-3.48-15.37-14.9-14.26-24.35q-.18-.01-.34.03l-.19.03c-1.83.33-3.69.66-5.55.45-4.26-.5-3.74-4.03-.36-5.6 2.74-1.25 5.98-1.47 9-1.62 2.54-3.63 5.88-4.36 10.54-4.52l23.3-.46c5.18-.14 9.71 0 11.02 4.6a19 19 0 0 1 6.35-1.25c1.86 0 4.35.45 6.5 1.28 1.3-4.64 5.84-4.77 11.03-4.63zM81.9 54.27c-2.37.03-3.49.42-3.9 2.9-.4 2.5 0 5.31.48 7.78.72 3.77 1.92 7.46 4.7 10.22a16 16 0 0 0 8.32 4.34l.96.16c.63.1 1.23.18.72.13l-.1-.01h-.06.16c3.72.4 7.7.32 10.8-2.04 3.54-2.7 5.96-6.95 7.03-11.2.62-2.48 1.93-8.42-.46-10.4-2.74-2.28-28.64-1.88-28.64-1.88m-33.43 0c2.37.03 3.5.42 3.9 2.9.4 2.5 0 5.32-.46 7.78-.72 3.77-1.92 7.46-4.7 10.22a16 16 0 0 1-8.33 4.35l-.96.15c-.64.1-1.25.19-.68.13-3.73.4-7.74.32-10.84-2.05-3.54-2.7-5.96-6.95-7.02-11.2-.62-2.48-1.93-8.42.46-10.4 2.74-2.28 28.63-1.87 28.63-1.87m-10.93 25.5" fill="#3c4f5c"/></g><clipPath id="clip-a1179c87"><rect width="280" height="280" rx="103.6" ry="103.6"/></clipPath></defs><g clip-path="url(#clip-a1179c87)"><g transform="translate(50.4, 0)"><path d="M140 36a56 56 0 0 0-56 56v6.17A12 12 0 0 0 74 110v14a12 12 0 0 0 10.3 11.88A56 56 0 0 0 116 180.6V199h-4a72 72 0 0 0-72 72v9h200v-9a72 72 0 0 0-72-72h-4v-18.38a56 56 0 0 0 31.7-44.73A12 12 0 0 0 206 124v-14a12 12 0 0 0-10-11.83V92a56 56 0 0 0-56-56" fill="url(#skin-color-a1179c87)"/><path d="M116 180.61v8a56 56 0 0 0 24 5.39 56 56 0 0 0 24-5.39v-8a56 56 0 0 1-24 5.39 56 56 0 0 1-24-5.39" fill="black" fill-opacity=".1"/><use transform="translate(40 184.7)" href="#clothes-shirtScoopNeck-a1179c87"/><use transform="translate(94 140)" href="#mouth-tongue-a1179c87"/><use transform="translate(128 130)" href="#nose-default-a1179c87"/><use transform="translate(98 98)" href="#eyes-side-a1179c87"/><use transform="translate(91.86 82)" href="#eyebrows-unibrowNatural-a1179c87"/><use transform="translate(8)" href="#top-straight02-a1179c87"/><use transform="translate(75.77 46)" href="#accessories-prescription01-a1179c87"/></g></g></svg>