<svg xmlns="http://www.w3.org/2000/svg" viewBox="0 0 280 280" fill="none" shape-rendering="auto" aria-hidden="true"><!-- Generated by DiceBear (https://dicebear.com) --><metadata xmlns:rdf="http://www.w3.org/1999/02/22-rdf-syntax-ns#" xmlns:xsi="http://www.w3.org/2001/XMLSchema-instance" xmlns:dc="http://purl.org/dc/elements/1.1/" xmlns:dcterms="http://purl.org/dc/terms/"><rdf:RDF><rdf:Description><dc:title>Avataaars</dc:title><dc:creator>Pablo Stanley</dc:creator><dc:source xsi:type="dcterms:URI">https://avataaars.com/</dc:source><dcterms:license xsi:type="dcterms:URI">https://avataaars.com/</dcterms:license><dc:rights>Remix of “Avataaars” (https://avataaars.com/) by “Pablo Stanley”, licensed under “Free for personal and commercial use” (https://avataaars.com/)</dc:rights></rdf:Description></rdf:RDF></metadata><defs><linearGradient id="skin-color-8778fde6" gradientTransform="rotate(-128, 0.5, 0.5)"><stop offset="0%" stop-color="#ae5d29"/><stop offset="100%" stop-color="#5096bc"/></linearGradient><g id="clothesGraphic-cumbia-8778fde6"><path fill-rule="evenodd" clip-rule="evenodd" d="M10.27 29.13c3.28-.56 5.73-3.55 5.18-6.79-.46-2.72-1.74-.34-2.97.86-1.34 1.3-2.45 2.57-4.54 2.05-3.6-.9-4.86-5.4-3.84-8.48a6 6 0 0 1 3.48-3.7c1.85-.74 3.2.1 4.75 1.1.28.19 1.73 1.37 2 1.25.45-.21.1-2.43.04-2.73a4.8 4.8 0 0 0-2.62-3.23C8.4 7.82 4.23 9.94 2.1 12.5c-4.88 5.9-.91 18.17 8.17 16.62m8.41-6.22c.51 3.48 2.99 6.5 6.96 6.36 4.28-.16 6.06-4.1 7-7.5.97-3.4 2.06-7.67.67-11.08-.42-1.03-.68-2.38-1.71-1.53-1.26 1.03-1.41 4.04-1.52 5.44-.2 2.65-.78 9.97-4.1 10.95-4.18 1.22-4.05-5.85-4-7.98.03-1.9.24-3.73-.35-5.58-.3-1-.59-2.44-1.53-1.64-1.29 1.1-1.45 3.83-1.54 5.33a36 36 0 0 0 .13 7.23m19.09 2.85c.2.4.63 1.4 1.02 1.67.95.67-.05.71.8-.05.82-.73 1.13-2.72 1.26-3.67.38-2.96-.12-6.1-.09-9.1 1.02 2.22 1.58 4.6 2.39 6.88.55 1.58 1.4 4.8 3.65 4.75 2.5-.05 2.6-3.14 2.9-4.82a71 71 0 0 1 1.7-7.04c.1 3.91-1.4 11 2.1 13.92a50 50 0 0 0 1.5-4.4c.26-1.7.1-3.45.1-5.15.09-3.6.76-8-.3-11.5-.29-1.14-.94-2.27-2.37-2.24-1.83.04-2.24 2-2.7 3.3a114 114 0 0 0-3.35 10.94c-.54-1.68-5.33-16.42-8.8-10.9-.54.9-.3 2.22-.32 3.2-.04 1.87-.15 3.75-.2 5.63-.06 2.84-.4 5.9.8 8.58M62.1 12.71c.72-.14 5.74-1.73 5.52-.14-.22 1.68-4.63 3.31-5.81 3.88 0-1.2-.24-2.44-.65-3.57zm5.72-.64c-.03-.04 0 0 0 0m.12 8.34c2.27 1.22 1.3 3.42-.43 4.6-.63.56-6.5 1.9-6.49 1.76.18-1.7-.26-5 1-6 1.3-1.05 4.5-.82 5.94-.27m.06-8.01s.01.03 0 0M58 29.33c.23.55.86 1.91 1.57 1.94.86.04.8-1.04.93-1.7 3.44 1.72 8.5-.05 10.9-3.03a6.15 6.15 0 0 0-2.57-9.74c2.1-1.7 4.02-5.4 1.25-7.5a7.7 7.7 0 0 0-8.12-.3c-2.74 1.72-3.85 5.83-4.1 9-.25 3.42-1.15 8.14.14 11.34m18.11-8.4c.07 2.07-.15 4.3.33 6.3.17.72.44 1.52.76 2.17.61 1.2.31 1.06 1.03.37 2.18-2.08 1.21-8.58 1.16-11.25-.04-2.08.06-4.28-.5-6.28-.17-.56-1.13-3.35-1.67-3.3-.8.1-1.37 3.94-1.42 4.7-.15 2.4.23 4.9.31 7.3m18.7.56c-1.58-.14-3.62.07-5.12.56.7-1.9 1.48-4.05 2.24-5.8q.7-1.6 1.5-3.22c1.27 2.68 1.98 5.82 2.82 8.66q-.7-.12-1.44-.2m5.44.72c-.73-2.77-1.58-5.53-2.43-8.27-.54-1.75-1.13-3.92-2.6-5.17-4.2-3.56-6.56 5.85-7.6 8.23-.97 2.3-2.2 4.65-2.84 7.07a10 10 0 0 0-.24 3.63c.2 1.52 0 1.74 1.3.9 1-.62 1.4-1.78 2.22-2.55.14-.14.22-.68.4-.76.18-.1 1.5.25 1.8.27 2.18.17 4.72-.2 6.72-1.03.2.86 1.63 5.98 2.98 5.79.6-.08.96-3.06 1-3.54.08-1.55-.36-3.05-.75-4.54m9.11-13.7c-.26-1.2-.8-3.3-1.84-2.12-1.4 1.6-1.1 5.18-1.1 7.19-.03 1.45-1.56 12.06.55 11.88-.1-.01.84-1.68.98-1.93a12 12 0 0 0 1.32-4.72c.37-3.24.8-7.12.1-10.3M108.2 29.4c-2.23-2.73-6.3.66-5.04 3.38 1.73 3.7 7.33-.57 5.04-3.38m-13.3 4.23c-2.9-.73-6.3-.24-9.25-.15-3.08.1-6.16.27-9.24.36-6.57.2-13.13.1-19.7.04-12.38-.1-24.86.7-37.32.17-2.67-.12-5.54-.72-8.2-.2-.72.13-3 .53-3.32 1.25-.34.76 1.4 1.56 2.33 1.96 2.41 1.04 5.32.86 7.9.96 2.92.12 5.9.06 8.81 0 12.07-.3 24.1-1.35 36.18-1.18 6.97.1 13.93.04 20.9 0 3.32 0 7 .53 10.27-.06.55-.1 3.76-.85 3.8-1.83.03-.46-2.8-1.23-3.12-1.32" fill="white"/></g><g id="clothes-graphicShirt-8778fde6"><path d="M100.5 39.3c18.5 0 33.5-9.62 33.5-21.5q0-1.64-.38-3.23A72 72 0 0 1 200 86.36v8.95H0v-8.95A72 72 0 0 1 67.4 14.5a14 14 0 0 0-.4 3.3c0 11.88 15 21.5 33.5 21.5" fill="#4b6459"/><use transform="translate(45 44.3)" href="#clothesGraphic-cumbia-8778fde6"/></g><g id="mouth-eating-8778fde6"><path d="M20 20.24q2.05.75 4.4.76c5.31 0 9.81-3.15 11.29-7.49 2.47 2.16 6.17 3.53 10.31 3.53s7.84-1.37 10.31-3.53C57.8 17.85 62.3 21 67.61 21q2.34-.01 4.4-.76h-.19c-6.33 0-11.8-4.9-11.8-10.56 0-4.18 2.32-7.72 5.7-9.68-5.5.8-9.74 5-9.9 10.1a17.6 17.6 0 0 1-9.8 2.8 17.5 17.5 0 0 1-9.8-2.8C36 5 31.8.8 26.3 0a11.2 11.2 0 0 1 5.68 9.68c0 5.66-5.47 10.57-11.8 10.57z" fill="black" fill-opacity=".6" opacity=".6"/><path d="M9 18A9 9 0 1 0 9 0a9 9 0 0 0 0 18m74 0a9 9 0 1 0 0-18 9 9 0 0 0 0 18" fill="#FF4646" fill-opacity=".2"/></g><g id="nose-default-8778fde6"><path fill-rule="evenodd" clip-rule="evenodd" d="M0 0c0 4.42 5.37 8 12 8s12-3.58 12-8" fill="black" fill-opacity=".16"/></g><g id="eyes-xDizzy-8778fde6"><path d="M20.5 22.7 15 17.2l-5.5 5.5c-.4.4-1.1.4-1.6 0l-1.6-1.6c-.4-.4-.4-1.1 0-1.6l5.5-5.5-5.5-5.5c-.4-.5-.4-1.2 0-1.6l1.6-1.6c.4-.4 1.1-.4 1.6 0l5.5 5.5 5.5-5.5c.4-.4 1.1-.4 1.6 0l1.6 1.6c.4.4.4 1.1 0 1.6L18.2 14l5.5 5.5c.4.4.4 1.1 0 1.6l-1.6 1.6c-.4.4-1.1.4-1.6 0m54 0L69 17.2l-5.5 5.5c-.4.4-1.1.4-1.6 0l-1.6-1.6c-.4-.4-.4-1.1 0-1.6l5.5-5.5-5.5-5.5c-.4-.5-.4-1.2 0-1.6l1.6-1.6c.4-.4 1.1-.4 1.6 0l5.5 5.5 5.5-5.5c.4-.4 1.1-.4 1.6 0l1.6 1.6c.4.4.4 1.1 0 1.6L72.2 14l5.5 5.5c.4.4.4 1.1 0 1.6l-1.6 1.6c-.4.4-1.1.4-1.6 0" fill="black" fill-opacity=".6"/></g><g id="eyebrows-angry-8778fde6"><path d="M7.75 15.18c4.24-5.76 6.88-5.48 13.31-.62l.67.5c4.83 3.67 7.12 4.94 10.4 4.94a2 2 0 0 0 0-4c-2.06 0-3.9-1.02-7.98-4.12l-.68-.52C19.71 8.53 17.51 7.3 14.77 7c-3.68-.4-7.05 1.48-10.24 5.83a2 2 0 1 0 3.22 2.36m80.78 0c-4.24-5.77-6.88-5.49-13.32-.63l-.67.5c-4.82 3.67-7.1 4.94-10.4 4.94a2 2 0 0 1 0-4c2.06 0 3.9-1.02 7.99-4.12l.67-.52C76.56 8.53 78.76 7.3 81.5 7c3.68-.4 7.06 1.48 10.25 5.83a2 2 0 1 1-3.22 2.36" fill="black" fill-opacity=".6"/></g><g id="top-fro-8778fde6"><path d="M93.7 69.39c-4.62 24.47-16 42.72-25.74 41a8 8 0 0 1-1.96-.63V89a66 66 0 0 1 28.4-54.24q.72 3.6 1.05 7.77a263 263 0 0 1 36.9-2.44c13.27 0 25.67.85 36.22 2.34q.33-4.1 1.05-7.67A65.9 65.9 0 0 1 198 89v20.76q-.94.46-1.95.63c-9.72 1.72-21.09-16.48-25.73-40.9a261 261 0 0 1-37.97 2.57c-14.3 0-27.6-1-38.65-2.7" fill="black" fill-opacity=".16"/><path d="M132 0c-11.21 0-21.9 2.2-31.69 6.18Q98.93 6 97.5 6c-6.7 0-12.77 3.07-17.2 8.06-18.04.93-33.46 13.3-40.77 30.9C31.5 49.56 26 59.04 26 70q0 .87.05 1.73A62 62 0 0 0 16 106c0 7.33 1.21 14.34 3.43 20.78Q19 129.32 19 132c0 9.45 4.1 17.81 10.38 22.88C36.74 172.68 52.6 185 71 185q2.25 0 4.44-.24C80.9 189.9 87.88 193 95.5 193c4.44 0 8.67-1.05 12.5-2.95v-9.44a56 56 0 0 1-31.8-45.74A12 12 0 0 1 66 123v-13c0-1.72.36-3.36 1.02-4.84q.46.15.94.23c9.73 1.72 21.12-16.53 25.74-41a260 260 0 0 0 38.65 2.7c14.02 0 27.06-.96 37.97-2.6 4.64 24.4 16.01 42.6 25.73 40.9q.48-.1.94-.25a12 12 0 0 1 1 4.83v13a12 12 0 0 1-10.2 11.87 56 56 0 0 1-31.81 45.74v9.44a28 28 0 0 0 12.5 2.95c7.62 0 14.6-3.1 20.06-8.24q2.19.24 4.44.24c18.39 0 34.26-12.32 41.62-30.12C240.9 149.8 245 141.45 245 132q0-2.68-.43-5.22A64 64 0 0 0 248 106a62 62 0 0 0-10.05-34.27q.06-.87.05-1.73c0-10.96-5.5-20.44-13.53-25.04-7.31-17.6-22.73-29.97-40.77-30.9C179.27 9.07 173.2 6 166.5 6q-1.43 0-2.81.18A84 84 0 0 0 132 0" fill="#da8672"/></g><clipPath id="clip-8778fde6"><rect width="280" height="280" rx="103.6" ry="103.6"/></clipPath></defs><g clip-path="url(#clip-8778fde6)"><g transform="translate(50.4, 0)"><path d="M140 36a56 56 0 0 0-56 56v6.17A12 12 0 0 0 74 110v14a12 12 0 0 0 10.3 11.88A56 56 0 0 0 116 180.6V199h-4a72 72 0 0 0-72 72v9h200v-9a72 72 0 0 0-72-72h-4v-18.38a56 56 0 0 0 31.7-44.73A12 12 0 0 0 206 124v-14a12 12 0 0 0-10-11.83V92a56 56 0 0 0-56-56" fill="url(#skin-color-8778fde6)"/><path d="M116 180.61v8a56 56 0 0 0 24 5.39 56 56 0 0 0 24-5.39v-8a56 56 0 0 1-24 5.39 56 56 0 0 1-24-5.39" fill="black" fill-opacity=".1"/><use transform="translate(40 184.7)" href="#clothes-graphicShirt-8778fde6"/><use transform="translate(94 140)" href="#mouth-eating-8778fde6"/><use transform="translate(128 130)" href="#nose-default-8778fde6"/><use transform="translate(98 98)" href="#eyes-xDizzy-8778fde6"/><use transform="translate(91.86 82)" href="#eyebrows-angry-8778fde6"/><use transform="translate(8)" href="#top-fro-8778fde6"/></g></g></svg>