<svg xmlns="http://www.w3.org/2000/svg" viewBox="0 0 280 280" fill="none" shape-rendering="auto" aria-hidden="true"><!-- Generated by DiceBear (https://dicebear.com) --><metadata xmlns:rdf="http://www.w3.org/1999/02/22-rdf-syntax-ns#" xmlns:xsi="http://www.w3.org/2001/XMLSchema-instance" xmlns:dc="http://purl.org/dc/elements/1.1/" xmlns:dcterms="http://purl.org/dc/terms/"><rdf:RDF><rdf:Description><dc:title>Avataaars</dc:title><dc:creator>Pablo Stanley</dc:creator><dc:source xsi:type="dcterms:URI">https://avataaars.com/</dc:source><dcterms:license xsi:type="dcterms:URI">https://avataaars.com/</dcterms:license><dc:rights>Remix of “Avataaars” (https://avataaars.com/) by “Pablo Stanley”, licensed under “Free for personal and commercial use” (https://avataaars.com/)</dc:rights></rdf:Description></rdf:RDF></metadata><defs><linearGradient id="skin-color-24a83c02" gradientTransform="rotate(-128, 0.5, 0.5)"><stop offset="0%" stop-color="#f8d25c"/><stop offset="100%" stop-color="#040f07"/></linearGradient><g id="clothes-shirtVNeck-24a83c02"><path d="M60.68 15.24A72 72 0 0 0 0 86.36v8.95h200v-8.95a72 72 0 0 0-60.68-71.12 24 24 0 0 1-7.56 13.6l-29.08 26.23a4 4 0 0 1-5.36 0L68.24 28.84a24 24 0 0 1-7.56-13.6" fill="#fe538e"/></g><g id="mouth-disbelief-24a83c02"><path fill-rule="evenodd" clip-rule="evenodd" d="M32 23a14 14 0 1 1 28 0" fill="black" fill-opacity=".7"/></g><g id="nose-default-24a83c02"><path fill-rule="evenodd" clip-rule="evenodd" d="M0 0c0 4.42 5.37 8 12 8s12-3.58 12-8" fill="black" fill-opacity=".16"/></g><g id="eyes-closed-24a83c02"><path fill-rule="evenodd" clip-rule="evenodd" d="M2.16 19.55C4.01 23.35 8.16 26 13 26c4.81 0 8.96-2.63 10.82-6.4.55-1.13-.24-2.05-1.03-1.37a15 15 0 0 1-9.8 3.43c-3.73 0-7.12-1.24-9.55-3.23-.9-.73-1.82.01-1.28 1.12m58 0c1.85 3.8 6 6.45 10.84 6.45 4.81 0 8.96-2.63 10.82-6.4.55-1.13-.24-2.05-1.03-1.37a15 15 0 0 1-9.8 3.43c-3.76 0-7.15-1.24-9.58-3.23-.9-.73-1.82.01-1.28 1.12" fill="black" fill-opacity=".6"/></g><g id="eyebrows-defaultNatural-24a83c02"><path fill-rule="evenodd" clip-rule="evenodd" d="M18.68 6.15c-5.8.27-15.2 4.49-14.95 10.34 0 .15.3.24.43.1 2.75-2.97 22.31-5.96 29.2-4.37.63.14 1.11-.48.71-.93-3.42-3.82-10.17-5.4-15.39-5.15m59.91 0c5.8.27 15.2 4.49 14.95 10.34 0 .15-.29.24-.42.1-2.76-2.97-22.32-5.96-29.2-4.37-.64.14-1.12-.48-.72-.93 3.42-3.84 10.2-5.42 15.4-5.17" fill="black" fill-opacity=".6"/></g><g id="top-froBand-24a83c02"><path d="M249 70.5q0 1.2-.1 2.37A57.7 57.7 0 0 1 260 107c0 7.16-1.3 14.01-3.67 20.34q.67 2.98.67 6.16c0 9.79-4.93 18.42-12.45 23.56a53.5 53.5 0 0 1-53.86 29.63A36.4 36.4 0 0 1 167.5 195c-4.02 0-7.88-.65-11.5-1.85v-12.54a56 56 0 0 0 31.8-45.74A12 12 0 0 0 198 123v-13a12 12 0 0 0-10-11.83V92a56 56 0 0 0-2.22-15.68l1.37 12.87-11.34-24-45.13-19.52-30.12 10.56-21.5 20.2-.04-2.61A56 56 0 0 0 76 92v6.17A12 12 0 0 0 66 110v13a12 12 0 0 0 10.2 11.87A56 56 0 0 0 108 180.6v10.94A36 36 0 0 1 92.5 195a36.4 36.4 0 0 1-23.19-8.31q-2.86.3-5.81.31a53.5 53.5 0 0 1-48.05-29.94 28.5 28.5 0 0 1-11.78-29.72A58 58 0 0 1 0 107a57.7 57.7 0 0 1 11.1-34.13 28.5 28.5 0 0 1 16-28.04 55 55 0 0 1 47.55-31.78 28.4 28.4 0 0 1 26.6-7.24A84 84 0 0 1 132 0a84 84 0 0 1 29.4 5.3q2.01-.3 4.1-.3a28.4 28.4 0 0 1 19.85 8.05 55 55 0 0 1 47.55 31.78A28.5 28.5 0 0 1 249 70.5" fill="#196259"/><path d="M187.37 98.98q.62-3.84.63-7.83C188 62.35 162.7 39 131.5 39S75 62.35 75 91.15q0 4 .63 7.82c4.1-25.09 27.55-44.32 55.87-44.32s51.78 19.23 55.87 44.33" fill="#92D9FF"/></g><g id="accessories-round-24a83c02"><path fill-rule="evenodd" clip-rule="evenodd" d="M34.23 92a24 24 0 0 1-22.96-31H4.73a2.5 2.5 0 0 1 0-5h8q.34 0 .66.09a24 24 0 0 1 42.26 1.06A11.4 11.4 0 0 1 65.1 52c4 0 7.54 2.14 9.6 5.4a24 24 0 0 1 42.37-1.31q.31-.1.66-.1h8a2.5 2.5 0 1 1 0 5h-6.53a24 24 0 1 1-46.6 2.84c-.1-4.37-3.45-7.83-7.5-7.83-3.74 0-6.9 2.94-7.43 6.83q.56 2.51.56 5.17a24 24 0 0 1-24 24m0-4a20 20 0 1 0 0-40 20 20 0 0 0 0 40m82-20a20 20 0 1 1-40 0 20 20 0 0 1 40 0" fill="black" fill-opacity=".1"/><path fill-rule="evenodd" clip-rule="evenodd" d="M34.23 90a24 24 0 0 1-22.96-31H4.73a2.5 2.5 0 0 1 0-5h8q.34 0 .66.09a24 24 0 0 1 42.26 1.06A11.4 11.4 0 0 1 65.1 50c4 0 7.54 2.14 9.6 5.4a24 24 0 0 1 42.37-1.31q.31-.1.66-.1h8a2.5 2.5 0 1 1 0 5h-6.53a24 24 0 1 1-46.6 2.84c-.1-4.37-3.45-7.83-7.5-7.83-3.74 0-6.9 2.94-7.43 6.83q.56 2.51.56 5.17a24 24 0 0 1-24 24m0-4a20 20 0 1 0 0-40 20 20 0 0 0 0 40m82-20a20 20 0 1 1-40 0 20 20 0 0 1 40 0" fill="#262e33"/></g><clipPath id="clip-24a83c02"><rect width="280" height="280" rx="103.6" ry="103.6"/></clipPath></defs><g clip-path="url(#clip-24a83c02)"><g transform="translate(50.4, 0)"><path d="M140 36a56 56 0 0 0-56 56v6.17A12 12 0 0 0 74 110v14a12 12 0 0 0 10.3 11.88A56 56 0 0 0 116 180.6V199h-4a72 72 0 0 0-72 72v9h200v-9a72 72 0 0 0-72-72h-4v-18.38a56 56 0 0 0 31.7-44.73A12 12 0 0 0 206 124v-14a12 12 0 0 0-10-11.83V92a56 56 0 0 0-56-56" fill="url(#skin-color-24a83c02)"/><path d="M116 180.61v8a56 56 0 0 0 24 5.39 56 56 0 0 0 24-5.39v-8a56 56 0 0 1-24 5.39 56 56 0 0 1-24-5.39" fill="black" fill-opacity=".1"/><use transform="translate(40 184.7)" href="#clothes-shirtVNeck-24a83c02"/><use transform="translate(94 140)" href="#mouth-disbelief-24a83c02"/><use transform="translate(128 130)" href="#nose-default-24a83c02"/><use transform="translate(98 98)" href="#eyes-closed-24a83c02"/><use transform="translate(91.86 82)" href="#eyebrows-defaultNatural-24a83c02"/><use transform="translate(8)" href="#top-froBand-24a83c02"/><use transform="translate(75.77 46)" href="#accessories-round-24a83c02"/></g></g></svg>