<svg xmlns="http://www.w3.org/2000/svg" viewBox="0 0 280 280" fill="none" shape-rendering="auto" aria-hidden="true"><!-- Generated by DiceBear (https://dicebear.com) --><metadata xmlns:rdf="http://www.w3.org/1999/02/22-rdf-syntax-ns#" xmlns:xsi="http://www.w3.org/2001/XMLSchema-instance" xmlns:dc="http://purl.org/dc/elements/1.1/" xmlns:dcterms="http://purl.org/dc/terms/"><rdf:RDF><rdf:Description><dc:title>Avataaars</dc:title><dc:creator>Pablo Stanley</dc:creator><dc:source xsi:type="dcterms:URI">https://avataaars.com/</dc:source><dcterms:license xsi:type="dcterms:URI">https://avataaars.com/</dcterms:license><dc:rights>Remix of “Avataaars” (https://avataaars.com/) by “Pablo Stanley”, licensed under “Free for personal and commercial use” (https://avataaars.com/)</dc:rights></rdf:Description></rdf:RDF></metadata><defs><linearGradient id="skin-color-86be1bbd" gradientTransform="rotate(-128, 0.5, 0.5)"><stop offset="0%" stop-color="#f49d1f"/><stop offset="100%" stop-color="#614335"/></linearGradient><g id="clothesGraphic-cumbia-86be1bbd"><path fill-rule="evenodd" clip-rule="evenodd" d="M10.27 29.13c3.28-.56 5.73-3.55 5.18-6.79-.46-2.72-1.74-.34-2.97.86-1.34 1.3-2.45 2.57-4.54 2.05-3.6-.9-4.86-5.4-3.84-8.48a6 6 0 0 1 3.48-3.7c1.85-.74 3.2.1 4.75 1.1.28.19 1.73 1.37 2 1.25.45-.21.1-2.43.04-2.73a4.8 4.8 0 0 0-2.62-3.23C8.4 7.82 4.23 9.94 2.1 12.5c-4.88 5.9-.91 18.17 8.17 16.62m8.41-6.22c.51 3.48 2.99 6.5 6.96 6.36 4.28-.16 6.06-4.1 7-7.5.97-3.4 2.06-7.67.67-11.08-.42-1.03-.68-2.38-1.71-1.53-1.26 1.03-1.41 4.04-1.52 5.44-.2 2.65-.78 9.97-4.1 10.95-4.18 1.22-4.05-5.85-4-7.98.03-1.9.24-3.73-.35-5.58-.3-1-.59-2.44-1.53-1.64-1.29 1.1-1.45 3.83-1.54 5.33a36 36 0 0 0 .13 7.23m19.09 2.85c.2.4.63 1.4 1.02 1.67.95.67-.05.71.8-.05.82-.73 1.13-2.72 1.26-3.67.38-2.96-.12-6.1-.09-9.1 1.02 2.22 1.58 4.6 2.39 6.88.55 1.58 1.4 4.8 3.65 4.75 2.5-.05 2.6-3.14 2.9-4.82a71 71 0 0 1 1.7-7.04c.1 3.91-1.4 11 2.1 13.92a50 50 0 0 0 1.5-4.4c.26-1.7.1-3.45.1-5.15.09-3.6.76-8-.3-11.5-.29-1.14-.94-2.27-2.37-2.24-1.83.04-2.24 2-2.7 3.3a114 114 0 0 0-3.35 10.94c-.54-1.68-5.33-16.42-8.8-10.9-.54.9-.3 2.22-.32 3.2-.04 1.87-.15 3.75-.2 5.63-.06 2.84-.4 5.9.8 8.58M62.1 12.71c.72-.14 5.74-1.73 5.52-.14-.22 1.68-4.63 3.31-5.81 3.88 0-1.2-.24-2.44-.65-3.57zm5.72-.64c-.03-.04 0 0 0 0m.12 8.34c2.27 1.22 1.3 3.42-.43 4.6-.63.56-6.5 1.9-6.49 1.76.18-1.7-.26-5 1-6 1.3-1.05 4.5-.82 5.94-.27m.06-8.01s.01.03 0 0M58 29.33c.23.55.86 1.91 1.57 1.94.86.04.8-1.04.93-1.7 3.44 1.72 8.5-.05 10.9-3.03a6.15 6.15 0 0 0-2.57-9.74c2.1-1.7 4.02-5.4 1.25-7.5a7.7 7.7 0 0 0-8.12-.3c-2.74 1.72-3.85 5.83-4.1 9-.25 3.42-1.15 8.14.14 11.34m18.11-8.4c.07 2.07-.15 4.3.33 6.3.17.72.44 1.52.76 2.17.61 1.2.31 1.06 1.03.37 2.18-2.08 1.21-8.58 1.16-11.25-.04-2.08.06-4.28-.5-6.28-.17-.56-1.13-3.35-1.67-3.3-.8.1-1.37 3.94-1.42 4.7-.15 2.4.23 4.9.31 7.3m18.7.56c-1.58-.14-3.62.07-5.12.56.7-1.9 1.48-4.05 2.24-5.8q.7-1.6 1.5-3.22c1.27 2.68 1.98 5.82 2.82 8.66q-.7-.12-1.44-.2m5.44.72c-.73-2.77-1.58-5.53-2.43-8.27-.54-1.75-1.13-3.92-2.6-5.17-4.2-3.56-6.56 5.85-7.6 8.23-.97 2.3-2.2 4.65-2.84 7.07a10 10 0 0 0-.24 3.63c.2 1.52 0 1.74 1.3.9 1-.62 1.4-1.78 2.22-2.55.14-.14.22-.68.4-.76.18-.1 1.5.25 1.8.27 2.18.17 4.72-.2 6.72-1.03.2.86 1.63 5.98 2.98 5.79.6-.08.96-3.06 1-3.54.08-1.55-.36-3.05-.75-4.54m9.11-13.7c-.26-1.2-.8-3.3-1.84-2.12-1.4 1.6-1.1 5.18-1.1 7.19-.03 1.45-1.56 12.06.55 11.88-.1-.01.84-1.68.98-1.93a12 12 0 0 0 1.32-4.72c.37-3.24.8-7.12.1-10.3M108.2 29.4c-2.23-2.73-6.3.66-5.04 3.38 1.73 3.7 7.33-.57 5.04-3.38m-13.3 4.23c-2.9-.73-6.3-.24-9.25-.15-3.08.1-6.16.27-9.24.36-6.57.2-13.13.1-19.7.04-12.38-.1-24.86.7-37.32.17-2.67-.12-5.54-.72-8.2-.2-.72.13-3 .53-3.32 1.25-.34.76 1.4 1.56 2.33 1.96 2.41 1.04 5.32.86 7.9.96 2.92.12 5.9.06 8.81 0 12.07-.3 24.1-1.35 36.18-1.18 6.97.1 13.93.04 20.9 0 3.32 0 7 .53 10.27-.06.55-.1 3.76-.85 3.8-1.83.03-.46-2.8-1.23-3.12-1.32" fill="white"/></g><g id="clothes-graphicShirt-86be1bbd"><path d="M100.5 39.3c18.5 0 33.5-9.62 33.5-21.5q0-1.64-.38-3.23A72 72 0 0 1 200 86.36v8.95H0v-8.95A72 72 0 0 1 67.4 14.5a14 14 0 0 0-.4 3.3c0 11.88 15 21.5 33.5 21.5" fill="#65c9ff"/><use transform="translate(45 44.3)" href="#clothesGraphic-cumbia-86be1bbd"/></g><g id="mouth-twinkle-86be1bbd"><path d="M32 10c0 5.37 6.16 9 14 9s14-3.63 14-9c0-1.1-.95-2-2-2-1.3 0-1.87.9-2 2-1.24 2.94-4.32 4.72-10 5-5.68-.28-8.76-2.06-10-5-.13-1.1-.7-2-2-2-1.05 0-2 .9-2 2" fill="black" fill-opacity=".6"/></g><g id="nose-default-86be1bbd"><path fill-rule="evenodd" clip-rule="evenodd" d="M0 0c0 4.42 5.37 8 12 8s12-3.58 12-8" fill="black" fill-opacity=".16"/></g><g id="eyes-closed-86be1bbd"><path fill-rule="evenodd" clip-rule="evenodd" d="M2.16 19.55C4.01 23.35 8.16 26 13 26c4.81 0 8.96-2.63 10.82-6.4.55-1.13-.24-2.05-1.03-1.37a15 15 0 0 1-9.8 3.43c-3.73 0-7.12-1.24-9.55-3.23-.9-.73-1.82.01-1.28 1.12m58 0c1.85 3.8 6 6.45 10.84 6.45 4.81 0 8.96-2.63 10.82-6.4.55-1.13-.24-2.05-1.03-1.37a15 15 0 0 1-9.8 3.43c-3.76 0-7.15-1.24-9.58-3.23-.9-.73-1.82.01-1.28 1.12" fill="black" fill-opacity=".6"/></g><g id="eyebrows-unibrowNatural-86be1bbd"><path fill-rule="evenodd" clip-rule="evenodd" d="M88.26 7.6c1.46.56 9.19 6.43 7.86 9.16a.8.8 0 0 1-1.29.22 11 11 0 0 0-1.7-1.2c-5.11-2.83-11.3-1.92-16.74-.9-6.12 1.14-12.1 3.48-18.38 2.67-2.04-.26-6.08-1.22-7.63-2.96-.47-.53-.06-1.38.64-1.43 1.44-.11 2.86-.86 4.33-1.28 3.65-1.03 7.4-1.56 11.11-2.3 6.62-1.3 15.17-4.52 21.8-2" fill="#DADADA"/><path fill-rule="evenodd" clip-rule="evenodd" d="M50.9 12.76c-1.17.04-2.8 3.56-.56 3.68 2.23.11 1.73-3.72.56-3.68m-3.76.04q0-.01 0 0M8.02 7.56c-1.47.56-9.2 6.43-7.87 9.16.24.5.9.6 1.3.22.54-.52 1.57-1.11 1.7-1.18 5.1-2.84 11.3-1.93 16.73-.91 6.12 1.15 12.1 3.49 18.4 2.68 2.03-.26 6.07-1.22 7.6-2.96.48-.53.08-1.38-.62-1.43-1.44-.11-2.86-.86-4.33-1.28-3.65-1.03-7.4-1.56-11.12-2.3-6.62-1.3-15.17-4.52-21.8-2" fill="#DADADA"/><path fill-rule="evenodd" clip-rule="evenodd" d="M47.1 11.79c1.18.04 2.77 4.5.54 4.67-2.24.18-1.7-4.71-.53-4.67" fill="#DADADA"/></g><g id="top-winterHat03-86be1bbd"><circle cx="132" cy="20" r="20" fill="#F4F4F4"/><path fill-rule="evenodd" clip-rule="evenodd" d="M66 78a66 66 0 1 1 132 0v5H66z" fill="#040d86"/><path fill-rule="evenodd" clip-rule="evenodd" d="M63 69.77a7 7 0 0 1 3.05-5.96c7.8-5.17 30.42-17.8 66.02-17.8s58.14 12.63 65.9 17.82a7 7 0 0 1 3.03 5.95v30.2c0 3.3-3.9 5.38-6.78 3.75C183.84 97.82 162.1 88 132.8 88a133.6 133.6 0 0 0-63.17 15.98c-2.85 1.56-6.63-.5-6.63-3.75z" fill="black" fill-opacity=".1"/><path fill-rule="evenodd" clip-rule="evenodd" d="M63 67.77a7 7 0 0 1 3.05-5.96c7.8-5.17 30.42-17.8 66.02-17.8s58.14 12.63 65.9 17.82a7 7 0 0 1 3.03 5.95v30.2c0 3.3-3.9 5.38-6.78 3.75C183.84 95.82 162.1 86 132.8 86a133.6 133.6 0 0 0-63.17 15.98c-2.85 1.56-6.63-.5-6.63-3.75z" fill="#F4F4F4"/></g><clipPath id="clip-86be1bbd"><rect width="280" height="280" rx="103.6" ry="103.6"/></clipPath></defs><g clip-path="url(#clip-86be1bbd)"><g transform="translate(50.4, 0)"><path d="M140 36a56 56 0 0 0-56 56v6.17A12 12 0 0 0 74 110v14a12 12 0 0 0 10.3 11.88A56 56 0 0 0 116 180.6V199h-4a72 72 0 0 0-72 72v9h200v-9a72 72 0 0 0-72-72h-4v-18.38a56 56 0 0 0 31.7-44.73A12 12 0 0 0 206 124v-14a12 12 0 0 0-10-11.83V92a56 56 0 0 0-56-56" fill="url(#skin-color-86be1bbd)"/><path d="M116 180.61v8a56 56 0 0 0 24 5.39 56 56 0 0 0 24-5.39v-8a56 56 0 0 1-24 5.39 56 56 0 0 1-24-5.39" fill="black" fill-opacity=".1"/><use transform="translate(40 184.7)" href="#clothes-graphicShirt-86be1bbd"/><use transform="translate(94 140)" href="#mouth-twinkle-86be1bbd"/><use transform="translate(128 130)" href="#nose-default-86be1bbd"/><use transform="translate(98 98)" href="#eyes-closed-86be1bbd"/><use transform="translate(91.86 82)" href="#eyebrows-unibrowNatural-86be1bbd"/><use transform="translate(8)" href="#top-winterHat03-86be1bbd"/></g></g></svg>