<svg xmlns="http://www.w3.org/2000/svg" viewBox="0 0 280 280" fill="none" shape-rendering="auto" aria-hidden="true"><!-- Generated by DiceBear (https://dicebear.com) --><metadata xmlns:rdf="http://www.w3.org/1999/02/22-rdf-syntax-ns#" xmlns:xsi="http://www.w3.org/2001/XMLSchema-instance" xmlns:dc="http://purl.org/dc/elements/1.1/" xmlns:dcterms="http://purl.org/dc/terms/"><rdf:RDF><rdf:Description><dc:title>Avataaars</dc:title><dc:creator>Pablo Stanley</dc:creator><dc:source xsi:type="dcterms:URI">https://avataaars.com/</dc:source><dcterms:license xsi:type="dcterms:URI">https://avataaars.com/</dcterms:license><dc:rights>Remix of “Avataaars” (https://avataaars.com/) by “Pablo Stanley”, licensed under “Free for personal and commercial use” (https://avataaars.com/)</dc:rights></rdf:Description></rdf:RDF></metadata><defs><linearGradient id="skin-color-5f69d2af" gradientTransform="rotate(-128, 0.5, 0.5)"><stop offset="0%" stop-color="#3cf487"/><stop offset="100%" stop-color="#d08b5b"/></linearGradient><g id="clothes-shirtVNeck-5f69d2af"><path d="M60.68 15.24A72 72 0 0 0 0 86.36v8.95h200v-8.95a72 72 0 0 0-60.68-71.12 24 24 0 0 1-7.56 13.6l-29.08 26.23a4 4 0 0 1-5.36 0L68.24 28.84a24 24 0 0 1-7.56-13.6" fill="#3b3360"/></g><g id="mouth-screamOpen-5f69d2af"><path fill-rule="evenodd" clip-rule="evenodd" d="M26 32.86C27.14 18.88 30.24 7 46 7s18.92 11.94 20 26c.08 1.12-.83 2-1.96 2-6.69 0-9.37-2-18.05-2-8.7 0-13.26 2-17.9 2-1.17 0-2.2-.74-2.1-2.14" fill="black" fill-opacity=".7"/><path d="M59.02 11.57Q58.1 12 57 12H36c-.98 0-1.9-.28-2.67-.77C36.23 8.57 40.28 7 46 7c5.95 0 10.1 1.7 13.02 4.57" fill="white"/><path d="M61.8 34.92a44 44 0 0 1-5.54-.82c-2.73-.53-5.65-1.1-10.27-1.1-5.01 0-8.65.66-11.73 1.23-1.45.26-2.77.5-4.06.65A11 11 0 0 1 46 27.2a11 11 0 0 1 15.8 7.72" fill="#FF4F6D"/></g><g id="nose-default-5f69d2af"><path fill-rule="evenodd" clip-rule="evenodd" d="M0 0c0 4.42 5.37 8 12 8s12-3.58 12-8" fill="black" fill-opacity=".16"/></g><g id="eyes-surprised-5f69d2af"><path d="M30 14a14 14 0 1 1-28 0 14 14 0 0 1 28 0m52 0a14 14 0 1 1-28 0 14 14 0 0 1 28 0" fill="white"/><path d="M22 14a6 6 0 1 1-12 0 6 6 0 0 1 12 0m52 0a6 6 0 1 1-12 0 6 6 0 0 1 12 0" fill="black" fill-opacity=".7"/></g><g id="eyebrows-unibrowNatural-5f69d2af"><path fill-rule="evenodd" clip-rule="evenodd" d="M88.26 7.6c1.46.56 9.19 6.43 7.86 9.16a.8.8 0 0 1-1.29.22 11 11 0 0 0-1.7-1.2c-5.11-2.83-11.3-1.92-16.74-.9-6.12 1.14-12.1 3.48-18.38 2.67-2.04-.26-6.08-1.22-7.63-2.96-.47-.53-.06-1.38.64-1.43 1.44-.11 2.86-.86 4.33-1.28 3.65-1.03 7.4-1.56 11.11-2.3 6.62-1.3 15.17-4.52 21.8-2" fill="#DADADA"/><path fill-rule="evenodd" clip-rule="evenodd" d="M50.9 12.76c-1.17.04-2.8 3.56-.56 3.68 2.23.11 1.73-3.72.56-3.68m-3.76.04q0-.01 0 0M8.02 7.56c-1.47.56-9.2 6.43-7.87 9.16.24.5.9.6 1.3.22.54-.52 1.57-1.11 1.7-1.18 5.1-2.84 11.3-1.93 16.73-.91 6.12 1.15 12.1 3.49 18.4 2.68 2.03-.26 6.07-1.22 7.6-2.96.48-.53.08-1.38-.62-1.43-1.44-.11-2.86-.86-4.33-1.28-3.65-1.03-7.4-1.56-11.12-2.3-6.62-1.3-15.17-4.52-21.8-2" fill="#DADADA"/><path fill-rule="evenodd" clip-rule="evenodd" d="M47.1 11.79c1.18.04 2.77 4.5.54 4.67-2.24.18-1.7-4.71-.53-4.67" fill="#DADADA"/></g><g id="top-frizzle-5f69d2af"><path fill-rule="evenodd" clip-rule="evenodd" d="M89.91 55.36h84.18c18.24-10.53 21.67-29.2 8.76-45.43-3.21-4.04-8.76 11.75-25.82 12.72s-15.42-6.3-33.57-3.58c-18.15 2.73-16.15 17.3-28 20.8-11.84 3.5-5.55 15.5-5.55 15.5" fill="#191762"/></g><g id="accessories-kurt-5f69d2af"><path d="M65.23 54.11c-11.03 0-12.63-9.08-35.33-10.37C7.22 42.72.05 49.44 0 54.11c.05 4.3-1.12 15.45 13.6 28.52 14.77 15.51 29.9 10.25 35.33 5.18 5.44-2.34 11.64-23.35 16.3-23.33s10.87 21 16.3 23.33c5.43 5.07 20.57 10.33 35.34-5.18 14.72-13.07 13.55-24.23 13.59-28.52-.04-4.66-7.21-11.4-29.9-10.37-22.7 1.29-24.29 10.37-35.33 10.37" fill="black" fill-opacity=".1"/><path d="M65.23 52.11c-11.03 0-12.63-9.08-35.33-10.37C7.22 40.72.05 47.44 0 52.11c.05 4.3-1.12 15.45 13.6 28.52 14.77 15.51 29.9 10.25 35.33 5.18 5.44-2.34 11.64-23.35 16.3-23.33s10.87 21 16.3 23.33c5.43 5.07 20.57 10.33 35.34-5.18 14.72-13.07 13.55-24.23 13.59-28.52-.04-4.66-7.21-11.4-29.9-10.37-22.7 1.29-24.29 10.37-35.33 10.37" fill="#5199e4"/><path d="M27.19 46.93c14.26-.29 27.55 7.9 27.17 15.55-.22 5.05-2.93 22.83-19.02 23.33-16.1.5-24.8-17.79-24.46-25.92.2-3.51 2.05-12.67 16.3-12.96m76.1 0c-14.26-.29-27.56 7.9-27.18 15.55.22 5.05 2.94 22.83 19.03 23.33s24.8-17.79 24.46-25.92c-.2-3.51-2.06-12.67-16.31-12.96" fill="#2F383B"/></g><clipPath id="clip-5f69d2af"><rect width="280" height="280" rx="103.6" ry="103.6"/></clipPath></defs><g clip-path="url(#clip-5f69d2af)"><g transform="translate(50.4, 0)"><path d="M140 36a56 56 0 0 0-56 56v6.17A12 12 0 0 0 74 110v14a12 12 0 0 0 10.3 11.88A56 56 0 0 0 116 180.6V199h-4a72 72 0 0 0-72 72v9h200v-9a72 72 0 0 0-72-72h-4v-18.38a56 56 0 0 0 31.7-44.73A12 12 0 0 0 206 124v-14a12 12 0 0 0-10-11.83V92a56 56 0 0 0-56-56" fill="url(#skin-color-5f69d2af)"/><path d="M116 180.61v8a56 56 0 0 0 24 5.39 56 56 0 0 0 24-5.39v-8a56 56 0 0 1-24 5.39 56 56 0 0 1-24-5.39" fill="black" fill-opacity=".1"/><use transform="translate(40 184.7)" href="#clothes-shirtVNeck-5f69d2af"/><use transform="translate(94 140)" href="#mouth-screamOpen-5f69d2af"/><use transform="translate(128 130)" href="#nose-default-5f69d2af"/><use transform="translate(98 98)" href="#eyes-surprised-5f69d2af"/><use transform="translate(91.86 82)" href="#eyebrows-unibrowNatural-5f69d2af"/><use transform="translate(8)" href="#top-frizzle-5f69d2af"/><use transform="translate(75.77 46)" href="#accessories-kurt-5f69d2af"/></g></g></svg>