<svg xmlns="http://www.w3.org/2000/svg" viewBox="0 0 280 280" fill="none" shape-rendering="auto" aria-hidden="true"><!-- Generated by DiceBear (https://dicebear.com) --><metadata xmlns:rdf="http://www.w3.org/1999/02/22-rdf-syntax-ns#" xmlns:xsi="http://www.w3.org/2001/XMLSchema-instance" xmlns:dc="http://purl.org/dc/elements/1.1/" xmlns:dcterms="http://purl.org/dc/terms/"><rdf:RDF><rdf:Description><dc:title>Avataaars</dc:title><dc:creator>Pablo Stanley</dc:creator><dc:source xsi:type="dcterms:URI">https://avataaars.com/</dc:source><dcterms:license xsi:type="dcterms:URI">https://avataaars.com/</dcterms:license><dc:rights>Remix of “Avataaars” (https://avataaars.com/) by “Pablo Stanley”, licensed under “Free for personal and commercial use” (https://avataaars.com/)</dc:rights></rdf:Description></rdf:RDF></metadata><defs><linearGradient id="skin-color-18aedbf8" gradientTransform="rotate(-128, 0.5, 0.5)"><stop offset="0%" stop-color="#ae5d29"/><stop offset="100%" stop-color="#614335"/></linearGradient><g id="clothesGraphic-bear-18aedbf8"><path fill-rule="evenodd" clip-rule="evenodd" d="M76.74 16.44a17 17 0 0 1 2.15 7.86v.22c-.1 10.22-13.6 16.85-22.48 17.35q-.95.05-1.89.05h-.01c-10.08 0-19.56-4.55-22.54-14.85a14 14 0 0 1-.52-3.81c0-3.36 1.12-6.83 3.15-9.4q.38-.45.83-.88c.37-.36.74-.72 1-1.1.47-.71.64-.7.67-.75.02-.04-.09-.15-.18-.98-.06-.5-.22-.93-.38-1.37a5 5 0 0 1-.41-1.88c.05-2.4 1.76-5.08 4.05-5.95a6 6 0 0 1 3.96.08c.6.2 1.18.67 1.75 1.13s1.13.9 1.64 1.04c.97.24 2.83-.14 4.47-.47.96-.2 1.84-.38 2.44-.4a34 34 0 0 1 4.2-.04c.27.01.72.11 1.2.23.84.2 1.8.4 2.23.27.45-.13.92-.5 1.4-.9s.98-.85 1.5-1a9 9 0 0 1 3.2-.48c2.34.13 5 1.18 6 3.42.8 1.8.24 3.3-.34 4.87q-.31.8-.55 1.62c-.2.7-.31.85-.3.96.03.12.2.21.55.83.07.13.34.44.6.74l.42.48c.8.97 1.57 2 2.19 3.08M58.3 35.97c3.07 2.96 6.67-1.57 7.15-4.38.84-10.07-15.07-8.75-19.23-3-2.1 2.9-.61 6.8 2.58 8.2 1.4.62 2.58.92 3.58-.04.8-.76 1.03-3.52.5-4.27-.3-.39-.67-.5-1.05-.6-.55-.16-1.1-.32-1.35-1.29-.57-2.17 1.8-2.5 3.3-2.62l.97-.1c1.69-.2 4.05-.48 5.03.5 1.3 1.33.26 2.35-.83 3.42-1.21 1.18-2.47 2.42-.65 4.18M48.72 15.5c-.59-.97-1.75-1.21-2.73-.77-1.82.83-.96 3.52.75 3.75 1.62.2 2.78-1.6 1.98-2.96m15.23.88c-.86 3-5.64-.38-2.94-2.3 1.55-1.1 3.45.5 2.94 2.3" fill="white"/></g><g id="clothes-graphicShirt-18aedbf8"><path d="M100.5 39.3c18.5 0 33.5-9.62 33.5-21.5q0-1.64-.38-3.23A72 72 0 0 1 200 86.36v8.95H0v-8.95A72 72 0 0 1 67.4 14.5a14 14 0 0 0-.4 3.3c0 11.88 15 21.5 33.5 21.5" fill="#8cfe7d"/><use transform="translate(45 44.3)" href="#clothesGraphic-bear-18aedbf8"/></g><g id="mouth-serious-18aedbf8"><rect x="34" y="12" width="24" height="6" rx="3" fill="black" fill-opacity=".7"/></g><g id="nose-default-18aedbf8"><path fill-rule="evenodd" clip-rule="evenodd" d="M0 0c0 4.42 5.37 8 12 8s12-3.58 12-8" fill="black" fill-opacity=".16"/></g><g id="eyes-cry-18aedbf8"><path d="M11 19s-6 7.27-6 11.27a6 6 0 1 0 12 0c0-4-6-11.27-6-11.27" fill="#92D9FF"/><path d="M22 14a6 6 0 1 1-12 0 6 6 0 0 1 12 0m52 0a6 6 0 1 1-12 0 6 6 0 0 1 12 0" fill="black" fill-opacity=".6"/></g><g id="eyebrows-sadConcernedNatural-18aedbf8"><path fill-rule="evenodd" clip-rule="evenodd" d="m23.37 20.42-.91.4c-5.24 2.09-13.2 1.21-18.06-1.12-.56-.27-.18-1.15.4-1.1 14.92 1.14 24.97-8.15 28.38-14.45.1-.18.4-.2.48-.03 2.31 5.32-4.45 13.98-10.3 16.3m49.54 0 .9.4c5.26 2.09 13.2 1.2 18.06-1.12.57-.27.18-1.15-.4-1.1-14.92 1.14-24.96-8.15-28.38-14.45-.1-.18-.4-.2-.48-.03-2.3 5.32 4.45 13.98 10.3 16.3" fill="black" fill-opacity=".6"/></g><g id="top-longButNotTooLong-18aedbf8"><path d="M49 90.5c0 4.55 1.7 8.64 4.85 10.77.9.61 2.47.93 4.15 1.07V182a8 8 0 0 0 8 8h42v-9.39a56 56 0 0 1-31.8-45.74A12 12 0 0 1 66 123v-13a12 12 0 0 1 3.87-8.83c11.54-2.61 24.1-7.53 36.47-14.67 12.13-7 22.5-15.24 30.48-23.75a87 87 0 0 1-12.45 20.78q19-8.28 25.9-26.63.56 1.38 1.17 2.76c10.26 23.03 27.88 39.36 45.77 44.74.5 2.11.79 4.08.79 5.6v13a12 12 0 0 1-10.2 11.87A56 56 0 0 1 156 180.6v9.4h18a32 32 0 0 0 32-32v-54.12q0-.1-.03-.28c-.07-5.64-.28-18.87-.6-21.37A74 74 0 0 0 131.99 18c-36.08 0-66.14 25.83-73 60-5.54 0-10 5.6-10 12.5" fill="#ecdcbf"/><path d="M151.44 59.66c11.94 26.81 33.86 44.53 54.56 46.5V92A74 74 0 0 0 59.32 78H59c-5.52 0-10 5.6-10 12.5 0 6.48 3.95 11.81 9 12.44v.15l.95-.1H59a8 8 0 0 0 1.9-.24c13.8-1.77 29.78-7.23 45.44-16.27 12.13-7 22.5-15.25 30.48-23.76a87 87 0 0 1-12.45 20.78q19-8.28 25.9-26.63.56 1.38 1.17 2.76" fill="white" fill-opacity=".08"/></g><clipPath id="clip-18aedbf8"><rect width="280" height="280" rx="103.6" ry="103.6"/></clipPath></defs><g clip-path="url(#clip-18aedbf8)"><g transform="translate(50.4, 0)"><path d="M140 36a56 56 0 0 0-56 56v6.17A12 12 0 0 0 74 110v14a12 12 0 0 0 10.3 11.88A56 56 0 0 0 116 180.6V199h-4a72 72 0 0 0-72 72v9h200v-9a72 72 0 0 0-72-72h-4v-18.38a56 56 0 0 0 31.7-44.73A12 12 0 0 0 206 124v-14a12 12 0 0 0-10-11.83V92a56 56 0 0 0-56-56" fill="url(#skin-color-18aedbf8)"/><path d="M116 180.61v8a56 56 0 0 0 24 5.39 56 56 0 0 0 24-5.39v-8a56 56 0 0 1-24 5.39 56 56 0 0 1-24-5.39" fill="black" fill-opacity=".1"/><use transform="translate(40 184.7)" href="#clothes-graphicShirt-18aedbf8"/><use transform="translate(94 140)" href="#mouth-serious-18aedbf8"/><use transform="translate(128 130)" href="#nose-default-18aedbf8"/><use transform="translate(98 98)" href="#eyes-cry-18aedbf8"/><use transform="translate(91.86 82)" href="#eyebrows-sadConcernedNatural-18aedbf8"/><use transform="translate(8)" href="#top-longButNotTooLong-18aedbf8"/></g></g></svg>