<svg xmlns="http://www.w3.org/2000/svg" viewBox="0 0 280 280" fill="none" shape-rendering="auto" aria-hidden="true"><!-- Generated by DiceBear (https://dicebear.com) --><metadata xmlns:rdf="http://www.w3.org/1999/02/22-rdf-syntax-ns#" xmlns:xsi="http://www.w3.org/2001/XMLSchema-instance" xmlns:dc="http://purl.org/dc/elements/1.1/" xmlns:dcterms="http://purl.org/dc/terms/"><rdf:RDF><rdf:Description><dc:title>Avataaars</dc:title><dc:creator>Pablo Stanley</dc:creator><dc:source xsi:type="dcterms:URI">https://avataaars.com/</dc:source><dcterms:license xsi:type="dcterms:URI">https://avataaars.com/</dcterms:license><dc:rights>Remix of “Avataaars” (https://avataaars.com/) by “Pablo Stanley”, licensed under “Free for personal and commercial use” (https://avataaars.com/)</dc:rights></rdf:Description></rdf:RDF></metadata><defs><linearGradient id="skin-color-2a78f19b" gradientTransform="rotate(-128, 0.5, 0.5)"><stop offset="0%" stop-color="#edb98a"/><stop offset="100%" stop-color="#ae5d29"/></linearGradient><g id="clothes-blazerAndSweater-2a78f19b"><path d="M100 42.36c14.91 0 27-11.2 27-25q0-1.53-.2-3h1.2a72 72 0 0 1 72 72v8.95H0v-8.95a72 72 0 0 1 72-72h1.2q-.2 1.47-.2 3c0 13.8 12.09 25 27 25" fill="#E6E6E6"/><path d="M68.78 14.43 69 13.3c-2.96.06-6 1-6 1l-.42.67A72 72 0 0 0 0 86.36v8.95h74s-10.7-51.56-5.24-80.8zM126 95.3s11-53 5-82c2.96.06 6 1 6 1l.42.67A72 72 0 0 1 200 86.36v8.95z" fill="#12101e"/><path fill-rule="evenodd" clip-rule="evenodd" d="M69 13.3c-6 29 5 82 5 82H58l-14-36 6-9-6-6 19-30s3.04-.94 6-1m62 0c6 29-5 82-5 82h16l14-36-6-9 6-6-19-30s-3.04-.94-6-1" fill="black" fill-opacity=".15"/><path d="M76 6.84c-6.77 4.6-11 11.12-11 18.35 0 7.4 4.43 14.06 11.48 18.67l5.94-4.68 4.58.33-1-3.15.08-.06C79.98 33.16 76 28 76 22.18zm48 15.34c0 5.83-3.98 10.98-10.08 14.12l.08.06-1 3.15 4.58-.33 5.94 4.68C130.57 39.26 135 32.6 135 25.2c0-7.23-4.23-13.75-11-18.35z" fill="#F2F2F2"/><path d="m151.42 71.07.87-2.24 6.27-4.7a4 4 0 0 1 4.85.05l6.6 5.13z" fill="#E6E6E6"/></g><g id="mouth-tongue-2a78f19b"><path fill-rule="evenodd" clip-rule="evenodd" d="M21 9.6C22.41 19.24 33.06 27 46 27c12.97 0 23.65-7.82 25-18.26.1-.4-.22-1.74-2.17-1.74H23.17c-1.79 0-2.3 1.24-2.17 2.6" fill="black" fill-opacity=".7"/><path d="M62 7H31a5 5 0 0 0 5 5h21a5 5 0 0 0 5-5" fill="white"/><path d="M35 17.5v9a11.5 11.5 0 1 0 23 0v-9c0-1.93-2.91-3.5-6.5-3.5-2.01 0-3.8.5-5 1.26a9.5 9.5 0 0 0-5-1.26c-3.59 0-6.5 1.57-6.5 3.5" fill="#FF4F6D"/></g><g id="nose-default-2a78f19b"><path fill-rule="evenodd" clip-rule="evenodd" d="M0 0c0 4.42 5.37 8 12 8s12-3.58 12-8" fill="black" fill-opacity=".16"/></g><g id="eyes-default-2a78f19b"><path d="M22 14a6 6 0 1 1-12 0 6 6 0 0 1 12 0m52 0a6 6 0 1 1-12 0 6 6 0 0 1 12 0" fill="black" fill-opacity=".6"/></g><g id="eyebrows-defaultNatural-2a78f19b"><path fill-rule="evenodd" clip-rule="evenodd" d="M18.68 6.15c-5.8.27-15.2 4.49-14.95 10.34 0 .15.3.24.43.1 2.75-2.97 22.31-5.96 29.2-4.37.63.14 1.11-.48.71-.93-3.42-3.82-10.17-5.4-15.39-5.15m59.91 0c5.8.27 15.2 4.49 14.95 10.34 0 .15-.29.24-.42.1-2.76-2.97-22.32-5.96-29.2-4.37-.64.14-1.12-.48-.72-.93 3.42-3.84 10.2-5.42 15.4-5.17" fill="black" fill-opacity=".6"/></g><g id="top-fro-2a78f19b"><path d="M93.7 69.39c-4.62 24.47-16 42.72-25.74 41a8 8 0 0 1-1.96-.63V89a66 66 0 0 1 28.4-54.24q.72 3.6 1.05 7.77a263 263 0 0 1 36.9-2.44c13.27 0 25.67.85 36.22 2.34q.33-4.1 1.05-7.67A65.9 65.9 0 0 1 198 89v20.76q-.94.46-1.95.63c-9.72 1.72-21.09-16.48-25.73-40.9a261 261 0 0 1-37.97 2.57c-14.3 0-27.6-1-38.65-2.7" fill="black" fill-opacity=".16"/><path d="M132 0c-11.21 0-21.9 2.2-31.69 6.18Q98.93 6 97.5 6c-6.7 0-12.77 3.07-17.2 8.06-18.04.93-33.46 13.3-40.77 30.9C31.5 49.56 26 59.04 26 70q0 .87.05 1.73A62 62 0 0 0 16 106c0 7.33 1.21 14.34 3.43 20.78Q19 129.32 19 132c0 9.45 4.1 17.81 10.38 22.88C36.74 172.68 52.6 185 71 185q2.25 0 4.44-.24C80.9 189.9 87.88 193 95.5 193c4.44 0 8.67-1.05 12.5-2.95v-9.44a56 56 0 0 1-31.8-45.74A12 12 0 0 1 66 123v-13c0-1.72.36-3.36 1.02-4.84q.46.15.94.23c9.73 1.72 21.12-16.53 25.74-41a260 260 0 0 0 38.65 2.7c14.02 0 27.06-.96 37.97-2.6 4.64 24.4 16.01 42.6 25.73 40.9q.48-.1.94-.25a12 12 0 0 1 1 4.83v13a12 12 0 0 1-10.2 11.87 56 56 0 0 1-31.81 45.74v9.44a28 28 0 0 0 12.5 2.95c7.62 0 14.6-3.1 20.06-8.24q2.19.24 4.44.24c18.39 0 34.26-12.32 41.62-30.12C240.9 149.8 245 141.45 245 132q0-2.68-.43-5.22A64 64 0 0 0 248 106a62 62 0 0 0-10.05-34.27q.06-.87.05-1.73c0-10.96-5.5-20.44-13.53-25.04-7.31-17.6-22.73-29.97-40.77-30.9C179.27 9.07 173.2 6 166.5 6q-1.43 0-2.81.18A84 84 0 0 0 132 0" fill="#8cb1bf"/></g><g id="accessories-prescription02-2a78f19b"><path fill-rule="evenodd" clip-rule="evenodd" d="M32.73 48C11.44 48 3.88 53.1 3.2 53.77a2.9 2.9 0 0 0-2.96 2.89v2.88c0 1.6 1.33 2.9 2.96 2.9 0 0 5.9 0 5.9 2.87q0 .65.19.68a63 63 0 0 0-.05 2.5c0 12.82 8.32 20.5 22.25 20.5h2.73c14.72 0 25-8.45 25-20.5q0-2.28-.17-4.48l1.59-.77q.86-.43 1.89-.64c1.85-.38 3.95-.22 5.99.28.73.18 1.26.35 1.5.45l1.38.55q-.2 2.26-.18 4.6c0 12.84 8.32 20.5 22.25 20.5h2.75c14.72 0 25-8.43 25-20.5q0-2.32-.17-4.56c1.73-1.5 6.22-1.5 6.22-1.5a2.9 2.9 0 0 0 2.95-2.9v-2.88c0-1.6-1.32-2.89-2.95-2.89-.7-.67-8.26-5.77-29.55-5.77h-2.97q-2.68 0-4.97.2c-9.54.53-14.68 2.14-19.92 4.7a17 17 0 0 1-4.56.86 17 17 0 0 1-4.8-.9l-.43-.2v-.02c-4.94-2.42-8.43-4.13-20.78-4.55a61 61 0 0 0-3.6-.1zm-19.5 21.5c0-8.66 0-15.5 19.39-15.5h3.23c19.38 0 19.38 6.84 19.38 15.5 0 9.13-8.63 15.5-21 15.5H31.2c-14.85 0-17.97-8.43-17.97-15.5m62 0c0-8.66 0-15.5 19.39-15.5h3.23c19.38 0 19.38 6.84 19.38 15.5 0 9.13-8.63 15.5-21 15.5H93.2c-14.85 0-17.97-8.43-17.97-15.5" fill="black" fill-opacity=".1"/><path fill-rule="evenodd" clip-rule="evenodd" d="M32.73 46C11.44 46 3.88 51.1 3.2 51.77a2.9 2.9 0 0 0-2.96 2.89v2.88c0 1.6 1.33 2.9 2.96 2.9 0 0 5.9 0 5.9 2.87q0 .67.19.71a63 63 0 0 0-.05 2.51c0 12.83 8.32 20.5 22.25 20.5h2.73c14.72 0 25-8.44 25-20.5q0-2.27-.17-4.47l1.59-.77q.86-.43 1.89-.64c1.85-.38 3.95-.22 5.99.28.73.18 1.26.35 1.5.45l1.38.55q-.2 2.26-.18 4.6c0 12.85 8.32 20.51 22.25 20.51h2.75c14.72 0 25-8.43 25-20.5q0-2.32-.17-4.56c1.73-1.51 6.22-1.51 6.22-1.51a2.9 2.9 0 0 0 2.95-2.89v-2.88c0-1.6-1.32-2.89-2.95-2.89-.7-.67-8.26-5.77-29.55-5.77h-2.97q-2.68 0-4.97.2c-9.54.54-14.68 2.15-19.92 4.7a17 17 0 0 1-4.56.87 17 17 0 0 1-4.8-.9l-.43-.2c-4.94-2.44-8.43-4.15-20.78-4.57a61 61 0 0 0-3.6-.1zm-19.5 21.5c0-8.66 0-15.5 19.39-15.5h3.23c19.38 0 19.38 6.84 19.38 15.5 0 9.13-8.63 15.5-21 15.5H31.2c-14.85 0-17.97-8.43-17.97-15.5m62 0c0-8.66 0-15.5 19.39-15.5h3.23c19.38 0 19.38 6.84 19.38 15.5 0 9.13-8.63 15.5-21 15.5H93.2c-14.85 0-17.97-8.43-17.97-15.5" fill="#ffffff"/></g><clipPath id="clip-2a78f19b"><rect width="280" height="280" rx="103.6" ry="103.6"/></clipPath></defs><g clip-path="url(#clip-2a78f19b)"><g transform="translate(50.4, 0)"><path d="M140 36a56 56 0 0 0-56 56v6.17A12 12 0 0 0 74 110v14a12 12 0 0 0 10.3 11.88A56 56 0 0 0 116 180.6V199h-4a72 72 0 0 0-72 72v9h200v-9a72 72 0 0 0-72-72h-4v-18.38a56 56 0 0 0 31.7-44.73A12 12 0 0 0 206 124v-14a12 12 0 0 0-10-11.83V92a56 56 0 0 0-56-56" fill="url(#skin-color-2a78f19b)"/><path d="M116 180.61v8a56 56 0 0 0 24 5.39 56 56 0 0 0 24-5.39v-8a56 56 0 0 1-24 5.39 56 56 0 0 1-24-5.39" fill="black" fill-opacity=".1"/><use transform="translate(40 184.7)" href="#clothes-blazerAndSweater-2a78f19b"/><use transform="translate(94 140)" href="#mouth-tongue-2a78f19b"/><use transform="translate(128 130)" href="#nose-default-2a78f19b"/><use transform="translate(98 98)" href="#eyes-default-2a78f19b"/><use transform="translate(91.86 82)" href="#eyebrows-defaultNatural-2a78f19b"/><use transform="translate(8)" href="#top-fro-2a78f19b"/><use transform="translate(75.77 46)" href="#accessories-prescription02-2a78f19b"/></g></g></svg>