<svg xmlns="http://www.w3.org/2000/svg" viewBox="0 0 280 280" fill="none" shape-rendering="auto" aria-hidden="true"><!-- Generated by DiceBear (https://dicebear.com) --><metadata xmlns:rdf="http://www.w3.org/1999/02/22-rdf-syntax-ns#" xmlns:xsi="http://www.w3.org/2001/XMLSchema-instance" xmlns:dc="http://purl.org/dc/elements/1.1/" xmlns:dcterms="http://purl.org/dc/terms/"><rdf:RDF><rdf:Description><dc:title>Avataaars</dc:title><dc:creator>Pablo Stanley</dc:creator><dc:source xsi:type="dcterms:URI">https://avataaars.com/</dc:source><dcterms:license xsi:type="dcterms:URI">https://avataaars.com/</dcterms:license><dc:rights>Remix of “Avataaars” (https://avataaars.com/) by “Pablo Stanley”, licensed under “Free for personal and commercial use” (https://avataaars.com/)</dc:rights></rdf:Description></rdf:RDF></metadata><defs><linearGradient id="skin-color-6b04d670" gradientTransform="rotate(-128, 0.5, 0.5)"><stop offset="0%" stop-color="#ae5d29"/><stop offset="100%" stop-color="#fd9841"/></linearGradient><g id="clothes-blazerAndShirt-6b04d670"><path d="M100.5 37.13c18.5 0 33.5-9.61 33.5-21.48q0-.52-.04-1.05A72 72 0 0 1 200 86.36v8.95H0v-8.95a72 72 0 0 1 67.05-71.83q-.05.55-.05 1.12c0 11.87 15 21.48 33.5 21.48" fill="#E6E6E6"/><path d="M100.5 44.07c21.89 0 39.63-12.05 39.63-26.92q0-.9-.08-1.79-3-.51-6.1-.76.06.52.05 1.05c0 11.87-15 21.48-33.5 21.48S67 27.52 67 15.65q0-.57.05-1.12-3.08.2-6.08.67-.1.97-.1 1.95c0 14.87 17.74 26.92 39.63 26.92" fill="black" fill-opacity=".16"/><path d="M68.78 14.43 69 13.3c-2.96.06-6 1-6 1l-.42.67A72 72 0 0 0 0 86.36v8.95h74s-10.7-51.56-5.24-80.8zM126 95.3s11-53 5-82c2.96.06 6 1 6 1l.42.67A72 72 0 0 1 200 86.36v8.95z" fill="#6a5737"/><path fill-rule="evenodd" clip-rule="evenodd" d="M69 13.3c-6 29 5 82 5 82H58l-14-36 6-9-6-6 19-30s3.04-.94 6-1m62 0c6 29-5 82-5 82h16l14-36-6-9 6-6-19-30s-3.04-.94-6-1" fill="black" fill-opacity=".15"/><path d="m151.42 71.07.87-2.24 6.27-4.7a4 4 0 0 1 4.85.05l6.6 5.13z" fill="#E6E6E6"/></g><g id="mouth-sad-6b04d670"><path fill-rule="evenodd" clip-rule="evenodd" d="M32.06 21.72C32.7 14.7 38.7 10 46 10c7.34 0 13.36 4.75 13.95 11.85.03.38-.87.67-1.32.45Q50.32 18.14 46 18.14q-4.27 0-12.45 4.07c-.5.25-1.53-.07-1.5-.49" fill="black" fill-opacity=".7"/></g><g id="nose-default-6b04d670"><path fill-rule="evenodd" clip-rule="evenodd" d="M0 0c0 4.42 5.37 8 12 8s12-3.58 12-8" fill="black" fill-opacity=".16"/></g><g id="eyes-happy-6b04d670"><path fill-rule="evenodd" clip-rule="evenodd" d="M2.16 14.45C4.01 10.65 8.16 8 13 8c4.81 0 8.96 2.63 10.82 6.4.55 1.13-.24 2.05-1.03 1.37a15 15 0 0 0-9.8-3.43c-3.73 0-7.12 1.24-9.55 3.23-.9.73-1.82-.01-1.28-1.12m58 0C62.01 10.65 66.16 8 71 8c4.81 0 8.96 2.63 10.82 6.4.55 1.13-.24 2.05-1.03 1.37a15 15 0 0 0-9.8-3.43c-3.76 0-7.15 1.24-9.58 3.23-.9.73-1.82-.01-1.28-1.12" fill="black" fill-opacity=".6"/></g><g id="eyebrows-sadConcerned-6b04d670"><path d="M30.17 5.6c-1.48 8.38-14.1 14.17-23.24 10.42a2.04 2.04 0 0 0-2.63 1c-.44.97.03 2.1 1.05 2.5 11.44 4.7 26.83-2.37 28.76-13.3a1.9 1.9 0 0 0-1.64-2.2 2 2 0 0 0-2.3 1.57m35.93 0c1.5 8.39 14.1 14.18 23.25 10.43 1.01-.41 2.2.03 2.62 1s-.03 2.1-1.04 2.5c-11.45 4.7-26.84-2.37-28.77-13.3a1.9 1.9 0 0 1 1.65-2.2 2 2 0 0 1 2.32 1.57" fill="black" fill-opacity=".6"/></g><g id="top-fro-6b04d670"><path d="M93.7 69.39c-4.62 24.47-16 42.72-25.74 41a8 8 0 0 1-1.96-.63V89a66 66 0 0 1 28.4-54.24q.72 3.6 1.05 7.77a263 263 0 0 1 36.9-2.44c13.27 0 25.67.85 36.22 2.34q.33-4.1 1.05-7.67A65.9 65.9 0 0 1 198 89v20.76q-.94.46-1.95.63c-9.72 1.72-21.09-16.48-25.73-40.9a261 261 0 0 1-37.97 2.57c-14.3 0-27.6-1-38.65-2.7" fill="black" fill-opacity=".16"/><path d="M132 0c-11.21 0-21.9 2.2-31.69 6.18Q98.93 6 97.5 6c-6.7 0-12.77 3.07-17.2 8.06-18.04.93-33.46 13.3-40.77 30.9C31.5 49.56 26 59.04 26 70q0 .87.05 1.73A62 62 0 0 0 16 106c0 7.33 1.21 14.34 3.43 20.78Q19 129.32 19 132c0 9.45 4.1 17.81 10.38 22.88C36.74 172.68 52.6 185 71 185q2.25 0 4.44-.24C80.9 189.9 87.88 193 95.5 193c4.44 0 8.67-1.05 12.5-2.95v-9.44a56 56 0 0 1-31.8-45.74A12 12 0 0 1 66 123v-13c0-1.72.36-3.36 1.02-4.84q.46.15.94.23c9.73 1.72 21.12-16.53 25.74-41a260 260 0 0 0 38.65 2.7c14.02 0 27.06-.96 37.97-2.6 4.64 24.4 16.01 42.6 25.73 40.9q.48-.1.94-.25a12 12 0 0 1 1 4.83v13a12 12 0 0 1-10.2 11.87 56 56 0 0 1-31.81 45.74v9.44a28 28 0 0 0 12.5 2.95c7.62 0 14.6-3.1 20.06-8.24q2.19.24 4.44.24c18.39 0 34.26-12.32 41.62-30.12C240.9 149.8 245 141.45 245 132q0-2.68-.43-5.22A64 64 0 0 0 248 106a62 62 0 0 0-10.05-34.27q.06-.87.05-1.73c0-10.96-5.5-20.44-13.53-25.04-7.31-17.6-22.73-29.97-40.77-30.9C179.27 9.07 173.2 6 166.5 6q-1.43 0-2.81.18A84 84 0 0 0 132 0" fill="#620961"/></g><clipPath id="clip-6b04d670"><rect width="280" height="280" rx="103.6" ry="103.6"/></clipPath></defs><g clip-path="url(#clip-6b04d670)"><g transform="translate(50.4, 0)"><path d="M140 36a56 56 0 0 0-56 56v6.17A12 12 0 0 0 74 110v14a12 12 0 0 0 10.3 11.88A56 56 0 0 0 116 180.6V199h-4a72 72 0 0 0-72 72v9h200v-9a72 72 0 0 0-72-72h-4v-18.38a56 56 0 0 0 31.7-44.73A12 12 0 0 0 206 124v-14a12 12 0 0 0-10-11.83V92a56 56 0 0 0-56-56" fill="url(#skin-color-6b04d670)"/><path d="M116 180.61v8a56 56 0 0 0 24 5.39 56 56 0 0 0 24-5.39v-8a56 56 0 0 1-24 5.39 56 56 0 0 1-24-5.39" fill="black" fill-opacity=".1"/><use transform="translate(40 184.7)" href="#clothes-blazerAndShirt-6b04d670"/><use transform="translate(94 140)" href="#mouth-sad-6b04d670"/><use transform="translate(128 130)" href="#nose-default-6b04d670"/><use transform="translate(98 98)" href="#eyes-happy-6b04d670"/><use transform="translate(91.86 82)" href="#eyebrows-sadConcerned-6b04d670"/><use transform="translate(8)" href="#top-fro-6b04d670"/></g></g></svg>