<svg xmlns="http://www.w3.org/2000/svg" viewBox="0 0 280 280" fill="none" shape-rendering="auto" aria-hidden="true"><!-- Generated by DiceBear (https://dicebear.com) --><metadata xmlns:rdf="http://www.w3.org/1999/02/22-rdf-syntax-ns#" xmlns:xsi="http://www.w3.org/2001/XMLSchema-instance" xmlns:dc="http://purl.org/dc/elements/1.1/" xmlns:dcterms="http://purl.org/dc/terms/"><rdf:RDF><rdf:Description><dc:title>Avataaars</dc:title><dc:creator>Pablo Stanley</dc:creator><dc:source xsi:type="dcterms:URI">https://avataaars.com/</dc:source><dcterms:license xsi:type="dcterms:URI">https://avataaars.com/</dcterms:license><dc:rights>Remix of “Avataaars” (https://avataaars.com/) by “Pablo Stanley”, licensed under “Free for personal and commercial use” (https://avataaars.com/)</dc:rights></rdf:Description></rdf:RDF></metadata><defs><linearGradient id="skin-color-2a81af6a" gradientTransform="rotate(-128, 0.5, 0.5)"><stop offset="0%" stop-color="#005dbc"/><stop offset="100%" stop-color="#ae5d29"/></linearGradient><g id="clothes-shirtScoopNeck-2a81af6a"><path d="M100.5 51.13c27.34 0 49.5-13.2 49.5-29.48q0-2.04-.46-4A72 72 0 0 1 200 86.35v8.95H0v-8.95A72 72 0 0 1 51.53 17.3a18 18 0 0 0-.53 4.34c0 16.28 22.16 29.48 49.5 29.48" fill="#3b3360"/></g><g id="mouth-concerned-2a81af6a"><path fill-rule="evenodd" clip-rule="evenodd" d="M27.12 23.87a19 19 0 0 1 37.77.09c.08.77-.77 2.04-1.85 2.04H29.1c-1.1 0-2.1-1.18-1.98-2.13" fill="black" fill-opacity=".7"/><path d="M61.59 26H30.4A11 11 0 0 1 46 19.2 11 11 0 0 1 61.6 26" fill="#FF4F6D"/><path d="M58.57 11.75A5 5 0 0 1 57 12H36q-1.22-.02-2.24-.53A19 19 0 0 1 46 7c4.82 0 9.22 1.8 12.57 4.75" fill="white"/></g><g id="nose-default-2a81af6a"><path fill-rule="evenodd" clip-rule="evenodd" d="M0 0c0 4.42 5.37 8 12 8s12-3.58 12-8" fill="black" fill-opacity=".16"/></g><g id="eyes-winkWacky-2a81af6a"><circle cx="68" cy="14" r="12" fill="white"/><circle cx="68" cy="14" r="6" fill="black" fill-opacity=".7"/><path fill-rule="evenodd" clip-rule="evenodd" d="M2.16 17.45C4.01 13.65 8.16 11 13 11c4.81 0 8.96 2.63 10.82 6.4.55 1.13-.24 2.05-1.03 1.37a15 15 0 0 0-9.8-3.43c-3.73 0-7.12 1.24-9.55 3.23-.9.73-1.82-.01-1.28-1.12" fill="black" fill-opacity=".6"/></g><g id="eyebrows-defaultNatural-2a81af6a"><path fill-rule="evenodd" clip-rule="evenodd" d="M18.68 6.15c-5.8.27-15.2 4.49-14.95 10.34 0 .15.3.24.43.1 2.75-2.97 22.31-5.96 29.2-4.37.63.14 1.11-.48.71-.93-3.42-3.82-10.17-5.4-15.39-5.15m59.91 0c5.8.27 15.2 4.49 14.95 10.34 0 .15-.29.24-.42.1-2.76-2.97-22.32-5.96-29.2-4.37-.64.14-1.12-.48-.72-.93 3.42-3.84 10.2-5.42 15.4-5.17" fill="black" fill-opacity=".6"/></g><g id="top-shaggy-2a81af6a"><path fill-rule="evenodd" clip-rule="evenodd" d="M87.18 37.86c5.14-3.84 11.22-7.12 17.56-8.38 6.45-1.28 10.36-1.6 16.7-.07 1.64.39 2.2.78 3.63-.15 1.2-.8 9.66-9.5 35.42-4.66 26.03 4.88 33.77 44.08 43.42 45.57 3.5.53 7.8-.39 7.92-2.53 3.96 6.03 5 14 3.33 21.07-1.45 6.1-4.5 11.8-10 15.14-4.72 2.87-11.25 4.12-16.7 3.6a22 22 0 0 1-7.04-1.78c-2.76-1.2-4.96-3.4-7.67-4.54a54 54 0 0 0 9.18 6.42c1.64.9 3.3 1.53 5.11 2.02 1.24.34 3.76 1.48 4.96 1.18-7.8 1.4-15.16.18-22.32-3.16a52 52 0 0 1-9.2-5.48c-2.83-2.13-6.09-4.3-8.3-7.1.93 1.2-.7-.6-.92-.8q-.9-.94-1.78-1.9-1.52-1.63-2.93-3.38-3.02-3.72-5.5-7.8c-1.69-2.76-8.37-13.87-10.39-16.5a195 195 0 0 0 6.41 16.93c-4.7-1.47-9.28-5.54-12.3-9.34a29.5 29.5 0 0 1-6.1-14.66c-3.83 10.41-12.79 18.63-22.03 24.3 2-3.74 5.05-6.9 7.05-10.69-9.2 9.33-24.57 13.9-28.6 27.58-1.03-4.76-4.35-8.58-5.34-13.43-1.1-5.4-1.9-11.1-1.73-16.62.4-12.24 8.64-23.72 18.16-30.82" fill="#a55728"/></g><clipPath id="clip-2a81af6a"><rect width="280" height="280" rx="103.6" ry="103.6"/></clipPath></defs><g clip-path="url(#clip-2a81af6a)"><g transform="translate(50.4, 0)"><path d="M140 36a56 56 0 0 0-56 56v6.17A12 12 0 0 0 74 110v14a12 12 0 0 0 10.3 11.88A56 56 0 0 0 116 180.6V199h-4a72 72 0 0 0-72 72v9h200v-9a72 72 0 0 0-72-72h-4v-18.38a56 56 0 0 0 31.7-44.73A12 12 0 0 0 206 124v-14a12 12 0 0 0-10-11.83V92a56 56 0 0 0-56-56" fill="url(#skin-color-2a81af6a)"/><path d="M116 180.61v8a56 56 0 0 0 24 5.39 56 56 0 0 0 24-5.39v-8a56 56 0 0 1-24 5.39 56 56 0 0 1-24-5.39" fill="black" fill-opacity=".1"/><use transform="translate(40 184.7)" href="#clothes-shirtScoopNeck-2a81af6a"/><use transform="translate(94 140)" href="#mouth-concerned-2a81af6a"/><use transform="translate(128 130)" href="#nose-default-2a81af6a"/><use transform="translate(98 98)" href="#eyes-winkWacky-2a81af6a"/><use transform="translate(91.86 82)" href="#eyebrows-defaultNatural-2a81af6a"/><use transform="translate(8)" href="#top-shaggy-2a81af6a"/></g></g></svg>