<svg xmlns="http://www.w3.org/2000/svg" viewBox="0 0 280 280" fill="none" shape-rendering="auto" aria-hidden="true"><!-- Generated by DiceBear (https://dicebear.com) --><metadata xmlns:rdf="http://www.w3.org/1999/02/22-rdf-syntax-ns#" xmlns:xsi="http://www.w3.org/2001/XMLSchema-instance" xmlns:dc="http://purl.org/dc/elements/1.1/" xmlns:dcterms="http://purl.org/dc/terms/"><rdf:RDF><rdf:Description><dc:title>Avataaars</dc:title><dc:creator>Pablo Stanley</dc:creator><dc:source xsi:type="dcterms:URI">https://avataaars.com/</dc:source><dcterms:license xsi:type="dcterms:URI">https://avataaars.com/</dcterms:license><dc:rights>Remix of “Avataaars” (https://avataaars.com/) by “Pablo Stanley”, licensed under “Free for personal and commercial use” (https://avataaars.com/)</dc:rights></rdf:Description></rdf:RDF></metadata><defs><linearGradient id="skin-color-a1b66841" gradientTransform="rotate(-128, 0.5, 0.5)"><stop offset="0%" stop-color="#ae5d29"/><stop offset="100%" stop-color="#9f6ff4"/></linearGradient><g id="clothes-hoodie-a1b66841"><path d="M76 0C60.48 3.7 48.9 10.83 45.23 19.45A72 72 0 0 0 0 86.3v9h200v-9a72 72 0 0 0-45.23-66.86C151.1 10.83 139.52 3.69 124 0v17.3a24 24 0 1 1-48 0z" fill="#ffffff"/><path d="M70 48.64a67 67 0 0 1-7-2.81V95.3h7zm60 0a67 67 0 0 0 7-2.81V83.8a3.5 3.5 0 1 1-7 0z" fill="#F4F4F4"/><path d="M155.62 19.8a72 72 0 0 1 10.83 5.62c-1.34 15.5-30.58 27.89-66.45 27.89 30.93 0 56-13.44 56-30q0-1.79-.38-3.52m-111.24.01a17 17 0 0 0-.38 3.5c0 16.57 25.07 30 56 30-35.87 0-65.1-12.38-66.45-27.88a72 72 0 0 1 10.83-5.63" fill="black" fill-opacity=".16"/></g><g id="mouth-default-a1b66841"><path fill-rule="evenodd" clip-rule="evenodd" d="M32 9a14 14 0 1 0 28 0" fill="black" fill-opacity=".7"/></g><g id="nose-default-a1b66841"><path fill-rule="evenodd" clip-rule="evenodd" d="M0 0c0 4.42 5.37 8 12 8s12-3.58 12-8" fill="black" fill-opacity=".16"/></g><g id="eyes-xDizzy-a1b66841"><path d="M20.5 22.7 15 17.2l-5.5 5.5c-.4.4-1.1.4-1.6 0l-1.6-1.6c-.4-.4-.4-1.1 0-1.6l5.5-5.5-5.5-5.5c-.4-.5-.4-1.2 0-1.6l1.6-1.6c.4-.4 1.1-.4 1.6 0l5.5 5.5 5.5-5.5c.4-.4 1.1-.4 1.6 0l1.6 1.6c.4.4.4 1.1 0 1.6L18.2 14l5.5 5.5c.4.4.4 1.1 0 1.6l-1.6 1.6c-.4.4-1.1.4-1.6 0m54 0L69 17.2l-5.5 5.5c-.4.4-1.1.4-1.6 0l-1.6-1.6c-.4-.4-.4-1.1 0-1.6l5.5-5.5-5.5-5.5c-.4-.5-.4-1.2 0-1.6l1.6-1.6c.4-.4 1.1-.4 1.6 0l5.5 5.5 5.5-5.5c.4-.4 1.1-.4 1.6 0l1.6 1.6c.4.4.4 1.1 0 1.6L72.2 14l5.5 5.5c.4.4.4 1.1 0 1.6l-1.6 1.6c-.4.4-1.1.4-1.6 0" fill="black" fill-opacity=".6"/></g><g id="eyebrows-angry-a1b66841"><path d="M7.75 15.18c4.24-5.76 6.88-5.48 13.31-.62l.67.5c4.83 3.67 7.12 4.94 10.4 4.94a2 2 0 0 0 0-4c-2.06 0-3.9-1.02-7.98-4.12l-.68-.52C19.71 8.53 17.51 7.3 14.77 7c-3.68-.4-7.05 1.48-10.24 5.83a2 2 0 1 0 3.22 2.36m80.78 0c-4.24-5.77-6.88-5.49-13.32-.63l-.67.5c-4.82 3.67-7.1 4.94-10.4 4.94a2 2 0 0 1 0-4c2.06 0 3.9-1.02 7.99-4.12l.67-.52C76.56 8.53 78.76 7.3 81.5 7c3.68-.4 7.06 1.48 10.25 5.83a2 2 0 1 1-3.22 2.36" fill="black" fill-opacity=".6"/></g><g id="top-sides-a1b66841"><path d="M69 97c0 4 .92 5.07 6 5 3.25-.05 3.44-6 3.65-12.59.14-4.37.29-9.03 1.35-12.41.62-4.43-1.82-3.17-3-1-3.96 4.78-8 15.34-8 21m126 0c0 4-.92 5.07-6 5-3.25-.05-3.44-6-3.65-12.59-.14-4.37-.29-9.03-1.35-12.41-.62-4.43 1.82-3.17 3-1 3.96 4.78 8 15.34 8 21" fill="#191762"/></g><linearGradient id="accessoriesWayfarers-a" x1="74.52" y1="48.93" x2="74.52" y2="84.07" gradientUnits="userSpaceOnUse"><stop stop-color="white" stop-opacity=".5"/><stop offset=".71" stop-opacity=".5"/></linearGradient><linearGradient id="accessoriesWayfarers-b" x1="74.52" y1="48.93" x2="74.52" y2="84.07" gradientUnits="userSpaceOnUse"><stop stop-color="white" stop-opacity=".5"/><stop offset=".71" stop-opacity=".5"/></linearGradient><g id="accessories-wayfarers-a1b66841"><path fill-rule="evenodd" clip-rule="evenodd" d="M33.48 48c-21.12 0-28.63 5.17-29.32 5.86a2.93 2.93 0 0 0-2.93 2.93v2.92a2.93 2.93 0 0 0 2.93 2.93s5.87 0 5.87 2.93q0 .3.03.45-.04 1.23-.04 2.48c0 12.84 8.3 20.5 22.18 20.5h2.75c14.68 0 24.93-8.43 24.93-20.5q0-2.17-.15-4.28l1.45-.73q.86-.42 1.88-.64a13.4 13.4 0 0 1 5.94.28q1.1.3 1.5.46l1.25.5a51 51 0 0 0-.16 4.4c0 12.81 8.29 20.5 22.18 20.5h2.75c14.68 0 24.93-8.46 24.93-20.5q0-1.28-.05-2.5.03-.18.04-.46c0-2.93 5.86-2.93 5.86-2.93 1.62 0 2.93-1.3 2.93-2.93v-2.9a2.93 2.93 0 0 0-2.93-2.93c-.69-.69-8.19-5.86-29.32-5.86h-2.93q-2.74 0-5.08.21c-9.38.56-14.46 2.2-19.63 4.76-.54.2-2.38.8-4.53.88a17 17 0 0 1-4.77-.92l-.42-.2c-4.9-2.46-8.35-4.19-20.55-4.62q-1.73-.1-3.66-.1zm-1.11 5.86h1.11q3.66 0 6.48.1C54 54.8 54 60.91 54 68.5c0 8.62-7.84 14.64-19.06 14.64H32.2c-13.49 0-16.32-7.96-16.32-14.64 0-8 0-14.37 16.5-14.64m26.1 4.36.1.03-.08.03zm14.51 0-.07.03.05.02zm16.7-4.12a125 125 0 0 1 9.41-.24c16.48.27 16.48 6.63 16.48 14.64 0 8.62-7.84 14.64-19.06 14.64h-2.75c-13.49 0-16.32-7.96-16.32-14.64 0-7.25 0-13.15 12.24-14.4" fill="black" fill-opacity=".1"/><path d="M34.95 84.07c13.75 0 22-7.87 22-17.57s-1.3-17.57-20.55-17.57h-2.93c-19.24 0-20.53 7.86-20.53 17.57 0 9.7 5.5 17.57 19.25 17.57z" fill="black" fill-opacity=".7"/><path d="M34.95 84.07c13.75 0 22-7.87 22-17.57s-1.3-17.57-20.55-17.57h-2.93c-19.24 0-20.53 7.86-20.53 17.57 0 9.7 5.5 17.57 19.25 17.57z" fill="url(#accessoriesWayfarers-a)" style="mix-blend-mode:screen"/><path d="M96.52 84.07c13.75 0 22-7.87 22-17.57s-1.3-17.57-20.54-17.57h-2.93c-19.25 0-20.53 7.86-20.53 17.57 0 9.7 5.5 17.57 19.25 17.57z" fill="black" fill-opacity=".7"/><path d="M96.52 84.07c13.75 0 22-7.87 22-17.57s-1.3-17.57-20.54-17.57h-2.93c-19.25 0-20.53 7.86-20.53 17.57 0 9.7 5.5 17.57 19.25 17.57z" fill="url(#accessoriesWayfarers-b)" style="mix-blend-mode:screen"/><path fill-rule="evenodd" clip-rule="evenodd" d="M33.48 46c-21.12 0-28.63 5.17-29.32 5.86a2.93 2.93 0 0 0-2.93 2.93v2.92a2.93 2.93 0 0 0 2.93 2.93s5.87 0 5.87 2.93q0 .3.03.45-.04 1.23-.04 2.48c0 12.84 8.3 20.5 22.18 20.5h2.75c14.68 0 24.93-8.43 24.93-20.5q0-2.17-.15-4.28l1.45-.73q.86-.42 1.88-.64a13.4 13.4 0 0 1 5.94.28q1.1.29 1.5.46l1.25.5a51 51 0 0 0-.16 4.4c0 12.81 8.29 20.5 22.18 20.5h2.75c14.68 0 24.93-8.46 24.93-20.5q0-1.28-.05-2.5.03-.17.04-.46c0-2.93 5.86-2.93 5.86-2.93 1.62 0 2.93-1.3 2.93-2.93v-2.9a2.93 2.93 0 0 0-2.93-2.93c-.69-.69-8.19-5.86-29.32-5.86h-2.93q-2.74 0-5.08.21c-9.38.56-14.46 2.2-19.63 4.76-.54.2-2.38.8-4.53.88a17 17 0 0 1-4.77-.92l-.42-.2c-4.9-2.46-8.35-4.19-20.55-4.62q-1.73-.1-3.66-.1zm-1.11 5.86h1.11q3.66 0 6.48.1C54 52.8 54 58.91 54 66.5c0 8.62-7.84 14.64-19.06 14.64H32.2c-13.49 0-16.32-7.96-16.32-14.64 0-8 0-14.37 16.5-14.64m26.1 4.36.1.03-.08.03zm14.51 0-.07.03.05.02zm16.7-4.12a125 125 0 0 1 9.41-.24c16.48.27 16.48 6.63 16.48 14.64 0 8.62-7.84 14.64-19.06 14.64h-2.75c-13.49 0-16.32-7.96-16.32-14.64 0-7.25 0-13.15 12.24-14.4" fill="#3c4f5c"/></g><clipPath id="clip-a1b66841"><rect width="280" height="280" rx="103.6" ry="103.6"/></clipPath></defs><g clip-path="url(#clip-a1b66841)"><g transform="translate(50.4, 0)"><path d="M140 36a56 56 0 0 0-56 56v6.17A12 12 0 0 0 74 110v14a12 12 0 0 0 10.3 11.88A56 56 0 0 0 116 180.6V199h-4a72 72 0 0 0-72 72v9h200v-9a72 72 0 0 0-72-72h-4v-18.38a56 56 0 0 0 31.7-44.73A12 12 0 0 0 206 124v-14a12 12 0 0 0-10-11.83V92a56 56 0 0 0-56-56" fill="url(#skin-color-a1b66841)"/><path d="M116 180.61v8a56 56 0 0 0 24 5.39 56 56 0 0 0 24-5.39v-8a56 56 0 0 1-24 5.39 56 56 0 0 1-24-5.39" fill="black" fill-opacity=".1"/><use transform="translate(40 184.7)" href="#clothes-hoodie-a1b66841"/><use transform="translate(94 140)" href="#mouth-default-a1b66841"/><use transform="translate(128 130)" href="#nose-default-a1b66841"/><use transform="translate(98 98)" href="#eyes-xDizzy-a1b66841"/><use transform="translate(91.86 82)" href="#eyebrows-angry-a1b66841"/><use transform="translate(8)" href="#top-sides-a1b66841"/><use transform="translate(75.77 46)" href="#accessories-wayfarers-a1b66841"/></g></g></svg>