<svg xmlns="http://www.w3.org/2000/svg" viewBox="0 0 280 280" fill="none" shape-rendering="auto" aria-hidden="true"><!-- Generated by DiceBear (https://dicebear.com) --><metadata xmlns:rdf="http://www.w3.org/1999/02/22-rdf-syntax-ns#" xmlns:xsi="http://www.w3.org/2001/XMLSchema-instance" xmlns:dc="http://purl.org/dc/elements/1.1/" xmlns:dcterms="http://purl.org/dc/terms/"><rdf:RDF><rdf:Description><dc:title>Avataaars</dc:title><dc:creator>Pablo Stanley</dc:creator><dc:source xsi:type="dcterms:URI">https://avataaars.com/</dc:source><dcterms:license xsi:type="dcterms:URI">https://avataaars.com/</dcterms:license><dc:rights>Remix of “Avataaars” (https://avataaars.com/) by “Pablo Stanley”, licensed under “Free for personal and commercial use” (https://avataaars.com/)</dc:rights></rdf:Description></rdf:RDF></metadata><defs><linearGradient id="skin-color-b32aa2ef" gradientTransform="rotate(-128, 0.5, 0.5)"><stop offset="0%" stop-color="#b6e3f4"/><stop offset="100%" stop-color="#f49d1f"/></linearGradient><g id="clothes-collarAndSweater-b32aa2ef"><path d="M68.37 14.45A28 28 0 0 1 76 6.88v15.3C76 28 79.98 33.16 86.08 36.3l-.08.06.9 2.87c3.89 2 8.35 3.13 13.1 3.13s9.21-1.14 13.1-3.13l.9-2.87-.08-.06C120.02 33.16 124 28 124 22.18V7.58a27 27 0 0 1 6.6 6.82A72 72 0 0 1 200 86.36v8.95H0v-8.95a72 72 0 0 1 68.37-71.91" fill="#5199e4"/><path d="M76 6.88c-6.77 4.6-11 11.17-11 18.45 0 7.4 4.36 14.06 11.3 18.67l6.12-4.82 4.58.33-1-3.15.08-.06C79.98 33.16 76 28 76 22.18zm48 15.3c0 5.83-3.98 10.98-10.08 14.12l.08.06-1 3.15 4.58-.33 5.65 4.45c6.63-4.6 10.77-11.1 10.77-18.3 0-6.92-3.82-13.19-10-17.74z" fill="white" fill-opacity=".75"/></g><g id="mouth-concerned-b32aa2ef"><path fill-rule="evenodd" clip-rule="evenodd" d="M27.12 23.87a19 19 0 0 1 37.77.09c.08.77-.77 2.04-1.85 2.04H29.1c-1.1 0-2.1-1.18-1.98-2.13" fill="black" fill-opacity=".7"/><path d="M61.59 26H30.4A11 11 0 0 1 46 19.2 11 11 0 0 1 61.6 26" fill="#FF4F6D"/><path d="M58.57 11.75A5 5 0 0 1 57 12H36q-1.22-.02-2.24-.53A19 19 0 0 1 46 7c4.82 0 9.22 1.8 12.57 4.75" fill="white"/></g><g id="nose-default-b32aa2ef"><path fill-rule="evenodd" clip-rule="evenodd" d="M0 0c0 4.42 5.37 8 12 8s12-3.58 12-8" fill="black" fill-opacity=".16"/></g><g id="eyes-hearts-b32aa2ef"><path d="M21.96 2c-2.55 0-5.08 1.98-6.46 3.82C14.1 3.98 11.6 2 9.04 2 3.55 2 0 5.33 0 9.64c0 5.73 4.41 9.13 9.04 12.74 1.66 1.23 4.78 4.4 5.17 5.1.4.68 2.13.7 2.62 0 .47-.73 3.5-3.87 5.16-5.1 4.63-3.6 9.04-7 9.04-12.74C31 5.34 27.46 2 21.97 2m53 0c-2.55 0-5.08 1.98-6.46 3.82C67.1 3.98 64.6 2 62.04 2 56.54 2 53 5.33 53 9.64c0 5.73 4.41 9.13 9.04 12.74 1.66 1.23 4.78 4.4 5.17 5.1.38.68 2.1.7 2.58 0 .48-.73 3.5-3.87 5.17-5.1 4.63-3.6 9.04-7 9.04-12.74C84 5.34 80.45 2 74.96 2" fill="#FF5353" fill-opacity=".8"/></g><g id="eyebrows-unibrowNatural-b32aa2ef"><path fill-rule="evenodd" clip-rule="evenodd" d="M88.26 7.6c1.46.56 9.19 6.43 7.86 9.16a.8.8 0 0 1-1.29.22 11 11 0 0 0-1.7-1.2c-5.11-2.83-11.3-1.92-16.74-.9-6.12 1.14-12.1 3.48-18.38 2.67-2.04-.26-6.08-1.22-7.63-2.96-.47-.53-.06-1.38.64-1.43 1.44-.11 2.86-.86 4.33-1.28 3.65-1.03 7.4-1.56 11.11-2.3 6.62-1.3 15.17-4.52 21.8-2" fill="#DADADA"/><path fill-rule="evenodd" clip-rule="evenodd" d="M50.9 12.76c-1.17.04-2.8 3.56-.56 3.68 2.23.11 1.73-3.72.56-3.68m-3.76.04q0-.01 0 0M8.02 7.56c-1.47.56-9.2 6.43-7.87 9.16.24.5.9.6 1.3.22.54-.52 1.57-1.11 1.7-1.18 5.1-2.84 11.3-1.93 16.73-.91 6.12 1.15 12.1 3.49 18.4 2.68 2.03-.26 6.07-1.22 7.6-2.96.48-.53.08-1.38-.62-1.43-1.44-.11-2.86-.86-4.33-1.28-3.65-1.03-7.4-1.56-11.12-2.3-6.62-1.3-15.17-4.52-21.8-2" fill="#DADADA"/><path fill-rule="evenodd" clip-rule="evenodd" d="M47.1 11.79c1.18.04 2.77 4.5.54 4.67-2.24.18-1.7-4.71-.53-4.67" fill="#DADADA"/></g><g id="top-winterHat1-b32aa2ef"><path d="M85.67 68H63v112.91a4.1 4.1 0 0 0 4.09 4.1 18.6 18.6 0 0 0 18.58-18.6zM201 68h-22.67v112.91a4.1 4.1 0 0 0 4.09 4.1 18.6 18.6 0 0 0 18.58-18.6z" fill="#F4F4F4"/><path d="M62 64a44 44 0 0 1 44-44h52a44 44 0 0 1 44 44v104.6a16.4 16.4 0 0 1-16.4 16.4 3.6 3.6 0 0 1-3.6-3.6V74H82v94.6A16.4 16.4 0 0 1 65.6 185a3.6 3.6 0 0 1-3.6-3.6z" fill="#ffdeb5"/><rect x="73" y="52" width="118" height="36" rx="8" fill="black" fill-opacity=".1"/><rect x="73" y="50" width="118" height="36" rx="8" fill="#F4F4F4"/></g><clipPath id="clip-b32aa2ef"><rect width="280" height="280" rx="103.6" ry="103.6"/></clipPath></defs><g clip-path="url(#clip-b32aa2ef)"><g transform="translate(50.4, 0)"><path d="M140 36a56 56 0 0 0-56 56v6.17A12 12 0 0 0 74 110v14a12 12 0 0 0 10.3 11.88A56 56 0 0 0 116 180.6V199h-4a72 72 0 0 0-72 72v9h200v-9a72 72 0 0 0-72-72h-4v-18.38a56 56 0 0 0 31.7-44.73A12 12 0 0 0 206 124v-14a12 12 0 0 0-10-11.83V92a56 56 0 0 0-56-56" fill="url(#skin-color-b32aa2ef)"/><path d="M116 180.61v8a56 56 0 0 0 24 5.39 56 56 0 0 0 24-5.39v-8a56 56 0 0 1-24 5.39 56 56 0 0 1-24-5.39" fill="black" fill-opacity=".1"/><use transform="translate(40 184.7)" href="#clothes-collarAndSweater-b32aa2ef"/><use transform="translate(94 140)" href="#mouth-concerned-b32aa2ef"/><use transform="translate(128 130)" href="#nose-default-b32aa2ef"/><use transform="translate(98 98)" href="#eyes-hearts-b32aa2ef"/><use transform="translate(91.86 82)" href="#eyebrows-unibrowNatural-b32aa2ef"/><use transform="translate(8)" href="#top-winterHat1-b32aa2ef"/></g></g></svg>