<svg xmlns="http://www.w3.org/2000/svg" viewBox="0 0 280 280" fill="none" shape-rendering="auto" aria-hidden="true"><!-- Generated by DiceBear (https://dicebear.com) --><metadata xmlns:rdf="http://www.w3.org/1999/02/22-rdf-syntax-ns#" xmlns:xsi="http://www.w3.org/2001/XMLSchema-instance" xmlns:dc="http://purl.org/dc/elements/1.1/" xmlns:dcterms="http://purl.org/dc/terms/"><rdf:RDF><rdf:Description><dc:title>Avataaars</dc:title><dc:creator>Pablo Stanley</dc:creator><dc:source xsi:type="dcterms:URI">https://avataaars.com/</dc:source><dcterms:license xsi:type="dcterms:URI">https://avataaars.com/</dcterms:license><dc:rights>Remix of “Avataaars” (https://avataaars.com/) by “Pablo Stanley”, licensed under “Free for personal and commercial use” (https://avataaars.com/)</dc:rights></rdf:Description></rdf:RDF></metadata><defs><linearGradient id="skin-color-3a7d2663" gradientTransform="rotate(-128, 0.5, 0.5)"><stop offset="0%" stop-color="#f49581"/><stop offset="100%" stop-color="#9f6ff4"/></linearGradient><g id="clothes-blazerAndSweater-3a7d2663"><path d="M100 42.36c14.91 0 27-11.2 27-25q0-1.53-.2-3h1.2a72 72 0 0 1 72 72v8.95H0v-8.95a72 72 0 0 1 72-72h1.2q-.2 1.47-.2 3c0 13.8 12.09 25 27 25" fill="#E6E6E6"/><path d="M68.78 14.43 69 13.3c-2.96.06-6 1-6 1l-.42.67A72 72 0 0 0 0 86.36v8.95h74s-10.7-51.56-5.24-80.8zM126 95.3s11-53 5-82c2.96.06 6 1 6 1l.42.67A72 72 0 0 1 200 86.36v8.95z" fill="#fe658e"/><path fill-rule="evenodd" clip-rule="evenodd" d="M69 13.3c-6 29 5 82 5 82H58l-14-36 6-9-6-6 19-30s3.04-.94 6-1m62 0c6 29-5 82-5 82h16l14-36-6-9 6-6-19-30s-3.04-.94-6-1" fill="black" fill-opacity=".15"/><path d="M76 6.84c-6.77 4.6-11 11.12-11 18.35 0 7.4 4.43 14.06 11.48 18.67l5.94-4.68 4.58.33-1-3.15.08-.06C79.98 33.16 76 28 76 22.18zm48 15.34c0 5.83-3.98 10.98-10.08 14.12l.08.06-1 3.15 4.58-.33 5.94 4.68C130.57 39.26 135 32.6 135 25.2c0-7.23-4.23-13.75-11-18.35z" fill="#F2F2F2"/><path d="m151.42 71.07.87-2.24 6.27-4.7a4 4 0 0 1 4.85.05l6.6 5.13z" fill="#E6E6E6"/></g><g id="mouth-sad-3a7d2663"><path fill-rule="evenodd" clip-rule="evenodd" d="M32.06 21.72C32.7 14.7 38.7 10 46 10c7.34 0 13.36 4.75 13.95 11.85.03.38-.87.67-1.32.45Q50.32 18.14 46 18.14q-4.27 0-12.45 4.07c-.5.25-1.53-.07-1.5-.49" fill="black" fill-opacity=".7"/></g><g id="nose-default-3a7d2663"><path fill-rule="evenodd" clip-rule="evenodd" d="M0 0c0 4.42 5.37 8 12 8s12-3.58 12-8" fill="black" fill-opacity=".16"/></g><g id="eyes-wink-3a7d2663"><path d="M22 14a6 6 0 1 1-12 0 6 6 0 0 1 12 0" fill="black" fill-opacity=".6"/><path fill-rule="evenodd" clip-rule="evenodd" d="M56.6 16.96c1.59-3.92 5.55-6.86 10.37-7.2 4.8-.33 9.12 2 11.24 5.64.63 1.1-.1 2.06-.93 1.43-2.6-1.93-6.15-3-10-2.73a15 15 0 0 0-9.33 3.9c-.84.79-1.81.11-1.35-1.03" fill="black" fill-opacity=".6"/></g><g id="eyebrows-frownNatural-3a7d2663"><path fill-rule="evenodd" clip-rule="evenodd" d="M28.5 6.88c-1.96 2.9-5.54 4.64-8.73 5.68-3.94 1.29-18.55 3.38-15.11 11.35.05.12.22.12.27 0 1.15-2.65 17.46-5.12 18.97-5.7 4.45-1.71 8.4-5.5 9.16-10.55.36-2.31-.63-6.05-1.54-7.55-.1-.18-.38-.13-.43.07-.36 1.33-1.4 4.97-2.58 6.7m39.28 0c1.97 2.9 5.54 4.64 8.74 5.68 3.96 1.29 18.57 3.38 15.13 11.35a.15.15 0 0 1-.28 0c-1.15-2.65-17.46-5.12-18.97-5.7-4.44-1.71-8.4-5.5-9.16-10.55-.35-2.31.64-6.05 1.55-7.55.1-.18.37-.13.43.07.35 1.33 1.4 4.97 2.57 6.7" fill="black" fill-opacity=".6"/></g><g id="top-bigHair-3a7d2663"><path d="M43.83 105.6q-.59-2.4-1.13-4.92c-1.95-9.23-2.95-20.22 2.89-39.67-6.9 22.99-4.25 34.15-1.76 44.58 1.23 5.2 2.43 10.2 2.37 16.4v-.02c.06-6.2-1.14-11.21-2.37-16.4m173.55 8.64c-.13.4-.16.8-.18 1.23zm-.33 2.58q-.18 1.63-.23 3.35c-29.04-10.76-54.94-29.62-70.32-51.55-12.1 15.62-31.96 23.04-51.63 30.4-17.38 6.5-34.62 12.95-46.2 24.95l1.1-1.5c11-14.6 28.75-21.88 46.7-29.24 18.81-7.71 37.81-15.5 49.38-31.9 15.4 24.12 41.82 44.67 71.16 55.65z" fill="black" fill-opacity=".16"/><path d="M31 280h1v-9a72 72 0 0 1 72-72h4v-18.39a56 56 0 0 1-31.8-45.74A12 12 0 0 1 66 123v-13q0-1.2.22-2.32c9.12-5.82 19.65-10.13 30.24-14.48 18.81-7.71 37.82-15.5 49.39-31.9 11.95 18.7 30.55 35.3 52.02 46.9q.13.89.13 1.8v13a12 12 0 0 1-10.2 11.87A56 56 0 0 1 156 180.6V199h4a72 72 0 0 1 72 72v9c24.41-13.94 15.86-33.21 6.28-48.46a303 303 0 0 0-4.07-6.27c-3.48-5.25-6.45-9.74-7.2-12.97q-.16-.7-.18-1.3c-.14-4.62 3.14-7.84 7.16-11.78 6.22-6.08 14.18-13.9 14.01-31.22-.51-15.83-9.8-22.25-18.1-28-6.93-4.78-13.17-9.1-13.1-18q0-2.72.25-5.2c.11-.4.13-.82.15-1.24v-.1c.45-3.44 1.2-6.62 1.98-9.87 2.55-10.72 5.3-22.23-2.38-46.6-2.9-9.11-6.97-16.5-12.1-22.45-14.12-16.42-36.35-22.04-64.9-23.3q-3.82-.16-7.8-.22V13h-1c-43.08.77-73.16 9.54-84.8 46-7.67 24.36-4.93 35.87-2.37 46.6 1.23 5.19 2.43 10.2 2.37 16.4.03 3.75-1.06 6.7-2.85 9.2-2.46 3.43-6.23 6.04-10.24 8.8-8.3 5.75-17.6 12.17-18.1 28-.15 17.33 7.8 25.14 14.03 31.22 4.03 3.94 7.32 7.16 7.17 11.78-.08 3.26-3.4 8.27-7.38 14.27-10.54 15.9-25.7 38.8 2.2 54.73" fill="#622c5c"/><path fill-rule="evenodd" clip-rule="evenodd" d="M49.58 122.45c22.54-29.92 73.49-29.13 96.09-61.15 15.4 24.1 41.82 44.65 71.16 55.63.3-.86.08-1.85.37-2.7 2.15-14.14 9.14-24.37-.58-55.23-11.63-36.46-41.71-45.23-84.8-45.98l-1-.02c-43.08.77-73.16 9.54-84.8 46-11.38 36.16.17 44 0 63a15 15 0 0 1-2.85 9.2c.19.4 4.16-5.76 6.4-8.75" fill="white" fill-opacity=".2"/></g><g id="accessories-eyepatch-3a7d2663"><path fill-rule="evenodd" clip-rule="evenodd" d="M88.63.78c-3.08-3.09-6.28 3.86-7.77 5.65-3.61 4.32-7.09 8.75-10.76 13.02-7.25 8.43-14.43 16.92-21.63 25.4-1.1 1.28-.96 1.4-2.4 1.54-.95.08-2.27-.4-3.26-.46a29 29 0 0 0-8.14.9c-5.35 1.17-11.01 3.1-15.65 6.07-1.22.78-2 1.7-3.32 1.94-1.15.2-2.67-.21-3.84-.32-2.09-.2-5.09-1.05-7.13-.6-2.6.55-3.58 3.7-.94 5.08 2 1.06 6 .48 8.21.64 2.57.2 1.8.06 1.42 2.52-.52 3.54.35 7.49 1.84 10.72 3.46 7.5 13.04 15.46 21.77 14.72 7.28-.6 13.67-7.19 16.66-13.5a31 31 0 0 0 2.74-10.47c.2-2.27.1-4.67-.56-6.87a17 17 0 0 0-1.38-3.2c-.44-.8-2.4-2.64-2.52-3.44-.23-1.56 4.19-5.73 5.03-6.78q6-7.34 11.92-14.74 5.82-7.33 11.77-14.52C82.5 11.9 91.54 3.7 88.6.78" fill="#b1e2ff"/></g><clipPath id="clip-3a7d2663"><rect width="280" height="280" rx="103.6" ry="103.6"/></clipPath></defs><g clip-path="url(#clip-3a7d2663)"><g transform="translate(50.4, 0)"><path d="M140 36a56 56 0 0 0-56 56v6.17A12 12 0 0 0 74 110v14a12 12 0 0 0 10.3 11.88A56 56 0 0 0 116 180.6V199h-4a72 72 0 0 0-72 72v9h200v-9a72 72 0 0 0-72-72h-4v-18.38a56 56 0 0 0 31.7-44.73A12 12 0 0 0 206 124v-14a12 12 0 0 0-10-11.83V92a56 56 0 0 0-56-56" fill="url(#skin-color-3a7d2663)"/><path d="M116 180.61v8a56 56 0 0 0 24 5.39 56 56 0 0 0 24-5.39v-8a56 56 0 0 1-24 5.39 56 56 0 0 1-24-5.39" fill="black" fill-opacity=".1"/><use transform="translate(40 184.7)" href="#clothes-blazerAndSweater-3a7d2663"/><use transform="translate(94 140)" href="#mouth-sad-3a7d2663"/><use transform="translate(128 130)" href="#nose-default-3a7d2663"/><use transform="translate(98 98)" href="#eyes-wink-3a7d2663"/><use transform="translate(91.86 82)" href="#eyebrows-frownNatural-3a7d2663"/><use transform="translate(8)" href="#top-bigHair-3a7d2663"/><use transform="translate(75.77 46)" href="#accessories-eyepatch-3a7d2663"/></g></g></svg>