<svg xmlns="http://www.w3.org/2000/svg" viewBox="0 0 280 280" fill="none" shape-rendering="auto" aria-hidden="true"><!-- Generated by DiceBear (https://dicebear.com) --><metadata xmlns:rdf="http://www.w3.org/1999/02/22-rdf-syntax-ns#" xmlns:xsi="http://www.w3.org/2001/XMLSchema-instance" xmlns:dc="http://purl.org/dc/elements/1.1/" xmlns:dcterms="http://purl.org/dc/terms/"><rdf:RDF><rdf:Description><dc:title>Avataaars</dc:title><dc:creator>Pablo Stanley</dc:creator><dc:source xsi:type="dcterms:URI">https://avataaars.com/</dc:source><dcterms:license xsi:type="dcterms:URI">https://avataaars.com/</dcterms:license><dc:rights>Remix of “Avataaars” (https://avataaars.com/) by “Pablo Stanley”, licensed under “Free for personal and commercial use” (https://avataaars.com/)</dc:rights></rdf:Description></rdf:RDF></metadata><defs><linearGradient id="skin-color-043cdc6e" gradientTransform="rotate(-128, 0.5, 0.5)"><stop offset="0%" stop-color="#0f3a1c"/><stop offset="100%" stop-color="#2e91bc"/></linearGradient><g id="clothes-shirtScoopNeck-043cdc6e"><path d="M100.5 51.13c27.34 0 49.5-13.2 49.5-29.48q0-2.04-.46-4A72 72 0 0 1 200 86.35v8.95H0v-8.95A72 72 0 0 1 51.53 17.3a18 18 0 0 0-.53 4.34c0 16.28 22.16 29.48 49.5 29.48" fill="#ffafb9"/></g><g id="mouth-disbelief-043cdc6e"><path fill-rule="evenodd" clip-rule="evenodd" d="M32 23a14 14 0 1 1 28 0" fill="black" fill-opacity=".7"/></g><g id="nose-default-043cdc6e"><path fill-rule="evenodd" clip-rule="evenodd" d="M0 0c0 4.42 5.37 8 12 8s12-3.58 12-8" fill="black" fill-opacity=".16"/></g><g id="eyes-winkWacky-043cdc6e"><circle cx="68" cy="14" r="12" fill="white"/><circle cx="68" cy="14" r="6" fill="black" fill-opacity=".7"/><path fill-rule="evenodd" clip-rule="evenodd" d="M2.16 17.45C4.01 13.65 8.16 11 13 11c4.81 0 8.96 2.63 10.82 6.4.55 1.13-.24 2.05-1.03 1.37a15 15 0 0 0-9.8-3.43c-3.73 0-7.12 1.24-9.55 3.23-.9.73-1.82-.01-1.28-1.12" fill="black" fill-opacity=".6"/></g><g id="eyebrows-angryNatural-043cdc6e"><path fill-rule="evenodd" clip-rule="evenodd" d="M11.43 5.01a7.2 7.2 0 0 0-6.44 2.43c-.6.73-1.55 2.48-1.5 3.42 0 .35.22.37 1.12.6 1.64.38 4.5-1.13 6.35-1 2.59.2 5.05 1.4 7.29 2.69 3.84 2.2 8.35 6.84 13.09 6.6.35-.02 5.42-1.74 4.4-2.72-.31-.49-3.02-1.13-3.5-1.36-2.16-1.09-4.36-2.45-6.43-3.72C21.28 9.18 16.86 5.6 11.42 5m73.62.01c2.37-.27 4.86.5 6.43 2.43.59.73 1.55 2.48 1.5 3.42 0 .35-.22.37-1.12.6-1.64.38-4.5-1.13-6.35-1-2.58.2-5.05 1.4-7.28 2.69-3.84 2.2-8.36 6.84-13.1 6.6-.35-.02-5.42-1.74-4.4-2.72.3-.49 3.03-1.13 3.5-1.36 2.17-1.09 4.36-2.45 6.44-3.72C75.19 9.18 79.6 5.6 85.04 5" fill="black" fill-opacity=".6"/></g><g id="top-frizzle-043cdc6e"><path fill-rule="evenodd" clip-rule="evenodd" d="M89.91 55.36h84.18c18.24-10.53 21.67-29.2 8.76-45.43-3.21-4.04-8.76 11.75-25.82 12.72s-15.42-6.3-33.57-3.58c-18.15 2.73-16.15 17.3-28 20.8-11.84 3.5-5.55 15.5-5.55 15.5" fill="#7e0c7d"/></g><g id="facialHair-moustacheFancy-043cdc6e"><path d="M60 43.3c6.8-3.59 16.42-4.15 21.61-2.17a32 32 0 0 1 4.84 2.55c4.13 2.47 8.55 5.12 14.91 3.15.37-.12.73.2.62.58-1.37 4.5-9 7.6-11.6 7.7-6.2.24-11.75-2.26-17.13-4.7-4.44-2-8.77-3.95-13.25-4.25-4.48.3-8.8 2.26-13.25 4.26-5.38 2.43-10.92 4.93-17.13 4.69-2.6-.1-10.23-3.2-11.6-7.7-.1-.37.25-.7.62-.58 6.36 1.97 10.78-.68 14.9-3.15a32 32 0 0 1 4.85-2.55c5.2-1.98 14.82-1.42 21.6 2.17" fill="#724133"/></g><clipPath id="clip-043cdc6e"><rect width="280" height="280" rx="103.6" ry="103.6"/></clipPath></defs><g clip-path="url(#clip-043cdc6e)"><g transform="translate(50.4, 0)"><path d="M140 36a56 56 0 0 0-56 56v6.17A12 12 0 0 0 74 110v14a12 12 0 0 0 10.3 11.88A56 56 0 0 0 116 180.6V199h-4a72 72 0 0 0-72 72v9h200v-9a72 72 0 0 0-72-72h-4v-18.38a56 56 0 0 0 31.7-44.73A12 12 0 0 0 206 124v-14a12 12 0 0 0-10-11.83V92a56 56 0 0 0-56-56" fill="url(#skin-color-043cdc6e)"/><path d="M116 180.61v8a56 56 0 0 0 24 5.39 56 56 0 0 0 24-5.39v-8a56 56 0 0 1-24 5.39 56 56 0 0 1-24-5.39" fill="black" fill-opacity=".1"/><use transform="translate(40 184.7)" href="#clothes-shirtScoopNeck-043cdc6e"/><use transform="translate(94 140)" href="#mouth-disbelief-043cdc6e"/><use transform="translate(128 130)" href="#nose-default-043cdc6e"/><use transform="translate(98 98)" href="#eyes-winkWacky-043cdc6e"/><use transform="translate(91.86 82)" href="#eyebrows-angryNatural-043cdc6e"/><use transform="translate(8)" href="#top-frizzle-043cdc6e"/><use transform="translate(81 98)" href="#facialHair-moustacheFancy-043cdc6e"/></g></g></svg>