<svg xmlns="http://www.w3.org/2000/svg" viewBox="0 0 280 280" fill="none" shape-rendering="auto" aria-hidden="true"><!-- Generated by DiceBear (https://dicebear.com) --><metadata xmlns:rdf="http://www.w3.org/1999/02/22-rdf-syntax-ns#" xmlns:xsi="http://www.w3.org/2001/XMLSchema-instance" xmlns:dc="http://purl.org/dc/elements/1.1/" xmlns:dcterms="http://purl.org/dc/terms/"><rdf:RDF><rdf:Description><dc:title>Avataaars</dc:title><dc:creator>Pablo Stanley</dc:creator><dc:source xsi:type="dcterms:URI">https://avataaars.com/</dc:source><dcterms:license xsi:type="dcterms:URI">https://avataaars.com/</dcterms:license><dc:rights>Remix of “Avataaars” (https://avataaars.com/) by “Pablo Stanley”, licensed under “Free for personal and commercial use” (https://avataaars.com/)</dc:rights></rdf:Description></rdf:RDF></metadata><defs><linearGradient id="skin-color-5e18784f" gradientTransform="rotate(-128, 0.5, 0.5)"><stop offset="0%" stop-color="#d08b5b"/><stop offset="100%" stop-color="#3ef477"/></linearGradient><g id="clothesGraphic-bat-5e18784f"><path fill-rule="evenodd" clip-rule="evenodd" d="M87.69 12.4c-1.4-6.43-6.2-10.15-12.5-11.58-2.53-.58-10.92-2.4-9.61 2.4.6 2.18.26 3.97-1.55 5.77-1.77 1.76-5.24 2.2-6.96-.01-1.47-1.9.43-4.72-.72-6.57-.44-.71-1.21-1.08-2.03-.73-1.14.5-.53 1.56-1.07 2.32-.85 1.2-1.24.83-2-.37-.49-.76-.02-1.58-1.26-1.9-1.43-.37-1.9.83-2.03 1.92-.08.69.32 1.8.34 2.5.03 1.35-.1 3.31-.73 4.52-1.12 2.14-2.7 1.45-4.38.1-1.98-1.6-2.56-3.39-2.18-5.82.46-2.92.3-5.71-3.28-3.9a33.5 33.5 0 0 0-12.59 11.93c-2.44 4.02-4.36 8.9-2.2 13.48 2.21 4.67 5.86 8.69 10.97 9.88 1.32.3 5.1 1.81 6.34.55 1.95-1.96-2.54-3.78-3.43-4.97-1.26-1.7-2.34-4.92-.96-6.83 1.76-2.48 3.6-1.1 5.05.6 1.13 1.34 2.75 4.81 4.5 2.01 1.21-1.93 1.1-5.1 4.4-3.72 4.78 1.97 4.9 11.11 5.76 15.3.37 1.81 2.04 4.05 3.47 1.51.8-1.39.37-4.4.22-5.85-.3-2.99-1.08-5.92-.1-8.88.55-1.7 2-4.16 4.12-2.84 1.73 1.06 1 5.81 3.35 5.8 2.07 0 1.5-3.79 2.6-5.04 1.69-1.9 4.92-1 5.92 1.24 1.33 3.03-2.2 5.13-2.05 7.8.16 2.58 3.5 1.57 4.9.91 2.86-1.35 5.09-3.85 6.66-6.57 2.4-4.19 4.13-10.2 3.08-15.02" fill="white"/></g><g id="clothes-graphicShirt-5e18784f"><path d="M100.5 39.3c18.5 0 33.5-9.62 33.5-21.5q0-1.64-.38-3.23A72 72 0 0 1 200 86.36v8.95H0v-8.95A72 72 0 0 1 67.4 14.5a14 14 0 0 0-.4 3.3c0 11.88 15 21.5 33.5 21.5" fill="#e993fe"/><use transform="translate(45 44.3)" href="#clothesGraphic-bat-5e18784f"/></g><g id="mouth-default-5e18784f"><path fill-rule="evenodd" clip-rule="evenodd" d="M32 9a14 14 0 1 0 28 0" fill="black" fill-opacity=".7"/></g><g id="nose-default-5e18784f"><path fill-rule="evenodd" clip-rule="evenodd" d="M0 0c0 4.42 5.37 8 12 8s12-3.58 12-8" fill="black" fill-opacity=".16"/></g><g id="eyes-cry-5e18784f"><path d="M11 19s-6 7.27-6 11.27a6 6 0 1 0 12 0c0-4-6-11.27-6-11.27" fill="#92D9FF"/><path d="M22 14a6 6 0 1 1-12 0 6 6 0 0 1 12 0m52 0a6 6 0 1 1-12 0 6 6 0 0 1 12 0" fill="black" fill-opacity=".6"/></g><g id="eyebrows-angry-5e18784f"><path d="M7.75 15.18c4.24-5.76 6.88-5.48 13.31-.62l.67.5c4.83 3.67 7.12 4.94 10.4 4.94a2 2 0 0 0 0-4c-2.06 0-3.9-1.02-7.98-4.12l-.68-.52C19.71 8.53 17.51 7.3 14.77 7c-3.68-.4-7.05 1.48-10.24 5.83a2 2 0 1 0 3.22 2.36m80.78 0c-4.24-5.77-6.88-5.49-13.32-.63l-.67.5c-4.82 3.67-7.1 4.94-10.4 4.94a2 2 0 0 1 0-4c2.06 0 3.9-1.02 7.99-4.12l.67-.52C76.56 8.53 78.76 7.3 81.5 7c3.68-.4 7.06 1.48 10.25 5.83a2 2 0 1 1-3.22 2.36" fill="black" fill-opacity=".6"/></g><g id="top-hat-5e18784f"><path d="M187.32 138.76C226.9 129.26 254 109.87 254 87.5c0-23.5-29.92-43.72-72.8-52.63l-.31-1.43A40 40 0 0 0 141.82 2h-18.64A40 40 0 0 0 84.1 33.44l-.27 1.21C40.4 43.45 10 63.8 10 87.5c0 22.37 27.1 41.76 66.68 51.26q-.3-1.92-.47-3.9A12 12 0 0 1 66.01 123v-13a12 12 0 0 1 10.01-11.83V92c0-8 1.68-15.62 4.7-22.51 8.61-15.69 92.74-16.49 102.66.16A56 56 0 0 1 188 92v6.17A12 12 0 0 1 198 110v13a12 12 0 0 1-10.2 11.87 56 56 0 0 1-.48 3.9" fill="#863e52"/><path d="M188 92.74c3.85-3.25 6-6.9 6-10.74 0-6.08-5.38-11.65-14.32-15.98a12 12 0 0 1 3.68 3.63A56 56 0 0 1 188 92zm-31.74-33.75a144 144 0 0 0-24.26-2c-8.98 0-17.52.78-25.22 2.17 15.16-2.2 34.11-2.3 49.48-.17m-72.57 7.34C75.12 70.63 70 76.07 70 82c0 3.85 2.15 7.49 6 10.74V92c0-8 1.68-15.62 4.7-22.51a10 10 0 0 1 2.99-3.16" fill="black" fill-opacity=".5"/></g><clipPath id="clip-5e18784f"><rect width="280" height="280" rx="103.6" ry="103.6"/></clipPath></defs><g clip-path="url(#clip-5e18784f)"><g transform="translate(50.4, 0)"><path d="M140 36a56 56 0 0 0-56 56v6.17A12 12 0 0 0 74 110v14a12 12 0 0 0 10.3 11.88A56 56 0 0 0 116 180.6V199h-4a72 72 0 0 0-72 72v9h200v-9a72 72 0 0 0-72-72h-4v-18.38a56 56 0 0 0 31.7-44.73A12 12 0 0 0 206 124v-14a12 12 0 0 0-10-11.83V92a56 56 0 0 0-56-56" fill="url(#skin-color-5e18784f)"/><path d="M116 180.61v8a56 56 0 0 0 24 5.39 56 56 0 0 0 24-5.39v-8a56 56 0 0 1-24 5.39 56 56 0 0 1-24-5.39" fill="black" fill-opacity=".1"/><use transform="translate(40 184.7)" href="#clothes-graphicShirt-5e18784f"/><use transform="translate(94 140)" href="#mouth-default-5e18784f"/><use transform="translate(128 130)" href="#nose-default-5e18784f"/><use transform="translate(98 98)" href="#eyes-cry-5e18784f"/><use transform="translate(91.86 82)" href="#eyebrows-angry-5e18784f"/><use transform="translate(8)" href="#top-hat-5e18784f"/></g></g></svg>