<svg xmlns="http://www.w3.org/2000/svg" viewBox="0 0 280 280" fill="none" shape-rendering="auto" aria-hidden="true"><!-- Generated by DiceBear (https://dicebear.com) --><metadata xmlns:rdf="http://www.w3.org/1999/02/22-rdf-syntax-ns#" xmlns:xsi="http://www.w3.org/2001/XMLSchema-instance" xmlns:dc="http://purl.org/dc/elements/1.1/" xmlns:dcterms="http://purl.org/dc/terms/"><rdf:RDF><rdf:Description><dc:title>Avataaars</dc:title><dc:creator>Pablo Stanley</dc:creator><dc:source xsi:type="dcterms:URI">https://avataaars.com/</dc:source><dcterms:license xsi:type="dcterms:URI">https://avataaars.com/</dcterms:license><dc:rights>Remix of “Avataaars” (https://avataaars.com/) by “Pablo Stanley”, licensed under “Free for personal and commercial use” (https://avataaars.com/)</dc:rights></rdf:Description></rdf:RDF></metadata><defs><linearGradient id="skin-color-5179ee6d" gradientTransform="rotate(-128, 0.5, 0.5)"><stop offset="0%" stop-color="#edb98a"/><stop offset="100%" stop-color="#614335"/></linearGradient><g id="clothes-collarAndSweater-5179ee6d"><path d="M68.37 14.45A28 28 0 0 1 76 6.88v15.3C76 28 79.98 33.16 86.08 36.3l-.08.06.9 2.87c3.89 2 8.35 3.13 13.1 3.13s9.21-1.14 13.1-3.13l.9-2.87-.08-.06C120.02 33.16 124 28 124 22.18V7.58a27 27 0 0 1 6.6 6.82A72 72 0 0 1 200 86.36v8.95H0v-8.95a72 72 0 0 1 68.37-71.91" fill="#7365bd"/><path d="M76 6.88c-6.77 4.6-11 11.17-11 18.45 0 7.4 4.36 14.06 11.3 18.67l6.12-4.82 4.58.33-1-3.15.08-.06C79.98 33.16 76 28 76 22.18zm48 15.3c0 5.83-3.98 10.98-10.08 14.12l.08.06-1 3.15 4.58-.33 5.65 4.45c6.63-4.6 10.77-11.1 10.77-18.3 0-6.92-3.82-13.19-10-17.74z" fill="white" fill-opacity=".75"/></g><g id="mouth-default-5179ee6d"><path fill-rule="evenodd" clip-rule="evenodd" d="M32 9a14 14 0 1 0 28 0" fill="black" fill-opacity=".7"/></g><g id="nose-default-5179ee6d"><path fill-rule="evenodd" clip-rule="evenodd" d="M0 0c0 4.42 5.37 8 12 8s12-3.58 12-8" fill="black" fill-opacity=".16"/></g><g id="eyes-xDizzy-5179ee6d"><path d="M20.5 22.7 15 17.2l-5.5 5.5c-.4.4-1.1.4-1.6 0l-1.6-1.6c-.4-.4-.4-1.1 0-1.6l5.5-5.5-5.5-5.5c-.4-.5-.4-1.2 0-1.6l1.6-1.6c.4-.4 1.1-.4 1.6 0l5.5 5.5 5.5-5.5c.4-.4 1.1-.4 1.6 0l1.6 1.6c.4.4.4 1.1 0 1.6L18.2 14l5.5 5.5c.4.4.4 1.1 0 1.6l-1.6 1.6c-.4.4-1.1.4-1.6 0m54 0L69 17.2l-5.5 5.5c-.4.4-1.1.4-1.6 0l-1.6-1.6c-.4-.4-.4-1.1 0-1.6l5.5-5.5-5.5-5.5c-.4-.5-.4-1.2 0-1.6l1.6-1.6c.4-.4 1.1-.4 1.6 0l5.5 5.5 5.5-5.5c.4-.4 1.1-.4 1.6 0l1.6 1.6c.4.4.4 1.1 0 1.6L72.2 14l5.5 5.5c.4.4.4 1.1 0 1.6l-1.6 1.6c-.4.4-1.1.4-1.6 0" fill="black" fill-opacity=".6"/></g><g id="eyebrows-raisedExcitedNatural-5179ee6d"><path fill-rule="evenodd" clip-rule="evenodd" d="m14.9 1.58.91-.4C21.06-.9 29-.03 33.86 2.3c.57.27.18 1.15-.4 1.1C18.54 2.27 8.5 11.56 5.08 17.86c-.1.18-.4.2-.48.03C2.3 12.56 9.05 3.9 14.9 1.58m66.47 0-.91-.4C75.22-.9 67.27-.03 62.4 2.3c-.56.27-.18 1.15.4 1.1 14.93-1.14 24.98 8.15 28.4 14.45.1.18.4.2.47.03 2.3-5.32-4.45-13.98-10.3-16.3" fill="black" fill-opacity=".6"/></g><g id="top-hijab-5179ee6d"><path fill-rule="evenodd" clip-rule="evenodd" d="M65 77.34Q64 83.03 64 89v48q0 1.46.06 2.9L64 142c.14 3.68-1.86 11.8-4.34 21.9-3.88 15.77-8.94 36.4-8.94 52.55 0 13.01 1.98 22.84 3.89 32.3 1.97 9.78 3.86 19.16 3.39 31.25h47s-.95-13.2-2.47-26.36c10.05 10.2 22.82 16.84 39.05 16.84 70.55 0 77.62-53.83 77.62-65.24 0-6.04-4.32-10.88-8.39-15.44-3.6-4.05-7.02-7.87-7-12.1 0-4.35 1.02-7.4 2.07-10.52 1.12-3.33 2.27-6.75 2.27-11.96 0-5.82-1.43-7.5-2.9-9.25a10.7 10.7 0 0 1-2.8-5.62c-.87-4.54-1.86-14.32-2.45-20.77V89A68 68 0 0 0 65.04 77.08L65 77zM132 53c-30.1 0-55 24.4-55 54.5v23c0 30.1 24.9 54.5 55 54.5s55-24.4 55-54.5v-23c0-30.1-24.9-54.5-55-54.5" fill="#040d86"/><path d="M192.93 104.96A61 61 0 0 0 194 93.5c0-33.97-27.76-61.5-62-61.5S70 59.53 70 93.5q.01 5.89 1.07 11.46a61 61 0 0 1 121.86 0" fill="white" fill-opacity=".5"/><path d="M77.07 104.69q-.07 1.4-.07 2.81v23c0 30.1 24.9 54.5 55 54.5s55-24.4 55-54.5v-23q0-1.41-.07-2.81 1.06 5.25 1.07 10.81v23a54.5 54.5 0 0 1-54.5 54.5h-3A54.5 54.5 0 0 1 76 138.5v-23q.01-5.56 1.07-10.81m108.98 89.45c-4.39 6.9-17.9 13.66-34.65 16.62-16.74 2.95-31.75 1.22-38.23-3.76q.03.4.1.78c1.7 9.69 19.42 14.67 39.57 11.12s35.1-14.3 33.38-23.99q-.06-.38-.17-.77m11.6 15.35c-2.63 9.6-14.86 20.2-31.55 26.28-16.68 6.07-32.87 5.8-41.06.15q.14.5.32 1c4.53 12.44 24.47 16.6 44.55 9.3s32.67-23.32 28.15-35.75z" fill="black" fill-opacity=".16" opacity=".9"/></g><clipPath id="clip-5179ee6d"><rect width="280" height="280" rx="103.6" ry="103.6"/></clipPath></defs><g clip-path="url(#clip-5179ee6d)"><g transform="translate(50.4, 0)"><path d="M140 36a56 56 0 0 0-56 56v6.17A12 12 0 0 0 74 110v14a12 12 0 0 0 10.3 11.88A56 56 0 0 0 116 180.6V199h-4a72 72 0 0 0-72 72v9h200v-9a72 72 0 0 0-72-72h-4v-18.38a56 56 0 0 0 31.7-44.73A12 12 0 0 0 206 124v-14a12 12 0 0 0-10-11.83V92a56 56 0 0 0-56-56" fill="url(#skin-color-5179ee6d)"/><path d="M116 180.61v8a56 56 0 0 0 24 5.39 56 56 0 0 0 24-5.39v-8a56 56 0 0 1-24 5.39 56 56 0 0 1-24-5.39" fill="black" fill-opacity=".1"/><use transform="translate(40 184.7)" href="#clothes-collarAndSweater-5179ee6d"/><use transform="translate(94 140)" href="#mouth-default-5179ee6d"/><use transform="translate(128 130)" href="#nose-default-5179ee6d"/><use transform="translate(98 98)" href="#eyes-xDizzy-5179ee6d"/><use transform="translate(91.86 82)" href="#eyebrows-raisedExcitedNatural-5179ee6d"/><use transform="translate(8)" href="#top-hijab-5179ee6d"/></g></g></svg>