<svg xmlns="http://www.w3.org/2000/svg" viewBox="0 0 280 280" fill="none" shape-rendering="auto" aria-hidden="true"><!-- Generated by DiceBear (https://dicebear.com) --><metadata xmlns:rdf="http://www.w3.org/1999/02/22-rdf-syntax-ns#" xmlns:xsi="http://www.w3.org/2001/XMLSchema-instance" xmlns:dc="http://purl.org/dc/elements/1.1/" xmlns:dcterms="http://purl.org/dc/terms/"><rdf:RDF><rdf:Description><dc:title>Avataaars</dc:title><dc:creator>Pablo Stanley</dc:creator><dc:source xsi:type="dcterms:URI">https://avataaars.com/</dc:source><dcterms:license xsi:type="dcterms:URI">https://avataaars.com/</dcterms:license><dc:rights>Remix of “Avataaars” (https://avataaars.com/) by “Pablo Stanley”, licensed under “Free for personal and commercial use” (https://avataaars.com/)</dc:rights></rdf:Description></rdf:RDF></metadata><defs><linearGradient id="skin-color-d7898668" gradientTransform="rotate(-128, 0.5, 0.5)"><stop offset="0%" stop-color="#b6e3f4"/><stop offset="100%" stop-color="#9f6ff4"/></linearGradient><g id="clothes-overall-d7898668"><path d="M164 23.94V95.3H36V23.94a72 72 0 0 1 26-8.95v44.28h76V15a72 72 0 0 1 26 8.94" fill="#a5463c"/><path d="M54 68.3a5 5 0 1 1-10 0 5 5 0 0 1 10 0m102 0a5 5 0 1 1-10 0 5 5 0 0 1 10 0" fill="#F4F4F4"/></g><g id="mouth-screamOpen-d7898668"><path fill-rule="evenodd" clip-rule="evenodd" d="M26 32.86C27.14 18.88 30.24 7 46 7s18.92 11.94 20 26c.08 1.12-.83 2-1.96 2-6.69 0-9.37-2-18.05-2-8.7 0-13.26 2-17.9 2-1.17 0-2.2-.74-2.1-2.14" fill="black" fill-opacity=".7"/><path d="M59.02 11.57Q58.1 12 57 12H36c-.98 0-1.9-.28-2.67-.77C36.23 8.57 40.28 7 46 7c5.95 0 10.1 1.7 13.02 4.57" fill="white"/><path d="M61.8 34.92a44 44 0 0 1-5.54-.82c-2.73-.53-5.65-1.1-10.27-1.1-5.01 0-8.65.66-11.73 1.23-1.45.26-2.77.5-4.06.65A11 11 0 0 1 46 27.2a11 11 0 0 1 15.8 7.72" fill="#FF4F6D"/></g><g id="nose-default-d7898668"><path fill-rule="evenodd" clip-rule="evenodd" d="M0 0c0 4.42 5.37 8 12 8s12-3.58 12-8" fill="black" fill-opacity=".16"/></g><g id="eyes-winkWacky-d7898668"><circle cx="68" cy="14" r="12" fill="white"/><circle cx="68" cy="14" r="6" fill="black" fill-opacity=".7"/><path fill-rule="evenodd" clip-rule="evenodd" d="M2.16 17.45C4.01 13.65 8.16 11 13 11c4.81 0 8.96 2.63 10.82 6.4.55 1.13-.24 2.05-1.03 1.37a15 15 0 0 0-9.8-3.43c-3.73 0-7.12 1.24-9.55 3.23-.9.73-1.82-.01-1.28-1.12" fill="black" fill-opacity=".6"/></g><g id="eyebrows-frownNatural-d7898668"><path fill-rule="evenodd" clip-rule="evenodd" d="M28.5 6.88c-1.96 2.9-5.54 4.64-8.73 5.68-3.94 1.29-18.55 3.38-15.11 11.35.05.12.22.12.27 0 1.15-2.65 17.46-5.12 18.97-5.7 4.45-1.71 8.4-5.5 9.16-10.55.36-2.31-.63-6.05-1.54-7.55-.1-.18-.38-.13-.43.07-.36 1.33-1.4 4.97-2.58 6.7m39.28 0c1.97 2.9 5.54 4.64 8.74 5.68 3.96 1.29 18.57 3.38 15.13 11.35a.15.15 0 0 1-.28 0c-1.15-2.65-17.46-5.12-18.97-5.7-4.44-1.71-8.4-5.5-9.16-10.55-.35-2.31.64-6.05 1.55-7.55.1-.18.37-.13.43.07.35 1.33 1.4 4.97 2.57 6.7" fill="black" fill-opacity=".6"/></g><g id="top-longButNotTooLong-d7898668"><path d="M49 90.5c0 4.55 1.7 8.64 4.85 10.77.9.61 2.47.93 4.15 1.07V182a8 8 0 0 0 8 8h42v-9.39a56 56 0 0 1-31.8-45.74A12 12 0 0 1 66 123v-13a12 12 0 0 1 3.87-8.83c11.54-2.61 24.1-7.53 36.47-14.67 12.13-7 22.5-15.24 30.48-23.75a87 87 0 0 1-12.45 20.78q19-8.28 25.9-26.63.56 1.38 1.17 2.76c10.26 23.03 27.88 39.36 45.77 44.74.5 2.11.79 4.08.79 5.6v13a12 12 0 0 1-10.2 11.87A56 56 0 0 1 156 180.6v9.4h18a32 32 0 0 0 32-32v-54.12q0-.1-.03-.28c-.07-5.64-.28-18.87-.6-21.37A74 74 0 0 0 131.99 18c-36.08 0-66.14 25.83-73 60-5.54 0-10 5.6-10 12.5" fill="#620961"/><path d="M151.44 59.66c11.94 26.81 33.86 44.53 54.56 46.5V92A74 74 0 0 0 59.32 78H59c-5.52 0-10 5.6-10 12.5 0 6.48 3.95 11.81 9 12.44v.15l.95-.1H59a8 8 0 0 0 1.9-.24c13.8-1.77 29.78-7.23 45.44-16.27 12.13-7 22.5-15.25 30.48-23.76a87 87 0 0 1-12.45 20.78q19-8.28 25.9-26.63.56 1.38 1.17 2.76" fill="white" fill-opacity=".08"/></g><clipPath id="clip-d7898668"><rect width="280" height="280" rx="103.6" ry="103.6"/></clipPath></defs><g clip-path="url(#clip-d7898668)"><g transform="translate(50.4, 0)"><path d="M140 36a56 56 0 0 0-56 56v6.17A12 12 0 0 0 74 110v14a12 12 0 0 0 10.3 11.88A56 56 0 0 0 116 180.6V199h-4a72 72 0 0 0-72 72v9h200v-9a72 72 0 0 0-72-72h-4v-18.38a56 56 0 0 0 31.7-44.73A12 12 0 0 0 206 124v-14a12 12 0 0 0-10-11.83V92a56 56 0 0 0-56-56" fill="url(#skin-color-d7898668)"/><path d="M116 180.61v8a56 56 0 0 0 24 5.39 56 56 0 0 0 24-5.39v-8a56 56 0 0 1-24 5.39 56 56 0 0 1-24-5.39" fill="black" fill-opacity=".1"/><use transform="translate(40 184.7)" href="#clothes-overall-d7898668"/><use transform="translate(94 140)" href="#mouth-screamOpen-d7898668"/><use transform="translate(128 130)" href="#nose-default-d7898668"/><use transform="translate(98 98)" href="#eyes-winkWacky-d7898668"/><use transform="translate(91.86 82)" href="#eyebrows-frownNatural-d7898668"/><use transform="translate(8)" href="#top-longButNotTooLong-d7898668"/></g></g></svg>