<svg xmlns="http://www.w3.org/2000/svg" viewBox="0 0 280 280" fill="none" shape-rendering="auto" aria-hidden="true"><!-- Generated by DiceBear (https://dicebear.com) --><metadata xmlns:rdf="http://www.w3.org/1999/02/22-rdf-syntax-ns#" xmlns:xsi="http://www.w3.org/2001/XMLSchema-instance" xmlns:dc="http://purl.org/dc/elements/1.1/" xmlns:dcterms="http://purl.org/dc/terms/"><rdf:RDF><rdf:Description><dc:title>Avataaars</dc:title><dc:creator>Pablo Stanley</dc:creator><dc:source xsi:type="dcterms:URI">https://avataaars.com/</dc:source><dcterms:license xsi:type="dcterms:URI">https://avataaars.com/</dcterms:license><dc:rights>Remix of “Avataaars” (https://avataaars.com/) by “Pablo Stanley”, licensed under “Free for personal and commercial use” (https://avataaars.com/)</dc:rights></rdf:Description></rdf:RDF></metadata><defs><linearGradient id="skin-color-6f65e33d" gradientTransform="rotate(-128, 0.5, 0.5)"><stop offset="0%" stop-color="#3cf487"/><stop offset="100%" stop-color="#d08b5b"/></linearGradient><g id="clothes-hoodie-6f65e33d"><path d="M76 0C60.48 3.7 48.9 10.83 45.23 19.45A72 72 0 0 0 0 86.3v9h200v-9a72 72 0 0 0-45.23-66.86C151.1 10.83 139.52 3.69 124 0v17.3a24 24 0 1 1-48 0z" fill="#fe6128"/><path d="M70 48.64a67 67 0 0 1-7-2.81V95.3h7zm60 0a67 67 0 0 0 7-2.81V83.8a3.5 3.5 0 1 1-7 0z" fill="#F4F4F4"/><path d="M155.62 19.8a72 72 0 0 1 10.83 5.62c-1.34 15.5-30.58 27.89-66.45 27.89 30.93 0 56-13.44 56-30q0-1.79-.38-3.52m-111.24.01a17 17 0 0 0-.38 3.5c0 16.57 25.07 30 56 30-35.87 0-65.1-12.38-66.45-27.88a72 72 0 0 1 10.83-5.63" fill="black" fill-opacity=".16"/></g><g id="mouth-sad-6f65e33d"><path fill-rule="evenodd" clip-rule="evenodd" d="M32.06 21.72C32.7 14.7 38.7 10 46 10c7.34 0 13.36 4.75 13.95 11.85.03.38-.87.67-1.32.45Q50.32 18.14 46 18.14q-4.27 0-12.45 4.07c-.5.25-1.53-.07-1.5-.49" fill="black" fill-opacity=".7"/></g><g id="nose-default-6f65e33d"><path fill-rule="evenodd" clip-rule="evenodd" d="M0 0c0 4.42 5.37 8 12 8s12-3.58 12-8" fill="black" fill-opacity=".16"/></g><g id="eyes-eyeRoll-6f65e33d"><path d="M30 14a14 14 0 1 1-28 0 14 14 0 0 1 28 0m52 0a14 14 0 1 1-28 0 14 14 0 0 1 28 0" fill="white"/><path d="M22 6a6 6 0 1 1-12 0 6 6 0 0 1 12 0m52 0a6 6 0 1 1-12 0 6 6 0 0 1 12 0" fill="black" fill-opacity=".7"/></g><g id="eyebrows-angryNatural-6f65e33d"><path fill-rule="evenodd" clip-rule="evenodd" d="M11.43 5.01a7.2 7.2 0 0 0-6.44 2.43c-.6.73-1.55 2.48-1.5 3.42 0 .35.22.37 1.12.6 1.64.38 4.5-1.13 6.35-1 2.59.2 5.05 1.4 7.29 2.69 3.84 2.2 8.35 6.84 13.09 6.6.35-.02 5.42-1.74 4.4-2.72-.31-.49-3.02-1.13-3.5-1.36-2.16-1.09-4.36-2.45-6.43-3.72C21.28 9.18 16.86 5.6 11.42 5m73.62.01c2.37-.27 4.86.5 6.43 2.43.59.73 1.55 2.48 1.5 3.42 0 .35-.22.37-1.12.6-1.64.38-4.5-1.13-6.35-1-2.58.2-5.05 1.4-7.28 2.69-3.84 2.2-8.36 6.84-13.1 6.6-.35-.02-5.42-1.74-4.4-2.72.3-.49 3.03-1.13 3.5-1.36 2.17-1.09 4.36-2.45 6.44-3.72C75.19 9.18 79.6 5.6 85.04 5" fill="black" fill-opacity=".6"/></g><g id="top-dreads02-6f65e33d"><path fill-rule="evenodd" clip-rule="evenodd" d="M217.2 107.16a12.2 12.2 0 0 1-6.25-5.56 10 10 0 0 1 1.95-.13c2.27-.02 5.15-.04 4.62-2.87-.57-2.98-5.4-2.07-7.28-1.6a6 6 0 0 1 2.12-.62c1.49-.25 3-.51 3.3-2.33.54-3.18-3.28-3.08-5.07-2.4-.26-2.12 2-3.9 4.14-5.55 1.25-.97 2.45-1.9 3.08-2.85q.2-.3.43-.55c.47-.53.86-.97.3-2.08-1.15-2.35-3.94.32-5.33 1.66l-.37.43c.87-1.63 3.31-8.4 2.94-10.13-.53-2.52-2.33-2.6-3.77-.56-.62.88-.94 2.65-1.23 4.26-.15.81-.29 1.58-.45 2.16-.88-.65-1.4-.7-1.7-.74-.44-.04-.5-.05-.56-1.45-.04-1.02.8-2.7 1.56-4.16.4-.8.8-1.54.97-2.09l.3-.8c.52-1.37 1.23-3.19.64-4.24-1.78-3.15-3.48 1.17-3.94 2.65-.5-2.14.5-3.97 1.53-5.88.6-1.13 1.24-2.3 1.57-3.55.54-2.05 1.97-7.58-.5-8.56s-2.52 2.12-2.54 4.66c0 .93-.02 1.8-.15 2.34l-.03.13c-.37 1.57-.92 3.97-2.1 4.71-.18.11-2.83.34-2.96.2-1.1-1.29.42-3.53 1.74-5.49.76-1.13 1.46-2.17 1.55-2.87.22-1.73-.44-2.82-2.06-2.92-.46-.03-1.09.36-1.59.7-.4.24-.74.45-.9.41-1.06-.23-.35-3.82.18-6.5.2-1.04.38-1.94.42-2.46.15-2-.1-7.17-3.48-4.79l.16-2.06c.15-1.95.3-3.86.57-5.83.05-.37.18-.73.3-1.08.3-.97.61-1.86-.69-2.69-2.16-1.36-3.36 1.5-3.85 3.17-.26.9-.27 1.93-.28 2.95-.04 2.3-.07 4.45-2.87 4.52-3.34.07-2.59-2.42-1.84-4.99.3-1 .6-2 .65-2.88.12-1.74-1-6.42-3.27-3.26-.53.7-.64 2.5-.74 4.2a14 14 0 0 1-.34 2.9c-.56-.25-.37-1.4-.17-2.6s.4-2.45-.08-2.96c-1.5-1.64-2.82-.36-3.94.72-.4.4-.8.8-1.18.97l-.08-1.22-.16-3.12c-.03-.7.1-1.69.22-2.74.28-2.15.58-4.58-.34-5.6-2.33-2.59-3.82.43-4.5 2.53q-.15.43-.25.85c-.45 1.56-.83 2.93-2.98 3.15.08-1.09-.28-2.69-.65-4.37-.54-2.43-1.12-5-.39-6.35.27-.5.67-.59 1.07-.68.42-.1.85-.2 1.1-.8.83-1.9-.5-2.7-1.98-2.77-4.18-.18-3.8 3.31-3.47 6.58.22 2.04.42 4-.5 4.9-.55-.5-.54-1.03-.52-1.6.01-.6.03-1.24-.55-1.99-1.2-1.6-3.16-1.46-4.9-.73 0-.3.05-.93.15-1.72.41-3.49 1.2-10.26-3.24-6.09-.8.8-.99 1.88-1.17 2.95-.12.7-.23 1.37-.5 1.95-.7 1.45-2.4 3.6-3.35 4.78-.47-1.92.16-4.26.7-6.22l.12-.45c.12-.45.46-1.2.85-2.07.84-1.84 1.9-4.2 1.53-5.17-1.27-3.38-4.63.5-6.52 2.68-.45.51-.8.94-1.05 1.15-1.58 1.4-7.88 6.04-9.9 4.64-.32-.23-.36-.74-.4-1.3-.05-.65-.1-1.38-.62-1.83-.48-.37-2.48-.57-3.06-.5.36-1.5-.34-3.44-2.05-2.9-1.23.34-1.45 1.54-1.67 2.72-.16.88-.33 1.75-.9 2.25-1.5 1.3-3.18.3-4.85-.68-1.15-.68-2.3-1.36-3.4-1.3q.13-.5.4-1.28c.85-2.44 2.23-6.45-1.8-4.87-1.24.5-2.12 3.35-2.44 4.54q-.2.82-.32 1.42c-.4 1.82-.5 2.32-3.18 3.03.1-.63.1-1.3.1-1.98 0-1.25 0-2.53.55-3.54q.23-.44.7-1.04c1.15-1.53 2.8-3.7-.25-4.05-3.78-.39-4.26 4.7-4.6 8.2-.08.9-.16 1.7-.28 2.25-4.12-2.5-6.86.96-9.33 4.07l-.15.2c.45-1.43 1.56-15.57-2.96-11.25-.84.8-.53 1.84-.24 2.87.14.55.3 1.1.27 1.6-.08 1.3-.5 2.43-1 3.62A25 25 0 0 1 95 17.1q-.45.6-.7 1c-.33.45-.49.7-.7.73s-.48-.17-1.04-.6l-.38-.3c-2.43-1.88-3.58-6.63-3.46-9.53q0-.55.1-1.2c.22-2.24.5-5.2-2.5-4.35s-2.05 6.15-1.5 9.2l.2 1.26c.4 2.7.65 5.43.2 8.17-2.3-2.36-3.1.87-3.6 2.97-.16.63-.28 1.16-.42 1.4-.7 1.26-1.84 2.07-2.98 2.86q-.7.48-1.36 1c-.42-1.47.28-2.83.93-4.1.6-1.15 1.14-2.23.84-3.27-1.1-3.87-4.1.93-5.1 2.55l-.2.32c-.25.37-.7 1.42-1.2 2.6-.8 1.85-1.73 4.03-2.17 4.33-1.03.7-7.6-2.53-8.28-3.14-.55-.5-.76-1.45-.97-2.38-.25-1.1-.5-2.22-1.34-2.6-4.72-2.2-1.93 5.72-1 7.36a24.3 24.3 0 0 1 2.94 14.5 6.4 6.4 0 0 1-2.4-2.07 6 6 0 0 1-.88-2.53c-.2-.96-.36-1.88-.94-2.46-3.3-3.28-3.68 2.88-3.4 4.8.32 2.35 1.2 3.66 2.2 5.13.51.76 1.06 1.57 1.57 2.6.94 1.9.37 4.07-.2 6.23a26 26 0 0 0-.62 2.9c-3.43-3.3-18.2-.55-14.4 4.5 1.17 1.55 2.47.44 3.8-.7.93-.8 1.87-1.6 2.8-1.55 4.11.22 6.25 5.3 5.98 8.84-.5-1.9-2.42-3.76-3.75-1.44-.8 1.4.32 3.67 1.1 5.25l.28.57c-.9-.44-5.37-2.52-6.25-2.16-3.44 1.4 1.3 4.15 2.54 4.7 4.22 1.79 6.9 3.85 8.2 8.92a3.7 3.7 0 0 1-2.3-1.7c-.3-.43-.62-.88-1.25-1.34-.95-.7-1.4-.7-1.96-.73a4 4 0 0 1-1.13-.14l-.07-.02c-2.36-.61-5.4-1.41-8.04-.31-1.97.82-5.3 3.3-5.9 5.65-.77 2.87.84 3.6 2.9 2.14a10 10 0 0 0 2.08-2.23c1.1-1.45 2.12-2.82 4.5-2.73a6.6 6.6 0 0 1 4.64 2.33c.44.53.8 1.2 1.14 1.85.3.57.6 1.15.98 1.64.28.38.75.82 1.23 1.27.74.68 1.5 1.4 1.74 2 1.3 3.3-.87 6.26-2.63 8.67l-.45.63c-.42-.55-3.47-1.76-4.1-1.88-2.94-.56-4.04.8-2.2 3.52.3.45.8.77 1.29 1.08.43.28.85.55 1.15.9.37.46.66 1.04.94 1.62.27.54.54 1.08.88 1.53.92 1.24 2 2.08 3.1 2.94q.83.64 1.68 1.4c-.33.2-.46 0-.6-.18-.12-.17-.25-.34-.5-.24-.2.07-.47.04-.75 0-.3-.04-.6-.08-.87 0-.47.16-.64.68-.8 1.15-.1.36-.22.7-.45.8-1.9.75-3.84-.6-5.7-1.87-1.34-.94-2.64-1.85-3.9-1.92-1.6-.08-2.96 1-2.2 3.03.46 1.13 2.06 1.85 3.27 2.4l.8.35c3.23 1.65 6.47 2.87 9.94 1.6a14.7 14.7 0 0 0 9.68 3.7c-2 1-4 2.22-4.7 4.7a12 12 0 0 1-.9-1.16c-1.4-1.96-3.52-4.9-4.74-1.31-1.04 3.1 3.73 6.87 5.93 8.27a17 17 0 0 1-7.28.59q-.46-.06-1.04-.25c-1.4-.43-3.06-.92-2.2 2 1.13 3.83 7.6 2.37 10.13 1.62-1.78 1.5-9.56 11.7-2.8 9.38.95-.33 1.53-1.34 2.13-2.4.77-1.35 1.58-2.77 3.28-2.98 2.48-.3 3.38 1.37 4.4 3.28.44.8.9 1.62 1.48 2.37.4.5 1.3 1.2 2.28 1.98 1.58 1.24 3.3 2.6 3.17 3.28-.1.46-.72.82-1.4 1.2-.77.45-1.6.93-1.9 1.63-.62 1.56-.34 2.76.54 4.09 1.17 1.78 3.1 2.4 4.92 3q.87.3 1.67.62c3.17 1.3 4.3 2.86 5.73 6.2-2.5.13-9.62 7.37-5.26 8.66 1.12.33 1.35-.25 1.6-.9.12-.3.24-.6.45-.87l.55-1.02.27-.52q.7-1.8 1.52-.22c.07-.02.47.08.9.18.4.09.87.2 1.04.22 1.2.07 2.1-.53 3.03-1.15q.6-.4 1.24-.75.48-.2.94-.35c.69-.22 1.34-.42 1.87-1.23-.1.13.56-2.5.57-2.54.13-.3.38-.45.63-.6.25-.13.5-.28.68-.63a55.8 55.8 0 0 1-15.5-34.47 12 12 0 0 1-8.3-11.28v-13a12 12 0 0 1 7.5-11.13c.53.38 1.27 0 1.5-.84-.46-1.5 3.3-27.85 13-34.87 3.62-2.44 23-2.62 42.31-2.6 19.1 0 38.11.18 41.69 2.6 9.7 7.02 13.46 33.37 13 34.87.23.84.97 1.22 1.5.84A12 12 0 0 1 196 110v13a12 12 0 0 1-8.17 11.38 55.7 55.7 0 0 1-11.07 29.28q.31 1.2.55 2.5c.18 1.1.23 2.14.28 3.15.1 2.04.2 3.94 1.37 5.95q.3.48.66.86c.33.38.66.76.86 1.28.16.44.2 1.05.25 1.68.1 1.4.2 2.92 1.7 2.92 3.1 0 1.37-5.97.6-7.38q-.45-.8-.82-1.41c-1.03-1.74-1.63-2.74-1.57-5.64 1.75 1.16 7.53 3.38 9.45 2.32 3.5-1.94-2.69-3.9-5.83-4.89a12 12 0 0 1-1.6-.56c.63-.63 1.3-1.14 1.97-1.66a14 14 0 0 0 3.22-3.1q.37-.52.73-1.1c1.01-1.6 2.1-3.3 3.82-3.39.4-.09 1.04.3 1.77.6 1.46.7 3.24 1.54 3.94.2.82-1.4-.18-1.9-1.07-2.34q-.46-.19-.78-.43c-.54-.45-.94-.57-1.19-.65-.45-.12-.5-.13-.27-1.48 1.1 1.17 2.8.43 3.25-1 .3-.93-.16-1.47-.56-1.96-.28-.34-.55-.66-.54-1.07 0 .4.83-5.1.7-4.93.85-1.12 3.8-.8 5.34-.63h.07c2.13.24 2.17.31 3.03 2.02l.22.42c.88 1.72 3.2 5.18 3.7.64.13-1.06-.86-3.38-1.44-4.32a5 5 0 0 0-1.6-1.33c-.6-.37-1.13-.7-1.32-1.1-.48-.94.08-2.47.68-4.12.6-1.6 1.22-3.33.96-4.73.3.12.73.7 1.23 1.38 1.3 1.75 3 4.07 3.96.22.33-1.26-1-3.24-2.27-5.1-1.48-2.2-2.86-4.28-1.24-4.79 2.29-.73 4.6 2.22 5.25 4.04.2.56.27 1.37.35 2.22.12 1.2.24 2.48.72 3.14 3.03 4.21 3.4-2.74 3.16-4.57-.56-4.02-2-6.98-5.63-8.5 1.14-1.42 0-2.58-.91-3.53l-.37-.37c.55-.6 2.22-.75 4-.9 3.13-.29 6.62-.6 5.2-3.43-.4-.76-1.53-1.08-2.5-1.34q-.55-.14-.96-.3M58.5 138.8q0-.2-.36.1z" fill="#5c6213"/></g><clipPath id="clip-6f65e33d"><rect width="280" height="280" rx="103.6" ry="103.6"/></clipPath></defs><g clip-path="url(#clip-6f65e33d)"><g transform="translate(50.4, 0)"><path d="M140 36a56 56 0 0 0-56 56v6.17A12 12 0 0 0 74 110v14a12 12 0 0 0 10.3 11.88A56 56 0 0 0 116 180.6V199h-4a72 72 0 0 0-72 72v9h200v-9a72 72 0 0 0-72-72h-4v-18.38a56 56 0 0 0 31.7-44.73A12 12 0 0 0 206 124v-14a12 12 0 0 0-10-11.83V92a56 56 0 0 0-56-56" fill="url(#skin-color-6f65e33d)"/><path d="M116 180.61v8a56 56 0 0 0 24 5.39 56 56 0 0 0 24-5.39v-8a56 56 0 0 1-24 5.39 56 56 0 0 1-24-5.39" fill="black" fill-opacity=".1"/><use transform="translate(40 184.7)" href="#clothes-hoodie-6f65e33d"/><use transform="translate(94 140)" href="#mouth-sad-6f65e33d"/><use transform="translate(128 130)" href="#nose-default-6f65e33d"/><use transform="translate(98 98)" href="#eyes-eyeRoll-6f65e33d"/><use transform="translate(91.86 82)" href="#eyebrows-angryNatural-6f65e33d"/><use transform="translate(8)" href="#top-dreads02-6f65e33d"/></g></g></svg>