<svg xmlns="http://www.w3.org/2000/svg" viewBox="0 0 280 280" fill="none" shape-rendering="auto" aria-hidden="true"><!-- Generated by DiceBear (https://dicebear.com) --><metadata xmlns:rdf="http://www.w3.org/1999/02/22-rdf-syntax-ns#" xmlns:xsi="http://www.w3.org/2001/XMLSchema-instance" xmlns:dc="http://purl.org/dc/elements/1.1/" xmlns:dcterms="http://purl.org/dc/terms/"><rdf:RDF><rdf:Description><dc:title>Avataaars</dc:title><dc:creator>Pablo Stanley</dc:creator><dc:source xsi:type="dcterms:URI">https://avataaars.com/</dc:source><dcterms:license xsi:type="dcterms:URI">https://avataaars.com/</dcterms:license><dc:rights>Remix of “Avataaars” (https://avataaars.com/) by “Pablo Stanley”, licensed under “Free for personal and commercial use” (https://avataaars.com/)</dc:rights></rdf:Description></rdf:RDF></metadata><defs><linearGradient id="skin-color-9a685298" gradientTransform="rotate(-128, 0.5, 0.5)"><stop offset="0%" stop-color="#5096bc"/><stop offset="100%" stop-color="#9f6ff4"/></linearGradient><g id="clothesGraphic-hola-9a685298"><path d="M63.84 16q-.43.98-.82 1.95L63 18l2-.16A19 19 0 0 0 63.84 16m-10.62.3c.2-.06.42-.13.7-.3.15.42.26 3.29-1.35 2.98-.92-.18-.5-1.77-.25-2.1.34-.41.6-.49.9-.58" fill="white"/><path fill-rule="evenodd" clip-rule="evenodd" d="M74.64 15.95C73.46 10.68 70.6 6.97 66.18 4c-3.35-2.25-6.5-2.23-10.46-1.75a24 24 0 0 0-9.2 2.94c-5.04 2.89-7.92 6.74-8.6 12.54-.28 2.33-.33 5.1.5 7.32.48 1.3 1.34 2.34 2.25 3.36.15.17.5.47.86.79.6.52 1.26 1.1 1.28 1.29.12.86-2.2 3.4-2.89 4.15l-.12.14c-.23.25-.73.6-1.3.99-1.02.7-2.25 1.55-2.43 2.2-.83 2.93 5.83 1.89 7.45 1.63a37 37 0 0 0 4.62-.98q1.06-.3 2.07-.72c.56-.23 1.17-.7 1.78-1.16.7-.52 1.38-1.03 1.97-1.2a6 6 0 0 1 2.1.02c.6.07 1.2.14 1.7.1a26 26 0 0 0 4.5-.88 19 19 0 0 0 7.05-3.84c4.42-3.76 6.6-9.24 5.33-15m-5.13 7c-.62.15-1.36-1.25-1.08-1.73.77-1.34 2.16 1.42 1.08 1.72m-2.22-9.38c-.27 1.1.12 2.95.4 4.05.04.36.4.47.7.43.55-.08.45-.56.36-.97q-.05-.24-.06-.4c.04-.75.11-2.64-.17-3.32-.5-1.26-.97-1.02-1.27.21m-.65 8.33c-.58.34-.86-.29-1.05-.74q-.08-.2-.16-.32a1.4 1.4 0 0 1-.29-.72c0-.18-.02-.22-.58-.39-1.77-.52-1.8.7-1.84 1.94 0 .72-.03 1.45-.39 1.84-1.78 1.91-.58-3.68-.37-4.68l.03-.1.12-.67c.34-1.95 1.02-5.85 2.67-3.1.5.8 2.7 6.5 1.87 6.98m-10.37-.95c.6.6 3.7.22 4.02-.34.68-1.18-1.85-.85-2.78-.73l-.29.03q.08-1.12.21-2.27c.12-1.05.24-2.1.23-3.15v-.17c.02-.62.06-1.94-.96-1.2-.34.24-.33 1.18-.33 1.81v.46c-.02.23-.08.6-.15 1.02-.24 1.51-.6 3.87.04 4.54m-.77-2.78c-1.43 5.73-6.98 2.64-4.5-1.7.46-.8.83-.99 1.41-1.27q.32-.14.75-.4.07-.05.06-.27c0-.27.01-.65.42-.64 1.76.03 2.18 2.93 1.85 4.28m-7 .83c-.04.88-.14 3.31.97 3.01.76-.19.54-9.97-.33-9.97-.92 0-.75 1.78-.6 3.33.1 1 .2 1.91-.04 2.17-.1.12-.5.1-.84.06h-.4c-1.15.2-1.9.08-2.25-.6-.1-.2-.1-.7-.1-1.3 0-1.33-.02-2.96-1.15-1.5l.03 2.2q.5 1.08-.38 1.32c-.02.3.16.58.28.77q.11.16.12.24.02.24 0 .67c-.09 1.26-.2 3.54.91 3.4.71-.08.5-2.28.37-3.42l-.05-.6.91.03c.86.04 1.73.08 2.56-.03z" fill="white"/></g><g id="clothes-graphicShirt-9a685298"><path d="M100.5 39.3c18.5 0 33.5-9.62 33.5-21.5q0-1.64-.38-3.23A72 72 0 0 1 200 86.36v8.95H0v-8.95A72 72 0 0 1 67.4 14.5a14 14 0 0 0-.4 3.3c0 11.88 15 21.5 33.5 21.5" fill="#ffffff"/><use transform="translate(45 44.3)" href="#clothesGraphic-hola-9a685298"/></g><g id="mouth-concerned-9a685298"><path fill-rule="evenodd" clip-rule="evenodd" d="M27.12 23.87a19 19 0 0 1 37.77.09c.08.77-.77 2.04-1.85 2.04H29.1c-1.1 0-2.1-1.18-1.98-2.13" fill="black" fill-opacity=".7"/><path d="M61.59 26H30.4A11 11 0 0 1 46 19.2 11 11 0 0 1 61.6 26" fill="#FF4F6D"/><path d="M58.57 11.75A5 5 0 0 1 57 12H36q-1.22-.02-2.24-.53A19 19 0 0 1 46 7c4.82 0 9.22 1.8 12.57 4.75" fill="white"/></g><g id="nose-default-9a685298"><path fill-rule="evenodd" clip-rule="evenodd" d="M0 0c0 4.42 5.37 8 12 8s12-3.58 12-8" fill="black" fill-opacity=".16"/></g><g id="eyes-wink-9a685298"><path d="M22 14a6 6 0 1 1-12 0 6 6 0 0 1 12 0" fill="black" fill-opacity=".6"/><path fill-rule="evenodd" clip-rule="evenodd" d="M56.6 16.96c1.59-3.92 5.55-6.86 10.37-7.2 4.8-.33 9.12 2 11.24 5.64.63 1.1-.1 2.06-.93 1.43-2.6-1.93-6.15-3-10-2.73a15 15 0 0 0-9.33 3.9c-.84.79-1.81.11-1.35-1.03" fill="black" fill-opacity=".6"/></g><g id="eyebrows-defaultNatural-9a685298"><path fill-rule="evenodd" clip-rule="evenodd" d="M18.68 6.15c-5.8.27-15.2 4.49-14.95 10.34 0 .15.3.24.43.1 2.75-2.97 22.31-5.96 29.2-4.37.63.14 1.11-.48.71-.93-3.42-3.82-10.17-5.4-15.39-5.15m59.91 0c5.8.27 15.2 4.49 14.95 10.34 0 .15-.29.24-.42.1-2.76-2.97-22.32-5.96-29.2-4.37-.64.14-1.12-.48-.72-.93 3.42-3.84 10.2-5.42 15.4-5.17" fill="black" fill-opacity=".6"/></g><g id="top-straight02-9a685298"><path d="M156 180.61V199h4a71.7 71.7 0 0 1 46 16.6V92a74 74 0 0 0-148 0v183.72A28 28 0 0 0 82 248v-45.58a72 72 0 0 1 22-3.42h4v-18.39a56.2 56.2 0 0 1-26-25.36V93.27a150 150 0 0 0 28.34-12.77c15.4-8.9 28.1-19.56 36.73-30.1 1.76 5.2 4.1 10.4 7.04 15.48 8.8 15.2 21.15 26.35 33.9 32.04v.25q.6.1 1.2.26 1.17.48 2.34.9A12 12 0 0 1 198 110v13a12 12 0 0 1-10.22 11.87A56 56 0 0 1 156 180.6" fill="#624f56"/><path d="M156 199v-18.39a56 56 0 0 0 31.8-45.74A12 12 0 0 0 198 123v-13a12 12 0 0 0-6.5-10.66 45 45 0 0 0 14.5 2.8v113.47A71.7 71.7 0 0 0 160 199zm-74 3.42v-47.17a56.2 56.2 0 0 0 26 25.36V199h-4c-7.67 0-15.07 1.2-22 3.42m106-104.5v.25q.6.1 1.18.26z" fill="black" fill-opacity=".27"/></g><g id="facialHair-beardMajestic-9a685298"><path fill-rule="evenodd" clip-rule="evenodd" d="M41.18 51.74c2.18-1.64 15.23-2.26 17.58-3.65q1.09-.65 1.74-1.31.65.67 1.74 1.3c2.35 1.4 15.4 2.02 17.58 3.66 2.21 1.65 3.82 5.44 3.65 8.4-.22 3.57-4.1 12.06-13.8 13.04a12.3 12.3 0 0 0-9.17-3.87 12.3 12.3 0 0 0-9.17 3.87c-9.7-.98-13.58-9.47-13.8-13.03-.17-2.97 1.44-6.76 3.65-8.41M120.85 30c-.38-5.97-1.57-11.85-2.62-17.71-.28-1.58-1.8-12.3-2.5-12.3-.23 9.1-1.03 18.09-2.06 27.15-.3 2.7-.63 5.42-.84 8.13-.18 2.2.13 4.85-.4 6.98-.68 2.7-4.08 5.23-6.73 6.16-6.6 2.33-12.1-7.3-17.74-10.12-7.32-3.66-19.9-4.53-27.38.24-7.64-4.77-20.22-3.9-27.54-.24C27.4 41.11 21.9 50.74 15.3 48.41c-2.65-.93-6.05-3.46-6.73-6.16-.53-2.13-.22-4.78-.4-6.98-.2-2.71-.53-5.42-.84-8.13A308 308 0 0 1 5.27 0c-.7 0-2.22 10.7-2.5 12.29C1.72 18.15.53 24.03.14 29.99q-.58 9.18 1.33 18.17.91 4.3 2.05 8.54c.83 3.15-.32 9.27.05 12.5.7 6.1 3.58 18 6.81 23.25 1.56 2.54 3.4 4.12 5.44 6.17 1.96 1.97 2.78 5.02 4.9 7.12 3.96 3.9 9.73 6.23 15.65 6.8 5.3 4.5 14.14 7.46 24.13 7.46 10 0 18.82-2.95 24.13-7.46 5.92-.57 11.69-2.9 15.64-6.8 2.13-2.1 2.95-5.15 4.91-7.12 2.05-2.05 3.88-3.63 5.44-6.17 3.23-5.25 6.1-17.15 6.8-23.26.38-3.22-.77-9.34.06-12.5q1.14-4.22 2.05-8.53c1.25-6 1.73-12.06 1.33-18.17" fill="#2c1b18"/></g><g id="accessories-kurt-9a685298"><path d="M65.23 54.11c-11.03 0-12.63-9.08-35.33-10.37C7.22 42.72.05 49.44 0 54.11c.05 4.3-1.12 15.45 13.6 28.52 14.77 15.51 29.9 10.25 35.33 5.18 5.44-2.34 11.64-23.35 16.3-23.33s10.87 21 16.3 23.33c5.43 5.07 20.57 10.33 35.34-5.18 14.72-13.07 13.55-24.23 13.59-28.52-.04-4.66-7.21-11.4-29.9-10.37-22.7 1.29-24.29 10.37-35.33 10.37" fill="black" fill-opacity=".1"/><path d="M65.23 52.11c-11.03 0-12.63-9.08-35.33-10.37C7.22 40.72.05 47.44 0 52.11c.05 4.3-1.12 15.45 13.6 28.52 14.77 15.51 29.9 10.25 35.33 5.18 5.44-2.34 11.64-23.35 16.3-23.33s10.87 21 16.3 23.33c5.43 5.07 20.57 10.33 35.34-5.18 14.72-13.07 13.55-24.23 13.59-28.52-.04-4.66-7.21-11.4-29.9-10.37-22.7 1.29-24.29 10.37-35.33 10.37" fill="#ff488e"/><path d="M27.19 46.93c14.26-.29 27.55 7.9 27.17 15.55-.22 5.05-2.93 22.83-19.02 23.33-16.1.5-24.8-17.79-24.46-25.92.2-3.51 2.05-12.67 16.3-12.96m76.1 0c-14.26-.29-27.56 7.9-27.18 15.55.22 5.05 2.94 22.83 19.03 23.33s24.8-17.79 24.46-25.92c-.2-3.51-2.06-12.67-16.31-12.96" fill="#2F383B"/></g><clipPath id="clip-9a685298"><rect width="280" height="280" rx="103.6" ry="103.6"/></clipPath></defs><g clip-path="url(#clip-9a685298)"><g transform="translate(50.4, 0)"><path d="M140 36a56 56 0 0 0-56 56v6.17A12 12 0 0 0 74 110v14a12 12 0 0 0 10.3 11.88A56 56 0 0 0 116 180.6V199h-4a72 72 0 0 0-72 72v9h200v-9a72 72 0 0 0-72-72h-4v-18.38a56 56 0 0 0 31.7-44.73A12 12 0 0 0 206 124v-14a12 12 0 0 0-10-11.83V92a56 56 0 0 0-56-56" fill="url(#skin-color-9a685298)"/><path d="M116 180.61v8a56 56 0 0 0 24 5.39 56 56 0 0 0 24-5.39v-8a56 56 0 0 1-24 5.39 56 56 0 0 1-24-5.39" fill="black" fill-opacity=".1"/><use transform="translate(40 184.7)" href="#clothes-graphicShirt-9a685298"/><use transform="translate(94 140)" href="#mouth-concerned-9a685298"/><use transform="translate(128 130)" href="#nose-default-9a685298"/><use transform="translate(98 98)" href="#eyes-wink-9a685298"/><use transform="translate(91.86 82)" href="#eyebrows-defaultNatural-9a685298"/><use transform="translate(8)" href="#top-straight02-9a685298"/><use transform="translate(81 98)" href="#facialHair-beardMajestic-9a685298"/><use transform="translate(75.77 46)" href="#accessories-kurt-9a685298"/></g></g></svg>