<svg xmlns="http://www.w3.org/2000/svg" viewBox="0 0 280 280" fill="none" shape-rendering="auto" aria-hidden="true"><!-- Generated by DiceBear (https://dicebear.com) --><metadata xmlns:rdf="http://www.w3.org/1999/02/22-rdf-syntax-ns#" xmlns:xsi="http://www.w3.org/2001/XMLSchema-instance" xmlns:dc="http://purl.org/dc/elements/1.1/" xmlns:dcterms="http://purl.org/dc/terms/"><rdf:RDF><rdf:Description><dc:title>Avataaars</dc:title><dc:creator>Pablo Stanley</dc:creator><dc:source xsi:type="dcterms:URI">https://avataaars.com/</dc:source><dcterms:license xsi:type="dcterms:URI">https://avataaars.com/</dcterms:license><dc:rights>Remix of “Avataaars” (https://avataaars.com/) by “Pablo Stanley”, licensed under “Free for personal and commercial use” (https://avataaars.com/)</dc:rights></rdf:Description></rdf:RDF></metadata><defs><linearGradient id="skin-color-c8562266" gradientTransform="rotate(-128, 0.5, 0.5)"><stop offset="0%" stop-color="#fd9841"/><stop offset="100%" stop-color="#ae5d29"/></linearGradient><g id="clothes-collarAndSweater-c8562266"><path d="M68.37 14.45A28 28 0 0 1 76 6.88v15.3C76 28 79.98 33.16 86.08 36.3l-.08.06.9 2.87c3.89 2 8.35 3.13 13.1 3.13s9.21-1.14 13.1-3.13l.9-2.87-.08-.06C120.02 33.16 124 28 124 22.18V7.58a27 27 0 0 1 6.6 6.82A72 72 0 0 1 200 86.36v8.95H0v-8.95a72 72 0 0 1 68.37-71.91" fill="#44fe11"/><path d="M76 6.88c-6.77 4.6-11 11.17-11 18.45 0 7.4 4.36 14.06 11.3 18.67l6.12-4.82 4.58.33-1-3.15.08-.06C79.98 33.16 76 28 76 22.18zm48 15.3c0 5.83-3.98 10.98-10.08 14.12l.08.06-1 3.15 4.58-.33 5.65 4.45c6.63-4.6 10.77-11.1 10.77-18.3 0-6.92-3.82-13.19-10-17.74z" fill="white" fill-opacity=".75"/></g><g id="mouth-concerned-c8562266"><path fill-rule="evenodd" clip-rule="evenodd" d="M27.12 23.87a19 19 0 0 1 37.77.09c.08.77-.77 2.04-1.85 2.04H29.1c-1.1 0-2.1-1.18-1.98-2.13" fill="black" fill-opacity=".7"/><path d="M61.59 26H30.4A11 11 0 0 1 46 19.2 11 11 0 0 1 61.6 26" fill="#FF4F6D"/><path d="M58.57 11.75A5 5 0 0 1 57 12H36q-1.22-.02-2.24-.53A19 19 0 0 1 46 7c4.82 0 9.22 1.8 12.57 4.75" fill="white"/></g><g id="nose-default-c8562266"><path fill-rule="evenodd" clip-rule="evenodd" d="M0 0c0 4.42 5.37 8 12 8s12-3.58 12-8" fill="black" fill-opacity=".16"/></g><g id="eyes-closed-c8562266"><path fill-rule="evenodd" clip-rule="evenodd" d="M2.16 19.55C4.01 23.35 8.16 26 13 26c4.81 0 8.96-2.63 10.82-6.4.55-1.13-.24-2.05-1.03-1.37a15 15 0 0 1-9.8 3.43c-3.73 0-7.12-1.24-9.55-3.23-.9-.73-1.82.01-1.28 1.12m58 0c1.85 3.8 6 6.45 10.84 6.45 4.81 0 8.96-2.63 10.82-6.4.55-1.13-.24-2.05-1.03-1.37a15 15 0 0 1-9.8 3.43c-3.76 0-7.15-1.24-9.58-3.23-.9-.73-1.82.01-1.28 1.12" fill="black" fill-opacity=".6"/></g><g id="eyebrows-raisedExcited-c8562266"><path d="M8.11 17.13C9.61 7.6 22.2 1.1 31.31 5.3a2 2 0 0 0 1.66-3.63C21.5-3.63 6.07 4.33 4.17 16.5a2 2 0 1 0 3.94.63m80.05 0C86.66 7.6 74.08 1.1 64.97 5.3a2 2 0 0 1-1.67-3.63c11.5-5.3 26.9 2.66 28.81 14.83a2 2 0 0 1-3.95.63" fill="black" fill-opacity=".6"/></g><g id="top-froBand-c8562266"><path d="M249 70.5q0 1.2-.1 2.37A57.7 57.7 0 0 1 260 107c0 7.16-1.3 14.01-3.67 20.34q.67 2.98.67 6.16c0 9.79-4.93 18.42-12.45 23.56a53.5 53.5 0 0 1-53.86 29.63A36.4 36.4 0 0 1 167.5 195c-4.02 0-7.88-.65-11.5-1.85v-12.54a56 56 0 0 0 31.8-45.74A12 12 0 0 0 198 123v-13a12 12 0 0 0-10-11.83V92a56 56 0 0 0-2.22-15.68l1.37 12.87-11.34-24-45.13-19.52-30.12 10.56-21.5 20.2-.04-2.61A56 56 0 0 0 76 92v6.17A12 12 0 0 0 66 110v13a12 12 0 0 0 10.2 11.87A56 56 0 0 0 108 180.6v10.94A36 36 0 0 1 92.5 195a36.4 36.4 0 0 1-23.19-8.31q-2.86.3-5.81.31a53.5 53.5 0 0 1-48.05-29.94 28.5 28.5 0 0 1-11.78-29.72A58 58 0 0 1 0 107a57.7 57.7 0 0 1 11.1-34.13 28.5 28.5 0 0 1 16-28.04 55 55 0 0 1 47.55-31.78 28.4 28.4 0 0 1 26.6-7.24A84 84 0 0 1 132 0a84 84 0 0 1 29.4 5.3q2.01-.3 4.1-.3a28.4 28.4 0 0 1 19.85 8.05 55 55 0 0 1 47.55 31.78A28.5 28.5 0 0 1 249 70.5" fill="#622c5c"/><path d="M187.37 98.98q.62-3.84.63-7.83C188 62.35 162.7 39 131.5 39S75 62.35 75 91.15q0 4 .63 7.82c4.1-25.09 27.55-44.32 55.87-44.32s51.78 19.23 55.87 44.33" fill="#92D9FF"/></g><clipPath id="clip-c8562266"><rect width="280" height="280" rx="103.6" ry="103.6"/></clipPath></defs><g clip-path="url(#clip-c8562266)"><g transform="translate(50.4, 0)"><path d="M140 36a56 56 0 0 0-56 56v6.17A12 12 0 0 0 74 110v14a12 12 0 0 0 10.3 11.88A56 56 0 0 0 116 180.6V199h-4a72 72 0 0 0-72 72v9h200v-9a72 72 0 0 0-72-72h-4v-18.38a56 56 0 0 0 31.7-44.73A12 12 0 0 0 206 124v-14a12 12 0 0 0-10-11.83V92a56 56 0 0 0-56-56" fill="url(#skin-color-c8562266)"/><path d="M116 180.61v8a56 56 0 0 0 24 5.39 56 56 0 0 0 24-5.39v-8a56 56 0 0 1-24 5.39 56 56 0 0 1-24-5.39" fill="black" fill-opacity=".1"/><use transform="translate(40 184.7)" href="#clothes-collarAndSweater-c8562266"/><use transform="translate(94 140)" href="#mouth-concerned-c8562266"/><use transform="translate(128 130)" href="#nose-default-c8562266"/><use transform="translate(98 98)" href="#eyes-closed-c8562266"/><use transform="translate(91.86 82)" href="#eyebrows-raisedExcited-c8562266"/><use transform="translate(8)" href="#top-froBand-c8562266"/></g></g></svg>