<svg xmlns="http://www.w3.org/2000/svg" viewBox="0 0 280 280" fill="none" shape-rendering="auto" aria-hidden="true"><!-- Generated by DiceBear (https://dicebear.com) --><metadata xmlns:rdf="http://www.w3.org/1999/02/22-rdf-syntax-ns#" xmlns:xsi="http://www.w3.org/2001/XMLSchema-instance" xmlns:dc="http://purl.org/dc/elements/1.1/" xmlns:dcterms="http://purl.org/dc/terms/"><rdf:RDF><rdf:Description><dc:title>Avataaars</dc:title><dc:creator>Pablo Stanley</dc:creator><dc:source xsi:type="dcterms:URI">https://avataaars.com/</dc:source><dcterms:license xsi:type="dcterms:URI">https://avataaars.com/</dcterms:license><dc:rights>Remix of “Avataaars” (https://avataaars.com/) by “Pablo Stanley”, licensed under “Free for personal and commercial use” (https://avataaars.com/)</dc:rights></rdf:Description></rdf:RDF></metadata><defs><linearGradient id="skin-color-51be05e6" gradientTransform="rotate(-128, 0.5, 0.5)"><stop offset="0%" stop-color="#b6e3f4"/><stop offset="100%" stop-color="#3cf487"/></linearGradient><g id="clothes-blazerAndShirt-51be05e6"><path d="M100.5 37.13c18.5 0 33.5-9.61 33.5-21.48q0-.52-.04-1.05A72 72 0 0 1 200 86.36v8.95H0v-8.95a72 72 0 0 1 67.05-71.83q-.05.55-.05 1.12c0 11.87 15 21.48 33.5 21.48" fill="#E6E6E6"/><path d="M100.5 44.07c21.89 0 39.63-12.05 39.63-26.92q0-.9-.08-1.79-3-.51-6.1-.76.06.52.05 1.05c0 11.87-15 21.48-33.5 21.48S67 27.52 67 15.65q0-.57.05-1.12-3.08.2-6.08.67-.1.97-.1 1.95c0 14.87 17.74 26.92 39.63 26.92" fill="black" fill-opacity=".16"/><path d="M68.78 14.43 69 13.3c-2.96.06-6 1-6 1l-.42.67A72 72 0 0 0 0 86.36v8.95h74s-10.7-51.56-5.24-80.8zM126 95.3s11-53 5-82c2.96.06 6 1 6 1l.42.67A72 72 0 0 1 200 86.36v8.95z" fill="#76fe4a"/><path fill-rule="evenodd" clip-rule="evenodd" d="M69 13.3c-6 29 5 82 5 82H58l-14-36 6-9-6-6 19-30s3.04-.94 6-1m62 0c6 29-5 82-5 82h16l14-36-6-9 6-6-19-30s-3.04-.94-6-1" fill="black" fill-opacity=".15"/><path d="m151.42 71.07.87-2.24 6.27-4.7a4 4 0 0 1 4.85.05l6.6 5.13z" fill="#E6E6E6"/></g><g id="mouth-default-51be05e6"><path fill-rule="evenodd" clip-rule="evenodd" d="M32 9a14 14 0 1 0 28 0" fill="black" fill-opacity=".7"/></g><g id="nose-default-51be05e6"><path fill-rule="evenodd" clip-rule="evenodd" d="M0 0c0 4.42 5.37 8 12 8s12-3.58 12-8" fill="black" fill-opacity=".16"/></g><g id="eyes-winkWacky-51be05e6"><circle cx="68" cy="14" r="12" fill="white"/><circle cx="68" cy="14" r="6" fill="black" fill-opacity=".7"/><path fill-rule="evenodd" clip-rule="evenodd" d="M2.16 17.45C4.01 13.65 8.16 11 13 11c4.81 0 8.96 2.63 10.82 6.4.55 1.13-.24 2.05-1.03 1.37a15 15 0 0 0-9.8-3.43c-3.73 0-7.12 1.24-9.55 3.23-.9.73-1.82-.01-1.28-1.12" fill="black" fill-opacity=".6"/></g><g id="eyebrows-unibrowNatural-51be05e6"><path fill-rule="evenodd" clip-rule="evenodd" d="M88.26 7.6c1.46.56 9.19 6.43 7.86 9.16a.8.8 0 0 1-1.29.22 11 11 0 0 0-1.7-1.2c-5.11-2.83-11.3-1.92-16.74-.9-6.12 1.14-12.1 3.48-18.38 2.67-2.04-.26-6.08-1.22-7.63-2.96-.47-.53-.06-1.38.64-1.43 1.44-.11 2.86-.86 4.33-1.28 3.65-1.03 7.4-1.56 11.11-2.3 6.62-1.3 15.17-4.52 21.8-2" fill="#DADADA"/><path fill-rule="evenodd" clip-rule="evenodd" d="M50.9 12.76c-1.17.04-2.8 3.56-.56 3.68 2.23.11 1.73-3.72.56-3.68m-3.76.04q0-.01 0 0M8.02 7.56c-1.47.56-9.2 6.43-7.87 9.16.24.5.9.6 1.3.22.54-.52 1.57-1.11 1.7-1.18 5.1-2.84 11.3-1.93 16.73-.91 6.12 1.15 12.1 3.49 18.4 2.68 2.03-.26 6.07-1.22 7.6-2.96.48-.53.08-1.38-.62-1.43-1.44-.11-2.86-.86-4.33-1.28-3.65-1.03-7.4-1.56-11.12-2.3-6.62-1.3-15.17-4.52-21.8-2" fill="#DADADA"/><path fill-rule="evenodd" clip-rule="evenodd" d="M47.1 11.79c1.18.04 2.77 4.5.54 4.67-2.24.18-1.7-4.71-.53-4.67" fill="#DADADA"/></g><g id="top-shaggy-51be05e6"><path fill-rule="evenodd" clip-rule="evenodd" d="M87.18 37.86c5.14-3.84 11.22-7.12 17.56-8.38 6.45-1.28 10.36-1.6 16.7-.07 1.64.39 2.2.78 3.63-.15 1.2-.8 9.66-9.5 35.42-4.66 26.03 4.88 33.77 44.08 43.42 45.57 3.5.53 7.8-.39 7.92-2.53 3.96 6.03 5 14 3.33 21.07-1.45 6.1-4.5 11.8-10 15.14-4.72 2.87-11.25 4.12-16.7 3.6a22 22 0 0 1-7.04-1.78c-2.76-1.2-4.96-3.4-7.67-4.54a54 54 0 0 0 9.18 6.42c1.64.9 3.3 1.53 5.11 2.02 1.24.34 3.76 1.48 4.96 1.18-7.8 1.4-15.16.18-22.32-3.16a52 52 0 0 1-9.2-5.48c-2.83-2.13-6.09-4.3-8.3-7.1.93 1.2-.7-.6-.92-.8q-.9-.94-1.78-1.9-1.52-1.63-2.93-3.38-3.02-3.72-5.5-7.8c-1.69-2.76-8.37-13.87-10.39-16.5a195 195 0 0 0 6.41 16.93c-4.7-1.47-9.28-5.54-12.3-9.34a29.5 29.5 0 0 1-6.1-14.66c-3.83 10.41-12.79 18.63-22.03 24.3 2-3.74 5.05-6.9 7.05-10.69-9.2 9.33-24.57 13.9-28.6 27.58-1.03-4.76-4.35-8.58-5.34-13.43-1.1-5.4-1.9-11.1-1.73-16.62.4-12.24 8.64-23.72 18.16-30.82" fill="#623c33"/></g><linearGradient id="accessoriesSunglasses-a" x1="22.79" y1="53.25" x2="22.79" y2="72.8" gradientUnits="userSpaceOnUse"><stop stop-color="white" stop-opacity=".5"/><stop offset="1" stop-opacity=".5"/></linearGradient><linearGradient id="accessoriesSunglasses-b" x1="76.85" y1="53.25" x2="76.85" y2="80.98" gradientUnits="userSpaceOnUse"><stop stop-color="white" stop-opacity=".5"/><stop offset=".71" stop-opacity=".5"/></linearGradient><g id="accessories-sunglasses-51be05e6"><path fill-rule="evenodd" clip-rule="evenodd" d="M105.95 49.49c4.66.16 8 .88 10.54 4.52 3 .15 6.22.37 8.94 1.63 3.4 1.56 3.91 5.1-.36 5.6a20 20 0 0 1-5.55-.46l-.18-.03-.34-.06c1.11 9.46-6.19 20.87-14.22 24.35C93.83 89.8 81.57 84.53 75.77 75c-2.63-4.3-4.15-10.51-4.47-15.86q-.63-.31-1.23-.67-.57-.34-1.12-.61c-2-.98-5.34-1.1-7.5 0q-.51.26-1.04.58-.64.38-1.32.72C58.77 64.5 57.25 70.7 54.63 75c-5.8 9.53-18.07 14.8-29.04 10.04-8.07-3.48-15.38-14.9-14.27-24.35q-.18-.02-.34.02l-.19.03c-1.83.33-3.69.66-5.55.45-4.26-.5-3.74-4.03-.36-5.6 2.74-1.25 5.98-1.47 9-1.62 2.54-3.63 5.88-4.36 10.54-4.52l23.3-.46c5.18-.14 9.71 0 11.02 4.6a19 19 0 0 1 6.35-1.25c1.86 0 4.35.45 6.5 1.28 1.3-4.64 5.84-4.77 11.03-4.63zM81.9 56.27c-2.37.03-3.49.42-3.9 2.9-.4 2.5 0 5.31.48 7.78.72 3.77 1.92 7.46 4.7 10.22a16 16 0 0 0 8.32 4.34l.96.16c.63.1 1.23.18.72.13 3.72.4 7.7.3 10.8-2.05 3.54-2.7 5.96-6.95 7.03-11.2.62-2.48 1.93-8.42-.46-10.4-2.74-2.28-28.64-1.88-28.64-1.88m-33.43 0c2.37.03 3.5.42 3.9 2.9.4 2.5 0 5.32-.46 7.78-.72 3.77-1.92 7.46-4.7 10.22a16.2 16.2 0 0 1-9.3 4.5c-.63.1-1.24.19-.67.13-3.73.4-7.74.32-10.84-2.05-3.54-2.7-5.96-6.95-7.02-11.2-.62-2.48-1.93-8.42.46-10.4 2.74-2.28 28.63-1.87 28.63-1.87m-10.93 25.5" fill="black" fill-opacity=".1"/><path fill-rule="evenodd" clip-rule="evenodd" d="M49.24 53.28c2.51.02 3.7.45 4.13 3.11.43 2.7.01 5.74-.49 8.4-.76 4.06-2.03 8.04-4.98 11a17 17 0 0 1-8.8 4.69c-.34.07-3.16.47-1.43.27-4.04.47-8.42.45-11.8-2.17-3.74-2.9-6.3-7.5-7.43-12.07-.66-2.63-2.04-9.03.5-11.2 2.9-2.42 30.3-2 30.3-2" fill="black" fill-opacity=".7"/><path fill-rule="evenodd" clip-rule="evenodd" d="M49.24 53.28c2.51.02 3.7.45 4.13 3.11.43 2.7.01 5.74-.49 8.4-.76 4.06-2.03 8.04-4.98 11a17 17 0 0 1-8.8 4.69c-.34.07-3.16.47-1.43.27-4.04.47-8.42.45-11.8-2.17-3.74-2.9-6.3-7.5-7.43-12.07-.66-2.63-2.04-9.03.5-11.2 2.9-2.42 30.3-2 30.3-2" fill="url(#accessoriesSunglasses-a)" style="mix-blend-mode:screen"/><path fill-rule="evenodd" clip-rule="evenodd" d="M81.15 53.27c-2.5.03-3.7.45-4.12 3.12-.44 2.7-.02 5.73.48 8.4.77 4.06 2.04 8.03 4.99 11a17 17 0 0 0 8.8 4.69c.33.07 3.16.47 1.42.26 4.05.47 8.43.45 11.8-2.16 3.74-2.9 6.3-7.5 7.43-12.07.66-2.64 2.05-9.04-.48-11.17-2.9-2.46-30.32-2.03-30.32-2.03" fill="black" fill-opacity=".7"/><path fill-rule="evenodd" clip-rule="evenodd" d="M81.15 53.27c-2.5.03-3.7.45-4.12 3.12-.44 2.7-.02 5.73.48 8.4.77 4.06 2.04 8.03 4.99 11a17 17 0 0 0 8.8 4.69c.33.07 3.16.47 1.42.26 4.05.47 8.43.45 11.8-2.16 3.74-2.9 6.3-7.5 7.43-12.07.66-2.64 2.05-9.04-.48-11.17-2.9-2.46-30.32-2.03-30.32-2.03" fill="url(#accessoriesSunglasses-b)" style="mix-blend-mode:screen"/><path fill-rule="evenodd" clip-rule="evenodd" d="M105.95 47.49c4.66.16 8 .88 10.54 4.52 3 .15 6.22.37 8.94 1.63 3.4 1.56 3.91 5.1-.36 5.6a20 20 0 0 1-5.55-.46l-.18-.03-.34-.06c1.11 9.46-6.19 20.87-14.22 24.35C93.83 87.8 81.57 82.53 75.77 73c-2.63-4.3-4.15-10.51-4.47-15.86q-.63-.31-1.23-.67-.57-.34-1.12-.61c-2-.98-5.34-1.1-7.5 0q-.51.26-1.04.58-.64.38-1.32.72C58.77 62.5 57.25 68.7 54.63 73c-5.8 9.53-18.07 14.8-29.04 10.04-8.07-3.48-15.38-14.9-14.27-24.35q-.18-.02-.34.02l-.19.03c-1.83.33-3.69.66-5.55.45-4.26-.5-3.74-4.03-.36-5.6 2.74-1.25 5.98-1.47 9-1.62 2.54-3.63 5.88-4.36 10.54-4.52l23.3-.46c5.18-.14 9.71 0 11.02 4.6a19 19 0 0 1 6.35-1.25c1.86 0 4.35.45 6.5 1.28 1.3-4.64 5.84-4.77 11.03-4.63zM81.9 54.27c-2.37.03-3.49.42-3.9 2.9-.4 2.5 0 5.31.48 7.78.72 3.77 1.92 7.46 4.7 10.22a16 16 0 0 0 8.32 4.34l.96.16c.63.1 1.23.18.72.13 3.72.4 7.7.3 10.8-2.05 3.54-2.7 5.96-6.95 7.03-11.2.62-2.48 1.93-8.42-.46-10.4-2.74-2.28-28.64-1.88-28.64-1.88m-33.43 0c2.37.03 3.5.42 3.9 2.9.4 2.5 0 5.32-.46 7.78-.72 3.77-1.92 7.46-4.7 10.22a16.2 16.2 0 0 1-9.3 4.5c-.63.1-1.24.19-.67.13-3.73.4-7.74.32-10.84-2.05-3.54-2.7-5.96-6.95-7.02-11.2-.62-2.48-1.93-8.42.46-10.4 2.74-2.28 28.63-1.87 28.63-1.87m-10.93 25.5" fill="#ffafb9"/></g><clipPath id="clip-51be05e6"><rect width="280" height="280" rx="103.6" ry="103.6"/></clipPath></defs><g clip-path="url(#clip-51be05e6)"><g transform="translate(50.4, 0)"><path d="M140 36a56 56 0 0 0-56 56v6.17A12 12 0 0 0 74 110v14a12 12 0 0 0 10.3 11.88A56 56 0 0 0 116 180.6V199h-4a72 72 0 0 0-72 72v9h200v-9a72 72 0 0 0-72-72h-4v-18.38a56 56 0 0 0 31.7-44.73A12 12 0 0 0 206 124v-14a12 12 0 0 0-10-11.83V92a56 56 0 0 0-56-56" fill="url(#skin-color-51be05e6)"/><path d="M116 180.61v8a56 56 0 0 0 24 5.39 56 56 0 0 0 24-5.39v-8a56 56 0 0 1-24 5.39 56 56 0 0 1-24-5.39" fill="black" fill-opacity=".1"/><use transform="translate(40 184.7)" href="#clothes-blazerAndShirt-51be05e6"/><use transform="translate(94 140)" href="#mouth-default-51be05e6"/><use transform="translate(128 130)" href="#nose-default-51be05e6"/><use transform="translate(98 98)" href="#eyes-winkWacky-51be05e6"/><use transform="translate(91.86 82)" href="#eyebrows-unibrowNatural-51be05e6"/><use transform="translate(8)" href="#top-shaggy-51be05e6"/><use transform="translate(75.77 46)" href="#accessories-sunglasses-51be05e6"/></g></g></svg>