<svg xmlns="http://www.w3.org/2000/svg" viewBox="0 0 280 280" fill="none" shape-rendering="auto" aria-hidden="true"><!-- Generated by DiceBear (https://dicebear.com) --><metadata xmlns:rdf="http://www.w3.org/1999/02/22-rdf-syntax-ns#" xmlns:xsi="http://www.w3.org/2001/XMLSchema-instance" xmlns:dc="http://purl.org/dc/elements/1.1/" xmlns:dcterms="http://purl.org/dc/terms/"><rdf:RDF><rdf:Description><dc:title>Avataaars</dc:title><dc:creator>Pablo Stanley</dc:creator><dc:source xsi:type="dcterms:URI">https://avataaars.com/</dc:source><dcterms:license xsi:type="dcterms:URI">https://avataaars.com/</dcterms:license><dc:rights>Remix of “Avataaars” (https://avataaars.com/) by “Pablo Stanley”, licensed under “Free for personal and commercial use” (https://avataaars.com/)</dc:rights></rdf:Description></rdf:RDF></metadata><defs><linearGradient id="skin-color-44205a4b" gradientTransform="rotate(-128, 0.5, 0.5)"><stop offset="0%" stop-color="#3ef477"/><stop offset="100%" stop-color="#040f07"/></linearGradient><g id="clothesGraphic-deer-44205a4b"><path fill-rule="evenodd" clip-rule="evenodd" d="M71.76 14.26c1.6-.18 4.79-.55 5.2.98.3 1.09-1.16 2.07-2.26 2.8q-.52.36-.85.61l-.16.14a26 26 0 0 1-4.66 3.41 13 13 0 0 1-2.93 1.08c-.28.07-.43.11-.55.2-.15.11-.23.3-.43.74l-.03.08c-.45 1-.73 2.18-1 3.36a23 23 0 0 1-.81 2.95c-1.7 4.46-5.77 14.8-12.27 10.26-1.7-1.2-2.78-3.3-3.75-5.24l-.6-1.2a44 44 0 0 1-3.39-8.24q-.14-.54-.2-.92c-.14-.68-.2-1.04-.93-1.5-.37-.23-.9-.36-1.4-.5q-.55-.11-.99-.28a17 17 0 0 1-4.08-2.44c-1.24-.97-6.11-4.95-2.14-5.7 1.8-.33 4.16-.2 6-.11h.07c2.03.1 4.07.57 5.88 1.54h.01c.9.48 1.22.66 1.54.65.2 0 .38-.08.68-.18q.35-.14.98-.33c-3.32-1.12-6.65-3-8.89-5.78-1.2-1.5-4-7.65-1.9-9.06 1.8-1.2 2.42 2 2.88 4.4.2.97.36 1.8.56 2.17 1.24 2.13 3.28 3.23 5.32 4.33q.88.47 1.72.96a12.5 12.5 0 0 1-3.67-5.86l-.08-.3c-.31-1.14-.9-3.28-.44-4.2.5-1.03 1.73-1.1 2.42-.21.41.53.48 1.52.54 2.4q.04.69.13 1.2a8.6 8.6 0 0 0 2 4.03 11 11 0 0 0 5.65 3.73c5.13 1.26 6.92-4.1 7.61-8.25q.06-.37.08-.81c.05-.93.11-2 .97-2.36 1.37-.6 1.9.74 1.94 1.78.09 2.3-1.06 5.85-2.17 7.84 2.8-1.73 5-4.48 5.9-7.7.1-.36.15-.9.2-1.45.1-1.2.21-2.58.97-3.04 1.54-.92 2.02.92 1.97 2.02-.32 6.52-5.3 12.44-11.49 14.07l.55.28c.95.5.98.53 2.3-.25q1.36-.8 2.84-1.24c1.47-.45 3.05-.68 4.58-.81zm-12.9 9.36c-.07 3.27-3.24 3.04-2.82.1.32-2.32 3.68-2.24 2.82-.1m-1.93 9.02c-.5 1.56-4.33 2.12-3.9-.17.37-1.95 4.56-2.03 3.9.17M51.7 26c-2.82 0-1.9-4.87 1-3.86 2.27.8 1.33 3.86-1 3.86" fill="white"/></g><g id="clothes-graphicShirt-44205a4b"><path d="M100.5 39.3c18.5 0 33.5-9.62 33.5-21.5q0-1.64-.38-3.23A72 72 0 0 1 200 86.36v8.95H0v-8.95A72 72 0 0 1 67.4 14.5a14 14 0 0 0-.4 3.3c0 11.88 15 21.5 33.5 21.5" fill="#524786"/><use transform="translate(45 44.3)" href="#clothesGraphic-deer-44205a4b"/></g><g id="mouth-concerned-44205a4b"><path fill-rule="evenodd" clip-rule="evenodd" d="M27.12 23.87a19 19 0 0 1 37.77.09c.08.77-.77 2.04-1.85 2.04H29.1c-1.1 0-2.1-1.18-1.98-2.13" fill="black" fill-opacity=".7"/><path d="M61.59 26H30.4A11 11 0 0 1 46 19.2 11 11 0 0 1 61.6 26" fill="#FF4F6D"/><path d="M58.57 11.75A5 5 0 0 1 57 12H36q-1.22-.02-2.24-.53A19 19 0 0 1 46 7c4.82 0 9.22 1.8 12.57 4.75" fill="white"/></g><g id="nose-default-44205a4b"><path fill-rule="evenodd" clip-rule="evenodd" d="M0 0c0 4.42 5.37 8 12 8s12-3.58 12-8" fill="black" fill-opacity=".16"/></g><g id="eyes-surprised-44205a4b"><path d="M30 14a14 14 0 1 1-28 0 14 14 0 0 1 28 0m52 0a14 14 0 1 1-28 0 14 14 0 0 1 28 0" fill="white"/><path d="M22 14a6 6 0 1 1-12 0 6 6 0 0 1 12 0m52 0a6 6 0 1 1-12 0 6 6 0 0 1 12 0" fill="black" fill-opacity=".7"/></g><g id="eyebrows-frownNatural-44205a4b"><path fill-rule="evenodd" clip-rule="evenodd" d="M28.5 6.88c-1.96 2.9-5.54 4.64-8.73 5.68-3.94 1.29-18.55 3.38-15.11 11.35.05.12.22.12.27 0 1.15-2.65 17.46-5.12 18.97-5.7 4.45-1.71 8.4-5.5 9.16-10.55.36-2.31-.63-6.05-1.54-7.55-.1-.18-.38-.13-.43.07-.36 1.33-1.4 4.97-2.58 6.7m39.28 0c1.97 2.9 5.54 4.64 8.74 5.68 3.96 1.29 18.57 3.38 15.13 11.35a.15.15 0 0 1-.28 0c-1.15-2.65-17.46-5.12-18.97-5.7-4.44-1.71-8.4-5.5-9.16-10.55-.35-2.31.64-6.05 1.55-7.55.1-.18.37-.13.43.07.35 1.33 1.4 4.97 2.57 6.7" fill="black" fill-opacity=".6"/></g><g id="top-theCaesar-44205a4b"><path fill-rule="evenodd" clip-rule="evenodd" d="M75 98c.35 1.49 1.67 1.22 2 0-.46-1.55 3.3-28.75 13-36 3.62-2.52 23-4.77 42.31-4.75 19.1 0 38.11 2.26 41.69 4.75 9.7 7.25 13.46 34.45 13 36 .33 1.22 1.65 1.49 2 0 .72-10.3 0-63.73-57-63S74.28 87.7 75 98" fill="#4a312c"/></g><clipPath id="clip-44205a4b"><rect width="280" height="280" rx="103.6" ry="103.6"/></clipPath></defs><g clip-path="url(#clip-44205a4b)"><g transform="translate(50.4, 0)"><path d="M140 36a56 56 0 0 0-56 56v6.17A12 12 0 0 0 74 110v14a12 12 0 0 0 10.3 11.88A56 56 0 0 0 116 180.6V199h-4a72 72 0 0 0-72 72v9h200v-9a72 72 0 0 0-72-72h-4v-18.38a56 56 0 0 0 31.7-44.73A12 12 0 0 0 206 124v-14a12 12 0 0 0-10-11.83V92a56 56 0 0 0-56-56" fill="url(#skin-color-44205a4b)"/><path d="M116 180.61v8a56 56 0 0 0 24 5.39 56 56 0 0 0 24-5.39v-8a56 56 0 0 1-24 5.39 56 56 0 0 1-24-5.39" fill="black" fill-opacity=".1"/><use transform="translate(40 184.7)" href="#clothes-graphicShirt-44205a4b"/><use transform="translate(94 140)" href="#mouth-concerned-44205a4b"/><use transform="translate(128 130)" href="#nose-default-44205a4b"/><use transform="translate(98 98)" href="#eyes-surprised-44205a4b"/><use transform="translate(91.86 82)" href="#eyebrows-frownNatural-44205a4b"/><use transform="translate(8)" href="#top-theCaesar-44205a4b"/></g></g></svg>