<svg xmlns="http://www.w3.org/2000/svg" viewBox="0 0 280 280" fill="none" shape-rendering="auto" aria-hidden="true"><!-- Generated by DiceBear (https://dicebear.com) --><metadata xmlns:rdf="http://www.w3.org/1999/02/22-rdf-syntax-ns#" xmlns:xsi="http://www.w3.org/2001/XMLSchema-instance" xmlns:dc="http://purl.org/dc/elements/1.1/" xmlns:dcterms="http://purl.org/dc/terms/"><rdf:RDF><rdf:Description><dc:title>Avataaars</dc:title><dc:creator>Pablo Stanley</dc:creator><dc:source xsi:type="dcterms:URI">https://avataaars.com/</dc:source><dcterms:license xsi:type="dcterms:URI">https://avataaars.com/</dcterms:license><dc:rights>Remix of “Avataaars” (https://avataaars.com/) by “Pablo Stanley”, licensed under “Free for personal and commercial use” (https://avataaars.com/)</dc:rights></rdf:Description></rdf:RDF></metadata><defs><linearGradient id="skin-color-64c1a5ba" gradientTransform="rotate(-128, 0.5, 0.5)"><stop offset="0%" stop-color="#edb98a"/><stop offset="100%" stop-color="#0f3a1c"/></linearGradient><g id="clothes-blazerAndSweater-64c1a5ba"><path d="M100 42.36c14.91 0 27-11.2 27-25q0-1.53-.2-3h1.2a72 72 0 0 1 72 72v8.95H0v-8.95a72 72 0 0 1 72-72h1.2q-.2 1.47-.2 3c0 13.8 12.09 25 27 25" fill="#E6E6E6"/><path d="M68.78 14.43 69 13.3c-2.96.06-6 1-6 1l-.42.67A72 72 0 0 0 0 86.36v8.95h74s-10.7-51.56-5.24-80.8zM126 95.3s11-53 5-82c2.96.06 6 1 6 1l.42.67A72 72 0 0 1 200 86.36v8.95z" fill="#feb550"/><path fill-rule="evenodd" clip-rule="evenodd" d="M69 13.3c-6 29 5 82 5 82H58l-14-36 6-9-6-6 19-30s3.04-.94 6-1m62 0c6 29-5 82-5 82h16l14-36-6-9 6-6-19-30s-3.04-.94-6-1" fill="black" fill-opacity=".15"/><path d="M76 6.84c-6.77 4.6-11 11.12-11 18.35 0 7.4 4.43 14.06 11.48 18.67l5.94-4.68 4.58.33-1-3.15.08-.06C79.98 33.16 76 28 76 22.18zm48 15.34c0 5.83-3.98 10.98-10.08 14.12l.08.06-1 3.15 4.58-.33 5.94 4.68C130.57 39.26 135 32.6 135 25.2c0-7.23-4.23-13.75-11-18.35z" fill="#F2F2F2"/><path d="m151.42 71.07.87-2.24 6.27-4.7a4 4 0 0 1 4.85.05l6.6 5.13z" fill="#E6E6E6"/></g><g id="mouth-tongue-64c1a5ba"><path fill-rule="evenodd" clip-rule="evenodd" d="M21 9.6C22.41 19.24 33.06 27 46 27c12.97 0 23.65-7.82 25-18.26.1-.4-.22-1.74-2.17-1.74H23.17c-1.79 0-2.3 1.24-2.17 2.6" fill="black" fill-opacity=".7"/><path d="M62 7H31a5 5 0 0 0 5 5h21a5 5 0 0 0 5-5" fill="white"/><path d="M35 17.5v9a11.5 11.5 0 1 0 23 0v-9c0-1.93-2.91-3.5-6.5-3.5-2.01 0-3.8.5-5 1.26a9.5 9.5 0 0 0-5-1.26c-3.59 0-6.5 1.57-6.5 3.5" fill="#FF4F6D"/></g><g id="nose-default-64c1a5ba"><path fill-rule="evenodd" clip-rule="evenodd" d="M0 0c0 4.42 5.37 8 12 8s12-3.58 12-8" fill="black" fill-opacity=".16"/></g><g id="eyes-closed-64c1a5ba"><path fill-rule="evenodd" clip-rule="evenodd" d="M2.16 19.55C4.01 23.35 8.16 26 13 26c4.81 0 8.96-2.63 10.82-6.4.55-1.13-.24-2.05-1.03-1.37a15 15 0 0 1-9.8 3.43c-3.73 0-7.12-1.24-9.55-3.23-.9-.73-1.82.01-1.28 1.12m58 0c1.85 3.8 6 6.45 10.84 6.45 4.81 0 8.96-2.63 10.82-6.4.55-1.13-.24-2.05-1.03-1.37a15 15 0 0 1-9.8 3.43c-3.76 0-7.15-1.24-9.58-3.23-.9-.73-1.82.01-1.28 1.12" fill="black" fill-opacity=".6"/></g><g id="eyebrows-angry-64c1a5ba"><path d="M7.75 15.18c4.24-5.76 6.88-5.48 13.31-.62l.67.5c4.83 3.67 7.12 4.94 10.4 4.94a2 2 0 0 0 0-4c-2.06 0-3.9-1.02-7.98-4.12l-.68-.52C19.71 8.53 17.51 7.3 14.77 7c-3.68-.4-7.05 1.48-10.24 5.83a2 2 0 1 0 3.22 2.36m80.78 0c-4.24-5.77-6.88-5.49-13.32-.63l-.67.5c-4.82 3.67-7.1 4.94-10.4 4.94a2 2 0 0 1 0-4c2.06 0 3.9-1.02 7.99-4.12l.67-.52C76.56 8.53 78.76 7.3 81.5 7c3.68-.4 7.06 1.48 10.25 5.83a2 2 0 1 1-3.22 2.36" fill="black" fill-opacity=".6"/></g><g id="top-frida-64c1a5ba"><path d="M76 98.17v-.23l.08.06c1.7-27.45 17.84-33.2 32.51-38.41 10.53-3.75 20.3-7.22 23.4-18.25 3.12 11.03 12.89 14.5 23.42 18.25 14.67 5.22 30.82 10.96 32.5 38.41l.1-.06v.23a12 12 0 0 1 9.88 10.22 16.4 16.4 0 0 0 2.97-16.92 16.5 16.5 0 0 0-2.46-25.86 16.5 16.5 0 0 0-10.62-23.04q.22-1.5.22-3.07a20.5 20.5 0 0 0-27.95-19.1A20.47 20.47 0 0 0 132 15.53a20.47 20.47 0 0 0-28.05 4.87 20.5 20.5 0 0 0-27.73 22.16A16.5 16.5 0 0 0 65.2 64.7a16.5 16.5 0 0 0-2.51 28.07 16.5 16.5 0 0 0 3.4 15.62A12 12 0 0 1 76 98.17m.2 36.7c-3.85-.58-7.11-3-8.85-6.34a16.5 16.5 0 0 0 8.2 25.71 16.52 16.52 0 0 0 14.76 20.72A16.5 16.5 0 0 0 108 184.8v-4.2a56 56 0 0 1-31.8-45.74m79.8 45.75v4.2q1.22.2 2.5.19a16.5 16.5 0 0 0 15.19-10.04 16.5 16.5 0 0 0 14.76-20.71 16.5 16.5 0 0 0 8.2-25.72c-1.74 3.34-5 5.76-8.86 6.34a56 56 0 0 1-31.81 45.73" fill="#0b6210"/><path fill-rule="evenodd" clip-rule="evenodd" d="M169.13 28.36q-.6.18-1.14.45-.25-.75-.62-1.48c3.72-3.63 5.25-9.54 5.25-9.54s-1.16.2-3.1.64c-.27.04-3.78.6-8.24 2.31-.8-.58-1.54-1.04-2.1-1.38.52-2.93 1.68-12.56-4.46-16.11-6.1-3.54-13.8 2.2-16.12 4.14l-.7-.42c-3.07-1.77-10.77-5.35-16.05-.23-5.64 5.46-2.3 14-1.04 16.7l-.53.53-.1-.11a7.1 7.1 0 0 0-8.07-1.52l-2.13.93-1.38-1.88a7.24 7.24 0 0 0-8.29-2.54 7.1 7.1 0 0 0-4.8 6.05l-.27 2.32-2.32.25a7.1 7.1 0 0 0-6.05 4.81 7.2 7.2 0 0 0 .83 6.53q-.7-.2-1.5-.2-.56.02-1.24.26.42-.6.6-1.13a5.2 5.2 0 0 0-9.96-3.04q-.15.55-.14 1.27-.44-.58-.9-.91a5.2 5.2 0 0 0-5.96 8.52q.46.31 1.16.53-.68.23-1.14.56a5.17 5.17 0 0 0-1.02 7.29 5.16 5.16 0 0 0 7.28 1.02q.44-.34.86-.93 0 .71.2 1.25a5.2 5.2 0 0 0 9.82-3.39 4 4 0 0 0-.62-1.1q.7.24 1.25.24a5.2 5.2 0 0 0 3.36-1.32 7.2 7.2 0 0 0 2.13 4.44 7.15 7.15 0 0 0 8.06 1.52l2.13-.93 1.38 1.88q.43.58.94 1.05-.78.77-1.64 1.44c-.47-.3-1.12-.7-1.92-1.06a12 12 0 0 0-13.25 1.82C83.62 61.47 82 67.7 82 67.7s7.37 4.17 15.26.42c5.9-2.8 6.53-7.22 6.48-9.26q1.18-.96 2.26-2.07a7.3 7.3 0 0 0 5.72.36 7.1 7.1 0 0 0 4.8-6.05l.26-2.32 2.32-.26a7.1 7.1 0 0 0 5.3-3.24c2.57.32 4.97.13 6.2 0 .99 1.87 3.82 6.7 7.88 9.05a9 9 0 0 0 5.07 1.33c6.9-.36 9.92-10 10.67-12.92.64-.09 1.6-.24 2.7-.5a7.4 7.4 0 0 0 .16 8.24 7.4 7.4 0 0 0 5.93 3.16q.8 0 1.78-.3-.6.82-.88 1.58a7.4 7.4 0 0 0 13.65 5.65l.34.62c-.71 1.48-3.8 8.96 5.53 12.36 6.77 2.46 13.45-1.15 13.5-1.17 0 0-2.07-9.48-9.46-12.55a7.4 7.4 0 0 0 3.7-7.5 7.4 7.4 0 0 0-2.87-4.87 6 6 0 0 0-1.62-.8q.97-.3 1.65-.76a7.4 7.4 0 0 0-8.5-12.12q-.65.47-1.26 1.3 0-1.03-.2-1.8a7.4 7.4 0 0 0-3.6-4.38 7.4 7.4 0 0 0-5.65-.54m-4.1 10.84-.72-.22.4-.3q.14.25.33.52m14.36 20.08.48.33q-.54.26-.93.52-.5-.9-.8-1.65.03-.26.03-.53a6 6 0 0 0 1.22 1.33M91.2 42.12l-.12-.32.2.15z" fill="black" fill-opacity=".2"/><path d="M178.03 58.94s-4.98 8.83 5.4 12.6c6.8 2.48 13.5-1.16 13.5-1.16s-2.16-9.9-9.97-12.75c-6.1-2.22-8.93 1.3-8.93 1.3" fill="#5DD362"/><path d="M196.93 70.38s-2.16-9.9-9.97-12.75c-4.07-1.48-6.7-.4-8.02.5-1.36-2.4-1.47-4.18-1.45-4.25.03-.3-.2-.53-.46-.63-.07-.02-.2-.07-.3-.03-.39 0-.67.37-.66.75 0 .23.35 4.54 4.63 8.83 6.05 6.6 16.23 7.58 16.23 7.58" fill="#42BC53"/><path fill-rule="evenodd" clip-rule="evenodd" d="M165.22 27c5.28-3.06 7.4-11.2 7.4-11.2s-7.38-4.18-15.26-.43-6.37 10.37-6.37 10.37 6.61 5.65 14.23 1.25" fill="#5DD362"/><path fill-rule="evenodd" clip-rule="evenodd" d="M147 29.43c.05.08.1.17.24.2.42.34 1.09.3 1.42-.12a24 24 0 0 1 3.26-3.13c1.97 1.4 7.33 4.1 13.3.64 5.28-3.06 7.4-11.2 7.4-11.2s-1.16.2-3.1.63c-.54.07-14.38 2.3-22.36 11.87a1 1 0 0 0-.16 1.13" fill="#42BC53"/><path fill-rule="evenodd" clip-rule="evenodd" d="M89.4 54.5C84.1 57.55 82 65.7 82 65.7s7.37 4.17 15.26.42 6.36-10.37 6.36-10.37-6.6-5.65-14.23-1.25" fill="#5DD362"/><path fill-rule="evenodd" clip-rule="evenodd" d="M107.61 52.06c-.05-.08-.1-.17-.23-.2-.42-.34-1.1-.3-1.43.12a24 24 0 0 1-3.26 3.16c-1.97-1.41-7.32-4.1-13.3-.64-5.28 3.05-7.4 11.2-7.4 11.2s1.16-.2 3.1-.64c.54-.07 14.39-2.3 22.37-11.87.3-.3.35-.8.15-1.16" fill="#42BC53"/><path d="M67.58 49.96a5.17 5.17 0 0 1 1.02-7.29q.47-.33 1.14-.56a4 4 0 0 1-1.16-.53 5.2 5.2 0 0 1 5.96-8.52q.46.33.9.91-.01-.71.14-1.27a5.16 5.16 0 0 1 6.5-3.45 5.2 5.2 0 0 1 3.45 6.5q-.17.53-.59 1.12.68-.23 1.25-.25a5.2 5.2 0 0 1 .18 10.4q-.57 0-1.25-.2.43.56.62 1.1a5.2 5.2 0 1 1-9.83 3.38 4 4 0 0 1-.2-1.25q-.4.58-.85.93a5.17 5.17 0 0 1-7.28-1.02" fill="#4ACAD3"/><path fill-rule="evenodd" clip-rule="evenodd" d="M80.82 37.64a1.44 1.44 0 1 0-2.76-.84c-.23.76.23 4.18.23 4.18s2.3-2.58 2.53-3.34m2.24 5.8a1.44 1.44 0 1 0-.05-2.9c-.8.02-3.9 1.52-3.9 1.52s3.16 1.4 3.95 1.38M77 41.42s-1.74-2.98-2.4-3.44a1.44 1.44 0 1 0-1.65 2.37c.65.45 4.05 1.07 4.05 1.07m3.08 6.84a1.44 1.44 0 0 0 .9-1.84c-.26-.75-2.65-3.25-2.65-3.25s-.35 3.44-.1 4.2a1.44 1.44 0 0 0 1.85.9m-5.32-1.97c.64-.48 2.27-3.52 2.27-3.52s-3.37.73-4 1.2a1.44 1.44 0 1 0 1.73 2.32" fill="white"/><path d="m116.53 49.1.25-2.32 2.32-.26a7.1 7.1 0 0 0 6.05-4.8 7.2 7.2 0 0 0-2.55-8.29l-1.87-1.38.93-2.13c1.23-2.8.65-5.9-1.52-8.06a7.1 7.1 0 0 0-8.06-1.52l-2.13.93-1.38-1.88a7.24 7.24 0 0 0-8.29-2.54 7.1 7.1 0 0 0-4.8 6.05l-.26 2.32-2.32.25a7.1 7.1 0 0 0-6.05 4.81 7.2 7.2 0 0 0 1.67 7.53q.4.4.87.76l1.88 1.38-.93 2.13a7.15 7.15 0 0 0 1.52 8.06 7.15 7.15 0 0 0 8.06 1.52l2.13-.93 1.38 1.88a7.2 7.2 0 0 0 8.29 2.54 7.1 7.1 0 0 0 4.8-6.05" fill="#FDB599"/><path fill-rule="evenodd" clip-rule="evenodd" d="M108.88 41.2a1.44 1.44 0 1 1-2.78.74c-.2-.77-.1-5.94-.1-5.94s-2.5 4.53-3.06 5.1a1.44 1.44 0 0 1-2.03-2.05c.56-.56 5.1-3.05 5.1-3.05s-5.15.1-5.92-.1a1.44 1.44 0 0 1 .75-2.78c.77.2 5.19 2.88 5.19 2.88s-2.67-4.42-2.87-5.2a1.44 1.44 0 1 1 2.78-.74c.2.77.1 5.94.1 5.94s2.5-4.53 3.06-5.1a1.44 1.44 0 0 1 2.04 2.05c-.56.56-5.1 3.05-5.1 3.05s5.17-.1 5.94.1a1.44 1.44 0 1 1-.75 2.78c-.8-.2-5.22-2.88-5.22-2.88s2.67 4.42 2.88 5.2" fill="white"/><path d="M189.76 55.82a7.36 7.36 0 0 0-1.46-10.36 6 6 0 0 0-1.62-.8q.97-.3 1.65-.76a7.4 7.4 0 0 0-8.5-12.12q-.65.46-1.26 1.3.01-1.03-.2-1.8a7.4 7.4 0 0 0-3.6-4.38 7.4 7.4 0 0 0-10.55 8.7q.24.76.82 1.6a6 6 0 0 0-1.77-.36 7.4 7.4 0 0 0-.26 14.8q.8 0 1.78-.3-.6.82-.88 1.58a7.4 7.4 0 0 0 14 4.81 6 6 0 0 0 .26-1.78q.6.83 1.22 1.33a7.4 7.4 0 0 0 5.49 1.42 7.4 7.4 0 0 0 4.88-2.88" fill="#F7D30C"/><path fill-rule="evenodd" clip-rule="evenodd" d="M170.9 38.3a2.05 2.05 0 1 1 3.94-1.2c.33 1.08-.33 5.94-.33 5.94s-3.27-3.66-3.6-4.74m-3.18 8.25a2.06 2.06 0 1 1 .07-4.11c1.13.02 5.56 2.15 5.56 2.15s-4.5 1.97-5.63 1.96m8.62-2.88s2.47-4.24 3.4-4.9a2.06 2.06 0 1 1 2.36 3.38c-.93.65-5.76 1.52-5.76 1.52m-4.38 9.73a2.06 2.06 0 0 1-1.27-2.6c.37-1.08 3.76-4.63 3.76-4.63s.5 4.89.13 5.96a2.06 2.06 0 0 1-2.62 1.27m7.57-2.8c-.9-.67-3.23-5-3.23-5s4.8 1.05 5.7 1.73a2.06 2.06 0 1 1-2.47 3.28" fill="white"/><path d="M168.14 31.55c1.82-6.99-6-12.42-8.95-14.19.5-2.93 1.67-12.56-4.47-16.11-6.1-3.54-13.8 2.2-16.12 4.14l-.7-.42c-3.07-1.77-10.77-5.35-16.05-.23-5.64 5.46-2.3 14-1.04 16.7-2.13 2-8.36 8.59-5.79 15.58a8.6 8.6 0 0 0 3.9 4.54c4.02 2.34 9.59 1.96 11.7 1.7 1.01 1.89 3.84 6.72 7.9 9.07a9 9 0 0 0 5.07 1.33c6.9-.36 9.92-10 10.67-12.92 2.86-.4 12.09-2.2 13.92-9.2" fill="#FF7398"/><path fill-rule="evenodd" clip-rule="evenodd" d="M141.76 25.6s3.69 8.2.36 8.71-1.46-8.59-1.46-8.59-7.11 6-8.15 3.03 7.7-4.05 7.7-4.05-7.96-4.7-5.36-6.83c2.59-2.15 6.2 6.1 6.2 6.1s1.95-8.93 4.83-7.27-3.86 7.82-3.86 7.82 8.88-1 8.37 2.35c-.5 3.34-8.6-1.27-8.6-1.27" fill="white"/><rect x="190" y="129" width="2" height="39" rx="1" fill="#E6E6E6"/><path d="M201 166h-9.43l6.43-17h-11l-6 21h8.64L185 189z" fill="#9177FF"/></g><g id="facialHair-beardMedium-64c1a5ba"><path fill-rule="evenodd" clip-rule="evenodd" d="M60.5 67.84c-11.5.38-16.64 5.88-20.5.29-2.91-4.2-1.7-11.26 1.01-15.23 3.86-5.65 9.1-2.92 14.95-3.56 1.6-.18 3.2-.62 4.54-1.34a13 13 0 0 0 4.55 1.34c5.85.64 11.08-2.09 14.94 3.56 2.72 3.97 3.93 11.03 1.03 15.23-3.87 5.6-9-.67-20.52-.29M116.4 0c-3.43 14.07-5 28.43-7.5 42.67q-.76 4.46-1.68 8.88c-.12.62-.25 2.92-.86 3.21-1.85.9-5.62-3.8-6.63-4.87-2.53-2.67-5.05-5.36-8.13-7.45a43.7 43.7 0 0 0-21.13-7.32c-3.18-.25-7.47.18-10.47 2-3-1.82-7.3-2.25-10.47-2-7.6.6-14.9 3.1-21.13 7.32-3.09 2.1-5.6 4.78-8.13 7.45-1 1.06-4.78 5.76-6.63 4.87-.6-.29-.74-2.6-.86-3.2q-.9-4.44-1.7-8.89C8.62 28.43 7.04 14.07 3.62 0c-1 0-1.87 18.75-1.98 20.5-.46 7.09-.98 14.03-.3 21.13 1.16 12.24 2.37 27.6 11.7 36.96 8.44 8.45 20.68 10.22 31.24 15.55 1.36.69 3.16 1.54 5.1 2.23C51.44 97.93 55.5 99 60.18 99c4.91 0 9.15-1.17 11.08-2.86 1.7-.65 3.27-1.39 4.48-2 10.56-5.33 22.8-7.1 31.24-15.55 9.33-9.36 10.54-24.72 11.7-36.96.68-7.1.16-14.04-.3-21.14-.1-1.77-.98-20.5-1.98-20.5" fill="#000000"/></g><g id="accessories-round-64c1a5ba"><path fill-rule="evenodd" clip-rule="evenodd" d="M34.23 92a24 24 0 0 1-22.96-31H4.73a2.5 2.5 0 0 1 0-5h8q.34 0 .66.09a24 24 0 0 1 42.26 1.06A11.4 11.4 0 0 1 65.1 52c4 0 7.54 2.14 9.6 5.4a24 24 0 0 1 42.37-1.31q.31-.1.66-.1h8a2.5 2.5 0 1 1 0 5h-6.53a24 24 0 1 1-46.6 2.84c-.1-4.37-3.45-7.83-7.5-7.83-3.74 0-6.9 2.94-7.43 6.83q.56 2.51.56 5.17a24 24 0 0 1-24 24m0-4a20 20 0 1 0 0-40 20 20 0 0 0 0 40m82-20a20 20 0 1 1-40 0 20 20 0 0 1 40 0" fill="black" fill-opacity=".1"/><path fill-rule="evenodd" clip-rule="evenodd" d="M34.23 90a24 24 0 0 1-22.96-31H4.73a2.5 2.5 0 0 1 0-5h8q.34 0 .66.09a24 24 0 0 1 42.26 1.06A11.4 11.4 0 0 1 65.1 50c4 0 7.54 2.14 9.6 5.4a24 24 0 0 1 42.37-1.31q.31-.1.66-.1h8a2.5 2.5 0 1 1 0 5h-6.53a24 24 0 1 1-46.6 2.84c-.1-4.37-3.45-7.83-7.5-7.83-3.74 0-6.9 2.94-7.43 6.83q.56 2.51.56 5.17a24 24 0 0 1-24 24m0-4a20 20 0 1 0 0-40 20 20 0 0 0 0 40m82-20a20 20 0 1 1-40 0 20 20 0 0 1 40 0" fill="#3c4f5c"/></g><clipPath id="clip-64c1a5ba"><rect width="280" height="280" rx="103.6" ry="103.6"/></clipPath></defs><g clip-path="url(#clip-64c1a5ba)"><g transform="translate(50.4, 0)"><path d="M140 36a56 56 0 0 0-56 56v6.17A12 12 0 0 0 74 110v14a12 12 0 0 0 10.3 11.88A56 56 0 0 0 116 180.6V199h-4a72 72 0 0 0-72 72v9h200v-9a72 72 0 0 0-72-72h-4v-18.38a56 56 0 0 0 31.7-44.73A12 12 0 0 0 206 124v-14a12 12 0 0 0-10-11.83V92a56 56 0 0 0-56-56" fill="url(#skin-color-64c1a5ba)"/><path d="M116 180.61v8a56 56 0 0 0 24 5.39 56 56 0 0 0 24-5.39v-8a56 56 0 0 1-24 5.39 56 56 0 0 1-24-5.39" fill="black" fill-opacity=".1"/><use transform="translate(40 184.7)" href="#clothes-blazerAndSweater-64c1a5ba"/><use transform="translate(94 140)" href="#mouth-tongue-64c1a5ba"/><use transform="translate(128 130)" href="#nose-default-64c1a5ba"/><use transform="translate(98 98)" href="#eyes-closed-64c1a5ba"/><use transform="translate(91.86 82)" href="#eyebrows-angry-64c1a5ba"/><use transform="translate(8)" href="#top-frida-64c1a5ba"/><use transform="translate(81 98)" href="#facialHair-beardMedium-64c1a5ba"/><use transform="translate(75.77 46)" href="#accessories-round-64c1a5ba"/></g></g></svg>