<svg xmlns="http://www.w3.org/2000/svg" viewBox="0 0 280 280" fill="none" shape-rendering="auto" aria-hidden="true"><!-- Generated by DiceBear (https://dicebear.com) --><metadata xmlns:rdf="http://www.w3.org/1999/02/22-rdf-syntax-ns#" xmlns:xsi="http://www.w3.org/2001/XMLSchema-instance" xmlns:dc="http://purl.org/dc/elements/1.1/" xmlns:dcterms="http://purl.org/dc/terms/"><rdf:RDF><rdf:Description><dc:title>Avataaars</dc:title><dc:creator>Pablo Stanley</dc:creator><dc:source xsi:type="dcterms:URI">https://avataaars.com/</dc:source><dcterms:license xsi:type="dcterms:URI">https://avataaars.com/</dcterms:license><dc:rights>Remix of “Avataaars” (https://avataaars.com/) by “Pablo Stanley”, licensed under “Free for personal and commercial use” (https://avataaars.com/)</dc:rights></rdf:Description></rdf:RDF></metadata><defs><linearGradient id="skin-color-1ca1af4f" gradientTransform="rotate(-128, 0.5, 0.5)"><stop offset="0%" stop-color="#614335"/><stop offset="100%" stop-color="#f49581"/></linearGradient><g id="clothes-blazerAndSweater-1ca1af4f"><path d="M100 42.36c14.91 0 27-11.2 27-25q0-1.53-.2-3h1.2a72 72 0 0 1 72 72v8.95H0v-8.95a72 72 0 0 1 72-72h1.2q-.2 1.47-.2 3c0 13.8 12.09 25 27 25" fill="#E6E6E6"/><path d="M68.78 14.43 69 13.3c-2.96.06-6 1-6 1l-.42.67A72 72 0 0 0 0 86.36v8.95h74s-10.7-51.56-5.24-80.8zM126 95.3s11-53 5-82c2.96.06 6 1 6 1l.42.67A72 72 0 0 1 200 86.36v8.95z" fill="#25557c"/><path fill-rule="evenodd" clip-rule="evenodd" d="M69 13.3c-6 29 5 82 5 82H58l-14-36 6-9-6-6 19-30s3.04-.94 6-1m62 0c6 29-5 82-5 82h16l14-36-6-9 6-6-19-30s-3.04-.94-6-1" fill="black" fill-opacity=".15"/><path d="M76 6.84c-6.77 4.6-11 11.12-11 18.35 0 7.4 4.43 14.06 11.48 18.67l5.94-4.68 4.58.33-1-3.15.08-.06C79.98 33.16 76 28 76 22.18zm48 15.34c0 5.83-3.98 10.98-10.08 14.12l.08.06-1 3.15 4.58-.33 5.94 4.68C130.57 39.26 135 32.6 135 25.2c0-7.23-4.23-13.75-11-18.35z" fill="#F2F2F2"/><path d="m151.42 71.07.87-2.24 6.27-4.7a4 4 0 0 1 4.85.05l6.6 5.13z" fill="#E6E6E6"/></g><g id="mouth-screamOpen-1ca1af4f"><path fill-rule="evenodd" clip-rule="evenodd" d="M26 32.86C27.14 18.88 30.24 7 46 7s18.92 11.94 20 26c.08 1.12-.83 2-1.96 2-6.69 0-9.37-2-18.05-2-8.7 0-13.26 2-17.9 2-1.17 0-2.2-.74-2.1-2.14" fill="black" fill-opacity=".7"/><path d="M59.02 11.57Q58.1 12 57 12H36c-.98 0-1.9-.28-2.67-.77C36.23 8.57 40.28 7 46 7c5.95 0 10.1 1.7 13.02 4.57" fill="white"/><path d="M61.8 34.92a44 44 0 0 1-5.54-.82c-2.73-.53-5.65-1.1-10.27-1.1-5.01 0-8.65.66-11.73 1.23-1.45.26-2.77.5-4.06.65A11 11 0 0 1 46 27.2a11 11 0 0 1 15.8 7.72" fill="#FF4F6D"/></g><g id="nose-default-1ca1af4f"><path fill-rule="evenodd" clip-rule="evenodd" d="M0 0c0 4.42 5.37 8 12 8s12-3.58 12-8" fill="black" fill-opacity=".16"/></g><g id="eyes-squint-1ca1af4f"><path d="M30 12.73c0 4.26-6.27 7.72-14 7.72S2 17 2 12.73 8.27 5 16 5s14 3.46 14 7.73m52 0c0 4.26-6.27 7.72-14 7.72S54 17 54 12.73 60.27 5 68 5s14 3.46 14 7.73" fill="white"/><path d="M18.82 20.3a25 25 0 0 1-5.64 0 6 6 0 1 1 5.64 0m52 0a25 25 0 0 1-5.64 0 6 6 0 1 1 5.64 0" fill="black" fill-opacity=".7"/></g><g id="eyebrows-raisedExcited-1ca1af4f"><path d="M8.11 17.13C9.61 7.6 22.2 1.1 31.31 5.3a2 2 0 0 0 1.66-3.63C21.5-3.63 6.07 4.33 4.17 16.5a2 2 0 1 0 3.94.63m80.05 0C86.66 7.6 74.08 1.1 64.97 5.3a2 2 0 0 1-1.67-3.63c11.5-5.3 26.9 2.66 28.81 14.83a2 2 0 0 1-3.95.63" fill="black" fill-opacity=".6"/></g><g id="top-longButNotTooLong-1ca1af4f"><path d="M49 90.5c0 4.55 1.7 8.64 4.85 10.77.9.61 2.47.93 4.15 1.07V182a8 8 0 0 0 8 8h42v-9.39a56 56 0 0 1-31.8-45.74A12 12 0 0 1 66 123v-13a12 12 0 0 1 3.87-8.83c11.54-2.61 24.1-7.53 36.47-14.67 12.13-7 22.5-15.24 30.48-23.75a87 87 0 0 1-12.45 20.78q19-8.28 25.9-26.63.56 1.38 1.17 2.76c10.26 23.03 27.88 39.36 45.77 44.74.5 2.11.79 4.08.79 5.6v13a12 12 0 0 1-10.2 11.87A56 56 0 0 1 156 180.6v9.4h18a32 32 0 0 0 32-32v-54.12q0-.1-.03-.28c-.07-5.64-.28-18.87-.6-21.37A74 74 0 0 0 131.99 18c-36.08 0-66.14 25.83-73 60-5.54 0-10 5.6-10 12.5" fill="#256249"/><path d="M151.44 59.66c11.94 26.81 33.86 44.53 54.56 46.5V92A74 74 0 0 0 59.32 78H59c-5.52 0-10 5.6-10 12.5 0 6.48 3.95 11.81 9 12.44v.15l.95-.1H59a8 8 0 0 0 1.9-.24c13.8-1.77 29.78-7.23 45.44-16.27 12.13-7 22.5-15.25 30.48-23.76a87 87 0 0 1-12.45 20.78q19-8.28 25.9-26.63.56 1.38 1.17 2.76" fill="white" fill-opacity=".08"/></g><clipPath id="clip-1ca1af4f"><rect width="280" height="280" rx="103.6" ry="103.6"/></clipPath></defs><g clip-path="url(#clip-1ca1af4f)"><g transform="translate(50.4, 0)"><path d="M140 36a56 56 0 0 0-56 56v6.17A12 12 0 0 0 74 110v14a12 12 0 0 0 10.3 11.88A56 56 0 0 0 116 180.6V199h-4a72 72 0 0 0-72 72v9h200v-9a72 72 0 0 0-72-72h-4v-18.38a56 56 0 0 0 31.7-44.73A12 12 0 0 0 206 124v-14a12 12 0 0 0-10-11.83V92a56 56 0 0 0-56-56" fill="url(#skin-color-1ca1af4f)"/><path d="M116 180.61v8a56 56 0 0 0 24 5.39 56 56 0 0 0 24-5.39v-8a56 56 0 0 1-24 5.39 56 56 0 0 1-24-5.39" fill="black" fill-opacity=".1"/><use transform="translate(40 184.7)" href="#clothes-blazerAndSweater-1ca1af4f"/><use transform="translate(94 140)" href="#mouth-screamOpen-1ca1af4f"/><use transform="translate(128 130)" href="#nose-default-1ca1af4f"/><use transform="translate(98 98)" href="#eyes-squint-1ca1af4f"/><use transform="translate(91.86 82)" href="#eyebrows-raisedExcited-1ca1af4f"/><use transform="translate(8)" href="#top-longButNotTooLong-1ca1af4f"/></g></g></svg>