<svg xmlns="http://www.w3.org/2000/svg" viewBox="0 0 280 280" fill="none" shape-rendering="auto" aria-hidden="true"><!-- Generated by DiceBear (https://dicebear.com) --><metadata xmlns:rdf="http://www.w3.org/1999/02/22-rdf-syntax-ns#" xmlns:xsi="http://www.w3.org/2001/XMLSchema-instance" xmlns:dc="http://purl.org/dc/elements/1.1/" xmlns:dcterms="http://purl.org/dc/terms/"><rdf:RDF><rdf:Description><dc:title>Avataaars</dc:title><dc:creator>Pablo Stanley</dc:creator><dc:source xsi:type="dcterms:URI">https://avataaars.com/</dc:source><dcterms:license xsi:type="dcterms:URI">https://avataaars.com/</dcterms:license><dc:rights>Remix of “Avataaars” (https://avataaars.com/) by “Pablo Stanley”, licensed under “Free for personal and commercial use” (https://avataaars.com/)</dc:rights></rdf:Description></rdf:RDF></metadata><defs><linearGradient id="skin-color-f753983c" gradientTransform="rotate(-128, 0.5, 0.5)"><stop offset="0%" stop-color="#3d37f4"/><stop offset="100%" stop-color="#0f3a1c"/></linearGradient><g id="clothes-blazerAndShirt-f753983c"><path d="M100.5 37.13c18.5 0 33.5-9.61 33.5-21.48q0-.52-.04-1.05A72 72 0 0 1 200 86.36v8.95H0v-8.95a72 72 0 0 1 67.05-71.83q-.05.55-.05 1.12c0 11.87 15 21.48 33.5 21.48" fill="#E6E6E6"/><path d="M100.5 44.07c21.89 0 39.63-12.05 39.63-26.92q0-.9-.08-1.79-3-.51-6.1-.76.06.52.05 1.05c0 11.87-15 21.48-33.5 21.48S67 27.52 67 15.65q0-.57.05-1.12-3.08.2-6.08.67-.1.97-.1 1.95c0 14.87 17.74 26.92 39.63 26.92" fill="black" fill-opacity=".16"/><path d="M68.78 14.43 69 13.3c-2.96.06-6 1-6 1l-.42.67A72 72 0 0 0 0 86.36v8.95h74s-10.7-51.56-5.24-80.8zM126 95.3s11-53 5-82c2.96.06 6 1 6 1l.42.67A72 72 0 0 1 200 86.36v8.95z" fill="#101513"/><path fill-rule="evenodd" clip-rule="evenodd" d="M69 13.3c-6 29 5 82 5 82H58l-14-36 6-9-6-6 19-30s3.04-.94 6-1m62 0c6 29-5 82-5 82h16l14-36-6-9 6-6-19-30s-3.04-.94-6-1" fill="black" fill-opacity=".15"/><path d="m151.42 71.07.87-2.24 6.27-4.7a4 4 0 0 1 4.85.05l6.6 5.13z" fill="#E6E6E6"/></g><g id="mouth-grimace-f753983c"><rect x="14" y="1" width="64" height="26" rx="13" fill="black" fill-opacity=".6"/><rect x="16" y="3" width="60" height="22" rx="11" fill="white"/><path d="M16.18 12H24V3.41A11 11 0 0 1 27 3h1v9h9V3h4v9h9V3h4v9h9V3h2q1.02 0 2 .18V12h8.82l.05.28v3.44l-.05.28H67v8.82q-.98.18-2 .18h-2v-9h-9v9h-4v-9h-9v9h-4v-9h-9v9h-1a11 11 0 0 1-3-.41V16h-7.82a11 11 0 0 1 0-4" fill="#E6E6E6"/></g><g id="nose-default-f753983c"><path fill-rule="evenodd" clip-rule="evenodd" d="M0 0c0 4.42 5.37 8 12 8s12-3.58 12-8" fill="black" fill-opacity=".16"/></g><g id="eyes-happy-f753983c"><path fill-rule="evenodd" clip-rule="evenodd" d="M2.16 14.45C4.01 10.65 8.16 8 13 8c4.81 0 8.96 2.63 10.82 6.4.55 1.13-.24 2.05-1.03 1.37a15 15 0 0 0-9.8-3.43c-3.73 0-7.12 1.24-9.55 3.23-.9.73-1.82-.01-1.28-1.12m58 0C62.01 10.65 66.16 8 71 8c4.81 0 8.96 2.63 10.82 6.4.55 1.13-.24 2.05-1.03 1.37a15 15 0 0 0-9.8-3.43c-3.76 0-7.15 1.24-9.58 3.23-.9.73-1.82-.01-1.28-1.12" fill="black" fill-opacity=".6"/></g><g id="eyebrows-sadConcernedNatural-f753983c"><path fill-rule="evenodd" clip-rule="evenodd" d="m23.37 20.42-.91.4c-5.24 2.09-13.2 1.21-18.06-1.12-.56-.27-.18-1.15.4-1.1 14.92 1.14 24.97-8.15 28.38-14.45.1-.18.4-.2.48-.03 2.31 5.32-4.45 13.98-10.3 16.3m49.54 0 .9.4c5.26 2.09 13.2 1.2 18.06-1.12.57-.27.18-1.15-.4-1.1-14.92 1.14-24.96-8.15-28.38-14.45-.1-.18-.4-.2-.48-.03-2.3 5.32 4.45 13.98 10.3 16.3" fill="black" fill-opacity=".6"/></g><g id="top-sides-f753983c"><path d="M69 97c0 4 .92 5.07 6 5 3.25-.05 3.44-6 3.65-12.59.14-4.37.29-9.03 1.35-12.41.62-4.43-1.82-3.17-3-1-3.96 4.78-8 15.34-8 21m126 0c0 4-.92 5.07-6 5-3.25-.05-3.44-6-3.65-12.59-.14-4.37-.29-9.03-1.35-12.41-.62-4.43 1.82-3.17 3-1 3.96 4.78 8 15.34 8 21" fill="#a55728"/></g><clipPath id="clip-f753983c"><rect width="280" height="280" rx="103.6" ry="103.6"/></clipPath></defs><g clip-path="url(#clip-f753983c)"><g transform="translate(50.4, 0)"><path d="M140 36a56 56 0 0 0-56 56v6.17A12 12 0 0 0 74 110v14a12 12 0 0 0 10.3 11.88A56 56 0 0 0 116 180.6V199h-4a72 72 0 0 0-72 72v9h200v-9a72 72 0 0 0-72-72h-4v-18.38a56 56 0 0 0 31.7-44.73A12 12 0 0 0 206 124v-14a12 12 0 0 0-10-11.83V92a56 56 0 0 0-56-56" fill="url(#skin-color-f753983c)"/><path d="M116 180.61v8a56 56 0 0 0 24 5.39 56 56 0 0 0 24-5.39v-8a56 56 0 0 1-24 5.39 56 56 0 0 1-24-5.39" fill="black" fill-opacity=".1"/><use transform="translate(40 184.7)" href="#clothes-blazerAndShirt-f753983c"/><use transform="translate(94 140)" href="#mouth-grimace-f753983c"/><use transform="translate(128 130)" href="#nose-default-f753983c"/><use transform="translate(98 98)" href="#eyes-happy-f753983c"/><use transform="translate(91.86 82)" href="#eyebrows-sadConcernedNatural-f753983c"/><use transform="translate(8)" href="#top-sides-f753983c"/></g></g></svg>