<svg xmlns="http://www.w3.org/2000/svg" viewBox="0 0 280 280" fill="none" shape-rendering="auto" aria-hidden="true"><!-- Generated by DiceBear (https://dicebear.com) --><metadata xmlns:rdf="http://www.w3.org/1999/02/22-rdf-syntax-ns#" xmlns:xsi="http://www.w3.org/2001/XMLSchema-instance" xmlns:dc="http://purl.org/dc/elements/1.1/" xmlns:dcterms="http://purl.org/dc/terms/"><rdf:RDF><rdf:Description><dc:title>Avataaars</dc:title><dc:creator>Pablo Stanley</dc:creator><dc:source xsi:type="dcterms:URI">https://avataaars.com/</dc:source><dcterms:license xsi:type="dcterms:URI">https://avataaars.com/</dcterms:license><dc:rights>Remix of “Avataaars” (https://avataaars.com/) by “Pablo Stanley”, licensed under “Free for personal and commercial use” (https://avataaars.com/)</dc:rights></rdf:Description></rdf:RDF></metadata><defs><linearGradient id="skin-color-d582194a" gradientTransform="rotate(-128, 0.5, 0.5)"><stop offset="0%" stop-color="#9f6ff4"/><stop offset="100%" stop-color="#3d37f4"/></linearGradient><g id="clothesGraphic-bat-d582194a"><path fill-rule="evenodd" clip-rule="evenodd" d="M87.69 12.4c-1.4-6.43-6.2-10.15-12.5-11.58-2.53-.58-10.92-2.4-9.61 2.4.6 2.18.26 3.97-1.55 5.77-1.77 1.76-5.24 2.2-6.96-.01-1.47-1.9.43-4.72-.72-6.57-.44-.71-1.21-1.08-2.03-.73-1.14.5-.53 1.56-1.07 2.32-.85 1.2-1.24.83-2-.37-.49-.76-.02-1.58-1.26-1.9-1.43-.37-1.9.83-2.03 1.92-.08.69.32 1.8.34 2.5.03 1.35-.1 3.31-.73 4.52-1.12 2.14-2.7 1.45-4.38.1-1.98-1.6-2.56-3.39-2.18-5.82.46-2.92.3-5.71-3.28-3.9a33.5 33.5 0 0 0-12.59 11.93c-2.44 4.02-4.36 8.9-2.2 13.48 2.21 4.67 5.86 8.69 10.97 9.88 1.32.3 5.1 1.81 6.34.55 1.95-1.96-2.54-3.78-3.43-4.97-1.26-1.7-2.34-4.92-.96-6.83 1.76-2.48 3.6-1.1 5.05.6 1.13 1.34 2.75 4.81 4.5 2.01 1.21-1.93 1.1-5.1 4.4-3.72 4.78 1.97 4.9 11.11 5.76 15.3.37 1.81 2.04 4.05 3.47 1.51.8-1.39.37-4.4.22-5.85-.3-2.99-1.08-5.92-.1-8.88.55-1.7 2-4.16 4.12-2.84 1.73 1.06 1 5.81 3.35 5.8 2.07 0 1.5-3.79 2.6-5.04 1.69-1.9 4.92-1 5.92 1.24 1.33 3.03-2.2 5.13-2.05 7.8.16 2.58 3.5 1.57 4.9.91 2.86-1.35 5.09-3.85 6.66-6.57 2.4-4.19 4.13-10.2 3.08-15.02" fill="white"/></g><g id="clothes-graphicShirt-d582194a"><path d="M100.5 39.3c18.5 0 33.5-9.62 33.5-21.5q0-1.64-.38-3.23A72 72 0 0 1 200 86.36v8.95H0v-8.95A72 72 0 0 1 67.4 14.5a14 14 0 0 0-.4 3.3c0 11.88 15 21.5 33.5 21.5" fill="#524786"/><use transform="translate(45 44.3)" href="#clothesGraphic-bat-d582194a"/></g><g id="mouth-twinkle-d582194a"><path d="M32 10c0 5.37 6.16 9 14 9s14-3.63 14-9c0-1.1-.95-2-2-2-1.3 0-1.87.9-2 2-1.24 2.94-4.32 4.72-10 5-5.68-.28-8.76-2.06-10-5-.13-1.1-.7-2-2-2-1.05 0-2 .9-2 2" fill="black" fill-opacity=".6"/></g><g id="nose-default-d582194a"><path fill-rule="evenodd" clip-rule="evenodd" d="M0 0c0 4.42 5.37 8 12 8s12-3.58 12-8" fill="black" fill-opacity=".16"/></g><g id="eyes-xDizzy-d582194a"><path d="M20.5 22.7 15 17.2l-5.5 5.5c-.4.4-1.1.4-1.6 0l-1.6-1.6c-.4-.4-.4-1.1 0-1.6l5.5-5.5-5.5-5.5c-.4-.5-.4-1.2 0-1.6l1.6-1.6c.4-.4 1.1-.4 1.6 0l5.5 5.5 5.5-5.5c.4-.4 1.1-.4 1.6 0l1.6 1.6c.4.4.4 1.1 0 1.6L18.2 14l5.5 5.5c.4.4.4 1.1 0 1.6l-1.6 1.6c-.4.4-1.1.4-1.6 0m54 0L69 17.2l-5.5 5.5c-.4.4-1.1.4-1.6 0l-1.6-1.6c-.4-.4-.4-1.1 0-1.6l5.5-5.5-5.5-5.5c-.4-.5-.4-1.2 0-1.6l1.6-1.6c.4-.4 1.1-.4 1.6 0l5.5 5.5 5.5-5.5c.4-.4 1.1-.4 1.6 0l1.6 1.6c.4.4.4 1.1 0 1.6L72.2 14l5.5 5.5c.4.4.4 1.1 0 1.6l-1.6 1.6c-.4.4-1.1.4-1.6 0" fill="black" fill-opacity=".6"/></g><g id="eyebrows-raisedExcited-d582194a"><path d="M8.11 17.13C9.61 7.6 22.2 1.1 31.31 5.3a2 2 0 0 0 1.66-3.63C21.5-3.63 6.07 4.33 4.17 16.5a2 2 0 1 0 3.94.63m80.05 0C86.66 7.6 74.08 1.1 64.97 5.3a2 2 0 0 1-1.67-3.63c11.5-5.3 26.9 2.66 28.81 14.83a2 2 0 0 1-3.95.63" fill="black" fill-opacity=".6"/></g><g id="top-shaggyMullet-d582194a"><path d="M176.75 37.86c9.52 7.1 17.76 18.58 18.16 30.82.17 5.5-.62 11.23-1.73 16.62-.5 2.46-1.6 4.66-2.7 6.85-1.07 2.12-2.13 4.24-2.64 6.58-2.63-8.93-10.09-13.97-17.5-19-3.96-2.66-7.9-5.33-11.1-8.58 1.02 1.93 2.3 3.7 3.6 5.46 1.23 1.7 2.47 3.4 3.45 5.22-9.24-5.66-18.2-13.88-22.03-24.3a29.5 29.5 0 0 1-6.1 14.67c-3.02 3.8-7.59 7.87-12.3 9.34 2.43-5.5 4.5-11.21 6.4-16.92-1.78 2.31-7.2 11.29-9.6 15.23l-.77 1.26a74 74 0 0 1-10.47 13.35c-.5.53-1.42 1.52-.67.54-1.85 2.35-4.45 4.26-6.9 6.07l-1.4 1.04a52 52 0 0 1-9.2 5.48c-7.1 3.31-14.38 4.54-22.1 3.2.9.1 2.34-.4 3.52-.82a20 20 0 0 1 1.22-.4c1.8-.5 3.47-1.12 5.11-2.02a54 54 0 0 0 9.18-6.42c-1.37.58-2.6 1.42-3.84 2.27-1.23.83-2.46 1.67-3.83 2.27-2.28 1-4.54 1.53-7.03 1.77-5.46.53-12-.72-16.72-3.6-5.5-3.32-8.54-9.04-9.99-15.13-1.68-7.06-.63-15.04 3.33-21.07.13 2.14 4.43 3.06 7.92 2.53 3.77-.59 6.95-6.52 10.9-13.93C77.11 44.7 85.2 29.57 100.44 25.6c19.96-5.2 34.21 3.87 35.42 4.66 1.22.78 1.8.63 2.93.32l.64-.17c6.35-1.47 13.26-2.16 19.7-.87 6.35 1.26 12.43 4.54 17.57 8.38M70.92 110.78l.21.04zm7.1 45.42q1.2-2.3 2.32-4.6a56.2 56.2 0 0 0 27.68 29v9.01a54 54 0 0 1-7.73 2c-9 1.63-34.32-3.52-45.44-11.97-.85-.65-.42-1.92.67-2 11.66-.8 17.63-12.13 22.4-21.2zm78 26.85v-2.44c6.95-3.3 13.11-8 18.13-13.71.71 2.24 1.75 4.33 3.43 5.79 1.32 1.14 3.48 1.12 5.34 1.1h1.2q2.5.1 5.02-.01c.83-.03 1.2 1.02.53 1.5l-.4.26a39 39 0 0 1-3.24 1.82 29 29 0 0 1-7.98 2.73q-2.89.5-5.66.18a10 10 0 0 0 1.7 1.94c1.41 1.22 3.72 1.2 5.7 1.19h1.28q2.69.09 5.36-.02c.9-.04 1.3 1.09.57 1.6q-.2.16-.42.28-1.68 1.05-3.47 1.94a31 31 0 0 1-8.52 2.92c-5.5.97-10.86-.18-15.19-3.7a25 25 0 0 1-3.38-3.37" fill="#bf55b5"/><path d="M80.32 151.6q-1.12 2.3-2.31 4.6l-.1.18c-4.73 9.08-10.7 20.42-22.4 21.22-1.05.07-1.5 1.34-.63 1.99 11.12 8.45 36.43 13.6 45.44 11.98a54 54 0 0 0 7.73-1.96v-8.95a56.2 56.2 0 0 1-27.68-29m75.67 29v2.43a25 25 0 0 0 3.38 3.36c4.33 3.53 9.7 4.68 15.2 3.71a31 31 0 0 0 8.51-2.92 42 42 0 0 0 3.9-2.23c.72-.5.32-1.64-.57-1.6q-2.67.1-5.35.01h-1.3c-1.97.01-4.28.03-5.7-1.2a10 10 0 0 1-1.7-1.93q2.78.33 5.67-.18a29 29 0 0 0 7.98-2.73 39 39 0 0 0 3.64-2.08c.68-.48.3-1.53-.53-1.5a70 70 0 0 1-5.02.02h-1.2c-1.85.01-4.01.03-5.33-1.1-1.7-1.47-2.72-3.56-3.43-5.8a56 56 0 0 1-18.14 13.7" fill="black" fill-opacity=".16"/></g><clipPath id="clip-d582194a"><rect width="280" height="280" rx="103.6" ry="103.6"/></clipPath></defs><g clip-path="url(#clip-d582194a)"><g transform="translate(50.4, 0)"><path d="M140 36a56 56 0 0 0-56 56v6.17A12 12 0 0 0 74 110v14a12 12 0 0 0 10.3 11.88A56 56 0 0 0 116 180.6V199h-4a72 72 0 0 0-72 72v9h200v-9a72 72 0 0 0-72-72h-4v-18.38a56 56 0 0 0 31.7-44.73A12 12 0 0 0 206 124v-14a12 12 0 0 0-10-11.83V92a56 56 0 0 0-56-56" fill="url(#skin-color-d582194a)"/><path d="M116 180.61v8a56 56 0 0 0 24 5.39 56 56 0 0 0 24-5.39v-8a56 56 0 0 1-24 5.39 56 56 0 0 1-24-5.39" fill="black" fill-opacity=".1"/><use transform="translate(40 184.7)" href="#clothes-graphicShirt-d582194a"/><use transform="translate(94 140)" href="#mouth-twinkle-d582194a"/><use transform="translate(128 130)" href="#nose-default-d582194a"/><use transform="translate(98 98)" href="#eyes-xDizzy-d582194a"/><use transform="translate(91.86 82)" href="#eyebrows-raisedExcited-d582194a"/><use transform="translate(8)" href="#top-shaggyMullet-d582194a"/></g></g></svg>