<svg xmlns="http://www.w3.org/2000/svg" viewBox="0 0 280 280" fill="none" shape-rendering="auto" aria-hidden="true"><!-- Generated by DiceBear (https://dicebear.com) --><metadata xmlns:rdf="http://www.w3.org/1999/02/22-rdf-syntax-ns#" xmlns:xsi="http://www.w3.org/2001/XMLSchema-instance" xmlns:dc="http://purl.org/dc/elements/1.1/" xmlns:dcterms="http://purl.org/dc/terms/"><rdf:RDF><rdf:Description><dc:title>Avataaars</dc:title><dc:creator>Pablo Stanley</dc:creator><dc:source xsi:type="dcterms:URI">https://avataaars.com/</dc:source><dcterms:license xsi:type="dcterms:URI">https://avataaars.com/</dcterms:license><dc:rights>Remix of “Avataaars” (https://avataaars.com/) by “Pablo Stanley”, licensed under “Free for personal and commercial use” (https://avataaars.com/)</dc:rights></rdf:Description></rdf:RDF></metadata><defs><linearGradient id="skin-color-c71f4674" gradientTransform="rotate(-128, 0.5, 0.5)"><stop offset="0%" stop-color="#edb98a"/><stop offset="100%" stop-color="#005dbc"/></linearGradient><g id="clothesGraphic-cumbia-c71f4674"><path fill-rule="evenodd" clip-rule="evenodd" d="M10.27 29.13c3.28-.56 5.73-3.55 5.18-6.79-.46-2.72-1.74-.34-2.97.86-1.34 1.3-2.45 2.57-4.54 2.05-3.6-.9-4.86-5.4-3.84-8.48a6 6 0 0 1 3.48-3.7c1.85-.74 3.2.1 4.75 1.1.28.19 1.73 1.37 2 1.25.45-.21.1-2.43.04-2.73a4.8 4.8 0 0 0-2.62-3.23C8.4 7.82 4.23 9.94 2.1 12.5c-4.88 5.9-.91 18.17 8.17 16.62m8.41-6.22c.51 3.48 2.99 6.5 6.96 6.36 4.28-.16 6.06-4.1 7-7.5.97-3.4 2.06-7.67.67-11.08-.42-1.03-.68-2.38-1.71-1.53-1.26 1.03-1.41 4.04-1.52 5.44-.2 2.65-.78 9.97-4.1 10.95-4.18 1.22-4.05-5.85-4-7.98.03-1.9.24-3.73-.35-5.58-.3-1-.59-2.44-1.53-1.64-1.29 1.1-1.45 3.83-1.54 5.33a36 36 0 0 0 .13 7.23m19.09 2.85c.2.4.63 1.4 1.02 1.67.95.67-.05.71.8-.05.82-.73 1.13-2.72 1.26-3.67.38-2.96-.12-6.1-.09-9.1 1.02 2.22 1.58 4.6 2.39 6.88.55 1.58 1.4 4.8 3.65 4.75 2.5-.05 2.6-3.14 2.9-4.82a71 71 0 0 1 1.7-7.04c.1 3.91-1.4 11 2.1 13.92a50 50 0 0 0 1.5-4.4c.26-1.7.1-3.45.1-5.15.09-3.6.76-8-.3-11.5-.29-1.14-.94-2.27-2.37-2.24-1.83.04-2.24 2-2.7 3.3a114 114 0 0 0-3.35 10.94c-.54-1.68-5.33-16.42-8.8-10.9-.54.9-.3 2.22-.32 3.2-.04 1.87-.15 3.75-.2 5.63-.06 2.84-.4 5.9.8 8.58M62.1 12.71c.72-.14 5.74-1.73 5.52-.14-.22 1.68-4.63 3.31-5.81 3.88 0-1.2-.24-2.44-.65-3.57zm5.72-.64c-.03-.04 0 0 0 0m.12 8.34c2.27 1.22 1.3 3.42-.43 4.6-.63.56-6.5 1.9-6.49 1.76.18-1.7-.26-5 1-6 1.3-1.05 4.5-.82 5.94-.27m.06-8.01s.01.03 0 0M58 29.33c.23.55.86 1.91 1.57 1.94.86.04.8-1.04.93-1.7 3.44 1.72 8.5-.05 10.9-3.03a6.15 6.15 0 0 0-2.57-9.74c2.1-1.7 4.02-5.4 1.25-7.5a7.7 7.7 0 0 0-8.12-.3c-2.74 1.72-3.85 5.83-4.1 9-.25 3.42-1.15 8.14.14 11.34m18.11-8.4c.07 2.07-.15 4.3.33 6.3.17.72.44 1.52.76 2.17.61 1.2.31 1.06 1.03.37 2.18-2.08 1.21-8.58 1.16-11.25-.04-2.08.06-4.28-.5-6.28-.17-.56-1.13-3.35-1.67-3.3-.8.1-1.37 3.94-1.42 4.7-.15 2.4.23 4.9.31 7.3m18.7.56c-1.58-.14-3.62.07-5.12.56.7-1.9 1.48-4.05 2.24-5.8q.7-1.6 1.5-3.22c1.27 2.68 1.98 5.82 2.82 8.66q-.7-.12-1.44-.2m5.44.72c-.73-2.77-1.58-5.53-2.43-8.27-.54-1.75-1.13-3.92-2.6-5.17-4.2-3.56-6.56 5.85-7.6 8.23-.97 2.3-2.2 4.65-2.84 7.07a10 10 0 0 0-.24 3.63c.2 1.52 0 1.74 1.3.9 1-.62 1.4-1.78 2.22-2.55.14-.14.22-.68.4-.76.18-.1 1.5.25 1.8.27 2.18.17 4.72-.2 6.72-1.03.2.86 1.63 5.98 2.98 5.79.6-.08.96-3.06 1-3.54.08-1.55-.36-3.05-.75-4.54m9.11-13.7c-.26-1.2-.8-3.3-1.84-2.12-1.4 1.6-1.1 5.18-1.1 7.19-.03 1.45-1.56 12.06.55 11.88-.1-.01.84-1.68.98-1.93a12 12 0 0 0 1.32-4.72c.37-3.24.8-7.12.1-10.3M108.2 29.4c-2.23-2.73-6.3.66-5.04 3.38 1.73 3.7 7.33-.57 5.04-3.38m-13.3 4.23c-2.9-.73-6.3-.24-9.25-.15-3.08.1-6.16.27-9.24.36-6.57.2-13.13.1-19.7.04-12.38-.1-24.86.7-37.32.17-2.67-.12-5.54-.72-8.2-.2-.72.13-3 .53-3.32 1.25-.34.76 1.4 1.56 2.33 1.96 2.41 1.04 5.32.86 7.9.96 2.92.12 5.9.06 8.81 0 12.07-.3 24.1-1.35 36.18-1.18 6.97.1 13.93.04 20.9 0 3.32 0 7 .53 10.27-.06.55-.1 3.76-.85 3.8-1.83.03-.46-2.8-1.23-3.12-1.32" fill="white"/></g><g id="clothes-graphicShirt-c71f4674"><path d="M100.5 39.3c18.5 0 33.5-9.62 33.5-21.5q0-1.64-.38-3.23A72 72 0 0 1 200 86.36v8.95H0v-8.95A72 72 0 0 1 67.4 14.5a14 14 0 0 0-.4 3.3c0 11.88 15 21.5 33.5 21.5" fill="#71994c"/><use transform="translate(45 44.3)" href="#clothesGraphic-cumbia-c71f4674"/></g><g id="mouth-vomit-c71f4674"><path fill-rule="evenodd" clip-rule="evenodd" d="M26 24.4C27.14 13.9 30.24 5 46 5s18.92 8.96 20 19.5c.08.84-.83 1.5-1.96 1.5-6.69 0-9.37-1.5-18.05-1.5-8.7 0-13.25 1.5-17.9 1.5-1.16 0-2.2-.55-2.1-1.6" fill="black" fill-opacity=".7"/><path d="M59.86 9.1c-.8.57-1.8.9-2.86.9H36c-1.3 0-2.49-.5-3.38-1.31C35.56 6.39 39.8 5 46 5c6.54 0 10.9 1.54 13.86 4.1" fill="white"/><path d="M34 19a6 6 0 0 0-6 6v7a6 6 0 0 0 12 0v-2h.08a6 6 0 0 1 11.84 0H52a6 6 0 0 0 12 0v-5a6 6 0 0 0-6-6z" fill="#7BB24B"/><path d="M64 25a6 6 0 0 0-6-6H34a6 6 0 0 0-6 6v6a6 6 0 0 0 12 0v-2h.08a6 6 0 0 1 11.84 0H52a6 6 0 0 0 12 0z" fill="#88C553"/></g><g id="nose-default-c71f4674"><path fill-rule="evenodd" clip-rule="evenodd" d="M0 0c0 4.42 5.37 8 12 8s12-3.58 12-8" fill="black" fill-opacity=".16"/></g><g id="eyes-hearts-c71f4674"><path d="M21.96 2c-2.55 0-5.08 1.98-6.46 3.82C14.1 3.98 11.6 2 9.04 2 3.55 2 0 5.33 0 9.64c0 5.73 4.41 9.13 9.04 12.74 1.66 1.23 4.78 4.4 5.17 5.1.4.68 2.13.7 2.62 0 .47-.73 3.5-3.87 5.16-5.1 4.63-3.6 9.04-7 9.04-12.74C31 5.34 27.46 2 21.97 2m53 0c-2.55 0-5.08 1.98-6.46 3.82C67.1 3.98 64.6 2 62.04 2 56.54 2 53 5.33 53 9.64c0 5.73 4.41 9.13 9.04 12.74 1.66 1.23 4.78 4.4 5.17 5.1.38.68 2.1.7 2.58 0 .48-.73 3.5-3.87 5.17-5.1 4.63-3.6 9.04-7 9.04-12.74C84 5.34 80.45 2 74.96 2" fill="#FF5353" fill-opacity=".8"/></g><g id="eyebrows-raisedExcited-c71f4674"><path d="M8.11 17.13C9.61 7.6 22.2 1.1 31.31 5.3a2 2 0 0 0 1.66-3.63C21.5-3.63 6.07 4.33 4.17 16.5a2 2 0 1 0 3.94.63m80.05 0C86.66 7.6 74.08 1.1 64.97 5.3a2 2 0 0 1-1.67-3.63c11.5-5.3 26.9 2.66 28.81 14.83a2 2 0 0 1-3.95.63" fill="black" fill-opacity=".6"/></g><g id="top-bun-c71f4674"><path d="M150.12 28.28c3.06-2.97 4.88-6.71 4.88-10.78C155 7.84 144.7 0 132 0s-23 7.84-23 17.5c0 4.1 1.85 7.86 4.94 10.84q-1.48.33-2.9.69c-15.1 3.8-24.02 14.62-31.68 30.62a68 68 0 0 0-6.34 25.83 34 34 0 0 0 1.25 10.22c.33 1.2 2.15 5.39 2.65 2 .1-.66-.07-1.47-.24-2.27q-.2-.84-.26-1.6c-.08-1.56 0-3.15.1-4.72q.29-4.4 1.66-8.59c1.33-3.98 3.02-8.3 5.6-11.67.97-1.25 1.88-2.7 2.88-4.27 5.63-8.9 13.68-21.6 45.34-22.9 34.3-1.42 46.78 21.66 51.2 29.87q.58 1.06.98 1.75c2.67 4.53 2.78 9.75 2.9 14.91.05 2.71.1 5.41.54 8 .47 2.84 1.54 2.78 2.13.23 1-4.33 1.47-8.83 1.15-13.28-.72-10.05-4.4-36.45-24.6-48.15a66 66 0 0 0-16.18-6.73" fill="#0c6223"/></g><clipPath id="clip-c71f4674"><rect width="280" height="280" rx="103.6" ry="103.6"/></clipPath></defs><g clip-path="url(#clip-c71f4674)"><g transform="translate(50.4, 0)"><path d="M140 36a56 56 0 0 0-56 56v6.17A12 12 0 0 0 74 110v14a12 12 0 0 0 10.3 11.88A56 56 0 0 0 116 180.6V199h-4a72 72 0 0 0-72 72v9h200v-9a72 72 0 0 0-72-72h-4v-18.38a56 56 0 0 0 31.7-44.73A12 12 0 0 0 206 124v-14a12 12 0 0 0-10-11.83V92a56 56 0 0 0-56-56" fill="url(#skin-color-c71f4674)"/><path d="M116 180.61v8a56 56 0 0 0 24 5.39 56 56 0 0 0 24-5.39v-8a56 56 0 0 1-24 5.39 56 56 0 0 1-24-5.39" fill="black" fill-opacity=".1"/><use transform="translate(40 184.7)" href="#clothes-graphicShirt-c71f4674"/><use transform="translate(94 140)" href="#mouth-vomit-c71f4674"/><use transform="translate(128 130)" href="#nose-default-c71f4674"/><use transform="translate(98 98)" href="#eyes-hearts-c71f4674"/><use transform="translate(91.86 82)" href="#eyebrows-raisedExcited-c71f4674"/><use transform="translate(8)" href="#top-bun-c71f4674"/></g></g></svg>