<svg xmlns="http://www.w3.org/2000/svg" viewBox="0 0 280 280" fill="none" shape-rendering="auto" aria-hidden="true"><!-- Generated by DiceBear (https://dicebear.com) --><metadata xmlns:rdf="http://www.w3.org/1999/02/22-rdf-syntax-ns#" xmlns:xsi="http://www.w3.org/2001/XMLSchema-instance" xmlns:dc="http://purl.org/dc/elements/1.1/" xmlns:dcterms="http://purl.org/dc/terms/"><rdf:RDF><rdf:Description><dc:title>Avataaars</dc:title><dc:creator>Pablo Stanley</dc:creator><dc:source xsi:type="dcterms:URI">https://avataaars.com/</dc:source><dcterms:license xsi:type="dcterms:URI">https://avataaars.com/</dcterms:license><dc:rights>Remix of “Avataaars” (https://avataaars.com/) by “Pablo Stanley”, licensed under “Free for personal and commercial use” (https://avataaars.com/)</dc:rights></rdf:Description></rdf:RDF></metadata><defs><linearGradient id="skin-color-0d06edd7" gradientTransform="rotate(-128, 0.5, 0.5)"><stop offset="0%" stop-color="#2e91bc"/><stop offset="100%" stop-color="#614335"/></linearGradient><g id="clothes-collarAndSweater-0d06edd7"><path d="M68.37 14.45A28 28 0 0 1 76 6.88v15.3C76 28 79.98 33.16 86.08 36.3l-.08.06.9 2.87c3.89 2 8.35 3.13 13.1 3.13s9.21-1.14 13.1-3.13l.9-2.87-.08-.06C120.02 33.16 124 28 124 22.18V7.58a27 27 0 0 1 6.6 6.82A72 72 0 0 1 200 86.36v8.95H0v-8.95a72 72 0 0 1 68.37-71.91" fill="#fef6f3"/><path d="M76 6.88c-6.77 4.6-11 11.17-11 18.45 0 7.4 4.36 14.06 11.3 18.67l6.12-4.82 4.58.33-1-3.15.08-.06C79.98 33.16 76 28 76 22.18zm48 15.3c0 5.83-3.98 10.98-10.08 14.12l.08.06-1 3.15 4.58-.33 5.65 4.45c6.63-4.6 10.77-11.1 10.77-18.3 0-6.92-3.82-13.19-10-17.74z" fill="white" fill-opacity=".75"/></g><g id="mouth-default-0d06edd7"><path fill-rule="evenodd" clip-rule="evenodd" d="M32 9a14 14 0 1 0 28 0" fill="black" fill-opacity=".7"/></g><g id="nose-default-0d06edd7"><path fill-rule="evenodd" clip-rule="evenodd" d="M0 0c0 4.42 5.37 8 12 8s12-3.58 12-8" fill="black" fill-opacity=".16"/></g><g id="eyes-xDizzy-0d06edd7"><path d="M20.5 22.7 15 17.2l-5.5 5.5c-.4.4-1.1.4-1.6 0l-1.6-1.6c-.4-.4-.4-1.1 0-1.6l5.5-5.5-5.5-5.5c-.4-.5-.4-1.2 0-1.6l1.6-1.6c.4-.4 1.1-.4 1.6 0l5.5 5.5 5.5-5.5c.4-.4 1.1-.4 1.6 0l1.6 1.6c.4.4.4 1.1 0 1.6L18.2 14l5.5 5.5c.4.4.4 1.1 0 1.6l-1.6 1.6c-.4.4-1.1.4-1.6 0m54 0L69 17.2l-5.5 5.5c-.4.4-1.1.4-1.6 0l-1.6-1.6c-.4-.4-.4-1.1 0-1.6l5.5-5.5-5.5-5.5c-.4-.5-.4-1.2 0-1.6l1.6-1.6c.4-.4 1.1-.4 1.6 0l5.5 5.5 5.5-5.5c.4-.4 1.1-.4 1.6 0l1.6 1.6c.4.4.4 1.1 0 1.6L72.2 14l5.5 5.5c.4.4.4 1.1 0 1.6l-1.6 1.6c-.4.4-1.1.4-1.6 0" fill="black" fill-opacity=".6"/></g><g id="eyebrows-flatNatural-0d06edd7"><path fill-rule="evenodd" clip-rule="evenodd" d="M30.8 11.1c-5 .35-9.93.08-14.92-.13-3.83-.16-7.72-.68-11.37 1-.7.33-4.53 2.29-4.45 3.36.08.85 3.94 2.2 4.64 2.44 3.66 1.29 7.18.9 10.95.66 4.63-.27 9.23-.07 13.86-.2 3.18-.1 7.98-.63 9.5-4.4.48-1.14.1-3.42-.34-4.66-.2-.5-.72-.69-1.13-.4a15 15 0 0 1-6.68 2.32m34.67 0c4.99.36 9.9.09 14.9-.12 3.83-.16 7.72-.68 11.38 1 .7.33 4.53 2.29 4.44 3.36-.07.85-3.94 2.2-4.63 2.44-3.67 1.29-7.18.9-10.96.66-4.62-.27-9.23-.07-13.86-.2-3.11-.1-7.91-.63-9.45-4.4-.47-1.14-.1-3.42.36-4.66.18-.5.72-.69 1.12-.4a15 15 0 0 0 6.7 2.32" fill="black" fill-opacity=".6"/></g><g id="top-shaggyMullet-0d06edd7"><path d="M176.75 37.86c9.52 7.1 17.76 18.58 18.16 30.82.17 5.5-.62 11.23-1.73 16.62-.5 2.46-1.6 4.66-2.7 6.85-1.07 2.12-2.13 4.24-2.64 6.58-2.63-8.93-10.09-13.97-17.5-19-3.96-2.66-7.9-5.33-11.1-8.58 1.02 1.93 2.3 3.7 3.6 5.46 1.23 1.7 2.47 3.4 3.45 5.22-9.24-5.66-18.2-13.88-22.03-24.3a29.5 29.5 0 0 1-6.1 14.67c-3.02 3.8-7.59 7.87-12.3 9.34 2.43-5.5 4.5-11.21 6.4-16.92-1.78 2.31-7.2 11.29-9.6 15.23l-.77 1.26a74 74 0 0 1-10.47 13.35c-.5.53-1.42 1.52-.67.54-1.85 2.35-4.45 4.26-6.9 6.07l-1.4 1.04a52 52 0 0 1-9.2 5.48c-7.1 3.31-14.38 4.54-22.1 3.2.9.1 2.34-.4 3.52-.82a20 20 0 0 1 1.22-.4c1.8-.5 3.47-1.12 5.11-2.02a54 54 0 0 0 9.18-6.42c-1.37.58-2.6 1.42-3.84 2.27-1.23.83-2.46 1.67-3.83 2.27-2.28 1-4.54 1.53-7.03 1.77-5.46.53-12-.72-16.72-3.6-5.5-3.32-8.54-9.04-9.99-15.13-1.68-7.06-.63-15.04 3.33-21.07.13 2.14 4.43 3.06 7.92 2.53 3.77-.59 6.95-6.52 10.9-13.93C77.11 44.7 85.2 29.57 100.44 25.6c19.96-5.2 34.21 3.87 35.42 4.66 1.22.78 1.8.63 2.93.32l.64-.17c6.35-1.47 13.26-2.16 19.7-.87 6.35 1.26 12.43 4.54 17.57 8.38M70.92 110.78l.21.04zm7.1 45.42q1.2-2.3 2.32-4.6a56.2 56.2 0 0 0 27.68 29v9.01a54 54 0 0 1-7.73 2c-9 1.63-34.32-3.52-45.44-11.97-.85-.65-.42-1.92.67-2 11.66-.8 17.63-12.13 22.4-21.2zm78 26.85v-2.44c6.95-3.3 13.11-8 18.13-13.71.71 2.24 1.75 4.33 3.43 5.79 1.32 1.14 3.48 1.12 5.34 1.1h1.2q2.5.1 5.02-.01c.83-.03 1.2 1.02.53 1.5l-.4.26a39 39 0 0 1-3.24 1.82 29 29 0 0 1-7.98 2.73q-2.89.5-5.66.18a10 10 0 0 0 1.7 1.94c1.41 1.22 3.72 1.2 5.7 1.19h1.28q2.69.09 5.36-.02c.9-.04 1.3 1.09.57 1.6q-.2.16-.42.28-1.68 1.05-3.47 1.94a31 31 0 0 1-8.52 2.92c-5.5.97-10.86-.18-15.19-3.7a25 25 0 0 1-3.38-3.37" fill="#c93305"/><path d="M80.32 151.6q-1.12 2.3-2.31 4.6l-.1.18c-4.73 9.08-10.7 20.42-22.4 21.22-1.05.07-1.5 1.34-.63 1.99 11.12 8.45 36.43 13.6 45.44 11.98a54 54 0 0 0 7.73-1.96v-8.95a56.2 56.2 0 0 1-27.68-29m75.67 29v2.43a25 25 0 0 0 3.38 3.36c4.33 3.53 9.7 4.68 15.2 3.71a31 31 0 0 0 8.51-2.92 42 42 0 0 0 3.9-2.23c.72-.5.32-1.64-.57-1.6q-2.67.1-5.35.01h-1.3c-1.97.01-4.28.03-5.7-1.2a10 10 0 0 1-1.7-1.93q2.78.33 5.67-.18a29 29 0 0 0 7.98-2.73 39 39 0 0 0 3.64-2.08c.68-.48.3-1.53-.53-1.5a70 70 0 0 1-5.02.02h-1.2c-1.85.01-4.01.03-5.33-1.1-1.7-1.47-2.72-3.56-3.43-5.8a56 56 0 0 1-18.14 13.7" fill="black" fill-opacity=".16"/></g><clipPath id="clip-0d06edd7"><rect width="280" height="280" rx="103.6" ry="103.6"/></clipPath></defs><g clip-path="url(#clip-0d06edd7)"><g transform="translate(50.4, 0)"><path d="M140 36a56 56 0 0 0-56 56v6.17A12 12 0 0 0 74 110v14a12 12 0 0 0 10.3 11.88A56 56 0 0 0 116 180.6V199h-4a72 72 0 0 0-72 72v9h200v-9a72 72 0 0 0-72-72h-4v-18.38a56 56 0 0 0 31.7-44.73A12 12 0 0 0 206 124v-14a12 12 0 0 0-10-11.83V92a56 56 0 0 0-56-56" fill="url(#skin-color-0d06edd7)"/><path d="M116 180.61v8a56 56 0 0 0 24 5.39 56 56 0 0 0 24-5.39v-8a56 56 0 0 1-24 5.39 56 56 0 0 1-24-5.39" fill="black" fill-opacity=".1"/><use transform="translate(40 184.7)" href="#clothes-collarAndSweater-0d06edd7"/><use transform="translate(94 140)" href="#mouth-default-0d06edd7"/><use transform="translate(128 130)" href="#nose-default-0d06edd7"/><use transform="translate(98 98)" href="#eyes-xDizzy-0d06edd7"/><use transform="translate(91.86 82)" href="#eyebrows-flatNatural-0d06edd7"/><use transform="translate(8)" href="#top-shaggyMullet-0d06edd7"/></g></g></svg>