<svg xmlns="http://www.w3.org/2000/svg" viewBox="0 0 280 280" fill="none" shape-rendering="auto" aria-hidden="true"><!-- Generated by DiceBear (https://dicebear.com) --><metadata xmlns:rdf="http://www.w3.org/1999/02/22-rdf-syntax-ns#" xmlns:xsi="http://www.w3.org/2001/XMLSchema-instance" xmlns:dc="http://purl.org/dc/elements/1.1/" xmlns:dcterms="http://purl.org/dc/terms/"><rdf:RDF><rdf:Description><dc:title>Avataaars</dc:title><dc:creator>Pablo Stanley</dc:creator><dc:source xsi:type="dcterms:URI">https://avataaars.com/</dc:source><dcterms:license xsi:type="dcterms:URI">https://avataaars.com/</dcterms:license><dc:rights>Remix of “Avataaars” (https://avataaars.com/) by “Pablo Stanley”, licensed under “Free for personal and commercial use” (https://avataaars.com/)</dc:rights></rdf:Description></rdf:RDF></metadata><defs><linearGradient id="skin-color-52c701de" gradientTransform="rotate(-128, 0.5, 0.5)"><stop offset="0%" stop-color="#ffdbb4"/><stop offset="100%" stop-color="#614335"/></linearGradient><g id="clothes-shirtVNeck-52c701de"><path d="M60.68 15.24A72 72 0 0 0 0 86.36v8.95h200v-8.95a72 72 0 0 0-60.68-71.12 24 24 0 0 1-7.56 13.6l-29.08 26.23a4 4 0 0 1-5.36 0L68.24 28.84a24 24 0 0 1-7.56-13.6" fill="#65c9ff"/></g><g id="mouth-tongue-52c701de"><path fill-rule="evenodd" clip-rule="evenodd" d="M21 9.6C22.41 19.24 33.06 27 46 27c12.97 0 23.65-7.82 25-18.26.1-.4-.22-1.74-2.17-1.74H23.17c-1.79 0-2.3 1.24-2.17 2.6" fill="black" fill-opacity=".7"/><path d="M62 7H31a5 5 0 0 0 5 5h21a5 5 0 0 0 5-5" fill="white"/><path d="M35 17.5v9a11.5 11.5 0 1 0 23 0v-9c0-1.93-2.91-3.5-6.5-3.5-2.01 0-3.8.5-5 1.26a9.5 9.5 0 0 0-5-1.26c-3.59 0-6.5 1.57-6.5 3.5" fill="#FF4F6D"/></g><g id="nose-default-52c701de"><path fill-rule="evenodd" clip-rule="evenodd" d="M0 0c0 4.42 5.37 8 12 8s12-3.58 12-8" fill="black" fill-opacity=".16"/></g><g id="eyes-hearts-52c701de"><path d="M21.96 2c-2.55 0-5.08 1.98-6.46 3.82C14.1 3.98 11.6 2 9.04 2 3.55 2 0 5.33 0 9.64c0 5.73 4.41 9.13 9.04 12.74 1.66 1.23 4.78 4.4 5.17 5.1.4.68 2.13.7 2.62 0 .47-.73 3.5-3.87 5.16-5.1 4.63-3.6 9.04-7 9.04-12.74C31 5.34 27.46 2 21.97 2m53 0c-2.55 0-5.08 1.98-6.46 3.82C67.1 3.98 64.6 2 62.04 2 56.54 2 53 5.33 53 9.64c0 5.73 4.41 9.13 9.04 12.74 1.66 1.23 4.78 4.4 5.17 5.1.38.68 2.1.7 2.58 0 .48-.73 3.5-3.87 5.17-5.1 4.63-3.6 9.04-7 9.04-12.74C84 5.34 80.45 2 74.96 2" fill="#FF5353" fill-opacity=".8"/></g><g id="eyebrows-upDown-52c701de"><path d="M7.73 14.16c4.5-6.32 14.01-9.5 23.75-6.36a2 2 0 1 0 1.23-3.81c-11.4-3.7-22.74.1-28.24 7.85a2 2 0 1 0 3.26 2.32m80.78 7c-3.91-5.51-14.64-8.6-23.89-6.33a2 2 0 0 1-.95-3.88c10.73-2.64 23.16.94 28.1 7.9a2 2 0 0 1-3.26 2.3" fill="black" fill-opacity=".6"/></g><g id="top-turban-52c701de"><path d="M189.47 97.5q1.51-3.62 1.53-7.5c0-18.23-26.41-33-59-33-32.58 0-59 14.77-59 33q.02 3.88 1.53 7.5C80.6 82.89 104.03 72 132 72s51.4 10.89 57.47 25.5" fill="#EDECE3"/><path d="M48 94.32C47.93 133.5 77 141 77 141c-5.44-49.55 23.54-65.15 46.53-77.53 2.94-1.58 5.78-3.11 8.44-4.65a310 310 0 0 0 8.48 4.68C163.43 75.87 192.42 91.48 187 141c0 0 29.07-8.46 29-46.68C215.92 47.15 163.85 3 134 3q-1 0-2 .09-1-.1-2-.09c-29.93 0-81.92 44.15-82 91.32" fill="#25557c"/><path d="M48.01 95.9c.7 37.8 29 45.1 29 45.1s-29.05-7.07-29-43.97zm28.32 33.78c.15-37.86 26.18-51.05 47.2-61.71 11-5.58 20.64-10.47 24.47-17.83 4.13-7.25 5.39-13.94 4.65-19.67A39 39 0 0 1 148 44.54c-3.83 7.82-13.47 13-24.47 18.93-21.14 11.38-47.35 25.49-47.2 66.21" fill="black" fill-opacity=".16"/></g><clipPath id="clip-52c701de"><rect width="280" height="280" rx="103.6" ry="103.6"/></clipPath></defs><g clip-path="url(#clip-52c701de)"><g transform="translate(50.4, 0)"><path d="M140 36a56 56 0 0 0-56 56v6.17A12 12 0 0 0 74 110v14a12 12 0 0 0 10.3 11.88A56 56 0 0 0 116 180.6V199h-4a72 72 0 0 0-72 72v9h200v-9a72 72 0 0 0-72-72h-4v-18.38a56 56 0 0 0 31.7-44.73A12 12 0 0 0 206 124v-14a12 12 0 0 0-10-11.83V92a56 56 0 0 0-56-56" fill="url(#skin-color-52c701de)"/><path d="M116 180.61v8a56 56 0 0 0 24 5.39 56 56 0 0 0 24-5.39v-8a56 56 0 0 1-24 5.39 56 56 0 0 1-24-5.39" fill="black" fill-opacity=".1"/><use transform="translate(40 184.7)" href="#clothes-shirtVNeck-52c701de"/><use transform="translate(94 140)" href="#mouth-tongue-52c701de"/><use transform="translate(128 130)" href="#nose-default-52c701de"/><use transform="translate(98 98)" href="#eyes-hearts-52c701de"/><use transform="translate(91.86 82)" href="#eyebrows-upDown-52c701de"/><use transform="translate(8)" href="#top-turban-52c701de"/></g></g></svg>