<svg xmlns="http://www.w3.org/2000/svg" viewBox="0 0 280 280" fill="none" shape-rendering="auto" aria-hidden="true"><!-- Generated by DiceBear (https://dicebear.com) --><metadata xmlns:rdf="http://www.w3.org/1999/02/22-rdf-syntax-ns#" xmlns:xsi="http://www.w3.org/2001/XMLSchema-instance" xmlns:dc="http://purl.org/dc/elements/1.1/" xmlns:dcterms="http://purl.org/dc/terms/"><rdf:RDF><rdf:Description><dc:title>Avataaars</dc:title><dc:creator>Pablo Stanley</dc:creator><dc:source xsi:type="dcterms:URI">https://avataaars.com/</dc:source><dcterms:license xsi:type="dcterms:URI">https://avataaars.com/</dcterms:license><dc:rights>Remix of “Avataaars” (https://avataaars.com/) by “Pablo Stanley”, licensed under “Free for personal and commercial use” (https://avataaars.com/)</dc:rights></rdf:Description></rdf:RDF></metadata><defs><linearGradient id="skin-color-6d446e21" gradientTransform="rotate(-128, 0.5, 0.5)"><stop offset="0%" stop-color="#040f07"/><stop offset="100%" stop-color="#d08b5b"/></linearGradient><g id="clothes-collarAndSweater-6d446e21"><path d="M68.37 14.45A28 28 0 0 1 76 6.88v15.3C76 28 79.98 33.16 86.08 36.3l-.08.06.9 2.87c3.89 2 8.35 3.13 13.1 3.13s9.21-1.14 13.1-3.13l.9-2.87-.08-.06C120.02 33.16 124 28 124 22.18V7.58a27 27 0 0 1 6.6 6.82A72 72 0 0 1 200 86.36v8.95H0v-8.95a72 72 0 0 1 68.37-71.91" fill="#effe59"/><path d="M76 6.88c-6.77 4.6-11 11.17-11 18.45 0 7.4 4.36 14.06 11.3 18.67l6.12-4.82 4.58.33-1-3.15.08-.06C79.98 33.16 76 28 76 22.18zm48 15.3c0 5.83-3.98 10.98-10.08 14.12l.08.06-1 3.15 4.58-.33 5.65 4.45c6.63-4.6 10.77-11.1 10.77-18.3 0-6.92-3.82-13.19-10-17.74z" fill="white" fill-opacity=".75"/></g><g id="mouth-screamOpen-6d446e21"><path fill-rule="evenodd" clip-rule="evenodd" d="M26 32.86C27.14 18.88 30.24 7 46 7s18.92 11.94 20 26c.08 1.12-.83 2-1.96 2-6.69 0-9.37-2-18.05-2-8.7 0-13.26 2-17.9 2-1.17 0-2.2-.74-2.1-2.14" fill="black" fill-opacity=".7"/><path d="M59.02 11.57Q58.1 12 57 12H36c-.98 0-1.9-.28-2.67-.77C36.23 8.57 40.28 7 46 7c5.95 0 10.1 1.7 13.02 4.57" fill="white"/><path d="M61.8 34.92a44 44 0 0 1-5.54-.82c-2.73-.53-5.65-1.1-10.27-1.1-5.01 0-8.65.66-11.73 1.23-1.45.26-2.77.5-4.06.65A11 11 0 0 1 46 27.2a11 11 0 0 1 15.8 7.72" fill="#FF4F6D"/></g><g id="nose-default-6d446e21"><path fill-rule="evenodd" clip-rule="evenodd" d="M0 0c0 4.42 5.37 8 12 8s12-3.58 12-8" fill="black" fill-opacity=".16"/></g><g id="eyes-squint-6d446e21"><path d="M30 12.73c0 4.26-6.27 7.72-14 7.72S2 17 2 12.73 8.27 5 16 5s14 3.46 14 7.73m52 0c0 4.26-6.27 7.72-14 7.72S54 17 54 12.73 60.27 5 68 5s14 3.46 14 7.73" fill="white"/><path d="M18.82 20.3a25 25 0 0 1-5.64 0 6 6 0 1 1 5.64 0m52 0a25 25 0 0 1-5.64 0 6 6 0 1 1 5.64 0" fill="black" fill-opacity=".7"/></g><g id="eyebrows-sadConcernedNatural-6d446e21"><path fill-rule="evenodd" clip-rule="evenodd" d="m23.37 20.42-.91.4c-5.24 2.09-13.2 1.21-18.06-1.12-.56-.27-.18-1.15.4-1.1 14.92 1.14 24.97-8.15 28.38-14.45.1-.18.4-.2.48-.03 2.31 5.32-4.45 13.98-10.3 16.3m49.54 0 .9.4c5.26 2.09 13.2 1.2 18.06-1.12.57-.27.18-1.15-.4-1.1-14.92 1.14-24.96-8.15-28.38-14.45-.1-.18-.4-.2-.48-.03-2.3 5.32 4.45 13.98 10.3 16.3" fill="black" fill-opacity=".6"/></g><g id="top-theCaesar-6d446e21"><path fill-rule="evenodd" clip-rule="evenodd" d="M75 98c.35 1.49 1.67 1.22 2 0-.46-1.55 3.3-28.75 13-36 3.62-2.52 23-4.77 42.31-4.75 19.1 0 38.11 2.26 41.69 4.75 9.7 7.25 13.46 34.45 13 36 .33 1.22 1.65 1.49 2 0 .72-10.3 0-63.73-57-63S74.28 87.7 75 98" fill="#622c5c"/></g><linearGradient id="accessoriesWayfarers-a" x1="74.52" y1="48.93" x2="74.52" y2="84.07" gradientUnits="userSpaceOnUse"><stop stop-color="white" stop-opacity=".5"/><stop offset=".71" stop-opacity=".5"/></linearGradient><linearGradient id="accessoriesWayfarers-b" x1="74.52" y1="48.93" x2="74.52" y2="84.07" gradientUnits="userSpaceOnUse"><stop stop-color="white" stop-opacity=".5"/><stop offset=".71" stop-opacity=".5"/></linearGradient><g id="accessories-wayfarers-6d446e21"><path fill-rule="evenodd" clip-rule="evenodd" d="M33.48 48c-21.12 0-28.63 5.17-29.32 5.86a2.93 2.93 0 0 0-2.93 2.93v2.92a2.93 2.93 0 0 0 2.93 2.93s5.87 0 5.87 2.93q0 .3.03.45-.04 1.23-.04 2.48c0 12.84 8.3 20.5 22.18 20.5h2.75c14.68 0 24.93-8.43 24.93-20.5q0-2.17-.15-4.28l1.45-.73q.86-.42 1.88-.64a13.4 13.4 0 0 1 5.94.28q1.1.3 1.5.46l1.25.5a51 51 0 0 0-.16 4.4c0 12.81 8.29 20.5 22.18 20.5h2.75c14.68 0 24.93-8.46 24.93-20.5q0-1.28-.05-2.5.03-.18.04-.46c0-2.93 5.86-2.93 5.86-2.93 1.62 0 2.93-1.3 2.93-2.93v-2.9a2.93 2.93 0 0 0-2.93-2.93c-.69-.69-8.19-5.86-29.32-5.86h-2.93q-2.74 0-5.08.21c-9.38.56-14.46 2.2-19.63 4.76-.54.2-2.38.8-4.53.88a17 17 0 0 1-4.77-.92l-.42-.2c-4.9-2.46-8.35-4.19-20.55-4.62q-1.73-.1-3.66-.1zm-1.11 5.86h1.11q3.66 0 6.48.1C54 54.8 54 60.91 54 68.5c0 8.62-7.84 14.64-19.06 14.64H32.2c-13.49 0-16.32-7.96-16.32-14.64 0-8 0-14.37 16.5-14.64m26.1 4.36.1.03-.08.03zm14.51 0-.07.03.05.02zm16.7-4.12a125 125 0 0 1 9.41-.24c16.48.27 16.48 6.63 16.48 14.64 0 8.62-7.84 14.64-19.06 14.64h-2.75c-13.49 0-16.32-7.96-16.32-14.64 0-7.25 0-13.15 12.24-14.4" fill="black" fill-opacity=".1"/><path d="M34.95 84.07c13.75 0 22-7.87 22-17.57s-1.3-17.57-20.55-17.57h-2.93c-19.24 0-20.53 7.86-20.53 17.57 0 9.7 5.5 17.57 19.25 17.57z" fill="black" fill-opacity=".7"/><path d="M34.95 84.07c13.75 0 22-7.87 22-17.57s-1.3-17.57-20.55-17.57h-2.93c-19.24 0-20.53 7.86-20.53 17.57 0 9.7 5.5 17.57 19.25 17.57z" fill="url(#accessoriesWayfarers-a)" style="mix-blend-mode:screen"/><path d="M96.52 84.07c13.75 0 22-7.87 22-17.57s-1.3-17.57-20.54-17.57h-2.93c-19.25 0-20.53 7.86-20.53 17.57 0 9.7 5.5 17.57 19.25 17.57z" fill="black" fill-opacity=".7"/><path d="M96.52 84.07c13.75 0 22-7.87 22-17.57s-1.3-17.57-20.54-17.57h-2.93c-19.25 0-20.53 7.86-20.53 17.57 0 9.7 5.5 17.57 19.25 17.57z" fill="url(#accessoriesWayfarers-b)" style="mix-blend-mode:screen"/><path fill-rule="evenodd" clip-rule="evenodd" d="M33.48 46c-21.12 0-28.63 5.17-29.32 5.86a2.93 2.93 0 0 0-2.93 2.93v2.92a2.93 2.93 0 0 0 2.93 2.93s5.87 0 5.87 2.93q0 .3.03.45-.04 1.23-.04 2.48c0 12.84 8.3 20.5 22.18 20.5h2.75c14.68 0 24.93-8.43 24.93-20.5q0-2.17-.15-4.28l1.45-.73q.86-.42 1.88-.64a13.4 13.4 0 0 1 5.94.28q1.1.29 1.5.46l1.25.5a51 51 0 0 0-.16 4.4c0 12.81 8.29 20.5 22.18 20.5h2.75c14.68 0 24.93-8.46 24.93-20.5q0-1.28-.05-2.5.03-.17.04-.46c0-2.93 5.86-2.93 5.86-2.93 1.62 0 2.93-1.3 2.93-2.93v-2.9a2.93 2.93 0 0 0-2.93-2.93c-.69-.69-8.19-5.86-29.32-5.86h-2.93q-2.74 0-5.08.21c-9.38.56-14.46 2.2-19.63 4.76-.54.2-2.38.8-4.53.88a17 17 0 0 1-4.77-.92l-.42-.2c-4.9-2.46-8.35-4.19-20.55-4.62q-1.73-.1-3.66-.1zm-1.11 5.86h1.11q3.66 0 6.48.1C54 52.8 54 58.91 54 66.5c0 8.62-7.84 14.64-19.06 14.64H32.2c-13.49 0-16.32-7.96-16.32-14.64 0-8 0-14.37 16.5-14.64m26.1 4.36.1.03-.08.03zm14.51 0-.07.03.05.02zm16.7-4.12a125 125 0 0 1 9.41-.24c16.48.27 16.48 6.63 16.48 14.64 0 8.62-7.84 14.64-19.06 14.64h-2.75c-13.49 0-16.32-7.96-16.32-14.64 0-7.25 0-13.15 12.24-14.4" fill="#b1e2ff"/></g><clipPath id="clip-6d446e21"><rect width="280" height="280" rx="103.6" ry="103.6"/></clipPath></defs><g clip-path="url(#clip-6d446e21)"><g transform="translate(50.4, 0)"><path d="M140 36a56 56 0 0 0-56 56v6.17A12 12 0 0 0 74 110v14a12 12 0 0 0 10.3 11.88A56 56 0 0 0 116 180.6V199h-4a72 72 0 0 0-72 72v9h200v-9a72 72 0 0 0-72-72h-4v-18.38a56 56 0 0 0 31.7-44.73A12 12 0 0 0 206 124v-14a12 12 0 0 0-10-11.83V92a56 56 0 0 0-56-56" fill="url(#skin-color-6d446e21)"/><path d="M116 180.61v8a56 56 0 0 0 24 5.39 56 56 0 0 0 24-5.39v-8a56 56 0 0 1-24 5.39 56 56 0 0 1-24-5.39" fill="black" fill-opacity=".1"/><use transform="translate(40 184.7)" href="#clothes-collarAndSweater-6d446e21"/><use transform="translate(94 140)" href="#mouth-screamOpen-6d446e21"/><use transform="translate(128 130)" href="#nose-default-6d446e21"/><use transform="translate(98 98)" href="#eyes-squint-6d446e21"/><use transform="translate(91.86 82)" href="#eyebrows-sadConcernedNatural-6d446e21"/><use transform="translate(8)" href="#top-theCaesar-6d446e21"/><use transform="translate(75.77 46)" href="#accessories-wayfarers-6d446e21"/></g></g></svg>