<svg xmlns="http://www.w3.org/2000/svg" viewBox="0 0 280 280" fill="none" shape-rendering="auto" aria-hidden="true"><!-- Generated by DiceBear (https://dicebear.com) --><metadata xmlns:rdf="http://www.w3.org/1999/02/22-rdf-syntax-ns#" xmlns:xsi="http://www.w3.org/2001/XMLSchema-instance" xmlns:dc="http://purl.org/dc/elements/1.1/" xmlns:dcterms="http://purl.org/dc/terms/"><rdf:RDF><rdf:Description><dc:title>Avataaars</dc:title><dc:creator>Pablo Stanley</dc:creator><dc:source xsi:type="dcterms:URI">https://avataaars.com/</dc:source><dcterms:license xsi:type="dcterms:URI">https://avataaars.com/</dcterms:license><dc:rights>Remix of “Avataaars” (https://avataaars.com/) by “Pablo Stanley”, licensed under “Free for personal and commercial use” (https://avataaars.com/)</dc:rights></rdf:Description></rdf:RDF></metadata><defs><linearGradient id="skin-color-b4d82e73" gradientTransform="rotate(-128, 0.5, 0.5)"><stop offset="0%" stop-color="#005dbc"/><stop offset="100%" stop-color="#f8d25c"/></linearGradient><g id="clothes-overall-b4d82e73"><path d="M164 23.94V95.3H36V23.94a72 72 0 0 1 26-8.95v44.28h76V15a72 72 0 0 1 26 8.94" fill="#27342f"/><path d="M54 68.3a5 5 0 1 1-10 0 5 5 0 0 1 10 0m102 0a5 5 0 1 1-10 0 5 5 0 0 1 10 0" fill="#F4F4F4"/></g><g id="mouth-default-b4d82e73"><path fill-rule="evenodd" clip-rule="evenodd" d="M32 9a14 14 0 1 0 28 0" fill="black" fill-opacity=".7"/></g><g id="nose-default-b4d82e73"><path fill-rule="evenodd" clip-rule="evenodd" d="M0 0c0 4.42 5.37 8 12 8s12-3.58 12-8" fill="black" fill-opacity=".16"/></g><g id="eyes-wink-b4d82e73"><path d="M22 14a6 6 0 1 1-12 0 6 6 0 0 1 12 0" fill="black" fill-opacity=".6"/><path fill-rule="evenodd" clip-rule="evenodd" d="M56.6 16.96c1.59-3.92 5.55-6.86 10.37-7.2 4.8-.33 9.12 2 11.24 5.64.63 1.1-.1 2.06-.93 1.43-2.6-1.93-6.15-3-10-2.73a15 15 0 0 0-9.33 3.9c-.84.79-1.81.11-1.35-1.03" fill="black" fill-opacity=".6"/></g><g id="eyebrows-upDownNatural-b4d82e73"><path fill-rule="evenodd" clip-rule="evenodd" d="m14.9 1.58.91-.4C21.06-.9 29-.03 33.86 2.3c.57.27.18 1.15-.4 1.1C18.54 2.27 8.5 11.56 5.08 17.86c-.1.18-.4.2-.48.03C2.3 12.56 9.05 3.9 14.9 1.58m64.23 10.49c5.76.77 14.75 5.8 14 11.6-.03.2-.32.26-.44.1-2.49-3.2-21.7-7.87-28.72-6.9-.64.1-1.06-.57-.62-.98 3.74-3.54 10.62-4.52 15.78-3.82" fill="black" fill-opacity=".6"/></g><g id="top-theCaesar-b4d82e73"><path fill-rule="evenodd" clip-rule="evenodd" d="M75 98c.35 1.49 1.67 1.22 2 0-.46-1.55 3.3-28.75 13-36 3.62-2.52 23-4.77 42.31-4.75 19.1 0 38.11 2.26 41.69 4.75 9.7 7.25 13.46 34.45 13 36 .33 1.22 1.65 1.49 2 0 .72-10.3 0-63.73-57-63S74.28 87.7 75 98" fill="#316256"/></g><g id="accessories-prescription01-b4d82e73"><path fill-rule="evenodd" clip-rule="evenodd" d="M105.95 49.49c4.66.16 8 .88 10.54 4.52 3 .15 6.23.37 8.95 1.63 3.4 1.56 3.91 5.1-.36 5.6a20 20 0 0 1-5.55-.46l-.18-.03-.34-.06c1.1 9.46-6.2 20.87-14.23 24.35C93.83 89.8 81.57 84.53 75.77 75c-2.63-4.3-4.15-10.51-4.47-15.86q-.63-.31-1.23-.67-.57-.34-1.12-.61c-2-.98-5.34-1.1-7.5 0q-.51.26-1.04.58-.64.38-1.32.72C58.77 64.5 57.25 70.7 54.63 75c-5.8 9.53-18.07 14.8-29.04 10.04-8.06-3.48-15.37-14.9-14.26-24.35q-.18-.01-.34.03l-.19.03c-1.83.33-3.69.66-5.55.45-4.26-.5-3.74-4.03-.36-5.6 2.74-1.25 5.98-1.47 9-1.62 2.54-3.63 5.88-4.36 10.54-4.52l23.3-.46c5.18-.14 9.71 0 11.02 4.6a19 19 0 0 1 6.35-1.25c1.86 0 4.35.45 6.5 1.28 1.3-4.64 5.84-4.77 11.03-4.63zM81.9 56.27c-2.37.03-3.49.42-3.9 2.9-.4 2.5 0 5.31.48 7.78.72 3.77 1.92 7.46 4.7 10.22a16 16 0 0 0 8.32 4.34l.96.16c.63.1 1.23.18.72.13l-.1-.01h-.06.16c3.72.4 7.7.32 10.8-2.04 3.54-2.7 5.96-6.95 7.03-11.2.62-2.48 1.93-8.42-.46-10.4-2.74-2.28-28.64-1.88-28.64-1.88m-33.43 0c2.37.03 3.5.42 3.9 2.9.4 2.5 0 5.32-.46 7.78-.72 3.77-1.92 7.46-4.7 10.22a16 16 0 0 1-8.33 4.35l-.96.15c-.64.1-1.25.19-.68.13-3.73.4-7.74.32-10.84-2.05-3.54-2.7-5.96-6.95-7.02-11.2-.62-2.48-1.93-8.42.46-10.4 2.74-2.28 28.63-1.87 28.63-1.87m-10.93 25.5" fill="black" fill-opacity=".1"/><path fill-rule="evenodd" clip-rule="evenodd" d="M105.95 47.49c4.66.16 8 .88 10.54 4.52 3 .15 6.23.37 8.95 1.63 3.4 1.56 3.91 5.1-.36 5.6a20 20 0 0 1-5.55-.46l-.18-.03-.34-.06c1.1 9.46-6.2 20.87-14.23 24.35C93.83 87.8 81.57 82.53 75.77 73c-2.63-4.3-4.15-10.51-4.47-15.86q-.63-.31-1.23-.67-.57-.34-1.12-.61c-2-.98-5.34-1.1-7.5 0q-.51.26-1.04.58-.64.38-1.32.72C58.77 62.5 57.25 68.7 54.63 73c-5.8 9.53-18.07 14.8-29.04 10.04-8.06-3.48-15.37-14.9-14.26-24.35q-.18-.01-.34.03l-.19.03c-1.83.33-3.69.66-5.55.45-4.26-.5-3.74-4.03-.36-5.6 2.74-1.25 5.98-1.47 9-1.62 2.54-3.63 5.88-4.36 10.54-4.52l23.3-.46c5.18-.14 9.71 0 11.02 4.6a19 19 0 0 1 6.35-1.25c1.86 0 4.35.45 6.5 1.28 1.3-4.64 5.84-4.77 11.03-4.63zM81.9 54.27c-2.37.03-3.49.42-3.9 2.9-.4 2.5 0 5.31.48 7.78.72 3.77 1.92 7.46 4.7 10.22a16 16 0 0 0 8.32 4.34l.96.16c.63.1 1.23.18.72.13l-.1-.01h-.06.16c3.72.4 7.7.32 10.8-2.04 3.54-2.7 5.96-6.95 7.03-11.2.62-2.48 1.93-8.42-.46-10.4-2.74-2.28-28.64-1.88-28.64-1.88m-33.43 0c2.37.03 3.5.42 3.9 2.9.4 2.5 0 5.32-.46 7.78-.72 3.77-1.92 7.46-4.7 10.22a16 16 0 0 1-8.33 4.35l-.96.15c-.64.1-1.25.19-.68.13-3.73.4-7.74.32-10.84-2.05-3.54-2.7-5.96-6.95-7.02-11.2-.62-2.48-1.93-8.42.46-10.4 2.74-2.28 28.63-1.87 28.63-1.87m-10.93 25.5" fill="#ffffff"/></g><clipPath id="clip-b4d82e73"><rect width="280" height="280" rx="103.6" ry="103.6"/></clipPath></defs><g clip-path="url(#clip-b4d82e73)"><g transform="translate(50.4, 0)"><path d="M140 36a56 56 0 0 0-56 56v6.17A12 12 0 0 0 74 110v14a12 12 0 0 0 10.3 11.88A56 56 0 0 0 116 180.6V199h-4a72 72 0 0 0-72 72v9h200v-9a72 72 0 0 0-72-72h-4v-18.38a56 56 0 0 0 31.7-44.73A12 12 0 0 0 206 124v-14a12 12 0 0 0-10-11.83V92a56 56 0 0 0-56-56" fill="url(#skin-color-b4d82e73)"/><path d="M116 180.61v8a56 56 0 0 0 24 5.39 56 56 0 0 0 24-5.39v-8a56 56 0 0 1-24 5.39 56 56 0 0 1-24-5.39" fill="black" fill-opacity=".1"/><use transform="translate(40 184.7)" href="#clothes-overall-b4d82e73"/><use transform="translate(94 140)" href="#mouth-default-b4d82e73"/><use transform="translate(128 130)" href="#nose-default-b4d82e73"/><use transform="translate(98 98)" href="#eyes-wink-b4d82e73"/><use transform="translate(91.86 82)" href="#eyebrows-upDownNatural-b4d82e73"/><use transform="translate(8)" href="#top-theCaesar-b4d82e73"/><use transform="translate(75.77 46)" href="#accessories-prescription01-b4d82e73"/></g></g></svg>