<svg xmlns="http://www.w3.org/2000/svg" viewBox="0 0 280 280" fill="none" shape-rendering="auto" aria-hidden="true"><!-- Generated by DiceBear (https://dicebear.com) --><metadata xmlns:rdf="http://www.w3.org/1999/02/22-rdf-syntax-ns#" xmlns:xsi="http://www.w3.org/2001/XMLSchema-instance" xmlns:dc="http://purl.org/dc/elements/1.1/" xmlns:dcterms="http://purl.org/dc/terms/"><rdf:RDF><rdf:Description><dc:title>Avataaars</dc:title><dc:creator>Pablo Stanley</dc:creator><dc:source xsi:type="dcterms:URI">https://avataaars.com/</dc:source><dcterms:license xsi:type="dcterms:URI">https://avataaars.com/</dcterms:license><dc:rights>Remix of “Avataaars” (https://avataaars.com/) by “Pablo Stanley”, licensed under “Free for personal and commercial use” (https://avataaars.com/)</dc:rights></rdf:Description></rdf:RDF></metadata><defs><linearGradient id="skin-color-43b96580" gradientTransform="rotate(-128, 0.5, 0.5)"><stop offset="0%" stop-color="#3cf487"/><stop offset="100%" stop-color="#eaf4d2"/></linearGradient><g id="clothes-hoodie-43b96580"><path d="M76 0C60.48 3.7 48.9 10.83 45.23 19.45A72 72 0 0 0 0 86.3v9h200v-9a72 72 0 0 0-45.23-66.86C151.1 10.83 139.52 3.69 124 0v17.3a24 24 0 1 1-48 0z" fill="#569afe"/><path d="M70 48.64a67 67 0 0 1-7-2.81V95.3h7zm60 0a67 67 0 0 0 7-2.81V83.8a3.5 3.5 0 1 1-7 0z" fill="#F4F4F4"/><path d="M155.62 19.8a72 72 0 0 1 10.83 5.62c-1.34 15.5-30.58 27.89-66.45 27.89 30.93 0 56-13.44 56-30q0-1.79-.38-3.52m-111.24.01a17 17 0 0 0-.38 3.5c0 16.57 25.07 30 56 30-35.87 0-65.1-12.38-66.45-27.88a72 72 0 0 1 10.83-5.63" fill="black" fill-opacity=".16"/></g><g id="mouth-screamOpen-43b96580"><path fill-rule="evenodd" clip-rule="evenodd" d="M26 32.86C27.14 18.88 30.24 7 46 7s18.92 11.94 20 26c.08 1.12-.83 2-1.96 2-6.69 0-9.37-2-18.05-2-8.7 0-13.26 2-17.9 2-1.17 0-2.2-.74-2.1-2.14" fill="black" fill-opacity=".7"/><path d="M59.02 11.57Q58.1 12 57 12H36c-.98 0-1.9-.28-2.67-.77C36.23 8.57 40.28 7 46 7c5.95 0 10.1 1.7 13.02 4.57" fill="white"/><path d="M61.8 34.92a44 44 0 0 1-5.54-.82c-2.73-.53-5.65-1.1-10.27-1.1-5.01 0-8.65.66-11.73 1.23-1.45.26-2.77.5-4.06.65A11 11 0 0 1 46 27.2a11 11 0 0 1 15.8 7.72" fill="#FF4F6D"/></g><g id="nose-default-43b96580"><path fill-rule="evenodd" clip-rule="evenodd" d="M0 0c0 4.42 5.37 8 12 8s12-3.58 12-8" fill="black" fill-opacity=".16"/></g><g id="eyes-squint-43b96580"><path d="M30 12.73c0 4.26-6.27 7.72-14 7.72S2 17 2 12.73 8.27 5 16 5s14 3.46 14 7.73m52 0c0 4.26-6.27 7.72-14 7.72S54 17 54 12.73 60.27 5 68 5s14 3.46 14 7.73" fill="white"/><path d="M18.82 20.3a25 25 0 0 1-5.64 0 6 6 0 1 1 5.64 0m52 0a25 25 0 0 1-5.64 0 6 6 0 1 1 5.64 0" fill="black" fill-opacity=".7"/></g><g id="eyebrows-raisedExcited-43b96580"><path d="M8.11 17.13C9.61 7.6 22.2 1.1 31.31 5.3a2 2 0 0 0 1.66-3.63C21.5-3.63 6.07 4.33 4.17 16.5a2 2 0 1 0 3.94.63m80.05 0C86.66 7.6 74.08 1.1 64.97 5.3a2 2 0 0 1-1.67-3.63c11.5-5.3 26.9 2.66 28.81 14.83a2 2 0 0 1-3.95.63" fill="black" fill-opacity=".6"/></g><g id="top-shavedSides-43b96580"><path d="m174.83 55.92-.03.02q1.14 1.32 2.19 2.7a55.7 55.7 0 0 1 11 33.36v5.5a54.3 54.3 0 0 0-17.4-39.93c-11.58 3.77-49.58 14.27-77.63.42A54.4 54.4 0 0 0 76 97.5V92c0-12.5 4.1-24.04 11.01-33.35q1.07-1.41 2.22-2.75l-.02-.02A55.9 55.9 0 0 1 132.01 36a55.9 55.9 0 0 1 42.81 19.92" fill="black" fill-opacity=".16"/><path d="M91.54 53.29A55.8 55.8 0 0 0 76 92v6.16a12 12 0 0 0-6.49 3.34l.7-17.37a46 46 0 0 1 17.37-34.17c-2.2-3.84-1.45-10.33 7.8-13.1 5.07-1.5 7.57-5.08 10.24-8.88 3.5-5 7.27-10.37 17.48-11.92 9.87-1.5 13.23-.88 17.05-.18 3.13.57 6.58 1.2 14.2.76 9.85-.57 16.86-4 21.43-6.22 3.26-1.6 5.27-2.58 6.17-1.47 15.42 18.9 6.97 33.8-6.2 41.96A45.9 45.9 0 0 1 192 86v13.6q-1.84-1.07-4-1.43V92a55.8 55.8 0 0 0-16-39.19c-7.76 2.75-50.39 16.55-80.46.48m131.07 172.76c3.06 5.6 4.05 11.12 3.5 16.38A72 72 0 0 0 160 199h-4v-18.39a56 56 0 0 0 31.8-45.74c1.5-.23 2.93-.74 4.2-1.47v20.7c0 20.77 11.47 39.79 22.15 57.47 2.97 4.93 5.88 9.75 8.46 14.48M67.7 146.5l.66-16.35a12 12 0 0 0 7.85 4.72A56 56 0 0 0 108 180.6V199h-4c-11.2 0-21.8 2.56-31.25 7.12-2.99-18.29-4.3-38.68-5.05-59.62" fill="#256249"/><path fill-rule="evenodd" clip-rule="evenodd" d="M89.88 52.36c33.22 19.3 83.37 0 83.37 0 14.53-7.77 25.08-23.32 8.7-43.4-2.17-2.66-10.7 6.72-27.6 7.7-16.9.97-13.27-3.31-31.25-.59-17.97 2.73-15.99 17.3-27.72 20.8s-9.8 13-5.5 15.5" fill="white" fill-opacity=".2"/></g><clipPath id="clip-43b96580"><rect width="280" height="280" rx="103.6" ry="103.6"/></clipPath></defs><g clip-path="url(#clip-43b96580)"><g transform="translate(50.4, 0)"><path d="M140 36a56 56 0 0 0-56 56v6.17A12 12 0 0 0 74 110v14a12 12 0 0 0 10.3 11.88A56 56 0 0 0 116 180.6V199h-4a72 72 0 0 0-72 72v9h200v-9a72 72 0 0 0-72-72h-4v-18.38a56 56 0 0 0 31.7-44.73A12 12 0 0 0 206 124v-14a12 12 0 0 0-10-11.83V92a56 56 0 0 0-56-56" fill="url(#skin-color-43b96580)"/><path d="M116 180.61v8a56 56 0 0 0 24 5.39 56 56 0 0 0 24-5.39v-8a56 56 0 0 1-24 5.39 56 56 0 0 1-24-5.39" fill="black" fill-opacity=".1"/><use transform="translate(40 184.7)" href="#clothes-hoodie-43b96580"/><use transform="translate(94 140)" href="#mouth-screamOpen-43b96580"/><use transform="translate(128 130)" href="#nose-default-43b96580"/><use transform="translate(98 98)" href="#eyes-squint-43b96580"/><use transform="translate(91.86 82)" href="#eyebrows-raisedExcited-43b96580"/><use transform="translate(8)" href="#top-shavedSides-43b96580"/></g></g></svg>