<svg xmlns="http://www.w3.org/2000/svg" viewBox="0 0 280 280" fill="none" shape-rendering="auto" aria-hidden="true"><!-- Generated by DiceBear (https://dicebear.com) --><metadata xmlns:rdf="http://www.w3.org/1999/02/22-rdf-syntax-ns#" xmlns:xsi="http://www.w3.org/2001/XMLSchema-instance" xmlns:dc="http://purl.org/dc/elements/1.1/" xmlns:dcterms="http://purl.org/dc/terms/"><rdf:RDF><rdf:Description><dc:title>Avataaars</dc:title><dc:creator>Pablo Stanley</dc:creator><dc:source xsi:type="dcterms:URI">https://avataaars.com/</dc:source><dcterms:license xsi:type="dcterms:URI">https://avataaars.com/</dcterms:license><dc:rights>Remix of “Avataaars” (https://avataaars.com/) by “Pablo Stanley”, licensed under “Free for personal and commercial use” (https://avataaars.com/)</dc:rights></rdf:Description></rdf:RDF></metadata><defs><linearGradient id="skin-color-f03709e7" gradientTransform="rotate(-128, 0.5, 0.5)"><stop offset="0%" stop-color="#005dbc"/><stop offset="100%" stop-color="#5096bc"/></linearGradient><g id="clothes-hoodie-f03709e7"><path d="M76 0C60.48 3.7 48.9 10.83 45.23 19.45A72 72 0 0 0 0 86.3v9h200v-9a72 72 0 0 0-45.23-66.86C151.1 10.83 139.52 3.69 124 0v17.3a24 24 0 1 1-48 0z" fill="#a7ffc4"/><path d="M70 48.64a67 67 0 0 1-7-2.81V95.3h7zm60 0a67 67 0 0 0 7-2.81V83.8a3.5 3.5 0 1 1-7 0z" fill="#F4F4F4"/><path d="M155.62 19.8a72 72 0 0 1 10.83 5.62c-1.34 15.5-30.58 27.89-66.45 27.89 30.93 0 56-13.44 56-30q0-1.79-.38-3.52m-111.24.01a17 17 0 0 0-.38 3.5c0 16.57 25.07 30 56 30-35.87 0-65.1-12.38-66.45-27.88a72 72 0 0 1 10.83-5.63" fill="black" fill-opacity=".16"/></g><g id="mouth-grimace-f03709e7"><rect x="14" y="1" width="64" height="26" rx="13" fill="black" fill-opacity=".6"/><rect x="16" y="3" width="60" height="22" rx="11" fill="white"/><path d="M16.18 12H24V3.41A11 11 0 0 1 27 3h1v9h9V3h4v9h9V3h4v9h9V3h2q1.02 0 2 .18V12h8.82l.05.28v3.44l-.05.28H67v8.82q-.98.18-2 .18h-2v-9h-9v9h-4v-9h-9v9h-4v-9h-9v9h-1a11 11 0 0 1-3-.41V16h-7.82a11 11 0 0 1 0-4" fill="#E6E6E6"/></g><g id="nose-default-f03709e7"><path fill-rule="evenodd" clip-rule="evenodd" d="M0 0c0 4.42 5.37 8 12 8s12-3.58 12-8" fill="black" fill-opacity=".16"/></g><g id="eyes-side-f03709e7"><path d="M13 8c-4.84 0-9 2.65-10.84 6.45-.54 1.1.39 1.85 1.28 1.12a15 15 0 0 1 9.8-3.22 6 6 0 1 0 10.7 2.8 2 2 0 0 0-.12-.74l-.15-.38a6 6 0 0 0-1.64-2.48C19.9 9.32 16.5 8 13 8m58 0c-4.84 0-9 2.65-10.84 6.45-.54 1.1.39 1.85 1.28 1.12a15 15 0 0 1 9.8-3.22 6 6 0 1 0 10.7 2.8 2 2 0 0 0-.12-.74l-.15-.38a6 6 0 0 0-1.64-2.48C77.9 9.32 74.5 8 71 8" fill="black" fill-opacity=".6"/></g><g id="eyebrows-default-f03709e7"><path d="M7.77 17.16c3.91-5.51 14.64-8.6 23.89-6.33a2 2 0 0 0 .95-3.88c-10.73-2.64-23.16.94-28.1 7.9a2 2 0 0 0 3.3 2.3m80.73.01c-3.9-5.5-14.64-8.6-23.9-6.33a2 2 0 0 1-.94-3.88c10.74-2.64 23.17.94 28.1 7.9a2 2 0 0 1-3.25 2.3" fill="black" fill-opacity=".6"/></g><g id="top-winterHat1-f03709e7"><path d="M85.67 68H63v112.91a4.1 4.1 0 0 0 4.09 4.1 18.6 18.6 0 0 0 18.58-18.6zM201 68h-22.67v112.91a4.1 4.1 0 0 0 4.09 4.1 18.6 18.6 0 0 0 18.58-18.6z" fill="#F4F4F4"/><path d="M62 64a44 44 0 0 1 44-44h52a44 44 0 0 1 44 44v104.6a16.4 16.4 0 0 1-16.4 16.4 3.6 3.6 0 0 1-3.6-3.6V74H82v94.6A16.4 16.4 0 0 1 65.6 185a3.6 3.6 0 0 1-3.6-3.6z" fill="#1d8675"/><rect x="73" y="52" width="118" height="36" rx="8" fill="black" fill-opacity=".1"/><rect x="73" y="50" width="118" height="36" rx="8" fill="#F4F4F4"/></g><clipPath id="clip-f03709e7"><rect width="280" height="280" rx="103.6" ry="103.6"/></clipPath></defs><g clip-path="url(#clip-f03709e7)"><g transform="translate(50.4, 0)"><path d="M140 36a56 56 0 0 0-56 56v6.17A12 12 0 0 0 74 110v14a12 12 0 0 0 10.3 11.88A56 56 0 0 0 116 180.6V199h-4a72 72 0 0 0-72 72v9h200v-9a72 72 0 0 0-72-72h-4v-18.38a56 56 0 0 0 31.7-44.73A12 12 0 0 0 206 124v-14a12 12 0 0 0-10-11.83V92a56 56 0 0 0-56-56" fill="url(#skin-color-f03709e7)"/><path d="M116 180.61v8a56 56 0 0 0 24 5.39 56 56 0 0 0 24-5.39v-8a56 56 0 0 1-24 5.39 56 56 0 0 1-24-5.39" fill="black" fill-opacity=".1"/><use transform="translate(40 184.7)" href="#clothes-hoodie-f03709e7"/><use transform="translate(94 140)" href="#mouth-grimace-f03709e7"/><use transform="translate(128 130)" href="#nose-default-f03709e7"/><use transform="translate(98 98)" href="#eyes-side-f03709e7"/><use transform="translate(91.86 82)" href="#eyebrows-default-f03709e7"/><use transform="translate(8)" href="#top-winterHat1-f03709e7"/></g></g></svg>