<svg xmlns="http://www.w3.org/2000/svg" viewBox="0 0 280 280" fill="none" shape-rendering="auto" aria-hidden="true"><!-- Generated by DiceBear (https://dicebear.com) --><metadata xmlns:rdf="http://www.w3.org/1999/02/22-rdf-syntax-ns#" xmlns:xsi="http://www.w3.org/2001/XMLSchema-instance" xmlns:dc="http://purl.org/dc/elements/1.1/" xmlns:dcterms="http://purl.org/dc/terms/"><rdf:RDF><rdf:Description><dc:title>Avataaars</dc:title><dc:creator>Pablo Stanley</dc:creator><dc:source xsi:type="dcterms:URI">https://avataaars.com/</dc:source><dcterms:license xsi:type="dcterms:URI">https://avataaars.com/</dcterms:license><dc:rights>Remix of “Avataaars” (https://avataaars.com/) by “Pablo Stanley”, licensed under “Free for personal and commercial use” (https://avataaars.com/)</dc:rights></rdf:Description></rdf:RDF></metadata><defs><linearGradient id="skin-color-bc4d8b14" gradientTransform="rotate(-128, 0.5, 0.5)"><stop offset="0%" stop-color="#edb98a"/><stop offset="100%" stop-color="#005dbc"/></linearGradient><g id="clothes-shirtCrewNeck-bc4d8b14"><path d="M100.5 37.13c18.5 0 33.5-9.61 33.5-21.48q0-.52-.04-1.05A72 72 0 0 1 200 86.36v8.95H0v-8.95a72 72 0 0 1 67.05-71.83q-.05.55-.05 1.12c0 11.87 15 21.48 33.5 21.48" fill="#8cfe7d"/><path d="M100.5 44.07c21.89 0 39.63-12.05 39.63-26.92q0-.9-.08-1.79-3-.52-6.1-.76.06.52.05 1.05c0 11.87-15 21.48-33.5 21.48S67 27.52 67 15.65q0-.57.05-1.13-3.08.21-6.08.68-.1.97-.1 1.95c0 14.87 17.74 26.92 39.63 26.92" fill="black" fill-opacity=".08"/></g><g id="mouth-eating-bc4d8b14"><path d="M20 20.24q2.05.75 4.4.76c5.31 0 9.81-3.15 11.29-7.49 2.47 2.16 6.17 3.53 10.31 3.53s7.84-1.37 10.31-3.53C57.8 17.85 62.3 21 67.61 21q2.34-.01 4.4-.76h-.19c-6.33 0-11.8-4.9-11.8-10.56 0-4.18 2.32-7.72 5.7-9.68-5.5.8-9.74 5-9.9 10.1a17.6 17.6 0 0 1-9.8 2.8 17.5 17.5 0 0 1-9.8-2.8C36 5 31.8.8 26.3 0a11.2 11.2 0 0 1 5.68 9.68c0 5.66-5.47 10.57-11.8 10.57z" fill="black" fill-opacity=".6" opacity=".6"/><path d="M9 18A9 9 0 1 0 9 0a9 9 0 0 0 0 18m74 0a9 9 0 1 0 0-18 9 9 0 0 0 0 18" fill="#FF4646" fill-opacity=".2"/></g><g id="nose-default-bc4d8b14"><path fill-rule="evenodd" clip-rule="evenodd" d="M0 0c0 4.42 5.37 8 12 8s12-3.58 12-8" fill="black" fill-opacity=".16"/></g><g id="eyes-happy-bc4d8b14"><path fill-rule="evenodd" clip-rule="evenodd" d="M2.16 14.45C4.01 10.65 8.16 8 13 8c4.81 0 8.96 2.63 10.82 6.4.55 1.13-.24 2.05-1.03 1.37a15 15 0 0 0-9.8-3.43c-3.73 0-7.12 1.24-9.55 3.23-.9.73-1.82-.01-1.28-1.12m58 0C62.01 10.65 66.16 8 71 8c4.81 0 8.96 2.63 10.82 6.4.55 1.13-.24 2.05-1.03 1.37a15 15 0 0 0-9.8-3.43c-3.76 0-7.15 1.24-9.58 3.23-.9.73-1.82-.01-1.28-1.12" fill="black" fill-opacity=".6"/></g><g id="eyebrows-raisedExcitedNatural-bc4d8b14"><path fill-rule="evenodd" clip-rule="evenodd" d="m14.9 1.58.91-.4C21.06-.9 29-.03 33.86 2.3c.57.27.18 1.15-.4 1.1C18.54 2.27 8.5 11.56 5.08 17.86c-.1.18-.4.2-.48.03C2.3 12.56 9.05 3.9 14.9 1.58m66.47 0-.91-.4C75.22-.9 67.27-.03 62.4 2.3c-.56.27-.18 1.15.4 1.1 14.93-1.14 24.98 8.15 28.4 14.45.1.18.4.2.47.03 2.3-5.32-4.45-13.98-10.3-16.3" fill="black" fill-opacity=".6"/></g><g id="top-shaggyMullet-bc4d8b14"><path d="M176.75 37.86c9.52 7.1 17.76 18.58 18.16 30.82.17 5.5-.62 11.23-1.73 16.62-.5 2.46-1.6 4.66-2.7 6.85-1.07 2.12-2.13 4.24-2.64 6.58-2.63-8.93-10.09-13.97-17.5-19-3.96-2.66-7.9-5.33-11.1-8.58 1.02 1.93 2.3 3.7 3.6 5.46 1.23 1.7 2.47 3.4 3.45 5.22-9.24-5.66-18.2-13.88-22.03-24.3a29.5 29.5 0 0 1-6.1 14.67c-3.02 3.8-7.59 7.87-12.3 9.34 2.43-5.5 4.5-11.21 6.4-16.92-1.78 2.31-7.2 11.29-9.6 15.23l-.77 1.26a74 74 0 0 1-10.47 13.35c-.5.53-1.42 1.52-.67.54-1.85 2.35-4.45 4.26-6.9 6.07l-1.4 1.04a52 52 0 0 1-9.2 5.48c-7.1 3.31-14.38 4.54-22.1 3.2.9.1 2.34-.4 3.52-.82a20 20 0 0 1 1.22-.4c1.8-.5 3.47-1.12 5.11-2.02a54 54 0 0 0 9.18-6.42c-1.37.58-2.6 1.42-3.84 2.27-1.23.83-2.46 1.67-3.83 2.27-2.28 1-4.54 1.53-7.03 1.77-5.46.53-12-.72-16.72-3.6-5.5-3.32-8.54-9.04-9.99-15.13-1.68-7.06-.63-15.04 3.33-21.07.13 2.14 4.43 3.06 7.92 2.53 3.77-.59 6.95-6.52 10.9-13.93C77.11 44.7 85.2 29.57 100.44 25.6c19.96-5.2 34.21 3.87 35.42 4.66 1.22.78 1.8.63 2.93.32l.64-.17c6.35-1.47 13.26-2.16 19.7-.87 6.35 1.26 12.43 4.54 17.57 8.38M70.92 110.78l.21.04zm7.1 45.42q1.2-2.3 2.32-4.6a56.2 56.2 0 0 0 27.68 29v9.01a54 54 0 0 1-7.73 2c-9 1.63-34.32-3.52-45.44-11.97-.85-.65-.42-1.92.67-2 11.66-.8 17.63-12.13 22.4-21.2zm78 26.85v-2.44c6.95-3.3 13.11-8 18.13-13.71.71 2.24 1.75 4.33 3.43 5.79 1.32 1.14 3.48 1.12 5.34 1.1h1.2q2.5.1 5.02-.01c.83-.03 1.2 1.02.53 1.5l-.4.26a39 39 0 0 1-3.24 1.82 29 29 0 0 1-7.98 2.73q-2.89.5-5.66.18a10 10 0 0 0 1.7 1.94c1.41 1.22 3.72 1.2 5.7 1.19h1.28q2.69.09 5.36-.02c.9-.04 1.3 1.09.57 1.6q-.2.16-.42.28-1.68 1.05-3.47 1.94a31 31 0 0 1-8.52 2.92c-5.5.97-10.86-.18-15.19-3.7a25 25 0 0 1-3.38-3.37" fill="#0b6210"/><path d="M80.32 151.6q-1.12 2.3-2.31 4.6l-.1.18c-4.73 9.08-10.7 20.42-22.4 21.22-1.05.07-1.5 1.34-.63 1.99 11.12 8.45 36.43 13.6 45.44 11.98a54 54 0 0 0 7.73-1.96v-8.95a56.2 56.2 0 0 1-27.68-29m75.67 29v2.43a25 25 0 0 0 3.38 3.36c4.33 3.53 9.7 4.68 15.2 3.71a31 31 0 0 0 8.51-2.92 42 42 0 0 0 3.9-2.23c.72-.5.32-1.64-.57-1.6q-2.67.1-5.35.01h-1.3c-1.97.01-4.28.03-5.7-1.2a10 10 0 0 1-1.7-1.93q2.78.33 5.67-.18a29 29 0 0 0 7.98-2.73 39 39 0 0 0 3.64-2.08c.68-.48.3-1.53-.53-1.5a70 70 0 0 1-5.02.02h-1.2c-1.85.01-4.01.03-5.33-1.1-1.7-1.47-2.72-3.56-3.43-5.8a56 56 0 0 1-18.14 13.7" fill="black" fill-opacity=".16"/></g><clipPath id="clip-bc4d8b14"><rect width="280" height="280" rx="103.6" ry="103.6"/></clipPath></defs><g clip-path="url(#clip-bc4d8b14)"><g transform="translate(50.4, 0)"><path d="M140 36a56 56 0 0 0-56 56v6.17A12 12 0 0 0 74 110v14a12 12 0 0 0 10.3 11.88A56 56 0 0 0 116 180.6V199h-4a72 72 0 0 0-72 72v9h200v-9a72 72 0 0 0-72-72h-4v-18.38a56 56 0 0 0 31.7-44.73A12 12 0 0 0 206 124v-14a12 12 0 0 0-10-11.83V92a56 56 0 0 0-56-56" fill="url(#skin-color-bc4d8b14)"/><path d="M116 180.61v8a56 56 0 0 0 24 5.39 56 56 0 0 0 24-5.39v-8a56 56 0 0 1-24 5.39 56 56 0 0 1-24-5.39" fill="black" fill-opacity=".1"/><use transform="translate(40 184.7)" href="#clothes-shirtCrewNeck-bc4d8b14"/><use transform="translate(94 140)" href="#mouth-eating-bc4d8b14"/><use transform="translate(128 130)" href="#nose-default-bc4d8b14"/><use transform="translate(98 98)" href="#eyes-happy-bc4d8b14"/><use transform="translate(91.86 82)" href="#eyebrows-raisedExcitedNatural-bc4d8b14"/><use transform="translate(8)" href="#top-shaggyMullet-bc4d8b14"/></g></g></svg>