<svg xmlns="http://www.w3.org/2000/svg" viewBox="0 0 280 280" fill="none" shape-rendering="auto" aria-hidden="true"><!-- Generated by DiceBear (https://dicebear.com) --><metadata xmlns:rdf="http://www.w3.org/1999/02/22-rdf-syntax-ns#" xmlns:xsi="http://www.w3.org/2001/XMLSchema-instance" xmlns:dc="http://purl.org/dc/elements/1.1/" xmlns:dcterms="http://purl.org/dc/terms/"><rdf:RDF><rdf:Description><dc:title>Avataaars</dc:title><dc:creator>Pablo Stanley</dc:creator><dc:source xsi:type="dcterms:URI">https://avataaars.com/</dc:source><dcterms:license xsi:type="dcterms:URI">https://avataaars.com/</dcterms:license><dc:rights>Remix of “Avataaars” (https://avataaars.com/) by “Pablo Stanley”, licensed under “Free for personal and commercial use” (https://avataaars.com/)</dc:rights></rdf:Description></rdf:RDF></metadata><defs><linearGradient id="skin-color-16e893e4" gradientTransform="rotate(-128, 0.5, 0.5)"><stop offset="0%" stop-color="#d08b5b"/><stop offset="100%" stop-color="#2e91bc"/></linearGradient><g id="clothes-blazerAndShirt-16e893e4"><path d="M100.5 37.13c18.5 0 33.5-9.61 33.5-21.48q0-.52-.04-1.05A72 72 0 0 1 200 86.36v8.95H0v-8.95a72 72 0 0 1 67.05-71.83q-.05.55-.05 1.12c0 11.87 15 21.48 33.5 21.48" fill="#E6E6E6"/><path d="M100.5 44.07c21.89 0 39.63-12.05 39.63-26.92q0-.9-.08-1.79-3-.51-6.1-.76.06.52.05 1.05c0 11.87-15 21.48-33.5 21.48S67 27.52 67 15.65q0-.57.05-1.12-3.08.2-6.08.67-.1.97-.1 1.95c0 14.87 17.74 26.92 39.63 26.92" fill="black" fill-opacity=".16"/><path d="M68.78 14.43 69 13.3c-2.96.06-6 1-6 1l-.42.67A72 72 0 0 0 0 86.36v8.95h74s-10.7-51.56-5.24-80.8zM126 95.3s11-53 5-82c2.96.06 6 1 6 1l.42.67A72 72 0 0 1 200 86.36v8.95z" fill="#a5463c"/><path fill-rule="evenodd" clip-rule="evenodd" d="M69 13.3c-6 29 5 82 5 82H58l-14-36 6-9-6-6 19-30s3.04-.94 6-1m62 0c6 29-5 82-5 82h16l14-36-6-9 6-6-19-30s-3.04-.94-6-1" fill="black" fill-opacity=".15"/><path d="m151.42 71.07.87-2.24 6.27-4.7a4 4 0 0 1 4.85.05l6.6 5.13z" fill="#E6E6E6"/></g><g id="mouth-eating-16e893e4"><path d="M20 20.24q2.05.75 4.4.76c5.31 0 9.81-3.15 11.29-7.49 2.47 2.16 6.17 3.53 10.31 3.53s7.84-1.37 10.31-3.53C57.8 17.85 62.3 21 67.61 21q2.34-.01 4.4-.76h-.19c-6.33 0-11.8-4.9-11.8-10.56 0-4.18 2.32-7.72 5.7-9.68-5.5.8-9.74 5-9.9 10.1a17.6 17.6 0 0 1-9.8 2.8 17.5 17.5 0 0 1-9.8-2.8C36 5 31.8.8 26.3 0a11.2 11.2 0 0 1 5.68 9.68c0 5.66-5.47 10.57-11.8 10.57z" fill="black" fill-opacity=".6" opacity=".6"/><path d="M9 18A9 9 0 1 0 9 0a9 9 0 0 0 0 18m74 0a9 9 0 1 0 0-18 9 9 0 0 0 0 18" fill="#FF4646" fill-opacity=".2"/></g><g id="nose-default-16e893e4"><path fill-rule="evenodd" clip-rule="evenodd" d="M0 0c0 4.42 5.37 8 12 8s12-3.58 12-8" fill="black" fill-opacity=".16"/></g><g id="eyes-eyeRoll-16e893e4"><path d="M30 14a14 14 0 1 1-28 0 14 14 0 0 1 28 0m52 0a14 14 0 1 1-28 0 14 14 0 0 1 28 0" fill="white"/><path d="M22 6a6 6 0 1 1-12 0 6 6 0 0 1 12 0m52 0a6 6 0 1 1-12 0 6 6 0 0 1 12 0" fill="black" fill-opacity=".7"/></g><g id="eyebrows-upDown-16e893e4"><path d="M7.73 14.16c4.5-6.32 14.01-9.5 23.75-6.36a2 2 0 1 0 1.23-3.81c-11.4-3.7-22.74.1-28.24 7.85a2 2 0 1 0 3.26 2.32m80.78 7c-3.91-5.51-14.64-8.6-23.89-6.33a2 2 0 0 1-.95-3.88c10.73-2.64 23.16.94 28.1 7.9a2 2 0 0 1-3.26 2.3" fill="black" fill-opacity=".6"/></g><g id="top-winterHat03-16e893e4"><circle cx="132" cy="20" r="20" fill="#F4F4F4"/><path fill-rule="evenodd" clip-rule="evenodd" d="M66 78a66 66 0 1 1 132 0v5H66z" fill="#777186"/><path fill-rule="evenodd" clip-rule="evenodd" d="M63 69.77a7 7 0 0 1 3.05-5.96c7.8-5.17 30.42-17.8 66.02-17.8s58.14 12.63 65.9 17.82a7 7 0 0 1 3.03 5.95v30.2c0 3.3-3.9 5.38-6.78 3.75C183.84 97.82 162.1 88 132.8 88a133.6 133.6 0 0 0-63.17 15.98c-2.85 1.56-6.63-.5-6.63-3.75z" fill="black" fill-opacity=".1"/><path fill-rule="evenodd" clip-rule="evenodd" d="M63 67.77a7 7 0 0 1 3.05-5.96c7.8-5.17 30.42-17.8 66.02-17.8s58.14 12.63 65.9 17.82a7 7 0 0 1 3.03 5.95v30.2c0 3.3-3.9 5.38-6.78 3.75C183.84 95.82 162.1 86 132.8 86a133.6 133.6 0 0 0-63.17 15.98c-2.85 1.56-6.63-.5-6.63-3.75z" fill="#F4F4F4"/></g><g id="facialHair-moustacheFancy-16e893e4"><path d="M60 43.3c6.8-3.59 16.42-4.15 21.61-2.17a32 32 0 0 1 4.84 2.55c4.13 2.47 8.55 5.12 14.91 3.15.37-.12.73.2.62.58-1.37 4.5-9 7.6-11.6 7.7-6.2.24-11.75-2.26-17.13-4.7-4.44-2-8.77-3.95-13.25-4.25-4.48.3-8.8 2.26-13.25 4.26-5.38 2.43-10.92 4.93-17.13 4.69-2.6-.1-10.23-3.2-11.6-7.7-.1-.37.25-.7.62-.58 6.36 1.97 10.78-.68 14.9-3.15a32 32 0 0 1 4.85-2.55c5.2-1.98 14.82-1.42 21.6 2.17" fill="#2c1b18"/></g><clipPath id="clip-16e893e4"><rect width="280" height="280" rx="103.6" ry="103.6"/></clipPath></defs><g clip-path="url(#clip-16e893e4)"><g transform="translate(50.4, 0)"><path d="M140 36a56 56 0 0 0-56 56v6.17A12 12 0 0 0 74 110v14a12 12 0 0 0 10.3 11.88A56 56 0 0 0 116 180.6V199h-4a72 72 0 0 0-72 72v9h200v-9a72 72 0 0 0-72-72h-4v-18.38a56 56 0 0 0 31.7-44.73A12 12 0 0 0 206 124v-14a12 12 0 0 0-10-11.83V92a56 56 0 0 0-56-56" fill="url(#skin-color-16e893e4)"/><path d="M116 180.61v8a56 56 0 0 0 24 5.39 56 56 0 0 0 24-5.39v-8a56 56 0 0 1-24 5.39 56 56 0 0 1-24-5.39" fill="black" fill-opacity=".1"/><use transform="translate(40 184.7)" href="#clothes-blazerAndShirt-16e893e4"/><use transform="translate(94 140)" href="#mouth-eating-16e893e4"/><use transform="translate(128 130)" href="#nose-default-16e893e4"/><use transform="translate(98 98)" href="#eyes-eyeRoll-16e893e4"/><use transform="translate(91.86 82)" href="#eyebrows-upDown-16e893e4"/><use transform="translate(8)" href="#top-winterHat03-16e893e4"/><use transform="translate(81 98)" href="#facialHair-moustacheFancy-16e893e4"/></g></g></svg>