<svg xmlns="http://www.w3.org/2000/svg" viewBox="0 0 280 280" fill="none" shape-rendering="auto" aria-hidden="true"><!-- Generated by DiceBear (https://dicebear.com) --><metadata xmlns:rdf="http://www.w3.org/1999/02/22-rdf-syntax-ns#" xmlns:xsi="http://www.w3.org/2001/XMLSchema-instance" xmlns:dc="http://purl.org/dc/elements/1.1/" xmlns:dcterms="http://purl.org/dc/terms/"><rdf:RDF><rdf:Description><dc:title>Avataaars</dc:title><dc:creator>Pablo Stanley</dc:creator><dc:source xsi:type="dcterms:URI">https://avataaars.com/</dc:source><dcterms:license xsi:type="dcterms:URI">https://avataaars.com/</dcterms:license><dc:rights>Remix of “Avataaars” (https://avataaars.com/) by “Pablo Stanley”, licensed under “Free for personal and commercial use” (https://avataaars.com/)</dc:rights></rdf:Description></rdf:RDF></metadata><defs><linearGradient id="skin-color-a4a98b32" gradientTransform="rotate(-128, 0.5, 0.5)"><stop offset="0%" stop-color="#0f3a1c"/><stop offset="100%" stop-color="#f8d25c"/></linearGradient><g id="clothes-collarAndSweater-a4a98b32"><path d="M68.37 14.45A28 28 0 0 1 76 6.88v15.3C76 28 79.98 33.16 86.08 36.3l-.08.06.9 2.87c3.89 2 8.35 3.13 13.1 3.13s9.21-1.14 13.1-3.13l.9-2.87-.08-.06C120.02 33.16 124 28 124 22.18V7.58a27 27 0 0 1 6.6 6.82A72 72 0 0 1 200 86.36v8.95H0v-8.95a72 72 0 0 1 68.37-71.91" fill="#fe658e"/><path d="M76 6.88c-6.77 4.6-11 11.17-11 18.45 0 7.4 4.36 14.06 11.3 18.67l6.12-4.82 4.58.33-1-3.15.08-.06C79.98 33.16 76 28 76 22.18zm48 15.3c0 5.83-3.98 10.98-10.08 14.12l.08.06-1 3.15 4.58-.33 5.65 4.45c6.63-4.6 10.77-11.1 10.77-18.3 0-6.92-3.82-13.19-10-17.74z" fill="white" fill-opacity=".75"/></g><g id="mouth-sad-a4a98b32"><path fill-rule="evenodd" clip-rule="evenodd" d="M32.06 21.72C32.7 14.7 38.7 10 46 10c7.34 0 13.36 4.75 13.95 11.85.03.38-.87.67-1.32.45Q50.32 18.14 46 18.14q-4.27 0-12.45 4.07c-.5.25-1.53-.07-1.5-.49" fill="black" fill-opacity=".7"/></g><g id="nose-default-a4a98b32"><path fill-rule="evenodd" clip-rule="evenodd" d="M0 0c0 4.42 5.37 8 12 8s12-3.58 12-8" fill="black" fill-opacity=".16"/></g><g id="eyes-eyeRoll-a4a98b32"><path d="M30 14a14 14 0 1 1-28 0 14 14 0 0 1 28 0m52 0a14 14 0 1 1-28 0 14 14 0 0 1 28 0" fill="white"/><path d="M22 6a6 6 0 1 1-12 0 6 6 0 0 1 12 0m52 0a6 6 0 1 1-12 0 6 6 0 0 1 12 0" fill="black" fill-opacity=".7"/></g><g id="eyebrows-flatNatural-a4a98b32"><path fill-rule="evenodd" clip-rule="evenodd" d="M30.8 11.1c-5 .35-9.93.08-14.92-.13-3.83-.16-7.72-.68-11.37 1-.7.33-4.53 2.29-4.45 3.36.08.85 3.94 2.2 4.64 2.44 3.66 1.29 7.18.9 10.95.66 4.63-.27 9.23-.07 13.86-.2 3.18-.1 7.98-.63 9.5-4.4.48-1.14.1-3.42-.34-4.66-.2-.5-.72-.69-1.13-.4a15 15 0 0 1-6.68 2.32m34.67 0c4.99.36 9.9.09 14.9-.12 3.83-.16 7.72-.68 11.38 1 .7.33 4.53 2.29 4.44 3.36-.07.85-3.94 2.2-4.63 2.44-3.67 1.29-7.18.9-10.96.66-4.62-.27-9.23-.07-13.86-.2-3.11-.1-7.91-.63-9.45-4.4-.47-1.14-.1-3.42.36-4.66.18-.5.72-.69 1.12-.4a15 15 0 0 0 6.7 2.32" fill="black" fill-opacity=".6"/></g><g id="top-winterHat1-a4a98b32"><path d="M85.67 68H63v112.91a4.1 4.1 0 0 0 4.09 4.1 18.6 18.6 0 0 0 18.58-18.6zM201 68h-22.67v112.91a4.1 4.1 0 0 0 4.09 4.1 18.6 18.6 0 0 0 18.58-18.6z" fill="#F4F4F4"/><path d="M62 64a44 44 0 0 1 44-44h52a44 44 0 0 1 44 44v104.6a16.4 16.4 0 0 1-16.4 16.4 3.6 3.6 0 0 1-3.6-3.6V74H82v94.6A16.4 16.4 0 0 1 65.6 185a3.6 3.6 0 0 1-3.6-3.6z" fill="#25557c"/><rect x="73" y="52" width="118" height="36" rx="8" fill="black" fill-opacity=".1"/><rect x="73" y="50" width="118" height="36" rx="8" fill="#F4F4F4"/></g><clipPath id="clip-a4a98b32"><rect width="280" height="280" rx="103.6" ry="103.6"/></clipPath></defs><g clip-path="url(#clip-a4a98b32)"><g transform="translate(50.4, 0)"><path d="M140 36a56 56 0 0 0-56 56v6.17A12 12 0 0 0 74 110v14a12 12 0 0 0 10.3 11.88A56 56 0 0 0 116 180.6V199h-4a72 72 0 0 0-72 72v9h200v-9a72 72 0 0 0-72-72h-4v-18.38a56 56 0 0 0 31.7-44.73A12 12 0 0 0 206 124v-14a12 12 0 0 0-10-11.83V92a56 56 0 0 0-56-56" fill="url(#skin-color-a4a98b32)"/><path d="M116 180.61v8a56 56 0 0 0 24 5.39 56 56 0 0 0 24-5.39v-8a56 56 0 0 1-24 5.39 56 56 0 0 1-24-5.39" fill="black" fill-opacity=".1"/><use transform="translate(40 184.7)" href="#clothes-collarAndSweater-a4a98b32"/><use transform="translate(94 140)" href="#mouth-sad-a4a98b32"/><use transform="translate(128 130)" href="#nose-default-a4a98b32"/><use transform="translate(98 98)" href="#eyes-eyeRoll-a4a98b32"/><use transform="translate(91.86 82)" href="#eyebrows-flatNatural-a4a98b32"/><use transform="translate(8)" href="#top-winterHat1-a4a98b32"/></g></g></svg>