<svg xmlns="http://www.w3.org/2000/svg" viewBox="0 0 280 280" fill="none" shape-rendering="auto" aria-hidden="true"><!-- Generated by DiceBear (https://dicebear.com) --><metadata xmlns:rdf="http://www.w3.org/1999/02/22-rdf-syntax-ns#" xmlns:xsi="http://www.w3.org/2001/XMLSchema-instance" xmlns:dc="http://purl.org/dc/elements/1.1/" xmlns:dcterms="http://purl.org/dc/terms/"><rdf:RDF><rdf:Description><dc:title>Avataaars</dc:title><dc:creator>Pablo Stanley</dc:creator><dc:source xsi:type="dcterms:URI">https://avataaars.com/</dc:source><dcterms:license xsi:type="dcterms:URI">https://avataaars.com/</dcterms:license><dc:rights>Remix of “Avataaars” (https://avataaars.com/) by “Pablo Stanley”, licensed under “Free for personal and commercial use” (https://avataaars.com/)</dc:rights></rdf:Description></rdf:RDF></metadata><defs><linearGradient id="skin-color-b5533c4d" gradientTransform="rotate(-128, 0.5, 0.5)"><stop offset="0%" stop-color="#f49d1f"/><stop offset="100%" stop-color="#f8d25c"/></linearGradient><g id="clothes-shirtScoopNeck-b5533c4d"><path d="M100.5 51.13c27.34 0 49.5-13.2 49.5-29.48q0-2.04-.46-4A72 72 0 0 1 200 86.35v8.95H0v-8.95A72 72 0 0 1 51.53 17.3a18 18 0 0 0-.53 4.34c0 16.28 22.16 29.48 49.5 29.48" fill="#76fe4a"/></g><g id="mouth-sad-b5533c4d"><path fill-rule="evenodd" clip-rule="evenodd" d="M32.06 21.72C32.7 14.7 38.7 10 46 10c7.34 0 13.36 4.75 13.95 11.85.03.38-.87.67-1.32.45Q50.32 18.14 46 18.14q-4.27 0-12.45 4.07c-.5.25-1.53-.07-1.5-.49" fill="black" fill-opacity=".7"/></g><g id="nose-default-b5533c4d"><path fill-rule="evenodd" clip-rule="evenodd" d="M0 0c0 4.42 5.37 8 12 8s12-3.58 12-8" fill="black" fill-opacity=".16"/></g><g id="eyes-closed-b5533c4d"><path fill-rule="evenodd" clip-rule="evenodd" d="M2.16 19.55C4.01 23.35 8.16 26 13 26c4.81 0 8.96-2.63 10.82-6.4.55-1.13-.24-2.05-1.03-1.37a15 15 0 0 1-9.8 3.43c-3.73 0-7.12-1.24-9.55-3.23-.9-.73-1.82.01-1.28 1.12m58 0c1.85 3.8 6 6.45 10.84 6.45 4.81 0 8.96-2.63 10.82-6.4.55-1.13-.24-2.05-1.03-1.37a15 15 0 0 1-9.8 3.43c-3.76 0-7.15-1.24-9.58-3.23-.9-.73-1.82.01-1.28 1.12" fill="black" fill-opacity=".6"/></g><g id="eyebrows-frownNatural-b5533c4d"><path fill-rule="evenodd" clip-rule="evenodd" d="M28.5 6.88c-1.96 2.9-5.54 4.64-8.73 5.68-3.94 1.29-18.55 3.38-15.11 11.35.05.12.22.12.27 0 1.15-2.65 17.46-5.12 18.97-5.7 4.45-1.71 8.4-5.5 9.16-10.55.36-2.31-.63-6.05-1.54-7.55-.1-.18-.38-.13-.43.07-.36 1.33-1.4 4.97-2.58 6.7m39.28 0c1.97 2.9 5.54 4.64 8.74 5.68 3.96 1.29 18.57 3.38 15.13 11.35a.15.15 0 0 1-.28 0c-1.15-2.65-17.46-5.12-18.97-5.7-4.44-1.71-8.4-5.5-9.16-10.55-.35-2.31.64-6.05 1.55-7.55.1-.18.37-.13.43.07.35 1.33 1.4 4.97 2.57 6.7" fill="black" fill-opacity=".6"/></g><g id="top-winterHat04-b5533c4d"><path d="M66 65c0-8.16 1.6-15.95 4.5-23.06-3.86-8.95-8.33-22.96-3.86-32.82 8-2.43 17.8 1.33 25.63 5.73A60.7 60.7 0 0 1 127 4h10c12.91 0 24.9 4.01 34.75 10.86 7.84-4.4 17.66-8.17 25.67-5.74 4.47 9.88-.03 23.94-3.9 32.88A61 61 0 0 1 198 65v8H66z" fill="#3c4f5c"/><path d="M193.52 42c3.87-8.94 8.37-23 3.9-32.88-8-2.43-17.83 1.34-25.66 5.74A61 61 0 0 1 193.52 42M92.27 14.85c-7.83-4.4-17.63-8.16-25.63-5.73-4.47 9.86 0 23.87 3.87 32.82 4.5-11 12.12-20.4 21.76-27.1" fill="black" fill-opacity=".24"/><path d="M189.2 33.42c1.99-6 3.5-12.86 1.49-16.1-2.67-1.16-7.59.47-12.4 2.77a61 61 0 0 1 10.9 13.33M85.66 20.14c-4.92-2.38-10-4.11-12.73-2.93-2.06 3.33-.42 10.47 1.64 16.59a61 61 0 0 1 11.1-13.66" fill="white" fill-opacity=".3"/><path fill-rule="evenodd" clip-rule="evenodd" d="M63 69.77a7 7 0 0 1 3.05-5.96c7.8-5.16 30.42-17.8 66.02-17.8s58.14 12.64 65.9 17.83a7 7 0 0 1 3.03 5.95v30.2c0 3.3-3.9 5.38-6.78 3.75C183.84 97.82 162.1 88 132.8 88a133.6 133.6 0 0 0-63.17 15.98c-2.85 1.56-6.63-.5-6.63-3.75z" fill="black" fill-opacity=".1"/><path fill-rule="evenodd" clip-rule="evenodd" d="M63 67.77a7 7 0 0 1 3.05-5.96c7.8-5.16 30.42-17.8 66.02-17.8s58.14 12.64 65.9 17.83a7 7 0 0 1 3.03 5.95v30.2c0 3.3-3.9 5.38-6.78 3.75C183.84 95.82 162.1 86 132.8 86a133.6 133.6 0 0 0-63.17 15.98c-2.85 1.56-6.63-.5-6.63-3.75z" fill="#F4F4F4"/></g><clipPath id="clip-b5533c4d"><rect width="280" height="280" rx="103.6" ry="103.6"/></clipPath></defs><g clip-path="url(#clip-b5533c4d)"><g transform="translate(50.4, 0)"><path d="M140 36a56 56 0 0 0-56 56v6.17A12 12 0 0 0 74 110v14a12 12 0 0 0 10.3 11.88A56 56 0 0 0 116 180.6V199h-4a72 72 0 0 0-72 72v9h200v-9a72 72 0 0 0-72-72h-4v-18.38a56 56 0 0 0 31.7-44.73A12 12 0 0 0 206 124v-14a12 12 0 0 0-10-11.83V92a56 56 0 0 0-56-56" fill="url(#skin-color-b5533c4d)"/><path d="M116 180.61v8a56 56 0 0 0 24 5.39 56 56 0 0 0 24-5.39v-8a56 56 0 0 1-24 5.39 56 56 0 0 1-24-5.39" fill="black" fill-opacity=".1"/><use transform="translate(40 184.7)" href="#clothes-shirtScoopNeck-b5533c4d"/><use transform="translate(94 140)" href="#mouth-sad-b5533c4d"/><use transform="translate(128 130)" href="#nose-default-b5533c4d"/><use transform="translate(98 98)" href="#eyes-closed-b5533c4d"/><use transform="translate(91.86 82)" href="#eyebrows-frownNatural-b5533c4d"/><use transform="translate(8)" href="#top-winterHat04-b5533c4d"/></g></g></svg>