<svg xmlns="http://www.w3.org/2000/svg" viewBox="0 0 280 280" fill="none" shape-rendering="auto" aria-hidden="true"><!-- Generated by DiceBear (https://dicebear.com) --><metadata xmlns:rdf="http://www.w3.org/1999/02/22-rdf-syntax-ns#" xmlns:xsi="http://www.w3.org/2001/XMLSchema-instance" xmlns:dc="http://purl.org/dc/elements/1.1/" xmlns:dcterms="http://purl.org/dc/terms/"><rdf:RDF><rdf:Description><dc:title>Avataaars</dc:title><dc:creator>Pablo Stanley</dc:creator><dc:source xsi:type="dcterms:URI">https://avataaars.com/</dc:source><dcterms:license xsi:type="dcterms:URI">https://avataaars.com/</dcterms:license><dc:rights>Remix of “Avataaars” (https://avataaars.com/) by “Pablo Stanley”, licensed under “Free for personal and commercial use” (https://avataaars.com/)</dc:rights></rdf:Description></rdf:RDF></metadata><defs><linearGradient id="skin-color-6572fd08" gradientTransform="rotate(-128, 0.5, 0.5)"><stop offset="0%" stop-color="#ffdbb4"/><stop offset="100%" stop-color="#040f07"/></linearGradient><g id="clothesGraphic-skull-6572fd08"><path fill-rule="evenodd" clip-rule="evenodd" d="M65.28 18.93c-.3 2.78-5.7 4.27-7.67 2.45-.91-.84-.93-2.58-1.13-3.7a49 49 0 0 1-.75-6.43c-.06-1.32-.4-2.38 1.04-2.58.89-.12 1.8.47 2.52.93 2.42 1.58 6.3 6.14 5.96 9.33m-12.4-5.85c.3 2.82 1.32 7.73-.93 10.1-2.02 2.12-6.16.02-6.79-2.47-.77-3.1 2.28-6.78 4.15-8.87.58-.64 1.85-2.4 2.84-1.82.4.23.7 2.61.74 3.06m1.44 11.03c.66-1.53 6.92 3.01 3.96 5.18-.48.35-4.16 1.46-4.86.94-1.48-1.1.43-4.97.91-6.12m19.01-7.58C72.89 1.05 53.08-3.3 42.49 5.5c-4.06 3.38-6.4 7.5-6.5 12.78-.1 4.47.63 8.7 4.04 11.77 1.48 1.33 2.46 2.15 3.25 3.97.82 1.9 1.2 4.33 2.74 5.83.85.83 2.09 1.5 3.26.96 2.17-.98 1.47-3.98 2.13-5.65 2.04 4.97 7.21 6.55 8.15.25 1.03 1.82 3.72 4.2 5.7 2.2.81-.8.93-2.14 1.07-3.22.25-1.9-.18-2.66 1.36-3.97 4.03-3.45 5.77-8.67 5.63-13.9" fill="white"/></g><g id="clothes-graphicShirt-6572fd08"><path d="M100.5 39.3c18.5 0 33.5-9.62 33.5-21.5q0-1.64-.38-3.23A72 72 0 0 1 200 86.36v8.95H0v-8.95A72 72 0 0 1 67.4 14.5a14 14 0 0 0-.4 3.3c0 11.88 15 21.5 33.5 21.5" fill="#6a5737"/><use transform="translate(45 44.3)" href="#clothesGraphic-skull-6572fd08"/></g><g id="mouth-disbelief-6572fd08"><path fill-rule="evenodd" clip-rule="evenodd" d="M32 23a14 14 0 1 1 28 0" fill="black" fill-opacity=".7"/></g><g id="nose-default-6572fd08"><path fill-rule="evenodd" clip-rule="evenodd" d="M0 0c0 4.42 5.37 8 12 8s12-3.58 12-8" fill="black" fill-opacity=".16"/></g><g id="eyes-side-6572fd08"><path d="M13 8c-4.84 0-9 2.65-10.84 6.45-.54 1.1.39 1.85 1.28 1.12a15 15 0 0 1 9.8-3.22 6 6 0 1 0 10.7 2.8 2 2 0 0 0-.12-.74l-.15-.38a6 6 0 0 0-1.64-2.48C19.9 9.32 16.5 8 13 8m58 0c-4.84 0-9 2.65-10.84 6.45-.54 1.1.39 1.85 1.28 1.12a15 15 0 0 1 9.8-3.22 6 6 0 1 0 10.7 2.8 2 2 0 0 0-.12-.74l-.15-.38a6 6 0 0 0-1.64-2.48C77.9 9.32 74.5 8 71 8" fill="black" fill-opacity=".6"/></g><g id="eyebrows-angryNatural-6572fd08"><path fill-rule="evenodd" clip-rule="evenodd" d="M11.43 5.01a7.2 7.2 0 0 0-6.44 2.43c-.6.73-1.55 2.48-1.5 3.42 0 .35.22.37 1.12.6 1.64.38 4.5-1.13 6.35-1 2.59.2 5.05 1.4 7.29 2.69 3.84 2.2 8.35 6.84 13.09 6.6.35-.02 5.42-1.74 4.4-2.72-.31-.49-3.02-1.13-3.5-1.36-2.16-1.09-4.36-2.45-6.43-3.72C21.28 9.18 16.86 5.6 11.42 5m73.62.01c2.37-.27 4.86.5 6.43 2.43.59.73 1.55 2.48 1.5 3.42 0 .35-.22.37-1.12.6-1.64.38-4.5-1.13-6.35-1-2.58.2-5.05 1.4-7.28 2.69-3.84 2.2-8.36 6.84-13.1 6.6-.35-.02-5.42-1.74-4.4-2.72.3-.49 3.03-1.13 3.5-1.36 2.17-1.09 4.36-2.45 6.44-3.72C75.19 9.18 79.6 5.6 85.04 5" fill="black" fill-opacity=".6"/></g><g id="top-shavedSides-6572fd08"><path d="m174.83 55.92-.03.02q1.14 1.32 2.19 2.7a55.7 55.7 0 0 1 11 33.36v5.5a54.3 54.3 0 0 0-17.4-39.93c-11.58 3.77-49.58 14.27-77.63.42A54.4 54.4 0 0 0 76 97.5V92c0-12.5 4.1-24.04 11.01-33.35q1.07-1.41 2.22-2.75l-.02-.02A55.9 55.9 0 0 1 132.01 36a55.9 55.9 0 0 1 42.81 19.92" fill="black" fill-opacity=".16"/><path d="M91.54 53.29A55.8 55.8 0 0 0 76 92v6.16a12 12 0 0 0-6.49 3.34l.7-17.37a46 46 0 0 1 17.37-34.17c-2.2-3.84-1.45-10.33 7.8-13.1 5.07-1.5 7.57-5.08 10.24-8.88 3.5-5 7.27-10.37 17.48-11.92 9.87-1.5 13.23-.88 17.05-.18 3.13.57 6.58 1.2 14.2.76 9.85-.57 16.86-4 21.43-6.22 3.26-1.6 5.27-2.58 6.17-1.47 15.42 18.9 6.97 33.8-6.2 41.96A45.9 45.9 0 0 1 192 86v13.6q-1.84-1.07-4-1.43V92a55.8 55.8 0 0 0-16-39.19c-7.76 2.75-50.39 16.55-80.46.48m131.07 172.76c3.06 5.6 4.05 11.12 3.5 16.38A72 72 0 0 0 160 199h-4v-18.39a56 56 0 0 0 31.8-45.74c1.5-.23 2.93-.74 4.2-1.47v20.7c0 20.77 11.47 39.79 22.15 57.47 2.97 4.93 5.88 9.75 8.46 14.48M67.7 146.5l.66-16.35a12 12 0 0 0 7.85 4.72A56 56 0 0 0 108 180.6V199h-4c-11.2 0-21.8 2.56-31.25 7.12-2.99-18.29-4.3-38.68-5.05-59.62" fill="#a55728"/><path fill-rule="evenodd" clip-rule="evenodd" d="M89.88 52.36c33.22 19.3 83.37 0 83.37 0 14.53-7.77 25.08-23.32 8.7-43.4-2.17-2.66-10.7 6.72-27.6 7.7-16.9.97-13.27-3.31-31.25-.59-17.97 2.73-15.99 17.3-27.72 20.8s-9.8 13-5.5 15.5" fill="white" fill-opacity=".2"/></g><clipPath id="clip-6572fd08"><rect width="280" height="280" rx="103.6" ry="103.6"/></clipPath></defs><g clip-path="url(#clip-6572fd08)"><g transform="translate(50.4, 0)"><path d="M140 36a56 56 0 0 0-56 56v6.17A12 12 0 0 0 74 110v14a12 12 0 0 0 10.3 11.88A56 56 0 0 0 116 180.6V199h-4a72 72 0 0 0-72 72v9h200v-9a72 72 0 0 0-72-72h-4v-18.38a56 56 0 0 0 31.7-44.73A12 12 0 0 0 206 124v-14a12 12 0 0 0-10-11.83V92a56 56 0 0 0-56-56" fill="url(#skin-color-6572fd08)"/><path d="M116 180.61v8a56 56 0 0 0 24 5.39 56 56 0 0 0 24-5.39v-8a56 56 0 0 1-24 5.39 56 56 0 0 1-24-5.39" fill="black" fill-opacity=".1"/><use transform="translate(40 184.7)" href="#clothes-graphicShirt-6572fd08"/><use transform="translate(94 140)" href="#mouth-disbelief-6572fd08"/><use transform="translate(128 130)" href="#nose-default-6572fd08"/><use transform="translate(98 98)" href="#eyes-side-6572fd08"/><use transform="translate(91.86 82)" href="#eyebrows-angryNatural-6572fd08"/><use transform="translate(8)" href="#top-shavedSides-6572fd08"/></g></g></svg>