<svg xmlns="http://www.w3.org/2000/svg" viewBox="0 0 280 280" fill="none" shape-rendering="auto" aria-hidden="true"><!-- Generated by DiceBear (https://dicebear.com) --><metadata xmlns:rdf="http://www.w3.org/1999/02/22-rdf-syntax-ns#" xmlns:xsi="http://www.w3.org/2001/XMLSchema-instance" xmlns:dc="http://purl.org/dc/elements/1.1/" xmlns:dcterms="http://purl.org/dc/terms/"><rdf:RDF><rdf:Description><dc:title>Avataaars</dc:title><dc:creator>Pablo Stanley</dc:creator><dc:source xsi:type="dcterms:URI">https://avataaars.com/</dc:source><dcterms:license xsi:type="dcterms:URI">https://avataaars.com/</dcterms:license><dc:rights>Remix of “Avataaars” (https://avataaars.com/) by “Pablo Stanley”, licensed under “Free for personal and commercial use” (https://avataaars.com/)</dc:rights></rdf:Description></rdf:RDF></metadata><defs><linearGradient id="skin-color-fe49f909" gradientTransform="rotate(-128, 0.5, 0.5)"><stop offset="0%" stop-color="#d08b5b"/><stop offset="100%" stop-color="#ae5d29"/></linearGradient><g id="clothes-shirtScoopNeck-fe49f909"><path d="M100.5 51.13c27.34 0 49.5-13.2 49.5-29.48q0-2.04-.46-4A72 72 0 0 1 200 86.35v8.95H0v-8.95A72 72 0 0 1 51.53 17.3a18 18 0 0 0-.53 4.34c0 16.28 22.16 29.48 49.5 29.48" fill="#fe502d"/></g><g id="mouth-default-fe49f909"><path fill-rule="evenodd" clip-rule="evenodd" d="M32 9a14 14 0 1 0 28 0" fill="black" fill-opacity=".7"/></g><g id="nose-default-fe49f909"><path fill-rule="evenodd" clip-rule="evenodd" d="M0 0c0 4.42 5.37 8 12 8s12-3.58 12-8" fill="black" fill-opacity=".16"/></g><g id="eyes-hearts-fe49f909"><path d="M21.96 2c-2.55 0-5.08 1.98-6.46 3.82C14.1 3.98 11.6 2 9.04 2 3.55 2 0 5.33 0 9.64c0 5.73 4.41 9.13 9.04 12.74 1.66 1.23 4.78 4.4 5.17 5.1.4.68 2.13.7 2.62 0 .47-.73 3.5-3.87 5.16-5.1 4.63-3.6 9.04-7 9.04-12.74C31 5.34 27.46 2 21.97 2m53 0c-2.55 0-5.08 1.98-6.46 3.82C67.1 3.98 64.6 2 62.04 2 56.54 2 53 5.33 53 9.64c0 5.73 4.41 9.13 9.04 12.74 1.66 1.23 4.78 4.4 5.17 5.1.38.68 2.1.7 2.58 0 .48-.73 3.5-3.87 5.17-5.1 4.63-3.6 9.04-7 9.04-12.74C84 5.34 80.45 2 74.96 2" fill="#FF5353" fill-opacity=".8"/></g><g id="eyebrows-unibrowNatural-fe49f909"><path fill-rule="evenodd" clip-rule="evenodd" d="M88.26 7.6c1.46.56 9.19 6.43 7.86 9.16a.8.8 0 0 1-1.29.22 11 11 0 0 0-1.7-1.2c-5.11-2.83-11.3-1.92-16.74-.9-6.12 1.14-12.1 3.48-18.38 2.67-2.04-.26-6.08-1.22-7.63-2.96-.47-.53-.06-1.38.64-1.43 1.44-.11 2.86-.86 4.33-1.28 3.65-1.03 7.4-1.56 11.11-2.3 6.62-1.3 15.17-4.52 21.8-2" fill="#DADADA"/><path fill-rule="evenodd" clip-rule="evenodd" d="M50.9 12.76c-1.17.04-2.8 3.56-.56 3.68 2.23.11 1.73-3.72.56-3.68m-3.76.04q0-.01 0 0M8.02 7.56c-1.47.56-9.2 6.43-7.87 9.16.24.5.9.6 1.3.22.54-.52 1.57-1.11 1.7-1.18 5.1-2.84 11.3-1.93 16.73-.91 6.12 1.15 12.1 3.49 18.4 2.68 2.03-.26 6.07-1.22 7.6-2.96.48-.53.08-1.38-.62-1.43-1.44-.11-2.86-.86-4.33-1.28-3.65-1.03-7.4-1.56-11.12-2.3-6.62-1.3-15.17-4.52-21.8-2" fill="#DADADA"/><path fill-rule="evenodd" clip-rule="evenodd" d="M47.1 11.79c1.18.04 2.77 4.5.54 4.67-2.24.18-1.7-4.71-.53-4.67" fill="#DADADA"/></g><g id="top-hat-fe49f909"><path d="M187.32 138.76C226.9 129.26 254 109.87 254 87.5c0-23.5-29.92-43.72-72.8-52.63l-.31-1.43A40 40 0 0 0 141.82 2h-18.64A40 40 0 0 0 84.1 33.44l-.27 1.21C40.4 43.45 10 63.8 10 87.5c0 22.37 27.1 41.76 66.68 51.26q-.3-1.92-.47-3.9A12 12 0 0 1 66.01 123v-13a12 12 0 0 1 10.01-11.83V92c0-8 1.68-15.62 4.7-22.51 8.61-15.69 92.74-16.49 102.66.16A56 56 0 0 1 188 92v6.17A12 12 0 0 1 198 110v13a12 12 0 0 1-10.2 11.87 56 56 0 0 1-.48 3.9" fill="#433ff4"/><path d="M188 92.74c3.85-3.25 6-6.9 6-10.74 0-6.08-5.38-11.65-14.32-15.98a12 12 0 0 1 3.68 3.63A56 56 0 0 1 188 92zm-31.74-33.75a144 144 0 0 0-24.26-2c-8.98 0-17.52.78-25.22 2.17 15.16-2.2 34.11-2.3 49.48-.17m-72.57 7.34C75.12 70.63 70 76.07 70 82c0 3.85 2.15 7.49 6 10.74V92c0-8 1.68-15.62 4.7-22.51a10 10 0 0 1 2.99-3.16" fill="black" fill-opacity=".5"/></g><g id="accessories-prescription01-fe49f909"><path fill-rule="evenodd" clip-rule="evenodd" d="M105.95 49.49c4.66.16 8 .88 10.54 4.52 3 .15 6.23.37 8.95 1.63 3.4 1.56 3.91 5.1-.36 5.6a20 20 0 0 1-5.55-.46l-.18-.03-.34-.06c1.1 9.46-6.2 20.87-14.23 24.35C93.83 89.8 81.57 84.53 75.77 75c-2.63-4.3-4.15-10.51-4.47-15.86q-.63-.31-1.23-.67-.57-.34-1.12-.61c-2-.98-5.34-1.1-7.5 0q-.51.26-1.04.58-.64.38-1.32.72C58.77 64.5 57.25 70.7 54.63 75c-5.8 9.53-18.07 14.8-29.04 10.04-8.06-3.48-15.37-14.9-14.26-24.35q-.18-.01-.34.03l-.19.03c-1.83.33-3.69.66-5.55.45-4.26-.5-3.74-4.03-.36-5.6 2.74-1.25 5.98-1.47 9-1.62 2.54-3.63 5.88-4.36 10.54-4.52l23.3-.46c5.18-.14 9.71 0 11.02 4.6a19 19 0 0 1 6.35-1.25c1.86 0 4.35.45 6.5 1.28 1.3-4.64 5.84-4.77 11.03-4.63zM81.9 56.27c-2.37.03-3.49.42-3.9 2.9-.4 2.5 0 5.31.48 7.78.72 3.77 1.92 7.46 4.7 10.22a16 16 0 0 0 8.32 4.34l.96.16c.63.1 1.23.18.72.13l-.1-.01h-.06.16c3.72.4 7.7.32 10.8-2.04 3.54-2.7 5.96-6.95 7.03-11.2.62-2.48 1.93-8.42-.46-10.4-2.74-2.28-28.64-1.88-28.64-1.88m-33.43 0c2.37.03 3.5.42 3.9 2.9.4 2.5 0 5.32-.46 7.78-.72 3.77-1.92 7.46-4.7 10.22a16 16 0 0 1-8.33 4.35l-.96.15c-.64.1-1.25.19-.68.13-3.73.4-7.74.32-10.84-2.05-3.54-2.7-5.96-6.95-7.02-11.2-.62-2.48-1.93-8.42.46-10.4 2.74-2.28 28.63-1.87 28.63-1.87m-10.93 25.5" fill="black" fill-opacity=".1"/><path fill-rule="evenodd" clip-rule="evenodd" d="M105.95 47.49c4.66.16 8 .88 10.54 4.52 3 .15 6.23.37 8.95 1.63 3.4 1.56 3.91 5.1-.36 5.6a20 20 0 0 1-5.55-.46l-.18-.03-.34-.06c1.1 9.46-6.2 20.87-14.23 24.35C93.83 87.8 81.57 82.53 75.77 73c-2.63-4.3-4.15-10.51-4.47-15.86q-.63-.31-1.23-.67-.57-.34-1.12-.61c-2-.98-5.34-1.1-7.5 0q-.51.26-1.04.58-.64.38-1.32.72C58.77 62.5 57.25 68.7 54.63 73c-5.8 9.53-18.07 14.8-29.04 10.04-8.06-3.48-15.37-14.9-14.26-24.35q-.18-.01-.34.03l-.19.03c-1.83.33-3.69.66-5.55.45-4.26-.5-3.74-4.03-.36-5.6 2.74-1.25 5.98-1.47 9-1.62 2.54-3.63 5.88-4.36 10.54-4.52l23.3-.46c5.18-.14 9.71 0 11.02 4.6a19 19 0 0 1 6.35-1.25c1.86 0 4.35.45 6.5 1.28 1.3-4.64 5.84-4.77 11.03-4.63zM81.9 54.27c-2.37.03-3.49.42-3.9 2.9-.4 2.5 0 5.31.48 7.78.72 3.77 1.92 7.46 4.7 10.22a16 16 0 0 0 8.32 4.34l.96.16c.63.1 1.23.18.72.13l-.1-.01h-.06.16c3.72.4 7.7.32 10.8-2.04 3.54-2.7 5.96-6.95 7.03-11.2.62-2.48 1.93-8.42-.46-10.4-2.74-2.28-28.64-1.88-28.64-1.88m-33.43 0c2.37.03 3.5.42 3.9 2.9.4 2.5 0 5.32-.46 7.78-.72 3.77-1.92 7.46-4.7 10.22a16 16 0 0 1-8.33 4.35l-.96.15c-.64.1-1.25.19-.68.13-3.73.4-7.74.32-10.84-2.05-3.54-2.7-5.96-6.95-7.02-11.2-.62-2.48-1.93-8.42.46-10.4 2.74-2.28 28.63-1.87 28.63-1.87m-10.93 25.5" fill="#ffffff"/></g><clipPath id="clip-fe49f909"><rect width="280" height="280" rx="103.6" ry="103.6"/></clipPath></defs><g clip-path="url(#clip-fe49f909)"><g transform="translate(50.4, 0)"><path d="M140 36a56 56 0 0 0-56 56v6.17A12 12 0 0 0 74 110v14a12 12 0 0 0 10.3 11.88A56 56 0 0 0 116 180.6V199h-4a72 72 0 0 0-72 72v9h200v-9a72 72 0 0 0-72-72h-4v-18.38a56 56 0 0 0 31.7-44.73A12 12 0 0 0 206 124v-14a12 12 0 0 0-10-11.83V92a56 56 0 0 0-56-56" fill="url(#skin-color-fe49f909)"/><path d="M116 180.61v8a56 56 0 0 0 24 5.39 56 56 0 0 0 24-5.39v-8a56 56 0 0 1-24 5.39 56 56 0 0 1-24-5.39" fill="black" fill-opacity=".1"/><use transform="translate(40 184.7)" href="#clothes-shirtScoopNeck-fe49f909"/><use transform="translate(94 140)" href="#mouth-default-fe49f909"/><use transform="translate(128 130)" href="#nose-default-fe49f909"/><use transform="translate(98 98)" href="#eyes-hearts-fe49f909"/><use transform="translate(91.86 82)" href="#eyebrows-unibrowNatural-fe49f909"/><use transform="translate(8)" href="#top-hat-fe49f909"/><use transform="translate(75.77 46)" href="#accessories-prescription01-fe49f909"/></g></g></svg>