<svg xmlns="http://www.w3.org/2000/svg" viewBox="0 0 280 280" fill="none" shape-rendering="auto" aria-hidden="true"><!-- Generated by DiceBear (https://dicebear.com) --><metadata xmlns:rdf="http://www.w3.org/1999/02/22-rdf-syntax-ns#" xmlns:xsi="http://www.w3.org/2001/XMLSchema-instance" xmlns:dc="http://purl.org/dc/elements/1.1/" xmlns:dcterms="http://purl.org/dc/terms/"><rdf:RDF><rdf:Description><dc:title>Avataaars</dc:title><dc:creator>Pablo Stanley</dc:creator><dc:source xsi:type="dcterms:URI">https://avataaars.com/</dc:source><dcterms:license xsi:type="dcterms:URI">https://avataaars.com/</dcterms:license><dc:rights>Remix of “Avataaars” (https://avataaars.com/) by “Pablo Stanley”, licensed under “Free for personal and commercial use” (https://avataaars.com/)</dc:rights></rdf:Description></rdf:RDF></metadata><defs><linearGradient id="skin-color-37898e46" gradientTransform="rotate(-128, 0.5, 0.5)"><stop offset="0%" stop-color="#d08b5b"/><stop offset="100%" stop-color="#fd9841"/></linearGradient><g id="clothes-collarAndSweater-37898e46"><path d="M68.37 14.45A28 28 0 0 1 76 6.88v15.3C76 28 79.98 33.16 86.08 36.3l-.08.06.9 2.87c3.89 2 8.35 3.13 13.1 3.13s9.21-1.14 13.1-3.13l.9-2.87-.08-.06C120.02 33.16 124 28 124 22.18V7.58a27 27 0 0 1 6.6 6.82A72 72 0 0 1 200 86.36v8.95H0v-8.95a72 72 0 0 1 68.37-71.91" fill="#ebfee5"/><path d="M76 6.88c-6.77 4.6-11 11.17-11 18.45 0 7.4 4.36 14.06 11.3 18.67l6.12-4.82 4.58.33-1-3.15.08-.06C79.98 33.16 76 28 76 22.18zm48 15.3c0 5.83-3.98 10.98-10.08 14.12l.08.06-1 3.15 4.58-.33 5.65 4.45c6.63-4.6 10.77-11.1 10.77-18.3 0-6.92-3.82-13.19-10-17.74z" fill="white" fill-opacity=".75"/></g><g id="mouth-serious-37898e46"><rect x="34" y="12" width="24" height="6" rx="3" fill="black" fill-opacity=".7"/></g><g id="nose-default-37898e46"><path fill-rule="evenodd" clip-rule="evenodd" d="M0 0c0 4.42 5.37 8 12 8s12-3.58 12-8" fill="black" fill-opacity=".16"/></g><g id="eyes-closed-37898e46"><path fill-rule="evenodd" clip-rule="evenodd" d="M2.16 19.55C4.01 23.35 8.16 26 13 26c4.81 0 8.96-2.63 10.82-6.4.55-1.13-.24-2.05-1.03-1.37a15 15 0 0 1-9.8 3.43c-3.73 0-7.12-1.24-9.55-3.23-.9-.73-1.82.01-1.28 1.12m58 0c1.85 3.8 6 6.45 10.84 6.45 4.81 0 8.96-2.63 10.82-6.4.55-1.13-.24-2.05-1.03-1.37a15 15 0 0 1-9.8 3.43c-3.76 0-7.15-1.24-9.58-3.23-.9-.73-1.82.01-1.28 1.12" fill="black" fill-opacity=".6"/></g><g id="eyebrows-default-37898e46"><path d="M7.77 17.16c3.91-5.51 14.64-8.6 23.89-6.33a2 2 0 0 0 .95-3.88c-10.73-2.64-23.16.94-28.1 7.9a2 2 0 0 0 3.3 2.3m80.73.01c-3.9-5.5-14.64-8.6-23.9-6.33a2 2 0 0 1-.94-3.88c10.74-2.64 23.17.94 28.1 7.9a2 2 0 0 1-3.25 2.3" fill="black" fill-opacity=".6"/></g><g id="top-fro-37898e46"><path d="M93.7 69.39c-4.62 24.47-16 42.72-25.74 41a8 8 0 0 1-1.96-.63V89a66 66 0 0 1 28.4-54.24q.72 3.6 1.05 7.77a263 263 0 0 1 36.9-2.44c13.27 0 25.67.85 36.22 2.34q.33-4.1 1.05-7.67A65.9 65.9 0 0 1 198 89v20.76q-.94.46-1.95.63c-9.72 1.72-21.09-16.48-25.73-40.9a261 261 0 0 1-37.97 2.57c-14.3 0-27.6-1-38.65-2.7" fill="black" fill-opacity=".16"/><path d="M132 0c-11.21 0-21.9 2.2-31.69 6.18Q98.93 6 97.5 6c-6.7 0-12.77 3.07-17.2 8.06-18.04.93-33.46 13.3-40.77 30.9C31.5 49.56 26 59.04 26 70q0 .87.05 1.73A62 62 0 0 0 16 106c0 7.33 1.21 14.34 3.43 20.78Q19 129.32 19 132c0 9.45 4.1 17.81 10.38 22.88C36.74 172.68 52.6 185 71 185q2.25 0 4.44-.24C80.9 189.9 87.88 193 95.5 193c4.44 0 8.67-1.05 12.5-2.95v-9.44a56 56 0 0 1-31.8-45.74A12 12 0 0 1 66 123v-13c0-1.72.36-3.36 1.02-4.84q.46.15.94.23c9.73 1.72 21.12-16.53 25.74-41a260 260 0 0 0 38.65 2.7c14.02 0 27.06-.96 37.97-2.6 4.64 24.4 16.01 42.6 25.73 40.9q.48-.1.94-.25a12 12 0 0 1 1 4.83v13a12 12 0 0 1-10.2 11.87 56 56 0 0 1-31.81 45.74v9.44a28 28 0 0 0 12.5 2.95c7.62 0 14.6-3.1 20.06-8.24q2.19.24 4.44.24c18.39 0 34.26-12.32 41.62-30.12C240.9 149.8 245 141.45 245 132q0-2.68-.43-5.22A64 64 0 0 0 248 106a62 62 0 0 0-10.05-34.27q.06-.87.05-1.73c0-10.96-5.5-20.44-13.53-25.04-7.31-17.6-22.73-29.97-40.77-30.9C179.27 9.07 173.2 6 166.5 6q-1.43 0-2.81.18A84 84 0 0 0 132 0" fill="#624f56"/></g><g id="facialHair-beardLight-37898e46"><path fill-rule="evenodd" clip-rule="evenodd" d="M77.43 72.17c-2.52 2.3-5.2 3.32-8.58 2.6-.58-.12-2.95-4.54-8.85-4.54s-8.27 4.42-8.85 4.54c-3.39.72-6.07-.3-8.58-2.6-4.72-4.31-8.65-10.26-6.3-16.75 1.24-3.38 3.24-7.1 6.88-8.17 3.9-1.15 9.35 0 13.26-.8a8.6 8.6 0 0 0 3.6-1.45 9 9 0 0 0 3.57 1.46c3.92.78 9.38-.36 13.27.79 3.64 1.07 5.64 4.79 6.87 8.17 2.36 6.49-1.57 12.44-6.3 16.75M116.08 0c-3.4 8.4-2.1 18.86-2.72 27.68-.52 7.16-2.02 17.9-8.39 22.53-3.25 2.37-9.18 6.35-13.43 5.24-2.93-.76-3.24-9.16-7.08-12.3a22.4 22.4 0 0 0-15.31-4.9c-2.37.11-7.17.1-9.15 1.91-1.98-1.82-6.78-1.8-9.15-1.9a22.4 22.4 0 0 0-15.3 4.9c-3.85 3.13-4.16 11.53-7.1 12.3-4.24 1.1-10.17-2.88-13.42-5.25-6.37-4.62-7.87-15.37-8.4-22.53C6.02 18.86 7.34 8.4 3.93 0c-1.66 0-.57 16.13-.57 16.13v20.36c.04 15.28 9.59 38.17 30.76 46.9 5.18 2.14 16.89 5.6 25.89 5.6 8.98.02 20.71-3.12 25.9-5.26 21.15-8.73 30.7-31.96 30.74-47.23V16.13S117.74 0 116.08 0" fill="#724133"/></g><g id="accessories-prescription01-37898e46"><path fill-rule="evenodd" clip-rule="evenodd" d="M105.95 49.49c4.66.16 8 .88 10.54 4.52 3 .15 6.23.37 8.95 1.63 3.4 1.56 3.91 5.1-.36 5.6a20 20 0 0 1-5.55-.46l-.18-.03-.34-.06c1.1 9.46-6.2 20.87-14.23 24.35C93.83 89.8 81.57 84.53 75.77 75c-2.63-4.3-4.15-10.51-4.47-15.86q-.63-.31-1.23-.67-.57-.34-1.12-.61c-2-.98-5.34-1.1-7.5 0q-.51.26-1.04.58-.64.38-1.32.72C58.77 64.5 57.25 70.7 54.63 75c-5.8 9.53-18.07 14.8-29.04 10.04-8.06-3.48-15.37-14.9-14.26-24.35q-.18-.01-.34.03l-.19.03c-1.83.33-3.69.66-5.55.45-4.26-.5-3.74-4.03-.36-5.6 2.74-1.25 5.98-1.47 9-1.62 2.54-3.63 5.88-4.36 10.54-4.52l23.3-.46c5.18-.14 9.71 0 11.02 4.6a19 19 0 0 1 6.35-1.25c1.86 0 4.35.45 6.5 1.28 1.3-4.64 5.84-4.77 11.03-4.63zM81.9 56.27c-2.37.03-3.49.42-3.9 2.9-.4 2.5 0 5.31.48 7.78.72 3.77 1.92 7.46 4.7 10.22a16 16 0 0 0 8.32 4.34l.96.16c.63.1 1.23.18.72.13l-.1-.01h-.06.16c3.72.4 7.7.32 10.8-2.04 3.54-2.7 5.96-6.95 7.03-11.2.62-2.48 1.93-8.42-.46-10.4-2.74-2.28-28.64-1.88-28.64-1.88m-33.43 0c2.37.03 3.5.42 3.9 2.9.4 2.5 0 5.32-.46 7.78-.72 3.77-1.92 7.46-4.7 10.22a16 16 0 0 1-8.33 4.35l-.96.15c-.64.1-1.25.19-.68.13-3.73.4-7.74.32-10.84-2.05-3.54-2.7-5.96-6.95-7.02-11.2-.62-2.48-1.93-8.42.46-10.4 2.74-2.28 28.63-1.87 28.63-1.87m-10.93 25.5" fill="black" fill-opacity=".1"/><path fill-rule="evenodd" clip-rule="evenodd" d="M105.95 47.49c4.66.16 8 .88 10.54 4.52 3 .15 6.23.37 8.95 1.63 3.4 1.56 3.91 5.1-.36 5.6a20 20 0 0 1-5.55-.46l-.18-.03-.34-.06c1.1 9.46-6.2 20.87-14.23 24.35C93.83 87.8 81.57 82.53 75.77 73c-2.63-4.3-4.15-10.51-4.47-15.86q-.63-.31-1.23-.67-.57-.34-1.12-.61c-2-.98-5.34-1.1-7.5 0q-.51.26-1.04.58-.64.38-1.32.72C58.77 62.5 57.25 68.7 54.63 73c-5.8 9.53-18.07 14.8-29.04 10.04-8.06-3.48-15.37-14.9-14.26-24.35q-.18-.01-.34.03l-.19.03c-1.83.33-3.69.66-5.55.45-4.26-.5-3.74-4.03-.36-5.6 2.74-1.25 5.98-1.47 9-1.62 2.54-3.63 5.88-4.36 10.54-4.52l23.3-.46c5.18-.14 9.71 0 11.02 4.6a19 19 0 0 1 6.35-1.25c1.86 0 4.35.45 6.5 1.28 1.3-4.64 5.84-4.77 11.03-4.63zM81.9 54.27c-2.37.03-3.49.42-3.9 2.9-.4 2.5 0 5.31.48 7.78.72 3.77 1.92 7.46 4.7 10.22a16 16 0 0 0 8.32 4.34l.96.16c.63.1 1.23.18.72.13l-.1-.01h-.06.16c3.72.4 7.7.32 10.8-2.04 3.54-2.7 5.96-6.95 7.03-11.2.62-2.48 1.93-8.42-.46-10.4-2.74-2.28-28.64-1.88-28.64-1.88m-33.43 0c2.37.03 3.5.42 3.9 2.9.4 2.5 0 5.32-.46 7.78-.72 3.77-1.92 7.46-4.7 10.22a16 16 0 0 1-8.33 4.35l-.96.15c-.64.1-1.25.19-.68.13-3.73.4-7.74.32-10.84-2.05-3.54-2.7-5.96-6.95-7.02-11.2-.62-2.48-1.93-8.42.46-10.4 2.74-2.28 28.63-1.87 28.63-1.87m-10.93 25.5" fill="#5199e4"/></g><clipPath id="clip-37898e46"><rect width="280" height="280" rx="103.6" ry="103.6"/></clipPath></defs><g clip-path="url(#clip-37898e46)"><g transform="translate(50.4, 0)"><path d="M140 36a56 56 0 0 0-56 56v6.17A12 12 0 0 0 74 110v14a12 12 0 0 0 10.3 11.88A56 56 0 0 0 116 180.6V199h-4a72 72 0 0 0-72 72v9h200v-9a72 72 0 0 0-72-72h-4v-18.38a56 56 0 0 0 31.7-44.73A12 12 0 0 0 206 124v-14a12 12 0 0 0-10-11.83V92a56 56 0 0 0-56-56" fill="url(#skin-color-37898e46)"/><path d="M116 180.61v8a56 56 0 0 0 24 5.39 56 56 0 0 0 24-5.39v-8a56 56 0 0 1-24 5.39 56 56 0 0 1-24-5.39" fill="black" fill-opacity=".1"/><use transform="translate(40 184.7)" href="#clothes-collarAndSweater-37898e46"/><use transform="translate(94 140)" href="#mouth-serious-37898e46"/><use transform="translate(128 130)" href="#nose-default-37898e46"/><use transform="translate(98 98)" href="#eyes-closed-37898e46"/><use transform="translate(91.86 82)" href="#eyebrows-default-37898e46"/><use transform="translate(8)" href="#top-fro-37898e46"/><use transform="translate(81 98)" href="#facialHair-beardLight-37898e46"/><use transform="translate(75.77 46)" href="#accessories-prescription01-37898e46"/></g></g></svg>