<svg xmlns="http://www.w3.org/2000/svg" viewBox="0 0 280 280" fill="none" shape-rendering="auto" aria-hidden="true"><!-- Generated by DiceBear (https://dicebear.com) --><metadata xmlns:rdf="http://www.w3.org/1999/02/22-rdf-syntax-ns#" xmlns:xsi="http://www.w3.org/2001/XMLSchema-instance" xmlns:dc="http://purl.org/dc/elements/1.1/" xmlns:dcterms="http://purl.org/dc/terms/"><rdf:RDF><rdf:Description><dc:title>Avataaars</dc:title><dc:creator>Pablo Stanley</dc:creator><dc:source xsi:type="dcterms:URI">https://avataaars.com/</dc:source><dcterms:license xsi:type="dcterms:URI">https://avataaars.com/</dcterms:license><dc:rights>Remix of “Avataaars” (https://avataaars.com/) by “Pablo Stanley”, licensed under “Free for personal and commercial use” (https://avataaars.com/)</dc:rights></rdf:Description></rdf:RDF></metadata><defs><linearGradient id="skin-color-5b979706" gradientTransform="rotate(-128, 0.5, 0.5)"><stop offset="0%" stop-color="#614335"/><stop offset="100%" stop-color="#edb98a"/></linearGradient><g id="clothes-shirtScoopNeck-5b979706"><path d="M100.5 51.13c27.34 0 49.5-13.2 49.5-29.48q0-2.04-.46-4A72 72 0 0 1 200 86.35v8.95H0v-8.95A72 72 0 0 1 51.53 17.3a18 18 0 0 0-.53 4.34c0 16.28 22.16 29.48 49.5 29.48" fill="#4e6a35"/></g><g id="mouth-concerned-5b979706"><path fill-rule="evenodd" clip-rule="evenodd" d="M27.12 23.87a19 19 0 0 1 37.77.09c.08.77-.77 2.04-1.85 2.04H29.1c-1.1 0-2.1-1.18-1.98-2.13" fill="black" fill-opacity=".7"/><path d="M61.59 26H30.4A11 11 0 0 1 46 19.2 11 11 0 0 1 61.6 26" fill="#FF4F6D"/><path d="M58.57 11.75A5 5 0 0 1 57 12H36q-1.22-.02-2.24-.53A19 19 0 0 1 46 7c4.82 0 9.22 1.8 12.57 4.75" fill="white"/></g><g id="nose-default-5b979706"><path fill-rule="evenodd" clip-rule="evenodd" d="M0 0c0 4.42 5.37 8 12 8s12-3.58 12-8" fill="black" fill-opacity=".16"/></g><g id="eyes-happy-5b979706"><path fill-rule="evenodd" clip-rule="evenodd" d="M2.16 14.45C4.01 10.65 8.16 8 13 8c4.81 0 8.96 2.63 10.82 6.4.55 1.13-.24 2.05-1.03 1.37a15 15 0 0 0-9.8-3.43c-3.73 0-7.12 1.24-9.55 3.23-.9.73-1.82-.01-1.28-1.12m58 0C62.01 10.65 66.16 8 71 8c4.81 0 8.96 2.63 10.82 6.4.55 1.13-.24 2.05-1.03 1.37a15 15 0 0 0-9.8-3.43c-3.76 0-7.15 1.24-9.58 3.23-.9.73-1.82-.01-1.28-1.12" fill="black" fill-opacity=".6"/></g><g id="eyebrows-frownNatural-5b979706"><path fill-rule="evenodd" clip-rule="evenodd" d="M28.5 6.88c-1.96 2.9-5.54 4.64-8.73 5.68-3.94 1.29-18.55 3.38-15.11 11.35.05.12.22.12.27 0 1.15-2.65 17.46-5.12 18.97-5.7 4.45-1.71 8.4-5.5 9.16-10.55.36-2.31-.63-6.05-1.54-7.55-.1-.18-.38-.13-.43.07-.36 1.33-1.4 4.97-2.58 6.7m39.28 0c1.97 2.9 5.54 4.64 8.74 5.68 3.96 1.29 18.57 3.38 15.13 11.35a.15.15 0 0 1-.28 0c-1.15-2.65-17.46-5.12-18.97-5.7-4.44-1.71-8.4-5.5-9.16-10.55-.35-2.31.64-6.05 1.55-7.55.1-.18.37-.13.43.07.35 1.33 1.4 4.97 2.57 6.7" fill="black" fill-opacity=".6"/></g><g id="top-dreads01-5b979706"><g fill="#da8672"><path d="M186.7 56.12c.9 3.25 2.17 11.95-.06 14.84-.75.96-5.84-1.74-7.97-2.92l-3.53-1.96c-14.92-8.32-19.74-11-45.9-10.62-28.11.4-47.37 13.58-48.46 14.93-.75.93-1.71 3.44-2.5 10.41-.25 2.2-.32 4.97-.4 7.71-.14 5.98-.3 11.8-2.25 11.8-2.44-.01-2.97-23.78-1.92-33.21q.06-.55.18-1.23c.23-1.4.5-3.13.16-4.11-.16-.44-.54-.7-.94-1-.62-.42-1.26-.87-1.08-2.02.2-1.3 1.1-1.42 1.97-1.55.57-.08 1.13-.16 1.5-.56 1.13-1.23.46-1.87-.31-2.6-.46-.43-.95-.9-1.12-1.53-.63-2.36 1.03-3.1 2.69-3.83l.38-.17c.69-.3 1.1-.42 1.42-.5.6-.15.85-.21 1.89-1.35-2.14-1.56-2.9-3.7 0-4.83.57-.22 1.53-.2 2.5-.2 1.2.02 2.4.03 2.95-.37.15-.11.24-.53.33-.9.06-.27.1-.5.18-.6 1.35-1.93 1.23-3.4 1.08-5.4l-.07-.92c-.13-2.04-.11-3.9 2.33-4.11 1-.08 1.9.4 2.77.86.54.29 1.08.58 1.64.73.87.23 1.1.43 1.32.43.19 0 .37-.15.96-.55 1.18-.82 1.3-2.05 1.43-3.3.1-1.08.22-2.18 1.04-3 1.58-1.6 2.8-.64 4 .3.64.5 1.28 1 1.96 1.1 2.55.36 3.06-1.06 3.62-2.6.32-1 .69-2.05 1.69-2.67 1.84-1.15 2.65-.05 3.44 1 .5.69.98 1.34 1.7 1.4 1 .09 2.52-1.1 3.85-2.13a12 12 0 0 1 2.1-1.44c2.28-.93 3.92.07 5.59 1.08 1.4.86 2.83 1.73 4.65 1.44l.83-.13c2.24-.37 3.1-.51 5.45.96a4.2 4.2 0 0 0 3.74.69c.6-.12 1.3-.25 2.26-.26 1.1 0 1.98.5 2.83.99.7.4 1.36.79 2.13.87.42.04.84-.16 1.26-.36s.84-.4 1.3-.38c1.83.09 2.69 1.49 3.55 2.87.65 1.08 1.32 2.15 2.44 2.66 1.62.72 3.44.24 5.17-.21.79-.2 1.55-.4 2.28-.5 3.96-.46 3.27 1.97 2.55 4.56a11 11 0 0 0-.6 3.26c1.15.27 2.3-.15 3.46-.57 1.1-.4 2.18-.8 3.27-.6 3.4.58 2.25 4.02 1.44 6.45l-.08.2c.65 0 1.55-.2 2.57-.41 2.85-.6 6.6-1.41 7.77 1.13.47 1.05 0 2.3-.44 3.54a7 7 0 0 0-.6 2.4c.01 1.54.7 2.9 1.4 4.28.44.9.9 1.82 1.16 2.78"/><path d="m185.36 73.6.47.33c1.76.99 3.15 10.9 3.22 14.69.04 2.34.08 11.25-2.4 10.48-.75-.23-1.9-4.95-2.06-7.72s-1.74-12.16-4.14-16.49q-.2-.36-.53-.8c-.65-.96-1.44-2.12-.92-2.76.72-.88 1.43-.57 2.26-.2l.44.18c.87.35 2.77 1.68 3.66 2.3"/></g></g><linearGradient id="accessoriesWayfarers-a" x1="74.52" y1="48.93" x2="74.52" y2="84.07" gradientUnits="userSpaceOnUse"><stop stop-color="white" stop-opacity=".5"/><stop offset=".71" stop-opacity=".5"/></linearGradient><linearGradient id="accessoriesWayfarers-b" x1="74.52" y1="48.93" x2="74.52" y2="84.07" gradientUnits="userSpaceOnUse"><stop stop-color="white" stop-opacity=".5"/><stop offset=".71" stop-opacity=".5"/></linearGradient><g id="accessories-wayfarers-5b979706"><path fill-rule="evenodd" clip-rule="evenodd" d="M33.48 48c-21.12 0-28.63 5.17-29.32 5.86a2.93 2.93 0 0 0-2.93 2.93v2.92a2.93 2.93 0 0 0 2.93 2.93s5.87 0 5.87 2.93q0 .3.03.45-.04 1.23-.04 2.48c0 12.84 8.3 20.5 22.18 20.5h2.75c14.68 0 24.93-8.43 24.93-20.5q0-2.17-.15-4.28l1.45-.73q.86-.42 1.88-.64a13.4 13.4 0 0 1 5.94.28q1.1.3 1.5.46l1.25.5a51 51 0 0 0-.16 4.4c0 12.81 8.29 20.5 22.18 20.5h2.75c14.68 0 24.93-8.46 24.93-20.5q0-1.28-.05-2.5.03-.18.04-.46c0-2.93 5.86-2.93 5.86-2.93 1.62 0 2.93-1.3 2.93-2.93v-2.9a2.93 2.93 0 0 0-2.93-2.93c-.69-.69-8.19-5.86-29.32-5.86h-2.93q-2.74 0-5.08.21c-9.38.56-14.46 2.2-19.63 4.76-.54.2-2.38.8-4.53.88a17 17 0 0 1-4.77-.92l-.42-.2c-4.9-2.46-8.35-4.19-20.55-4.62q-1.73-.1-3.66-.1zm-1.11 5.86h1.11q3.66 0 6.48.1C54 54.8 54 60.91 54 68.5c0 8.62-7.84 14.64-19.06 14.64H32.2c-13.49 0-16.32-7.96-16.32-14.64 0-8 0-14.37 16.5-14.64m26.1 4.36.1.03-.08.03zm14.51 0-.07.03.05.02zm16.7-4.12a125 125 0 0 1 9.41-.24c16.48.27 16.48 6.63 16.48 14.64 0 8.62-7.84 14.64-19.06 14.64h-2.75c-13.49 0-16.32-7.96-16.32-14.64 0-7.25 0-13.15 12.24-14.4" fill="black" fill-opacity=".1"/><path d="M34.95 84.07c13.75 0 22-7.87 22-17.57s-1.3-17.57-20.55-17.57h-2.93c-19.24 0-20.53 7.86-20.53 17.57 0 9.7 5.5 17.57 19.25 17.57z" fill="black" fill-opacity=".7"/><path d="M34.95 84.07c13.75 0 22-7.87 22-17.57s-1.3-17.57-20.55-17.57h-2.93c-19.24 0-20.53 7.86-20.53 17.57 0 9.7 5.5 17.57 19.25 17.57z" fill="url(#accessoriesWayfarers-a)" style="mix-blend-mode:screen"/><path d="M96.52 84.07c13.75 0 22-7.87 22-17.57s-1.3-17.57-20.54-17.57h-2.93c-19.25 0-20.53 7.86-20.53 17.57 0 9.7 5.5 17.57 19.25 17.57z" fill="black" fill-opacity=".7"/><path d="M96.52 84.07c13.75 0 22-7.87 22-17.57s-1.3-17.57-20.54-17.57h-2.93c-19.25 0-20.53 7.86-20.53 17.57 0 9.7 5.5 17.57 19.25 17.57z" fill="url(#accessoriesWayfarers-b)" style="mix-blend-mode:screen"/><path fill-rule="evenodd" clip-rule="evenodd" d="M33.48 46c-21.12 0-28.63 5.17-29.32 5.86a2.93 2.93 0 0 0-2.93 2.93v2.92a2.93 2.93 0 0 0 2.93 2.93s5.87 0 5.87 2.93q0 .3.03.45-.04 1.23-.04 2.48c0 12.84 8.3 20.5 22.18 20.5h2.75c14.68 0 24.93-8.43 24.93-20.5q0-2.17-.15-4.28l1.45-.73q.86-.42 1.88-.64a13.4 13.4 0 0 1 5.94.28q1.1.29 1.5.46l1.25.5a51 51 0 0 0-.16 4.4c0 12.81 8.29 20.5 22.18 20.5h2.75c14.68 0 24.93-8.46 24.93-20.5q0-1.28-.05-2.5.03-.17.04-.46c0-2.93 5.86-2.93 5.86-2.93 1.62 0 2.93-1.3 2.93-2.93v-2.9a2.93 2.93 0 0 0-2.93-2.93c-.69-.69-8.19-5.86-29.32-5.86h-2.93q-2.74 0-5.08.21c-9.38.56-14.46 2.2-19.63 4.76-.54.2-2.38.8-4.53.88a17 17 0 0 1-4.77-.92l-.42-.2c-4.9-2.46-8.35-4.19-20.55-4.62q-1.73-.1-3.66-.1zm-1.11 5.86h1.11q3.66 0 6.48.1C54 52.8 54 58.91 54 66.5c0 8.62-7.84 14.64-19.06 14.64H32.2c-13.49 0-16.32-7.96-16.32-14.64 0-8 0-14.37 16.5-14.64m26.1 4.36.1.03-.08.03zm14.51 0-.07.03.05.02zm16.7-4.12a125 125 0 0 1 9.41-.24c16.48.27 16.48 6.63 16.48 14.64 0 8.62-7.84 14.64-19.06 14.64h-2.75c-13.49 0-16.32-7.96-16.32-14.64 0-7.25 0-13.15 12.24-14.4" fill="#65c9ff"/></g><clipPath id="clip-5b979706"><rect width="280" height="280" rx="103.6" ry="103.6"/></clipPath></defs><g clip-path="url(#clip-5b979706)"><g transform="translate(50.4, 0)"><path d="M140 36a56 56 0 0 0-56 56v6.17A12 12 0 0 0 74 110v14a12 12 0 0 0 10.3 11.88A56 56 0 0 0 116 180.6V199h-4a72 72 0 0 0-72 72v9h200v-9a72 72 0 0 0-72-72h-4v-18.38a56 56 0 0 0 31.7-44.73A12 12 0 0 0 206 124v-14a12 12 0 0 0-10-11.83V92a56 56 0 0 0-56-56" fill="url(#skin-color-5b979706)"/><path d="M116 180.61v8a56 56 0 0 0 24 5.39 56 56 0 0 0 24-5.39v-8a56 56 0 0 1-24 5.39 56 56 0 0 1-24-5.39" fill="black" fill-opacity=".1"/><use transform="translate(40 184.7)" href="#clothes-shirtScoopNeck-5b979706"/><use transform="translate(94 140)" href="#mouth-concerned-5b979706"/><use transform="translate(128 130)" href="#nose-default-5b979706"/><use transform="translate(98 98)" href="#eyes-happy-5b979706"/><use transform="translate(91.86 82)" href="#eyebrows-frownNatural-5b979706"/><use transform="translate(8)" href="#top-dreads01-5b979706"/><use transform="translate(75.77 46)" href="#accessories-wayfarers-5b979706"/></g></g></svg>