<svg xmlns="http://www.w3.org/2000/svg" viewBox="0 0 280 280" fill="none" shape-rendering="auto" aria-hidden="true"><!-- Generated by DiceBear (https://dicebear.com) --><metadata xmlns:rdf="http://www.w3.org/1999/02/22-rdf-syntax-ns#" xmlns:xsi="http://www.w3.org/2001/XMLSchema-instance" xmlns:dc="http://purl.org/dc/elements/1.1/" xmlns:dcterms="http://purl.org/dc/terms/"><rdf:RDF><rdf:Description><dc:title>Avataaars</dc:title><dc:creator>Pablo Stanley</dc:creator><dc:source xsi:type="dcterms:URI">https://avataaars.com/</dc:source><dcterms:license xsi:type="dcterms:URI">https://avataaars.com/</dcterms:license><dc:rights>Remix of “Avataaars” (https://avataaars.com/) by “Pablo Stanley”, licensed under “Free for personal and commercial use” (https://avataaars.com/)</dc:rights></rdf:Description></rdf:RDF></metadata><defs><linearGradient id="skin-color-2c3b2aca" gradientTransform="rotate(-128, 0.5, 0.5)"><stop offset="0%" stop-color="#f49581"/><stop offset="100%" stop-color="#ae5d29"/></linearGradient><g id="clothes-shirtVNeck-2c3b2aca"><path d="M60.68 15.24A72 72 0 0 0 0 86.36v8.95h200v-8.95a72 72 0 0 0-60.68-71.12 24 24 0 0 1-7.56 13.6l-29.08 26.23a4 4 0 0 1-5.36 0L68.24 28.84a24 24 0 0 1-7.56-13.6" fill="#25557c"/></g><g id="mouth-tongue-2c3b2aca"><path fill-rule="evenodd" clip-rule="evenodd" d="M21 9.6C22.41 19.24 33.06 27 46 27c12.97 0 23.65-7.82 25-18.26.1-.4-.22-1.74-2.17-1.74H23.17c-1.79 0-2.3 1.24-2.17 2.6" fill="black" fill-opacity=".7"/><path d="M62 7H31a5 5 0 0 0 5 5h21a5 5 0 0 0 5-5" fill="white"/><path d="M35 17.5v9a11.5 11.5 0 1 0 23 0v-9c0-1.93-2.91-3.5-6.5-3.5-2.01 0-3.8.5-5 1.26a9.5 9.5 0 0 0-5-1.26c-3.59 0-6.5 1.57-6.5 3.5" fill="#FF4F6D"/></g><g id="nose-default-2c3b2aca"><path fill-rule="evenodd" clip-rule="evenodd" d="M0 0c0 4.42 5.37 8 12 8s12-3.58 12-8" fill="black" fill-opacity=".16"/></g><g id="eyes-winkWacky-2c3b2aca"><circle cx="68" cy="14" r="12" fill="white"/><circle cx="68" cy="14" r="6" fill="black" fill-opacity=".7"/><path fill-rule="evenodd" clip-rule="evenodd" d="M2.16 17.45C4.01 13.65 8.16 11 13 11c4.81 0 8.96 2.63 10.82 6.4.55 1.13-.24 2.05-1.03 1.37a15 15 0 0 0-9.8-3.43c-3.73 0-7.12 1.24-9.55 3.23-.9.73-1.82-.01-1.28-1.12" fill="black" fill-opacity=".6"/></g><g id="eyebrows-defaultNatural-2c3b2aca"><path fill-rule="evenodd" clip-rule="evenodd" d="M18.68 6.15c-5.8.27-15.2 4.49-14.95 10.34 0 .15.3.24.43.1 2.75-2.97 22.31-5.96 29.2-4.37.63.14 1.11-.48.71-.93-3.42-3.82-10.17-5.4-15.39-5.15m59.91 0c5.8.27 15.2 4.49 14.95 10.34 0 .15-.29.24-.42.1-2.76-2.97-22.32-5.96-29.2-4.37-.64.14-1.12-.48-.72-.93 3.42-3.84 10.2-5.42 15.4-5.17" fill="black" fill-opacity=".6"/></g><g id="top-straight01-2c3b2aca"><path d="M66 113c10.86-22.7 34.67-31.6 55.44-39.36 13.32-4.97 25.39-9.48 32-16.86 2.22 2.02 4.75 4.05 7.41 6.2C171.06 71.16 183.2 80.91 188 98v.17a12 12 0 0 1 9.81 9.72V86.04q0-1.94-.15-3.84c4.54-17-3.1-37.78-12.66-47.2-9.48-8.82-22.3-12.32-30.95-8.48C142.45 8.98 108.9 13.24 89 28c-13.22 9.8-24.79 25.72-27.84 45.75A46 46 0 0 0 60 84.05v88.5c-.2 31.5-7.4 82.49-21 90.45 62.36 16.8 71.93-38.15 69-82v-.39a56 56 0 0 1-31.8-45.74A12 12 0 0 1 66 123zm90 67.61a56 56 0 0 0 31.8-45.74 12 12 0 0 0 10.01-9.76v1.36A100 100 0 0 0 208.79 172l26.95 52.71a37.8 37.8 0 0 1-3.94 40.76A72 72 0 0 0 160 199h-4z" fill="#5c6213"/><path d="M66 113c10.86-22.7 34.67-31.6 55.44-39.36 13.32-4.97 25.39-9.48 32-16.86 2.22 2.02 4.75 4.05 7.41 6.2 10.19 8.17 22.3 17.9 27.11 34.9-4.57-14.04-15.75-21.22-25.6-27.55-3.21-2.06-6.28-4.03-8.93-6.12-6.6 6.4-18.67 10.32-32 14.64C100.68 85.58 76.87 93.3 66 113" fill="black" fill-opacity=".16"/></g><clipPath id="clip-2c3b2aca"><rect width="280" height="280" rx="103.6" ry="103.6"/></clipPath></defs><g clip-path="url(#clip-2c3b2aca)"><g transform="translate(50.4, 0)"><path d="M140 36a56 56 0 0 0-56 56v6.17A12 12 0 0 0 74 110v14a12 12 0 0 0 10.3 11.88A56 56 0 0 0 116 180.6V199h-4a72 72 0 0 0-72 72v9h200v-9a72 72 0 0 0-72-72h-4v-18.38a56 56 0 0 0 31.7-44.73A12 12 0 0 0 206 124v-14a12 12 0 0 0-10-11.83V92a56 56 0 0 0-56-56" fill="url(#skin-color-2c3b2aca)"/><path d="M116 180.61v8a56 56 0 0 0 24 5.39 56 56 0 0 0 24-5.39v-8a56 56 0 0 1-24 5.39 56 56 0 0 1-24-5.39" fill="black" fill-opacity=".1"/><use transform="translate(40 184.7)" href="#clothes-shirtVNeck-2c3b2aca"/><use transform="translate(94 140)" href="#mouth-tongue-2c3b2aca"/><use transform="translate(128 130)" href="#nose-default-2c3b2aca"/><use transform="translate(98 98)" href="#eyes-winkWacky-2c3b2aca"/><use transform="translate(91.86 82)" href="#eyebrows-defaultNatural-2c3b2aca"/><use transform="translate(8)" href="#top-straight01-2c3b2aca"/></g></g></svg>