<svg xmlns="http://www.w3.org/2000/svg" viewBox="0 0 280 280" fill="none" shape-rendering="auto" aria-hidden="true"><!-- Generated by DiceBear (https://dicebear.com) --><metadata xmlns:rdf="http://www.w3.org/1999/02/22-rdf-syntax-ns#" xmlns:xsi="http://www.w3.org/2001/XMLSchema-instance" xmlns:dc="http://purl.org/dc/elements/1.1/" xmlns:dcterms="http://purl.org/dc/terms/"><rdf:RDF><rdf:Description><dc:title>Avataaars</dc:title><dc:creator>Pablo Stanley</dc:creator><dc:source xsi:type="dcterms:URI">https://avataaars.com/</dc:source><dcterms:license xsi:type="dcterms:URI">https://avataaars.com/</dcterms:license><dc:rights>Remix of “Avataaars” (https://avataaars.com/) by “Pablo Stanley”, licensed under “Free for personal and commercial use” (https://avataaars.com/)</dc:rights></rdf:Description></rdf:RDF></metadata><defs><linearGradient id="skin-color-5fa41435" gradientTransform="rotate(-128, 0.5, 0.5)"><stop offset="0%" stop-color="#5096bc"/><stop offset="100%" stop-color="#f49d1f"/></linearGradient><g id="clothes-hoodie-5fa41435"><path d="M76 0C60.48 3.7 48.9 10.83 45.23 19.45A72 72 0 0 0 0 86.3v9h200v-9a72 72 0 0 0-45.23-66.86C151.1 10.83 139.52 3.69 124 0v17.3a24 24 0 1 1-48 0z" fill="#fe262f"/><path d="M70 48.64a67 67 0 0 1-7-2.81V95.3h7zm60 0a67 67 0 0 0 7-2.81V83.8a3.5 3.5 0 1 1-7 0z" fill="#F4F4F4"/><path d="M155.62 19.8a72 72 0 0 1 10.83 5.62c-1.34 15.5-30.58 27.89-66.45 27.89 30.93 0 56-13.44 56-30q0-1.79-.38-3.52m-111.24.01a17 17 0 0 0-.38 3.5c0 16.57 25.07 30 56 30-35.87 0-65.1-12.38-66.45-27.88a72 72 0 0 1 10.83-5.63" fill="black" fill-opacity=".16"/></g><g id="mouth-concerned-5fa41435"><path fill-rule="evenodd" clip-rule="evenodd" d="M27.12 23.87a19 19 0 0 1 37.77.09c.08.77-.77 2.04-1.85 2.04H29.1c-1.1 0-2.1-1.18-1.98-2.13" fill="black" fill-opacity=".7"/><path d="M61.59 26H30.4A11 11 0 0 1 46 19.2 11 11 0 0 1 61.6 26" fill="#FF4F6D"/><path d="M58.57 11.75A5 5 0 0 1 57 12H36q-1.22-.02-2.24-.53A19 19 0 0 1 46 7c4.82 0 9.22 1.8 12.57 4.75" fill="white"/></g><g id="nose-default-5fa41435"><path fill-rule="evenodd" clip-rule="evenodd" d="M0 0c0 4.42 5.37 8 12 8s12-3.58 12-8" fill="black" fill-opacity=".16"/></g><g id="eyes-eyeRoll-5fa41435"><path d="M30 14a14 14 0 1 1-28 0 14 14 0 0 1 28 0m52 0a14 14 0 1 1-28 0 14 14 0 0 1 28 0" fill="white"/><path d="M22 6a6 6 0 1 1-12 0 6 6 0 0 1 12 0m52 0a6 6 0 1 1-12 0 6 6 0 0 1 12 0" fill="black" fill-opacity=".7"/></g><g id="eyebrows-sadConcerned-5fa41435"><path d="M30.17 5.6c-1.48 8.38-14.1 14.17-23.24 10.42a2.04 2.04 0 0 0-2.63 1c-.44.97.03 2.1 1.05 2.5 11.44 4.7 26.83-2.37 28.76-13.3a1.9 1.9 0 0 0-1.64-2.2 2 2 0 0 0-2.3 1.57m35.93 0c1.5 8.39 14.1 14.18 23.25 10.43 1.01-.41 2.2.03 2.62 1s-.03 2.1-1.04 2.5c-11.45 4.7-26.84-2.37-28.77-13.3a1.9 1.9 0 0 1 1.65-2.2 2 2 0 0 1 2.32 1.57" fill="black" fill-opacity=".6"/></g><g id="top-bob-5fa41435"><path d="M39 145c-.62-30.84 28.32-95.2 39-108 7.92-9.5 29.7-17.45 54-17s46.86 5.81 55 16c12.32 15.43 37.87 74.08 38 109 .1 24.8-9.54 49.66-23 51-7.6.76-17.26-.23-28.86-1.4-5.3-.55-11.02-1.13-17.14-1.6v-12.4a56 56 0 0 0 32-50.6v-28.44a130 130 0 0 1-26.9-19.88c3.35 6.24 7.19 11.9 11.51 16.2-30.54-8.59-51.7-26.16-64.35-39.94C102.4 69.02 91.97 85.24 76 97.57V130a56 56 0 0 0 32 50.61v13.14c-6.94.95-13.4 2.16-19.35 3.27-10.85 2.02-19.98 3.73-27.26 2.98-14.22-1.47-21.88-30.2-22.38-55" fill="#b6e3f4"/></g><clipPath id="clip-5fa41435"><rect width="280" height="280" rx="103.6" ry="103.6"/></clipPath></defs><g clip-path="url(#clip-5fa41435)"><g transform="translate(50.4, 0)"><path d="M140 36a56 56 0 0 0-56 56v6.17A12 12 0 0 0 74 110v14a12 12 0 0 0 10.3 11.88A56 56 0 0 0 116 180.6V199h-4a72 72 0 0 0-72 72v9h200v-9a72 72 0 0 0-72-72h-4v-18.38a56 56 0 0 0 31.7-44.73A12 12 0 0 0 206 124v-14a12 12 0 0 0-10-11.83V92a56 56 0 0 0-56-56" fill="url(#skin-color-5fa41435)"/><path d="M116 180.61v8a56 56 0 0 0 24 5.39 56 56 0 0 0 24-5.39v-8a56 56 0 0 1-24 5.39 56 56 0 0 1-24-5.39" fill="black" fill-opacity=".1"/><use transform="translate(40 184.7)" href="#clothes-hoodie-5fa41435"/><use transform="translate(94 140)" href="#mouth-concerned-5fa41435"/><use transform="translate(128 130)" href="#nose-default-5fa41435"/><use transform="translate(98 98)" href="#eyes-eyeRoll-5fa41435"/><use transform="translate(91.86 82)" href="#eyebrows-sadConcerned-5fa41435"/><use transform="translate(8)" href="#top-bob-5fa41435"/></g></g></svg>