<svg xmlns="http://www.w3.org/2000/svg" viewBox="0 0 280 280" fill="none" shape-rendering="auto" aria-hidden="true"><!-- Generated by DiceBear (https://dicebear.com) --><metadata xmlns:rdf="http://www.w3.org/1999/02/22-rdf-syntax-ns#" xmlns:xsi="http://www.w3.org/2001/XMLSchema-instance" xmlns:dc="http://purl.org/dc/elements/1.1/" xmlns:dcterms="http://purl.org/dc/terms/"><rdf:RDF><rdf:Description><dc:title>Avataaars</dc:title><dc:creator>Pablo Stanley</dc:creator><dc:source xsi:type="dcterms:URI">https://avataaars.com/</dc:source><dcterms:license xsi:type="dcterms:URI">https://avataaars.com/</dcterms:license><dc:rights>Remix of “Avataaars” (https://avataaars.com/) by “Pablo Stanley”, licensed under “Free for personal and commercial use” (https://avataaars.com/)</dc:rights></rdf:Description></rdf:RDF></metadata><defs><linearGradient id="skin-color-740d9b23" gradientTransform="rotate(-128, 0.5, 0.5)"><stop offset="0%" stop-color="#ffdbb4"/><stop offset="100%" stop-color="#d08b5b"/></linearGradient><g id="clothesGraphic-hola-740d9b23"><path d="M63.84 16q-.43.98-.82 1.95L63 18l2-.16A19 19 0 0 0 63.84 16m-10.62.3c.2-.06.42-.13.7-.3.15.42.26 3.29-1.35 2.98-.92-.18-.5-1.77-.25-2.1.34-.41.6-.49.9-.58" fill="white"/><path fill-rule="evenodd" clip-rule="evenodd" d="M74.64 15.95C73.46 10.68 70.6 6.97 66.18 4c-3.35-2.25-6.5-2.23-10.46-1.75a24 24 0 0 0-9.2 2.94c-5.04 2.89-7.92 6.74-8.6 12.54-.28 2.33-.33 5.1.5 7.32.48 1.3 1.34 2.34 2.25 3.36.15.17.5.47.86.79.6.52 1.26 1.1 1.28 1.29.12.86-2.2 3.4-2.89 4.15l-.12.14c-.23.25-.73.6-1.3.99-1.02.7-2.25 1.55-2.43 2.2-.83 2.93 5.83 1.89 7.45 1.63a37 37 0 0 0 4.62-.98q1.06-.3 2.07-.72c.56-.23 1.17-.7 1.78-1.16.7-.52 1.38-1.03 1.97-1.2a6 6 0 0 1 2.1.02c.6.07 1.2.14 1.7.1a26 26 0 0 0 4.5-.88 19 19 0 0 0 7.05-3.84c4.42-3.76 6.6-9.24 5.33-15m-5.13 7c-.62.15-1.36-1.25-1.08-1.73.77-1.34 2.16 1.42 1.08 1.72m-2.22-9.38c-.27 1.1.12 2.95.4 4.05.04.36.4.47.7.43.55-.08.45-.56.36-.97q-.05-.24-.06-.4c.04-.75.11-2.64-.17-3.32-.5-1.26-.97-1.02-1.27.21m-.65 8.33c-.58.34-.86-.29-1.05-.74q-.08-.2-.16-.32a1.4 1.4 0 0 1-.29-.72c0-.18-.02-.22-.58-.39-1.77-.52-1.8.7-1.84 1.94 0 .72-.03 1.45-.39 1.84-1.78 1.91-.58-3.68-.37-4.68l.03-.1.12-.67c.34-1.95 1.02-5.85 2.67-3.1.5.8 2.7 6.5 1.87 6.98m-10.37-.95c.6.6 3.7.22 4.02-.34.68-1.18-1.85-.85-2.78-.73l-.29.03q.08-1.12.21-2.27c.12-1.05.24-2.1.23-3.15v-.17c.02-.62.06-1.94-.96-1.2-.34.24-.33 1.18-.33 1.81v.46c-.02.23-.08.6-.15 1.02-.24 1.51-.6 3.87.04 4.54m-.77-2.78c-1.43 5.73-6.98 2.64-4.5-1.7.46-.8.83-.99 1.41-1.27q.32-.14.75-.4.07-.05.06-.27c0-.27.01-.65.42-.64 1.76.03 2.18 2.93 1.85 4.28m-7 .83c-.04.88-.14 3.31.97 3.01.76-.19.54-9.97-.33-9.97-.92 0-.75 1.78-.6 3.33.1 1 .2 1.91-.04 2.17-.1.12-.5.1-.84.06h-.4c-1.15.2-1.9.08-2.25-.6-.1-.2-.1-.7-.1-1.3 0-1.33-.02-2.96-1.15-1.5l.03 2.2q.5 1.08-.38 1.32c-.02.3.16.58.28.77q.11.16.12.24.02.24 0 .67c-.09 1.26-.2 3.54.91 3.4.71-.08.5-2.28.37-3.42l-.05-.6.91.03c.86.04 1.73.08 2.56-.03z" fill="white"/></g><g id="clothes-graphicShirt-740d9b23"><path d="M100.5 39.3c18.5 0 33.5-9.62 33.5-21.5q0-1.64-.38-3.23A72 72 0 0 1 200 86.36v8.95H0v-8.95A72 72 0 0 1 67.4 14.5a14 14 0 0 0-.4 3.3c0 11.88 15 21.5 33.5 21.5" fill="#e993fe"/><use transform="translate(45 44.3)" href="#clothesGraphic-hola-740d9b23"/></g><g id="mouth-twinkle-740d9b23"><path d="M32 10c0 5.37 6.16 9 14 9s14-3.63 14-9c0-1.1-.95-2-2-2-1.3 0-1.87.9-2 2-1.24 2.94-4.32 4.72-10 5-5.68-.28-8.76-2.06-10-5-.13-1.1-.7-2-2-2-1.05 0-2 .9-2 2" fill="black" fill-opacity=".6"/></g><g id="nose-default-740d9b23"><path fill-rule="evenodd" clip-rule="evenodd" d="M0 0c0 4.42 5.37 8 12 8s12-3.58 12-8" fill="black" fill-opacity=".16"/></g><g id="eyes-side-740d9b23"><path d="M13 8c-4.84 0-9 2.65-10.84 6.45-.54 1.1.39 1.85 1.28 1.12a15 15 0 0 1 9.8-3.22 6 6 0 1 0 10.7 2.8 2 2 0 0 0-.12-.74l-.15-.38a6 6 0 0 0-1.64-2.48C19.9 9.32 16.5 8 13 8m58 0c-4.84 0-9 2.65-10.84 6.45-.54 1.1.39 1.85 1.28 1.12a15 15 0 0 1 9.8-3.22 6 6 0 1 0 10.7 2.8 2 2 0 0 0-.12-.74l-.15-.38a6 6 0 0 0-1.64-2.48C77.9 9.32 74.5 8 71 8" fill="black" fill-opacity=".6"/></g><g id="eyebrows-raisedExcited-740d9b23"><path d="M8.11 17.13C9.61 7.6 22.2 1.1 31.31 5.3a2 2 0 0 0 1.66-3.63C21.5-3.63 6.07 4.33 4.17 16.5a2 2 0 1 0 3.94.63m80.05 0C86.66 7.6 74.08 1.1 64.97 5.3a2 2 0 0 1-1.67-3.63c11.5-5.3 26.9 2.66 28.81 14.83a2 2 0 0 1-3.95.63" fill="black" fill-opacity=".6"/></g><g id="top-shortWaved-740d9b23"><path fill-rule="evenodd" clip-rule="evenodd" d="M182.68 38.95c5.4-4.95 6.7-14.99 3.64-21.5-3.77-8-11.42-9-18.75-5.48-6.9 3.31-13.06 4.42-20.62 2.81-7.26-1.54-14.14-4.26-21.65-4.7-12.32-.74-24.3 3.83-32.7 13.05a36 36 0 0 0-4.11 5.8c-.98 1.63-2.08 3.38-2.5 5.26-.2.9.18 3.1-.27 3.83-.48.8-2.3 1.52-3.07 2.1a25 25 0 0 0-4.18 4.05c-2.66 3.22-4.13 6.59-5.37 10.57-4.1 13.25-4.45 29 .86 42 .7 1.74 2.9 5.36 4.18 1.64.26-.73-.33-3.19-.33-3.93 0-2.72 1.5-20.73 8.05-30.82 2.13-3.28 11.97-15.58 13.98-15.68 1.07 1.7 11.88 12.51 39.94 11.24 12.66-.59 22.4-6.28 24.74-8.74 1.03 5.53 13 13.81 14.82 17.22 5.26 9.85 6.43 30.3 8.44 30.27s3.45-5.24 3.87-6.23c3.07-7.38 3.6-16.64 3.26-24.56-.42-10.2-4.63-21.23-12.23-28.22" fill="#7e0c7d"/></g><clipPath id="clip-740d9b23"><rect width="280" height="280" rx="103.6" ry="103.6"/></clipPath></defs><g clip-path="url(#clip-740d9b23)"><g transform="translate(50.4, 0)"><path d="M140 36a56 56 0 0 0-56 56v6.17A12 12 0 0 0 74 110v14a12 12 0 0 0 10.3 11.88A56 56 0 0 0 116 180.6V199h-4a72 72 0 0 0-72 72v9h200v-9a72 72 0 0 0-72-72h-4v-18.38a56 56 0 0 0 31.7-44.73A12 12 0 0 0 206 124v-14a12 12 0 0 0-10-11.83V92a56 56 0 0 0-56-56" fill="url(#skin-color-740d9b23)"/><path d="M116 180.61v8a56 56 0 0 0 24 5.39 56 56 0 0 0 24-5.39v-8a56 56 0 0 1-24 5.39 56 56 0 0 1-24-5.39" fill="black" fill-opacity=".1"/><use transform="translate(40 184.7)" href="#clothes-graphicShirt-740d9b23"/><use transform="translate(94 140)" href="#mouth-twinkle-740d9b23"/><use transform="translate(128 130)" href="#nose-default-740d9b23"/><use transform="translate(98 98)" href="#eyes-side-740d9b23"/><use transform="translate(91.86 82)" href="#eyebrows-raisedExcited-740d9b23"/><use transform="translate(8)" href="#top-shortWaved-740d9b23"/></g></g></svg>