<svg xmlns="http://www.w3.org/2000/svg" viewBox="0 0 280 280" fill="none" shape-rendering="auto" aria-hidden="true"><!-- Generated by DiceBear (https://dicebear.com) --><metadata xmlns:rdf="http://www.w3.org/1999/02/22-rdf-syntax-ns#" xmlns:xsi="http://www.w3.org/2001/XMLSchema-instance" xmlns:dc="http://purl.org/dc/elements/1.1/" xmlns:dcterms="http://purl.org/dc/terms/"><rdf:RDF><rdf:Description><dc:title>Avataaars</dc:title><dc:creator>Pablo Stanley</dc:creator><dc:source xsi:type="dcterms:URI">https://avataaars.com/</dc:source><dcterms:license xsi:type="dcterms:URI">https://avataaars.com/</dcterms:license><dc:rights>Remix of “Avataaars” (https://avataaars.com/) by “Pablo Stanley”, licensed under “Free for personal and commercial use” (https://avataaars.com/)</dc:rights></rdf:Description></rdf:RDF></metadata><defs><linearGradient id="skin-color-f328bc9c" gradientTransform="rotate(-128, 0.5, 0.5)"><stop offset="0%" stop-color="#b6e3f4"/><stop offset="100%" stop-color="#fd9841"/></linearGradient><g id="clothes-hoodie-f328bc9c"><path d="M76 0C60.48 3.7 48.9 10.83 45.23 19.45A72 72 0 0 0 0 86.3v9h200v-9a72 72 0 0 0-45.23-66.86C151.1 10.83 139.52 3.69 124 0v17.3a24 24 0 1 1-48 0z" fill="#b21fe0"/><path d="M70 48.64a67 67 0 0 1-7-2.81V95.3h7zm60 0a67 67 0 0 0 7-2.81V83.8a3.5 3.5 0 1 1-7 0z" fill="#F4F4F4"/><path d="M155.62 19.8a72 72 0 0 1 10.83 5.62c-1.34 15.5-30.58 27.89-66.45 27.89 30.93 0 56-13.44 56-30q0-1.79-.38-3.52m-111.24.01a17 17 0 0 0-.38 3.5c0 16.57 25.07 30 56 30-35.87 0-65.1-12.38-66.45-27.88a72 72 0 0 1 10.83-5.63" fill="black" fill-opacity=".16"/></g><g id="mouth-eating-f328bc9c"><path d="M20 20.24q2.05.75 4.4.76c5.31 0 9.81-3.15 11.29-7.49 2.47 2.16 6.17 3.53 10.31 3.53s7.84-1.37 10.31-3.53C57.8 17.85 62.3 21 67.61 21q2.34-.01 4.4-.76h-.19c-6.33 0-11.8-4.9-11.8-10.56 0-4.18 2.32-7.72 5.7-9.68-5.5.8-9.74 5-9.9 10.1a17.6 17.6 0 0 1-9.8 2.8 17.5 17.5 0 0 1-9.8-2.8C36 5 31.8.8 26.3 0a11.2 11.2 0 0 1 5.68 9.68c0 5.66-5.47 10.57-11.8 10.57z" fill="black" fill-opacity=".6" opacity=".6"/><path d="M9 18A9 9 0 1 0 9 0a9 9 0 0 0 0 18m74 0a9 9 0 1 0 0-18 9 9 0 0 0 0 18" fill="#FF4646" fill-opacity=".2"/></g><g id="nose-default-f328bc9c"><path fill-rule="evenodd" clip-rule="evenodd" d="M0 0c0 4.42 5.37 8 12 8s12-3.58 12-8" fill="black" fill-opacity=".16"/></g><g id="eyes-cry-f328bc9c"><path d="M11 19s-6 7.27-6 11.27a6 6 0 1 0 12 0c0-4-6-11.27-6-11.27" fill="#92D9FF"/><path d="M22 14a6 6 0 1 1-12 0 6 6 0 0 1 12 0m52 0a6 6 0 1 1-12 0 6 6 0 0 1 12 0" fill="black" fill-opacity=".6"/></g><g id="eyebrows-angry-f328bc9c"><path d="M7.75 15.18c4.24-5.76 6.88-5.48 13.31-.62l.67.5c4.83 3.67 7.12 4.94 10.4 4.94a2 2 0 0 0 0-4c-2.06 0-3.9-1.02-7.98-4.12l-.68-.52C19.71 8.53 17.51 7.3 14.77 7c-3.68-.4-7.05 1.48-10.24 5.83a2 2 0 1 0 3.22 2.36m80.78 0c-4.24-5.77-6.88-5.49-13.32-.63l-.67.5c-4.82 3.67-7.1 4.94-10.4 4.94a2 2 0 0 1 0-4c2.06 0 3.9-1.02 7.99-4.12l.67-.52C76.56 8.53 78.76 7.3 81.5 7c3.68-.4 7.06 1.48 10.25 5.83a2 2 0 1 1-3.22 2.36" fill="black" fill-opacity=".6"/></g><g id="top-shortRound-f328bc9c"><path fill-rule="evenodd" clip-rule="evenodd" d="M166.3 35c-20.18-11.7-40.17-9.78-55.26-5.97-15.1 3.8-24.02 14.62-31.68 30.62a68 68 0 0 0-6.34 25.83 34 34 0 0 0 1.25 10.22c.33 1.2 2.15 5.39 2.65 2 .17-1.12-.44-2.67-.5-3.86-.08-1.57 0-3.16.11-4.73q.28-4.4 1.65-8.59c1.33-3.98 3.02-8.3 5.6-11.67 6.4-8.33 17.5-8.8 26.3-13.39-.78 1.4-3.7 3.68-2.7 5.27.7 1.1 3.37.76 4.64.72 3.35-.1 6.72-.67 10.02-1.14a72 72 0 0 0 15-4.1c4.02-1.5 8.61-2.88 11.63-6.07a69 69 0 0 0 17.4 13c5.62 2.88 14.68 4.32 18.11 10.16 4.07 6.9 2.2 15.4 3.44 22.9.47 2.85 1.54 2.79 2.13.24 1-4.33 1.47-8.83 1.15-13.28-.72-10.05-4.4-36.45-24.6-48.15" fill="#bf55b5"/></g><clipPath id="clip-f328bc9c"><rect width="280" height="280" rx="103.6" ry="103.6"/></clipPath></defs><g clip-path="url(#clip-f328bc9c)"><g transform="translate(50.4, 0)"><path d="M140 36a56 56 0 0 0-56 56v6.17A12 12 0 0 0 74 110v14a12 12 0 0 0 10.3 11.88A56 56 0 0 0 116 180.6V199h-4a72 72 0 0 0-72 72v9h200v-9a72 72 0 0 0-72-72h-4v-18.38a56 56 0 0 0 31.7-44.73A12 12 0 0 0 206 124v-14a12 12 0 0 0-10-11.83V92a56 56 0 0 0-56-56" fill="url(#skin-color-f328bc9c)"/><path d="M116 180.61v8a56 56 0 0 0 24 5.39 56 56 0 0 0 24-5.39v-8a56 56 0 0 1-24 5.39 56 56 0 0 1-24-5.39" fill="black" fill-opacity=".1"/><use transform="translate(40 184.7)" href="#clothes-hoodie-f328bc9c"/><use transform="translate(94 140)" href="#mouth-eating-f328bc9c"/><use transform="translate(128 130)" href="#nose-default-f328bc9c"/><use transform="translate(98 98)" href="#eyes-cry-f328bc9c"/><use transform="translate(91.86 82)" href="#eyebrows-angry-f328bc9c"/><use transform="translate(8)" href="#top-shortRound-f328bc9c"/></g></g></svg>