<svg xmlns="http://www.w3.org/2000/svg" viewBox="0 0 280 280" fill="none" shape-rendering="auto" aria-hidden="true"><!-- Generated by DiceBear (https://dicebear.com) --><metadata xmlns:rdf="http://www.w3.org/1999/02/22-rdf-syntax-ns#" xmlns:xsi="http://www.w3.org/2001/XMLSchema-instance" xmlns:dc="http://purl.org/dc/elements/1.1/" xmlns:dcterms="http://purl.org/dc/terms/"><rdf:RDF><rdf:Description><dc:title>Avataaars</dc:title><dc:creator>Pablo Stanley</dc:creator><dc:source xsi:type="dcterms:URI">https://avataaars.com/</dc:source><dcterms:license xsi:type="dcterms:URI">https://avataaars.com/</dcterms:license><dc:rights>Remix of “Avataaars” (https://avataaars.com/) by “Pablo Stanley”, licensed under “Free for personal and commercial use” (https://avataaars.com/)</dc:rights></rdf:Description></rdf:RDF></metadata><defs><linearGradient id="skin-color-0436949b" gradientTransform="rotate(-128, 0.5, 0.5)"><stop offset="0%" stop-color="#f49581"/><stop offset="100%" stop-color="#edb98a"/></linearGradient><g id="clothes-collarAndSweater-0436949b"><path d="M68.37 14.45A28 28 0 0 1 76 6.88v15.3C76 28 79.98 33.16 86.08 36.3l-.08.06.9 2.87c3.89 2 8.35 3.13 13.1 3.13s9.21-1.14 13.1-3.13l.9-2.87-.08-.06C120.02 33.16 124 28 124 22.18V7.58a27 27 0 0 1 6.6 6.82A72 72 0 0 1 200 86.36v8.95H0v-8.95a72 72 0 0 1 68.37-71.91" fill="#3b3360"/><path d="M76 6.88c-6.77 4.6-11 11.17-11 18.45 0 7.4 4.36 14.06 11.3 18.67l6.12-4.82 4.58.33-1-3.15.08-.06C79.98 33.16 76 28 76 22.18zm48 15.3c0 5.83-3.98 10.98-10.08 14.12l.08.06-1 3.15 4.58-.33 5.65 4.45c6.63-4.6 10.77-11.1 10.77-18.3 0-6.92-3.82-13.19-10-17.74z" fill="white" fill-opacity=".75"/></g><g id="mouth-screamOpen-0436949b"><path fill-rule="evenodd" clip-rule="evenodd" d="M26 32.86C27.14 18.88 30.24 7 46 7s18.92 11.94 20 26c.08 1.12-.83 2-1.96 2-6.69 0-9.37-2-18.05-2-8.7 0-13.26 2-17.9 2-1.17 0-2.2-.74-2.1-2.14" fill="black" fill-opacity=".7"/><path d="M59.02 11.57Q58.1 12 57 12H36c-.98 0-1.9-.28-2.67-.77C36.23 8.57 40.28 7 46 7c5.95 0 10.1 1.7 13.02 4.57" fill="white"/><path d="M61.8 34.92a44 44 0 0 1-5.54-.82c-2.73-.53-5.65-1.1-10.27-1.1-5.01 0-8.65.66-11.73 1.23-1.45.26-2.77.5-4.06.65A11 11 0 0 1 46 27.2a11 11 0 0 1 15.8 7.72" fill="#FF4F6D"/></g><g id="nose-default-0436949b"><path fill-rule="evenodd" clip-rule="evenodd" d="M0 0c0 4.42 5.37 8 12 8s12-3.58 12-8" fill="black" fill-opacity=".16"/></g><g id="eyes-xDizzy-0436949b"><path d="M20.5 22.7 15 17.2l-5.5 5.5c-.4.4-1.1.4-1.6 0l-1.6-1.6c-.4-.4-.4-1.1 0-1.6l5.5-5.5-5.5-5.5c-.4-.5-.4-1.2 0-1.6l1.6-1.6c.4-.4 1.1-.4 1.6 0l5.5 5.5 5.5-5.5c.4-.4 1.1-.4 1.6 0l1.6 1.6c.4.4.4 1.1 0 1.6L18.2 14l5.5 5.5c.4.4.4 1.1 0 1.6l-1.6 1.6c-.4.4-1.1.4-1.6 0m54 0L69 17.2l-5.5 5.5c-.4.4-1.1.4-1.6 0l-1.6-1.6c-.4-.4-.4-1.1 0-1.6l5.5-5.5-5.5-5.5c-.4-.5-.4-1.2 0-1.6l1.6-1.6c.4-.4 1.1-.4 1.6 0l5.5 5.5 5.5-5.5c.4-.4 1.1-.4 1.6 0l1.6 1.6c.4.4.4 1.1 0 1.6L72.2 14l5.5 5.5c.4.4.4 1.1 0 1.6l-1.6 1.6c-.4.4-1.1.4-1.6 0" fill="black" fill-opacity=".6"/></g><g id="eyebrows-flatNatural-0436949b"><path fill-rule="evenodd" clip-rule="evenodd" d="M30.8 11.1c-5 .35-9.93.08-14.92-.13-3.83-.16-7.72-.68-11.37 1-.7.33-4.53 2.29-4.45 3.36.08.85 3.94 2.2 4.64 2.44 3.66 1.29 7.18.9 10.95.66 4.63-.27 9.23-.07 13.86-.2 3.18-.1 7.98-.63 9.5-4.4.48-1.14.1-3.42-.34-4.66-.2-.5-.72-.69-1.13-.4a15 15 0 0 1-6.68 2.32m34.67 0c4.99.36 9.9.09 14.9-.12 3.83-.16 7.72-.68 11.38 1 .7.33 4.53 2.29 4.44 3.36-.07.85-3.94 2.2-4.63 2.44-3.67 1.29-7.18.9-10.96.66-4.62-.27-9.23-.07-13.86-.2-3.11-.1-7.91-.63-9.45-4.4-.47-1.14-.1-3.42.36-4.66.18-.5.72-.69 1.12-.4a15 15 0 0 0 6.7 2.32" fill="black" fill-opacity=".6"/></g><g id="top-winterHat03-0436949b"><circle cx="132" cy="20" r="20" fill="#F4F4F4"/><path fill-rule="evenodd" clip-rule="evenodd" d="M66 78a66 66 0 1 1 132 0v5H66z" fill="#ffafb9"/><path fill-rule="evenodd" clip-rule="evenodd" d="M63 69.77a7 7 0 0 1 3.05-5.96c7.8-5.17 30.42-17.8 66.02-17.8s58.14 12.63 65.9 17.82a7 7 0 0 1 3.03 5.95v30.2c0 3.3-3.9 5.38-6.78 3.75C183.84 97.82 162.1 88 132.8 88a133.6 133.6 0 0 0-63.17 15.98c-2.85 1.56-6.63-.5-6.63-3.75z" fill="black" fill-opacity=".1"/><path fill-rule="evenodd" clip-rule="evenodd" d="M63 67.77a7 7 0 0 1 3.05-5.96c7.8-5.17 30.42-17.8 66.02-17.8s58.14 12.63 65.9 17.82a7 7 0 0 1 3.03 5.95v30.2c0 3.3-3.9 5.38-6.78 3.75C183.84 95.82 162.1 86 132.8 86a133.6 133.6 0 0 0-63.17 15.98c-2.85 1.56-6.63-.5-6.63-3.75z" fill="#F4F4F4"/></g><clipPath id="clip-0436949b"><rect width="280" height="280" rx="103.6" ry="103.6"/></clipPath></defs><g clip-path="url(#clip-0436949b)"><g transform="translate(50.4, 0)"><path d="M140 36a56 56 0 0 0-56 56v6.17A12 12 0 0 0 74 110v14a12 12 0 0 0 10.3 11.88A56 56 0 0 0 116 180.6V199h-4a72 72 0 0 0-72 72v9h200v-9a72 72 0 0 0-72-72h-4v-18.38a56 56 0 0 0 31.7-44.73A12 12 0 0 0 206 124v-14a12 12 0 0 0-10-11.83V92a56 56 0 0 0-56-56" fill="url(#skin-color-0436949b)"/><path d="M116 180.61v8a56 56 0 0 0 24 5.39 56 56 0 0 0 24-5.39v-8a56 56 0 0 1-24 5.39 56 56 0 0 1-24-5.39" fill="black" fill-opacity=".1"/><use transform="translate(40 184.7)" href="#clothes-collarAndSweater-0436949b"/><use transform="translate(94 140)" href="#mouth-screamOpen-0436949b"/><use transform="translate(128 130)" href="#nose-default-0436949b"/><use transform="translate(98 98)" href="#eyes-xDizzy-0436949b"/><use transform="translate(91.86 82)" href="#eyebrows-flatNatural-0436949b"/><use transform="translate(8)" href="#top-winterHat03-0436949b"/></g></g></svg>