<svg xmlns="http://www.w3.org/2000/svg" viewBox="0 0 280 280" fill="none" shape-rendering="auto" aria-hidden="true"><!-- Generated by DiceBear (https://dicebear.com) --><metadata xmlns:rdf="http://www.w3.org/1999/02/22-rdf-syntax-ns#" xmlns:xsi="http://www.w3.org/2001/XMLSchema-instance" xmlns:dc="http://purl.org/dc/elements/1.1/" xmlns:dcterms="http://purl.org/dc/terms/"><rdf:RDF><rdf:Description><dc:title>Avataaars</dc:title><dc:creator>Pablo Stanley</dc:creator><dc:source xsi:type="dcterms:URI">https://avataaars.com/</dc:source><dcterms:license xsi:type="dcterms:URI">https://avataaars.com/</dcterms:license><dc:rights>Remix of “Avataaars” (https://avataaars.com/) by “Pablo Stanley”, licensed under “Free for personal and commercial use” (https://avataaars.com/)</dc:rights></rdf:Description></rdf:RDF></metadata><defs><linearGradient id="skin-color-a83c1a4a" gradientTransform="rotate(-128, 0.5, 0.5)"><stop offset="0%" stop-color="#eaf4d2"/><stop offset="100%" stop-color="#d08b5b"/></linearGradient><g id="clothes-overall-a83c1a4a"><path d="M164 23.94V95.3H36V23.94a72 72 0 0 1 26-8.95v44.28h76V15a72 72 0 0 1 26 8.94" fill="#a7ffc4"/><path d="M54 68.3a5 5 0 1 1-10 0 5 5 0 0 1 10 0m102 0a5 5 0 1 1-10 0 5 5 0 0 1 10 0" fill="#F4F4F4"/></g><g id="mouth-screamOpen-a83c1a4a"><path fill-rule="evenodd" clip-rule="evenodd" d="M26 32.86C27.14 18.88 30.24 7 46 7s18.92 11.94 20 26c.08 1.12-.83 2-1.96 2-6.69 0-9.37-2-18.05-2-8.7 0-13.26 2-17.9 2-1.17 0-2.2-.74-2.1-2.14" fill="black" fill-opacity=".7"/><path d="M59.02 11.57Q58.1 12 57 12H36c-.98 0-1.9-.28-2.67-.77C36.23 8.57 40.28 7 46 7c5.95 0 10.1 1.7 13.02 4.57" fill="white"/><path d="M61.8 34.92a44 44 0 0 1-5.54-.82c-2.73-.53-5.65-1.1-10.27-1.1-5.01 0-8.65.66-11.73 1.23-1.45.26-2.77.5-4.06.65A11 11 0 0 1 46 27.2a11 11 0 0 1 15.8 7.72" fill="#FF4F6D"/></g><g id="nose-default-a83c1a4a"><path fill-rule="evenodd" clip-rule="evenodd" d="M0 0c0 4.42 5.37 8 12 8s12-3.58 12-8" fill="black" fill-opacity=".16"/></g><g id="eyes-surprised-a83c1a4a"><path d="M30 14a14 14 0 1 1-28 0 14 14 0 0 1 28 0m52 0a14 14 0 1 1-28 0 14 14 0 0 1 28 0" fill="white"/><path d="M22 14a6 6 0 1 1-12 0 6 6 0 0 1 12 0m52 0a6 6 0 1 1-12 0 6 6 0 0 1 12 0" fill="black" fill-opacity=".7"/></g><g id="eyebrows-upDown-a83c1a4a"><path d="M7.73 14.16c4.5-6.32 14.01-9.5 23.75-6.36a2 2 0 1 0 1.23-3.81c-11.4-3.7-22.74.1-28.24 7.85a2 2 0 1 0 3.26 2.32m80.78 7c-3.91-5.51-14.64-8.6-23.89-6.33a2 2 0 0 1-.95-3.88c10.73-2.64 23.16.94 28.1 7.9a2 2 0 0 1-3.26 2.3" fill="black" fill-opacity=".6"/></g><g id="top-curvy-a83c1a4a"><path d="M88.4 84.2c-4.88 1.3-9.65 2.78-14.4 4.34-11.13 3.64-6.68-6.1-3-14.04l111.79-9.52c6 7.33 24.8 41 7.1 27-3.1-2.45-9.6-4.45-12.7-7.27-2.37-2.12-5.19-1.78-6.3-4.48l-2.56.9a375 375 0 0 1-11.97-4.12l-.56-.97-1.67.63-9.13-.33c-2.62-.03-13.72.22-16.27.43 0 0-1.23-.93-2.94-2.69l-1.35 3.22s-11.93 1.8-14.09 1.96l-1.06-1.95-2.74 2.97c-3.9.9-13.84 2.83-18.3 4.01" fill="black" fill-opacity=".16"/><path d="M47.6 123.04c-5.7-17.86 2.75-37.13 11.12-47.27 1.48-1.8 3.06-5.1 5.06-9.3 8.34-17.47 23.9-50.05 69.8-50.27 49.93-.24 59.75 36.02 63.66 50.43 1.64 6.08 4.55 11.6 7.38 17.21 4 8 8.4 16.74 9.9 23.05 1.09 4.54 1.7 9.05 1.17 13.7-.12 1.06-1.08 4.22-.48 4.85.54.57 1.88 1.15 3.1 1.67 9 3.9 16.1 10.4 19.8 19.62 4.7 11.72-1 25.47-11.26 32.17-1.4.9-.74 2.7-.76 4.1a74 74 0 0 1-4.33 23.5c-1.42 3.94-3.17 7.92-6.53 10.98-2.85 2.58-6.94 4.42-10.86 5.52-1.35.38-1.33.78-1.41 1.17-1.15 5.76 2.7 13.12 4.6 18.56 1.5 4.29 3 8.59 3.8 13 1.18 6.42-3.02 27.82-14.12 22.8 5.52-2.64 5.76-8.26 3.88-9.84-4.34-3.62-11.76-1.59-16.9-.74-3.7.61-7.63 1.25-11.15.43a31 31 0 0 1-10.6-4.84c-17.65-13.97-13.84-37.04 1.07-64.4l-.55-.03c-1.1.04-1.67 0-3 0h-4v-18.4a56 56 0 0 0 32-50.62V92q0-2.21-.15-4.38a68 68 0 0 0-3.66-1.86c-2.58-1.24-5.24-2.53-6.91-4.05a10 10 0 0 0-3-1.76c-1.4-.6-2.62-1.14-3.28-2.72l-2.55.9a374 374 0 0 1-11.97-4.12l-.55-.97-1.67.63-9.12-.33c-2.63-.03-13.73.22-16.28.43 0 0-1.23-.93-2.94-2.69l-1.33 3.22s-11.92 1.8-14.08 1.96l-1.06-1.95-2.74 2.97c-1.43.33-3.66.8-6.13 1.31-4.3.9-9.34 1.95-12.17 2.7a248 248 0 0 0-11.93 3.53Q76 88.3 76 92v38a56 56 0 0 0 32 50.61V199h-4a72 72 0 0 0-16.4 1.87l-.32.5c-4.78 6.95-13.87 12.39-17.46 19.5-1.47 2.9.19 7.82 1.66 10.55 3.2 5.9 11.15 8.66 19.52 7.33-2.53 2.12-7.55 3.82-10.95 3.94-4.63.17-10.3-1.62-14.26-3.58.6 3.7 2.68 5.72 4.62 8.7-5.52-.28-10.88-7.06-12.68-12.05-2.2 4.51-3.44 16.64-2.35 20.03-14.14-6.34-25.13-19.44-24.3-35.66.54-10.56 7.15-18.9 9.48-28.9.46-1.96.14-2.38-1.05-3.94l-.05-.07c-4.38-5.73-9.62-10.69-12.43-17.48-2.54-6.13-2.63-13.18-.64-19.5 2.2-7.08 9.06-14.16 14.84-20.14a106 106 0 0 0 6.37-6.95" fill="#623c33"/><path d="m163.5 199.2.26-.06s4.44-9.02 11.25-17.38c-1.33-10.43 5.86-23.71 5.86-23.71l-.35-.08A56.3 56.3 0 0 1 156 180.62V199h4c1.32 0 1.88.04 3 .1l.54.04zm-82.23-45.46-.14.06c6.02 9.99 13.63 36.95 6.55 46.66l.25.34A72 72 0 0 1 104 199h4v-18.39a56.2 56.2 0 0 1-26.73-26.87" fill="black" fill-opacity=".24"/><path d="M117.38 50.37c1.51-1.85 2.89-3.83 3.5-6.16.23-.8.47-1.7.89-2.3a92 92 0 0 0-12.3 15.7c.77-1 2.73-2 3.76-2.9a35 35 0 0 0 4.15-4.24m53.12-8.4c-.3 3.5.47 6.93.63 10.4 0-.35.34-.93.65-1.48a7 7 0 0 0 .92-4.42c-.14-1-.55-1.95-1.07-2.85-.2-.36-1.12-1.33-1.12-1.66m-115.1 78.4a89 89 0 0 0 4.46 18c2.06 5.71 4.42 11.45 7.8 16.68 3.17 4.87 6.93 9.42 9.96 14.36-.46-.55-1.22-1.17-1.9-1.73-.5-.4-.94-.76-1.2-1.05-3.23-3.39-5.82-7.19-8.3-11.03-3.24-5.07-5.68-10.58-7.8-16.08-4.13-10.78-8.3-23.85-4.7-35.24-.2.77.5 2.43.6 3.2.63 4.26.49 8.6 1.08 12.87m-1.64-16.17-.02.1zm23.86 65.23c.5.58.35.56 0 0m-9.77-4.4c-2.46-3.53-5.05-7.15-7.09-10.9-1.78-3.26-3.05-6.84-5.3-9.84-.31-.44-.71-.97-.8-1.32.69 6.15 3.46 12.74 7.74 17.3 1.56 1.66 4.1 3.03 5.45 4.76m-4.78 6.28c3.55 3.82 6.94 7.76 9.45 12.18 1.75 3.07 3.22 6.64 3.46 10.21.04.53.08 1.2.2 1.57-2.22-4.29-3.91-8.83-6.55-12.94-2.6-4.05-5.95-7.78-9.44-11.28-3.7-3.7-7.41-7.18-9.4-11.85a25.5 25.5 0 0 1-1.99-12.55c.12 1.24.86 2.82 1.54 4.28 1.47 3.14 2.07 6.6 3.67 9.7 2.13 4.08 5.96 7.24 9.17 10.68m-4.86 2.86c-.5-.5-2.4-1.7-2.75-2.3l-.03-.07.03.06c.7 1.5 1.48 2.92 2.22 4.4 1.53 3.08 3.7 5.71 5.93 8.4l1.08 1.3c-.8-1.02-1.02-3.29-1.53-4.5a21 21 0 0 0-4.94-7.33M48 180.52a84 84 0 0 0 3.73 5.02c1.9 2.43 3.8 4.86 5.26 7.5 2.83 5.2 4.07 10.81 4.32 16.55.12 2.7.12 5.46-.25 8.16-.24 1.77-.54 3.6-1.22 5.25-.25.6-.54 1.32-.63 1.84-.06-2.32-.03-4.64 0-6.95.13-8.2.25-16.3-4.02-23.99-1.58-2.83-3.68-5.4-5.78-7.99a90 90 0 0 1-3.9-5.02c-2.78-3.96-5.5-7.85-7.72-12.08 1.36 1.72 3.8 3.07 5.32 4.77 1.9 2.13 3.35 4.58 4.9 6.9m11.2 44.33c-.1.53 0 .4 0 0M49.54 204l.02-1.5c0 .5.82 1.51 1.04 2.03a14.4 14.4 0 0 1 .09 11.32c-1.9 4.9-4.9 9.25-8.64 13.3.83-1.09 1.35-2.6 1.85-4.06 1.01-2.94 2.6-5.62 3.8-8.49 1.7-4.01 1.74-8.32 1.82-12.6m-8.6 17.2a9.5 9.5 0 0 0 2.24-4.13c.2-.9-.4-2.68 0-3.38a14 14 0 0 0-1.85 3.64c-.19.69.01 3.32-.39 3.87M83.86 64.32a63 63 0 0 0 9.77-11.2 35 35 0 0 0 3.22-5.6c.13-.28.3-.87.48-1.54.3-1.1.65-2.4 1.04-2.97-2.7 2.9-4.84 6-7.03 9.17-1.45 2.12-2.99 4.18-4.34 6.37-.36.58-.68 1.35-1.03 2.14-.59 1.37-1.22 2.83-2.1 3.63m-1.03-8.63c.14-.62.27-1.22.47-1.57.75-1.32 1.9-2.45 3.18-3.41-.4.3-.6 1.2-.8 2-.2.57-.3 1.08-.5 1.36A16 16 0 0 1 82 57.8c.36-.35.56-1.22.74-2.04M82 57.82l.03-.01zm120.78 92.81c.6-3.33 1.24-6.84 2.93-9.84a45 45 0 0 1 2.6-3.98q.73-1.04 1.35-2.12c.66-1.16 1.46-2.56 2.26-3.03-4.16 2.43-7.42 5.54-9.16 9.64a14 14 0 0 0-1.09 6.38c.08 1.57.76 3.24.77 4.77q.13-.92.32-1.85M201 130.48a23 23 0 0 1-1 3.63 25 25 0 0 1-1.77 3.8c-.43.78-1.98 2.35-1.98 3.18-.09-4.9 1.73-9.33 5.17-13.25-.38.65-.28 2.03-.42 2.74m-.8 35.23c2.28-.03 4.82 2.52 6.51 4.22 2.5 2.43 5.2 4.56 7.2 7.3l.1.07v-.07c-.68-.97-.7-2.75-1.23-3.86-.72-1.5-1.82-2.9-3.06-4.13-2.32-2.3-5.77-4.07-9.42-3.55m-.81 10.38c-.17-.05-1.77-.5-2.27-.34.6-.26 1.3-.57 1.94-.65 4.28-.56 9.5 3.15 10.07 6.73-.47-1.23-3.02-2.24-4.17-2.85-1.82-.97-3.56-2.14-5.54-2.87m-2.28-.34-.06.03.04-.02zm4.1 8.15a7.6 7.6 0 0 0-3.8-.13c-.47.13-1.44.42-1.56.39 2.82.67 5.47.99 8.4.92-.44 0-1.16-.34-1.84-.66-.47-.22-.9-.43-1.21-.5m-11.22 13.85q-.2 0 0 0m0 0c4.26-.22 9.25.4 13.3 1.42a22 22 0 0 1 5.7 2.3c1.4.8 3.94 1.93 4.88 3.13-3.75-6.43-11.86-9.78-20.17-8.12-1.06.22-2.67 1.2-3.7 1.29m1.74 12.5c3.22.42 6.54-.07 9.76-.44 1.39-.16 3.04-.87 4.39-.51a24 24 0 0 0-8.4-1.17c-2.93.13-5.9 1.06-8.6 2.03.69-.2 1.82-.06 2.85.07m-13.4 10.4c-.06 2.23-.04 4.52.1 6.74.25 3.97 2.55 7.44 5.93 10.08a32 32 0 0 0 4.33 2.72c2.5 1.39 5 2.76 6.63 5.1a10.5 10.5 0 0 1 .82 10.36 5 5 0 0 0-.51 1.58v-.05c.03-3.87.07-8.36-2.64-11.6-1.6-1.91-3.87-3.11-6.16-4.31a27 27 0 0 1-4.68-2.82c-3.3-2.64-5.8-6.1-6.35-9.98-.45-3.13-.23-8.58 2.98-10.73-.6.44-.48 2.34-.5 2.89m.55-2.93-.07.03zM176 242.75l.08.08zm11.15 12.85c-.2-5.11-3.7-8.96-7.94-11.34-.6-.34-2.6-.93-3.13-1.43 2.96 3.24 6.32 6.2 8.96 9.73.46.6 2.06 2.3 2.1 3.04m.04.03v-.03zm41.04-101.75a12 12 0 0 1 2.67 3.7 12.6 12.6 0 0 1 .6 10c.15-.52-.14-1.47-.37-2.22-.55-1.76-1.07-3.5-1.76-5.22-1.2-2.91-2.15-5.64-4.2-8.2.55.67 2.33 1.3 3.06 1.93m-50.02-105a5.7 5.7 0 0 1-.95 3.75c.1-.2-.12-1.1-.28-1.84-.34-1.46-.14-2.95-.04-4.46 0 .64 1.18 1.77 1.3 2.57m-51.6 1.26a8.5 8.5 0 0 1-3.3 2.78c.59-.33 1.1-2 1.55-2.55.73-.94 1.63-1.84 2.58-2.63-.2.22-.6 2.05-.82 2.4" fill="white" fill-opacity=".6"/></g><clipPath id="clip-a83c1a4a"><rect width="280" height="280" rx="103.6" ry="103.6"/></clipPath></defs><g clip-path="url(#clip-a83c1a4a)"><g transform="translate(50.4, 0)"><path d="M140 36a56 56 0 0 0-56 56v6.17A12 12 0 0 0 74 110v14a12 12 0 0 0 10.3 11.88A56 56 0 0 0 116 180.6V199h-4a72 72 0 0 0-72 72v9h200v-9a72 72 0 0 0-72-72h-4v-18.38a56 56 0 0 0 31.7-44.73A12 12 0 0 0 206 124v-14a12 12 0 0 0-10-11.83V92a56 56 0 0 0-56-56" fill="url(#skin-color-a83c1a4a)"/><path d="M116 180.61v8a56 56 0 0 0 24 5.39 56 56 0 0 0 24-5.39v-8a56 56 0 0 1-24 5.39 56 56 0 0 1-24-5.39" fill="black" fill-opacity=".1"/><use transform="translate(40 184.7)" href="#clothes-overall-a83c1a4a"/><use transform="translate(94 140)" href="#mouth-screamOpen-a83c1a4a"/><use transform="translate(128 130)" href="#nose-default-a83c1a4a"/><use transform="translate(98 98)" href="#eyes-surprised-a83c1a4a"/><use transform="translate(91.86 82)" href="#eyebrows-upDown-a83c1a4a"/><use transform="translate(8)" href="#top-curvy-a83c1a4a"/></g></g></svg>